<svg xmlns="http://www.w3.org/2000/svg" viewBox="0 0 288 288"><defs><style>.cls-1{fill:#ff40ff;}</style></defs><title>Mozilla-Festival_Space-Icons</title><g id="Layer_1" data-name="Layer 1"><path class="cls-1" d="M113.65,220.25a28.64,28.64,0,0,0,15-15.71,2.5,2.5,0,0,0-4.66-1.8,23.66,23.66,0,0,1-21.8,15h-.31A23.49,23.49,0,0,1,88.55,175l.06,0A23.36,23.36,0,0,1,102,170.77c.66,0,1.31,0,2,.08a2.5,2.5,0,1,0,.41-5c-.78-.06-1.57-.1-2.37-.1a28.32,28.32,0,0,0-12.66,3A28.58,28.58,0,0,0,72.83,146.8a28.47,28.47,0,0,0,5.79-48.51,24.83,24.83,0,0,1,48.58,7.27c0,.12,0,.27,0,.42v1.67a2.5,2.5,0,1,0,5,0c0-.34,0-.68,0-1v-1.06a29.88,29.88,0,0,0-17.81-27.3,28.5,28.5,0,1,0-23.56-.2A29.94,29.94,0,0,0,74.27,95.5a28.49,28.49,0,1,0-24.76,51.3,28.54,28.54,0,0,0-16.84,26v42.27a2.5,2.5,0,0,0,5,0V172.8A23.53,23.53,0,0,1,61,149.3h.35a23.53,23.53,0,0,1,23.3,22.41,28.47,28.47,0,0,0,5.73,48.56,28.54,28.54,0,0,0-16.84,26v15.52a2.5,2.5,0,0,0,5,0V246.27a23.53,23.53,0,0,1,23.33-23.5h.31a23.53,23.53,0,0,1,23.37,23.5v15.52a2.5,2.5,0,1,0,5,0V246.27A28.54,28.54,0,0,0,113.65,220.25Zm-34.33-168a23.5,23.5,0,1,1,23.5,23.5A23.53,23.53,0,0,1,79.32,52.22ZM37.67,120.81a23.5,23.5,0,1,1,23.68,23.5H61A23.53,23.53,0,0,1,37.67,120.81Z"/><path class="cls-1" d="M173.58,166.16c5.26-8.08,11.23-17.24,11.44-27.19a21.34,21.34,0,0,0-14.43-20.33c-10.15-3.31-19.9,1.41-26.72,12.7-6.83-11.28-16.58-16-26.72-12.7A21.34,21.34,0,0,0,102.72,139c.21,10,6.18,19.11,11.44,27.19.59.9,1.17,1.79,1.73,2.67,8.11,12.66,17.47,27.42,26,42.44a2.5,2.5,0,0,0,4.35,0c8.12-14.3,16.73-28.58,25.61-42.44C172.41,168,173,167.07,173.58,166.16Zm-5.94,0c-8.14,12.7-16.06,25.76-23.58,38.87-8-13.8-16.5-27.22-24-38.87-.56-.88-1.15-1.78-1.75-2.7-4.9-7.52-10.45-16-10.64-24.57a16.45,16.45,0,0,1,11-15.47,15.43,15.43,0,0,1,4.81-.8c9.72,0,15.77,10.19,18.11,15.09a2.5,2.5,0,0,0,4.51,0C148.83,132,156.47,119.3,169,123.4a16.45,16.45,0,0,1,11,15.47c-.18,8.52-5.73,17-10.63,24.57Z"/><path class="cls-1" d="M238.49,146.8a28.49,28.49,0,1,0-25-51.18,29.93,29.93,0,0,0-16.6-17.56,28.5,28.5,0,1,0-23.56.2,29.88,29.88,0,0,0-17.81,27.3v.54s0,.06,0,1.55a2.5,2.5,0,1,0,5,0v-2.09a24.84,24.84,0,0,1,48.64-7.1,28.47,28.47,0,0,0,6,48.35,28.57,28.57,0,0,0-16.57,22.07,28.32,28.32,0,0,0-12.91-3.1c-.79,0-1.59,0-2.37.1a2.5,2.5,0,1,0,.41,5c.64-.05,1.3-.08,2-.08a23.5,23.5,0,0,1,.17,47h-.31a23.65,23.65,0,0,1-21.8-15,2.5,2.5,0,0,0-4.66,1.8,28.63,28.63,0,0,0,15,15.71,28.54,28.54,0,0,0-16.89,26v15.52a2.5,2.5,0,0,0,5,0V246.27a23.53,23.53,0,0,1,23.37-23.5h.31a23.53,23.53,0,0,1,23.33,23.5v15.52a2.5,2.5,0,0,0,5,0V246.27a28.54,28.54,0,0,0-16.84-26,28.47,28.47,0,0,0,6-48.35,23.53,23.53,0,0,1,23.31-22.62H227a23.53,23.53,0,0,1,23.33,23.5v42.27a2.5,2.5,0,0,0,5,0V172.8A28.54,28.54,0,0,0,238.49,146.8ZM161.41,52.22a23.5,23.5,0,1,1,23.5,23.5A23.53,23.53,0,0,1,161.41,52.22Zm41.92,68.59A23.5,23.5,0,1,1,227,144.3h-.35A23.53,23.53,0,0,1,203.33,120.81Z"/></g></svg>