<svg xmlns="http://www.w3.org/2000/svg" viewBox="0 0 288 288"><defs><style>.cls-1{fill:#00faff;}</style></defs><title>Mozilla-Festival_Space-Icons</title><g id="Layer_1" data-name="Layer 1"><path class="cls-1" d="M144,98.4a2.5,2.5,0,0,0,2.5-2.5V86.64a2.5,2.5,0,0,0-5,0V95.9A2.5,2.5,0,0,0,144,98.4Z"/><path class="cls-1" d="M95.88,142.45h9.26a2.5,2.5,0,0,0,0-5H95.88a2.5,2.5,0,0,0,0,5Z"/><path class="cls-1" d="M180.35,139.95a2.5,2.5,0,0,0,2.5,2.5h9.26a2.5,2.5,0,0,0,0-5h-9.26A2.5,2.5,0,0,0,180.35,139.95Z"/><path class="cls-1" d="M112.83,110a2.5,2.5,0,1,0,3.54-3.54l-6.54-6.54a2.5,2.5,0,1,0-3.54,3.54Z"/><path class="cls-1" d="M173.12,110.74a2.49,2.49,0,0,0,1.77-.73l6.54-6.54a2.5,2.5,0,0,0-3.54-3.54l-6.54,6.54a2.5,2.5,0,0,0,1.77,4.27Z"/><path class="cls-1" d="M112.83,168.39l-6.54,6.54a2.5,2.5,0,1,0,3.54,3.54l6.54-6.54a2.5,2.5,0,1,0-3.54-3.54Z"/><path class="cls-1" d="M171.36,168.39a2.5,2.5,0,0,0,0,3.54l6.54,6.54a2.5,2.5,0,0,0,3.54-3.54l-6.54-6.54A2.5,2.5,0,0,0,171.36,168.39Z"/><path class="cls-1" d="M128.37,162.91V175a2.5,2.5,0,0,0,.06.52,15.89,15.89,0,0,0,31.74,0,2.49,2.49,0,0,0,.07-.57V162.58a29.39,29.39,0,1,0-31.87.33Zm26.87.89v8.67H133.37V164Zm-10.94,21.7a10.93,10.93,0,0,1-10.52-8h21A10.93,10.93,0,0,1,144.3,185.49ZM144,113.69a24.38,24.38,0,0,1,12.85,45.09l-25.36.21A24.38,24.38,0,0,1,144,113.69Z"/><path class="cls-1" d="M199.13,212H88.86a2.5,2.5,0,0,0,0,5H199.13a2.5,2.5,0,0,0,0-5Z"/><path class="cls-1" d="M268.65,24.08a2.51,2.51,0,0,0-2.17-.43,101,101,0,0,0-28.22,13.49c-16,11.05-25.56,25.35-27.94,41.72C200.24,60.25,174.33,47,144,47s-56.28,13.31-66.33,32C75.33,62.53,65.8,48.2,49.75,37.14A101,101,0,0,0,21.52,23.65a2.5,2.5,0,0,0-3.15,2.42V261.93a2.5,2.5,0,0,0,4.15,1.88l49.53-43.64v18.06a2.5,2.5,0,0,0,2.5,2.5H213.43a2.5,2.5,0,0,0,2.5-2.5V220.16l49.54,43.65a2.5,2.5,0,0,0,4.15-1.88V26.07A2.5,2.5,0,0,0,268.65,24.08ZM23.38,256.4V142.54H61a2.5,2.5,0,0,0,0-5H23.38V29.47A99.6,99.6,0,0,1,46.91,41.26C64.41,53.32,73.28,68.74,73.28,87.1c0,2.54,0,5.18,0,7.92,0,.35,0,.7,0,1.05a2.47,2.47,0,0,0,0,.34c-.13,43.46-1.1,107.92-1.24,117.13Zm187.55-20.67H77.06V214.84a2.51,2.51,0,0,0,0-.49c.09-5.66,1.14-74.35,1.26-119.29C79.08,71.2,108.25,52,144,52c35.17,0,64,18.6,65.71,41.9.1,44.81,1.17,114.48,1.26,120.45a2.5,2.5,0,0,0-.06.53Zm5-22.19c-.14-9.2-1.11-73.43-1.24-116.89a2.48,2.48,0,0,0,.08-.58c0-.77,0-1.53-.08-2.28,0-2.3,0-4.53,0-6.69,0-18.31,8.83-33.71,26.25-45.76a99.79,99.79,0,0,1,23.65-11.86V137.54H226.88a2.5,2.5,0,0,0,0,5h37.75V256.4Z"/></g></svg>