<svg xmlns="http://www.w3.org/2000/svg" viewBox="0 0 288 288"><defs><style>.cls-1{fill:#00ff6d;}</style></defs><title>Mozilla-Festival_Space-Icons</title><g id="Layer_1" data-name="Layer 1"><path class="cls-1" d="M71.33,236.58a2.5,2.5,0,1,0,0,5H215.94a2.5,2.5,0,0,0,2.5-2.5V218.61h21.3a2.5,2.5,0,0,0,2.5-2.5V27.2a2.5,2.5,0,0,0-2.5-2.5H73.49A27.69,27.69,0,0,0,45.83,52.36v183.1A25.35,25.35,0,0,0,71,264.17H239.74a2.5,2.5,0,0,0,2.5-2.5V230.25a2.5,2.5,0,0,0-5,0v28.92H71a20.43,20.43,0,0,1-20.41-20.41,20.17,20.17,0,0,1,20.15-20.15H213.44v18Zm165.91-23H76V29.7H237.24ZM50.83,223.45V52.36A22.69,22.69,0,0,1,71,29.84V213.61h-.27A25.12,25.12,0,0,0,50.83,223.45Z"/><path class="cls-1" d="M157.29,177a55.93,55.93,0,1,0-55.93-55.93A56,56,0,0,0,157.29,177Zm-50.87-53.43H128.1c.44,20.15,6.21,37.22,14.74,46.34A51,51,0,0,1,106.42,123.56Zm53.37,48.15V123.56h21.69C180.87,148.31,171.4,169.07,159.79,171.71Zm0-53.15V70.41c11.62,2.64,21.08,23.4,21.69,48.15Zm-5-48.15v48.15H133.1C133.7,93.81,143.17,73.05,154.79,70.41Zm0,53.15v48.15c-11.62-2.64-21.08-23.4-21.69-48.15Zm16.94,46.34c8.53-9.11,14.3-26.18,14.74-46.34h21.69A51,51,0,0,1,171.73,169.9Zm36.43-51.34H186.47c-.44-20.15-6.21-37.22-14.74-46.34A51,51,0,0,1,208.16,118.56ZM142.84,72.23c-8.53,9.11-14.3,26.18-14.74,46.34H106.42A51,51,0,0,1,142.84,72.23Z"/></g></svg>