<svg xmlns="http://www.w3.org/2000/svg" viewBox="0 0 288 288"><defs><style>.cls-1{fill:#f9ee08;}</style></defs><title>Mozilla-Festival_Space-Icons</title><g id="Layer_1" data-name="Layer 1"><path class="cls-1" d="M269.44,72.3A2.5,2.5,0,0,0,267.27,71H180.34a72.76,72.76,0,1,0-122,74.22L18.57,213.39a2.5,2.5,0,0,0,2.16,3.76h96.45A72.78,72.78,0,1,0,233.25,137L269.43,74.8A2.5,2.5,0,0,0,269.44,72.3ZM25.08,212.15,62,149a72.45,72.45,0,0,0,43.74,19.76h.22a2.5,2.5,0,0,0,.21-5,67.73,67.73,0,1,1,69.53-44.06,72.71,72.71,0,0,0-60.14,92.48ZM173.4,125.08A67.57,67.57,0,0,1,124,162.92,67.57,67.57,0,0,1,173.4,125.08Zm55.93,8.73a72.4,72.4,0,0,0-37.71-14.53,2.5,2.5,0,0,0-.42,5,67.42,67.42,0,0,1,37.14,15.12l.11.09a68.36,68.36,0,0,1,6.72,6.36,67.75,67.75,0,1,1-113.4,22.5A72.7,72.7,0,0,0,182,76h81Z"/><path class="cls-1" d="M138.51,104.87a2.5,2.5,0,1,0-5,0,21.59,21.59,0,1,1-43.18,0,2.5,2.5,0,1,0-5,0,26.59,26.59,0,1,0,53.18,0Z"/><circle class="cls-1" cx="88.14" cy="84.66" r="3.52"/><circle class="cls-1" cx="136.01" cy="84.66" r="3.52"/><path class="cls-1" d="M163.61,200.42a2.5,2.5,0,0,0-5,0,26.59,26.59,0,1,0,53.18,0,2.5,2.5,0,0,0-5,0,21.59,21.59,0,1,1-43.18,0Z"/><circle class="cls-1" cx="161.43" cy="180.21" r="3.52"/><circle class="cls-1" cx="209.29" cy="180.21" r="3.52"/></g></svg>