<svg xmlns="http://www.w3.org/2000/svg" viewBox="0 0 288 288"><defs><style>.cls-1{fill:#ff9700;}</style></defs><title>Mozilla-Festival_Space-Icons</title><g id="Layer_1" data-name="Layer 1"><path class="cls-1" d="M191.55,34.39a10.75,10.75,0,1,0-18.15,7.78l-16.25,28.5H67a19,19,0,1,0,0,5H154.2l-8.36,13.85a2.5,2.5,0,0,0,4.28,2.58L160.45,75l.16-.28a2.48,2.48,0,0,0,.36-.64l16.75-29.37a10.74,10.74,0,0,0,13.83-10.3ZM62.21,73.24a14,14,0,1,1-14-14A14,14,0,0,1,62.21,73.24ZM186.55,34.39a5.75,5.75,0,1,1-5.75-5.75A5.76,5.76,0,0,1,186.55,34.39Z"/><path class="cls-1" d="M268,92.44a19,19,0,1,0-19-19A19,19,0,0,0,268,92.44Zm-14-19a14,14,0,1,1,14,14A14,14,0,0,1,254,73.44Z"/><path class="cls-1" d="M213.75,156.57a10.7,10.7,0,0,0-2.85.4l-22-37.76a2.5,2.5,0,0,0-2.16-1.24h-52.1L143,103.68a2.5,2.5,0,1,0-4.31-2.53L128.23,119s0,.08-.05.12a2.45,2.45,0,0,0,.19,2.87l10.34,17.66a2.5,2.5,0,0,0,4.31-2.53L134.7,123h50.61l21.21,36.42a10.75,10.75,0,1,0,14.47,0l33-57a2.5,2.5,0,1,0-4.33-2.51L216.61,157A10.7,10.7,0,0,0,213.75,156.57ZM208,167.32a5.75,5.75,0,0,1,8.44-5.08h0a5.75,5.75,0,1,1-8.48,5.06Z"/><path class="cls-1" d="M96.45,253.61a10.75,10.75,0,1,0,18.15-7.78l16.25-28.5H221a19,19,0,1,0,0-5H133.81l8.36-13.85a2.5,2.5,0,1,0-4.28-2.58L127.55,213l-.16.28a2.48,2.48,0,0,0-.37.65l-16.75,29.37a10.74,10.74,0,0,0-13.83,10.3Zm129.34-38.85a14,14,0,1,1,14,14A14,14,0,0,1,225.79,214.76ZM101.45,253.61a5.75,5.75,0,1,1,5.75,5.75A5.76,5.76,0,0,1,101.45,253.61Z"/><path class="cls-1" d="M1,214.56a19,19,0,1,0,19-19A19,19,0,0,0,1,214.56Zm5,0a14,14,0,1,1,14,14A14,14,0,0,1,6,214.56Z"/><path class="cls-1" d="M74.25,131.43a10.7,10.7,0,0,0,2.85-.4l22,37.76a2.5,2.5,0,0,0,2.16,1.24h52.1L145,184.32a2.5,2.5,0,1,0,4.31,2.53L159.77,169s0-.08.05-.12a2.45,2.45,0,0,0-.18-2.87L149.3,148.31a2.5,2.5,0,0,0-4.31,2.53L153.3,165H102.69L81.48,128.61a10.75,10.75,0,1,0-14.47,0l-33,57a2.5,2.5,0,1,0,4.33,2.51L71.39,131A10.7,10.7,0,0,0,74.25,131.43ZM80,120.68a5.74,5.74,0,0,1-8.44,5.08h0l0,0A5.75,5.75,0,1,1,80,120.68Z"/></g></svg>