<svg viewBox="0 0 288 288" xmlns="http://www.w3.org/2000/svg"><g fill="#8336ff"><path d="m282.15 165.45a298.8 298.8 0 0 0 -30.26-37.45l29-13.9a2.5 2.5 0 1 0 -2.16-4.51l-30.51 14.61q-3-3.1-6.3-6.23a231.1 231.1 0 0 0 -26.65-22.08l31.1-29.53a2.5 2.5 0 0 0 -3.44-3.62l-31.85 30.26a153 153 0 0 0 -29.87-15.64l21.22-37.36a2.5 2.5 0 0 0 -4.35-2.47l-21.65 38.08a100.73 100.73 0 0 0 -30.21-5.4v-43.34a2.5 2.5 0 0 0 -5 0v43.35a101.39 101.39 0 0 0 -29.78 5.58l-21.74-38.28a2.5 2.5 0 0 0 -4.35 2.48l21.33 37.52a153.83 153.83 0 0 0 -29.68 15.69l-32.16-30.5a2.5 2.5 0 0 0 -3.44 3.63l31.34 29.77a231.53 231.53 0 0 0 -26.3 21.84q-3.36 3.22-6.49 6.43l-30.95-14.82a2.5 2.5 0 1 0 -2.16 4.51l29.44 14.1a298.57 298.57 0 0 0 -30.04 37.28 2.5 2.5 0 0 0 -.4 1.36v.19a2.5 2.5 0 0 0 .4 1.36 303.69 303.69 0 0 0 40.2 47.51c41.2 39.48 75.64 47.76 97.28 47.76a2.34 2.34 0 0 1 .93 0c39.2 0 74.54-26 97.28-47.76a303.69 303.69 0 0 0 40.2-47.51 2.5 2.5 0 0 0 .4-1.36v-.18a2.5 2.5 0 0 0 -.38-1.37zm-137.49 93.18a2.34 2.34 0 0 1 -.93 0c-37.51 0-71.68-25.18-93.75-46.3a303.23 303.23 0 0 1 -38.69-45.43 303.23 303.23 0 0 1 38.71-45.42c22.06-21.12 56.23-46.3 93.75-46.3a2.34 2.34 0 0 1 .93 0c37.51 0 71.68 25.18 93.75 46.3a303.33 303.33 0 0 1 38.69 45.42c-7.64 11.16-65.02 91.73-132.46 91.73z"/><path d="m122.45 202.61a2.5 2.5 0 0 0 2 1h38.62a2.5 2.5 0 0 0 2.39-3.23l-10-32.55a19.26 19.26 0 1 0 -23.8-.24l-9.65 32.82a2.5 2.5 0 0 0 .44 2.2zm14.55-35.3a2.5 2.5 0 0 0 -1-2.8 14.27 14.27 0 1 1 15.29.18 2.5 2.5 0 0 0 -1.07 2.86l9.5 31.07h-31.9z"/><path d="m183.18 112.51a2.5 2.5 0 1 0 -2.94 4 63.13 63.13 0 0 1 -37.08 114.23 62.64 62.64 0 0 1 -26.07-5.62 2.5 2.5 0 0 0 -2.07 4.55 68.16 68.16 0 0 0 96.27-62.06 68.39 68.39 0 0 0 -28.11-55.1z"/><path d="m105.72 218.49a63.13 63.13 0 0 1 37.44-114 62.63 62.63 0 0 1 25.69 5.51 2.5 2.5 0 1 0 2-4.57 68.16 68.16 0 0 0 -95.85 62.23 68.45 68.45 0 0 0 27.72 54.85 2.5 2.5 0 1 0 3-4z"/></g></svg>