<?xml version="1.0" encoding="utf-8"?>
<!-- Generator: Adobe Illustrator 20.1.0, SVG Export Plug-In . SVG Version: 6.00 Build 0)  -->
<svg version="1.1" xmlns="http://www.w3.org/2000/svg" xmlns:xlink="http://www.w3.org/1999/xlink" x="0px" y="0px"
	 viewBox="0 0 288 288" style="enable-background:new 0 0 288 288;" xml:space="preserve">
<style type="text/css">
	.st0{opacity:0.5;fill:none;stroke:#D0ECF0;stroke-width:0.5756;stroke-linecap:round;stroke-linejoin:round;stroke-miterlimit:10;}
	.st1{opacity:0.5;}
	.st2{fill:none;stroke:#D0ECF0;stroke-width:0.4688;stroke-linecap:round;stroke-linejoin:round;stroke-miterlimit:10;}
	.st3{fill:none;stroke:#FFFFFF;stroke-width:5;stroke-linecap:round;stroke-linejoin:round;stroke-miterlimit:10;}
	.st4{fill:none;stroke:#FFFFFF;stroke-width:5;stroke-miterlimit:10;}
	.st5{fill:none;stroke:#FFFFFF;stroke-width:5;stroke-linecap:round;stroke-miterlimit:10;}
	.st6{fill:#FFFFFF;}
	.st7{fill:#231F20;}
	.st8{fill:#362FC1;}
	.st9{fill:none;stroke:#FFFFFF;stroke-linecap:round;stroke-linejoin:round;stroke-miterlimit:10;}
	.st10{fill:none;stroke:#FFFFFF;stroke-miterlimit:10;}
	.st11{fill:none;stroke:#FFFFFF;stroke-linecap:round;stroke-miterlimit:10;}
	.st12{fill:#FFFFFF;stroke:#FFFFFF;stroke-miterlimit:10;}
</style>
<g id="Grid">
</g>
<g id="Layer_1">
	<g>
		<path class="st8" d="M168.2,58.2c-1.1-0.8-2.7-0.6-3.5,0.5c-0.8,1.1-0.6,2.7,0.5,3.5c13.1,9.8,20.6,24.7,20.6,41
			c0,28.2-22.9,51.1-51.1,51.1c-7,0-13.7-1.4-20.1-4.1c-1.3-0.5-2.7,0-3.3,1.3c-0.5,1.3,0,2.7,1.3,3.3c7,3,14.4,4.5,22,4.5
			c31,0,56.1-25.2,56.1-56.1C190.9,85.6,182.4,68.8,168.2,58.2z"/>
		<path class="st8" d="M104.2,144.3c-13.1-9.8-20.6-24.7-20.6-41c0-28.2,22.9-51.1,51.1-51.1c6.9,0,13.7,1.4,20,4.1
			c1.3,0.5,2.7-0.1,3.3-1.3c0.5-1.3-0.1-2.7-1.3-3.3c-7-3-14.3-4.5-22-4.5c-31,0-56.1,25.2-56.1,56.1c0,17.7,8.5,34.5,22.6,45.1
			c0.4,0.3,1,0.5,1.5,0.5c0.8,0,1.5-0.3,2-1C105.6,146.7,105.3,145.1,104.2,144.3z"/>
		<path class="st8" d="M233.8,241l-46-78.8c15.8-14.7,25.7-35.7,25.7-58.9c0-44.5-36.2-80.7-80.7-80.7S52,58.8,52,103.3
			c0,44.5,36.2,80.7,80.7,80.7c9.7,0,18.9-1.7,27.5-4.8l45.7,78.3c3,5.1,8.4,8,13.9,8c2.8,0,5.5-0.7,8.1-2.2
			C235.7,258.7,238.3,248.8,233.8,241z M57,103.3c0-41.7,34-75.7,75.7-75.7s75.7,34,75.7,75.7c0,41.8-34,75.7-75.7,75.7
			S57,145,57,103.3z M225.4,258.9c-5.3,3.1-12.1,1.3-15.2-4l-45.3-77.7c6.9-3,13.3-7,19.1-11.7l45.5,78
			C232.6,248.9,230.8,255.8,225.4,258.9z"/>
		<path class="st8" d="M117.4,90.5c-0.9-1.1-2.5-1.2-3.5-0.3l-13.3,11.3c-0.6,0.5-0.9,1.2-0.9,1.9s0.3,1.4,0.9,1.9l14,11.8
			c0.5,0.4,1,0.6,1.6,0.6c0.7,0,1.4-0.3,1.9-0.9c0.9-1.1,0.8-2.6-0.3-3.5l-11.7-9.9l11.1-9.4C118.1,93.2,118.3,91.6,117.4,90.5z"/>
		<path class="st8" d="M151.4,116.9c0.5,0.6,1.2,0.9,1.9,0.9c0.6,0,1.1-0.2,1.6-0.6l14-11.8c0.6-0.5,0.9-1.2,0.9-1.9
			s-0.3-1.4-0.9-1.9l-13.3-11.3c-1.1-0.9-2.6-0.8-3.5,0.3c-0.9,1.1-0.8,2.6,0.3,3.5l11.1,9.4l-11.7,9.9
			C150.7,114.2,150.5,115.8,151.4,116.9z"/>
		<path class="st8" d="M139.1,90.6L126,113.5c-0.7,1.2-0.3,2.7,0.9,3.4c0.4,0.2,0.8,0.3,1.2,0.3c0.9,0,1.7-0.5,2.2-1.3L143.5,93
			c0.7-1.2,0.3-2.7-0.9-3.4C141.4,88.9,139.8,89.4,139.1,90.6z"/>
	</g>
</g>
</svg>
