<?xml version="1.0" encoding="utf-8"?>
<!-- Generator: Adobe Illustrator 19.1.0, SVG Export Plug-In . SVG Version: 6.00 Build 0)  -->
<svg version="1.1" id="Layer_1" xmlns="http://www.w3.org/2000/svg" xmlns:xlink="http://www.w3.org/1999/xlink" x="0px" y="0px"
	 viewBox="0 0 300 300" style="enable-background:new 0 0 300 300;" xml:space="preserve">
<style type="text/css">
	.st0{fill:#DA4060;}
	.st1{fill:none;}
	.st2{fill:#89D0E3;}
	.st3{fill:#89D0E2;}
</style>
<g>
	<path class="st2" d="M223,70.7h-33V39c0-7.2-5.9-13.1-13.1-13.1c-1.6,0-3.1,0.3-4.6,0.8L52.3,71c0,0,0,0-0.1,0
		c-0.5,0.2-1,0.5-1.4,0.8c-0.1,0.1-0.1,0.1-0.2,0.2c-0.4,0.3-0.7,0.7-1,1.2c0,0.1-0.1,0.2-0.1,0.2c-0.2,0.5-0.4,1-0.5,1.5
		c0,0.1,0,0.1,0,0.2c0,0.3-0.1,0.5-0.1,0.8v190.9c0,2.9,2.4,5.3,5.3,5.3H223c9.2,0,16.8-7.5,16.8-16.8V87.5
		C239.7,78.2,232.2,70.7,223,70.7z M175.9,36.6c1.5-0.6,3.4,0.4,3.4,2.4v31.7H83.7L175.9,36.6z M229.2,255.4c0,3.4-2.8,6.2-6.2,6.2
		H59.4V81.3H223c3.4,0,6.2,2.8,6.2,6.2V255.4z"/>
	<path class="st3" d="M223,274H54.2c-3.9,0-7.2-3.2-7.2-7.2V76c0-0.3,0-0.7,0.1-1c0.2-1,0.4-1.7,0.8-2.4l0.2-0.3
		c0.4-0.6,0.8-1.1,1.3-1.6l0.3-0.3c0.5-0.4,1.1-0.8,1.6-1l0.3-0.1l120-44.4c1.7-0.6,3.4-0.9,5.2-0.9c8.3,0,15,6.7,15,15v29.8H223
		c10.3,0,18.6,8.4,18.6,18.6v167.9C241.6,265.6,233.2,274,223,274z M53.2,72.7L53,72.8c-0.4,0.1-0.7,0.3-1,0.6
		c-0.4,0.4-0.6,0.6-0.8,0.9c-0.3,0.5-0.4,0.8-0.4,1.1c0,0.3-0.1,0.5-0.1,0.6v190.9c0,1.9,1.5,3.4,3.4,3.4H223
		c8.2,0,14.9-6.7,14.9-14.9V87.5c0-8.2-6.7-14.9-14.9-14.9h-34.9V39c0-6.2-5-11.2-11.2-11.2c-1.3,0-2.6,0.2-3.9,0.7L53.2,72.7z
		 M223,263.4H57.6v-184H223c4.5,0,8.1,3.6,8.1,8.1v167.9C231,259.8,227.4,263.4,223,263.4z M61.3,259.7H223c2.4,0,4.3-1.9,4.3-4.3
		V87.5c0-2.4-1.9-4.3-4.3-4.3H61.3V259.7z M181.2,72.6h-108l102.1-37.7c1.4-0.5,2.9-0.3,4.1,0.5c1.2,0.8,1.9,2.1,1.9,3.6V72.6z
		 M94.1,68.8h83.4V39c0-0.3-0.1-0.4-0.3-0.5c-0.2-0.1-0.5-0.2-0.7-0.1l0,0L94.1,68.8z"/>
</g>
<g>
	<path class="st0" d="M206.5,151.1h-44.5c-4.8-3.9-10.9-6.2-17.6-6.2s-12.8,2.3-17.6,6.2H82.2c-2.5,0-4.6,2.1-4.6,4.6v2.2
		c0,10.4,7.7,19,17.7,20.4c1.9,9.4,10.2,16.6,20.2,16.6h11.2c4.8,3.9,10.9,6.2,17.6,6.2s12.8-2.3,17.6-6.2h11.2
		c9.9,0,18.2-7,20.2-16.6c10-1.4,17.7-10,17.7-20.4v-2.1C211,153.1,209,151.1,206.5,151.1z M87,160.2h32.2c-0.1,0.2-0.1,0.4-0.2,0.5
		c-0.3,0.7-0.6,1.4-0.9,2.1c-0.1,0.3-0.2,0.5-0.3,0.8c-0.3,0.7-0.5,1.5-0.7,2.2c-0.1,0.3-0.1,0.5-0.2,0.8c-0.2,0.8-0.3,1.6-0.4,2.4
		c0,0.1,0,0.1,0,0.2h-17h-1.2C92.7,169.3,88.1,165.4,87,160.2z M115.5,185.6c-4.8,0-8.8-2.9-10.6-7.2h11.8c0.1,0.3,0.1,0.5,0.2,0.7
		c0.1,0.3,0.1,0.5,0.2,0.8c0.2,0.7,0.4,1.5,0.7,2.2c0.1,0.3,0.2,0.5,0.3,0.8c0.3,0.7,0.6,1.4,0.9,2.1c0.1,0.2,0.1,0.4,0.2,0.5
		L115.5,185.6z M131.2,186.5c-0.2-0.2-0.4-0.4-0.6-0.6c-0.2-0.2-0.4-0.5-0.7-0.7c-0.2-0.3-0.4-0.5-0.6-0.8c-0.2-0.2-0.3-0.4-0.5-0.7
		c-0.2-0.3-0.5-0.7-0.7-1c-0.1-0.2-0.2-0.3-0.3-0.5c-0.3-0.5-0.5-0.9-0.7-1.4c0-0.1-0.1-0.2-0.1-0.3c-1-2.4-1.6-4.9-1.6-7.6
		c0-2.6,0.6-5.2,1.6-7.6c0-0.1,0.1-0.1,0.1-0.2c0.2-0.5,0.5-1,0.7-1.5c0.1-0.2,0.2-0.3,0.3-0.5c0.2-0.4,0.4-0.7,0.7-1.1
		c0.2-0.2,0.3-0.4,0.5-0.6c0.2-0.3,0.4-0.6,0.6-0.8c0.2-0.2,0.4-0.5,0.6-0.7c0.2-0.2,0.4-0.4,0.6-0.7c3.4-3.3,8-5.3,13.1-5.3
		c5.1,0,9.7,2,13.1,5.3c0.2,0.2,0.5,0.5,0.7,0.7c0.2,0.2,0.4,0.4,0.6,0.7c0.2,0.3,0.4,0.6,0.7,0.8c0.2,0.2,0.3,0.4,0.5,0.6
		c0.2,0.4,0.5,0.7,0.7,1.1c0.1,0.2,0.2,0.3,0.3,0.5c0.3,0.5,0.5,1,0.7,1.4c0,0.1,0.1,0.1,0.1,0.2c1,2.4,1.6,4.9,1.6,7.6
		c0,0.2,0,0.4,0,0.7c0,0.1,0,0.2,0,0.3c0,0,0,0.1,0,0.1c-0.1,2.3-0.6,4.5-1.5,6.6c0,0.1-0.1,0.2-0.1,0.3c-0.2,0.5-0.4,0.9-0.7,1.4
		c-0.1,0.2-0.2,0.3-0.3,0.5c-0.2,0.4-0.4,0.7-0.7,1.1c-0.2,0.2-0.3,0.4-0.5,0.7c-0.2,0.3-0.4,0.5-0.6,0.8c-0.2,0.2-0.4,0.5-0.6,0.7
		c-0.2,0.2-0.4,0.5-0.7,0.7c-3.4,3.3-8,5.3-13.1,5.3C139.2,191.9,134.6,189.8,131.2,186.5z M173.1,185.6h-3.8
		c0.1-0.2,0.2-0.4,0.2-0.5c0.3-0.7,0.6-1.4,0.9-2.1c0.1-0.3,0.2-0.5,0.3-0.8c0.3-0.7,0.5-1.5,0.7-2.2c0.1-0.3,0.1-0.5,0.2-0.8
		c0.1-0.3,0.1-0.5,0.2-0.7h11.9C182,182.7,177.9,185.6,173.1,185.6z M190.4,169.3h-1.2h-17c0-0.1,0-0.2,0-0.2
		c-0.1-0.8-0.2-1.6-0.4-2.3c-0.1-0.3-0.1-0.5-0.2-0.8c-0.2-0.7-0.4-1.5-0.7-2.2c-0.1-0.3-0.2-0.5-0.3-0.8c-0.3-0.7-0.6-1.4-0.9-2.1
		c-0.1-0.2-0.1-0.4-0.2-0.5h32.2C200.5,165.4,195.9,169.3,190.4,169.3z"/>
	<path class="st0" d="M144.3,201.5c-6.4,0-12.7-2.2-17.8-6.2h-11c-9.9,0-18.5-7-20.6-16.6c-10.1-1.6-17.8-10.5-17.8-20.8v-2.2
		c0-2.8,2.3-5.1,5.1-5.1h44.4c5-4,11.3-6.2,17.8-6.2c6.5,0,12.7,2.2,17.8,6.2h44.4c2.8,0,5.1,2.3,5.1,5.1v2.1
		c0,10.3-7.6,19.2-17.8,20.8c-2.1,9.7-10.7,16.6-20.6,16.6h-11.1C157,199.4,150.8,201.5,144.3,201.5z M82.2,151.5
		c-2.3,0-4.1,1.8-4.1,4.1v2.2c0,10,7.4,18.5,17.3,20l0.3,0l0.1,0.3c1.9,9.4,10.2,16.2,19.8,16.2h11.4l0.1,0.1
		c4.9,3.9,11,6.1,17.3,6.1c6.4,0,12.3-2.1,17.3-6.1l0.1-0.1h11.4c9.5,0,17.8-6.8,19.7-16.2l0.1-0.3l0.3,0c9.9-1.4,17.3-10,17.3-20
		v-2.1c0-2.3-1.9-4.1-4.1-4.1h-44.7l-0.1-0.1c-5-4-11-6.1-17.3-6.1c-6.3,0-12.4,2.2-17.3,6.1l-0.1,0.1H82.2z M144.3,192.3
		c-5,0-9.8-1.9-13.5-5.5l0,0c-0.2-0.2-0.4-0.4-0.6-0.6c-0.2-0.2-0.5-0.5-0.7-0.7c-0.2-0.3-0.4-0.5-0.6-0.8l-0.1-0.1
		c-0.1-0.2-0.3-0.4-0.4-0.6c-0.2-0.4-0.5-0.7-0.7-1.1l-0.1-0.2c-0.1-0.1-0.1-0.2-0.2-0.3c-0.3-0.5-0.5-1-0.7-1.5l-0.1-0.3
		c-1.1-2.5-1.6-5.1-1.6-7.7c0-2.7,0.5-5.3,1.6-7.7l0.1-0.1c0.3-0.6,0.5-1.1,0.8-1.6c0.1-0.1,0.1-0.2,0.2-0.3l0.1-0.1
		c0.2-0.4,0.5-0.7,0.7-1.1c0.1-0.2,0.3-0.4,0.4-0.6l0.1-0.2c0.2-0.3,0.4-0.5,0.6-0.7c0.2-0.2,0.4-0.4,0.5-0.6l0.1-0.1
		c0.3-0.3,0.5-0.5,0.7-0.7c3.6-3.5,8.4-5.4,13.4-5.4c5,0,9.8,1.9,13.4,5.4c0.2,0.2,0.5,0.5,0.7,0.7c0.2,0.2,0.4,0.4,0.6,0.7
		c0.2,0.3,0.5,0.6,0.7,0.9l0.2,0.2c0.1,0.1,0.2,0.3,0.3,0.4c0.3,0.4,0.5,0.7,0.7,1.1l0.1,0.1c0.1,0.1,0.1,0.2,0.2,0.4
		c0.3,0.5,0.5,1,0.7,1.5l0.1,0.2c1.1,2.5,1.6,5.1,1.6,7.8c0,0.2,0,0.3,0,0.5l0,0.2c0,0,0,0.1,0,0.2l0,0l0,0.1
		c-0.1,2.4-0.7,4.6-1.6,6.7l-0.1,0.2c-0.3,0.6-0.5,1.1-0.8,1.5c-0.1,0.1-0.1,0.2-0.2,0.4l-0.1,0.2c-0.2,0.4-0.4,0.7-0.7,1.1
		c-0.1,0.2-0.3,0.4-0.4,0.5l-0.1,0.1c-0.2,0.3-0.4,0.6-0.6,0.8c-0.2,0.2-0.4,0.5-0.6,0.7c-0.2,0.2-0.4,0.5-0.7,0.7
		C154.1,190.4,149.3,192.3,144.3,192.3z M131.5,186.2c3.5,3.4,8,5.2,12.8,5.2c4.8,0,9.3-1.8,12.8-5.2c0.2-0.2,0.4-0.4,0.6-0.7
		c0.2-0.2,0.4-0.4,0.6-0.7c0.2-0.2,0.4-0.5,0.6-0.8l0.1-0.2c0.1-0.2,0.3-0.3,0.4-0.5c0.2-0.3,0.4-0.7,0.6-1l0.1-0.2
		c0.1-0.1,0.1-0.2,0.2-0.3c0.3-0.4,0.5-0.9,0.7-1.4l0.1-0.3c0.9-2,1.4-4.1,1.5-6.4c0-0.1,0-0.2,0-0.3l0-0.3c0-0.1,0-0.3,0-0.4
		c0-2.5-0.5-5-1.5-7.4l-0.1-0.2c-0.2-0.5-0.5-1-0.7-1.4c-0.1-0.1-0.1-0.2-0.2-0.3l-0.1-0.1c-0.2-0.4-0.4-0.7-0.7-1.1
		c-0.1-0.1-0.2-0.3-0.3-0.4l-0.2-0.2c-0.2-0.3-0.4-0.6-0.6-0.8c-0.2-0.2-0.4-0.4-0.6-0.6c-0.2-0.2-0.4-0.5-0.7-0.7
		c-3.5-3.3-8-5.2-12.8-5.2c-4.8,0-9.3,1.8-12.8,5.2c-0.2,0.2-0.4,0.4-0.6,0.6l-0.2,0.2c-0.2,0.2-0.3,0.4-0.5,0.6
		c-0.2,0.2-0.4,0.5-0.6,0.7l-0.1,0.1c-0.2,0.2-0.3,0.4-0.5,0.6c-0.2,0.3-0.5,0.7-0.7,1.1l-0.1,0.2c-0.1,0.1-0.1,0.2-0.2,0.3
		c-0.3,0.5-0.5,0.9-0.7,1.4l-0.1,0.1c-1.1,2.4-1.6,4.9-1.6,7.5c0,2.5,0.5,5,1.5,7.4l0.1,0.2c0.2,0.5,0.4,0.9,0.7,1.4
		c0.1,0.1,0.1,0.2,0.2,0.3l0.1,0.2c0.2,0.3,0.4,0.7,0.6,1c0.1,0.2,0.3,0.3,0.4,0.5l0.1,0.1c0.2,0.3,0.4,0.5,0.6,0.8
		c0.2,0.2,0.4,0.5,0.6,0.7C131.1,185.8,131.3,186,131.5,186.2L131.5,186.2z M173.1,186.1h-4.5l0.3-0.7c0-0.1,0.1-0.2,0.1-0.3
		c0-0.1,0.1-0.2,0.1-0.3c0.3-0.7,0.6-1.4,0.9-2c0.1-0.3,0.2-0.5,0.3-0.8c0.2-0.7,0.4-1.4,0.7-2.2l0.1-0.2c0.1-0.2,0.1-0.4,0.2-0.6
		l0.1-0.3c0-0.2,0.1-0.3,0.1-0.5l0.1-0.4h13l-0.3,0.6C182.3,183.2,178,186.1,173.1,186.1z M170.1,185.2h3c4.3,0,8.1-2.4,9.9-6.3
		h-10.8c0,0,0,0.1,0,0.1l-0.1,0.2c0,0.2-0.1,0.4-0.2,0.6l-0.1,0.2c-0.2,0.8-0.4,1.5-0.7,2.2c-0.1,0.3-0.2,0.6-0.3,0.8
		C170.7,183.8,170.4,184.5,170.1,185.2z M120,186.1h-4.5c-4.8,0-9.2-2.9-11-7.5l-0.3-0.6h12.9l0.1,0.4c0,0.1,0.1,0.3,0.1,0.4
		l0.1,0.3c0,0.2,0.1,0.4,0.1,0.6l0.1,0.2c0.2,0.8,0.4,1.5,0.7,2.2c0.1,0.3,0.2,0.5,0.3,0.8c0.3,0.7,0.5,1.3,0.9,2
		c0,0.1,0.1,0.2,0.1,0.3c0,0.1,0.1,0.2,0.1,0.2L120,186.1z M105.6,178.9c1.8,3.8,5.6,6.3,9.9,6.3h3c-0.3-0.7-0.6-1.3-0.9-2
		c-0.1-0.3-0.2-0.6-0.3-0.8c-0.2-0.7-0.5-1.4-0.7-2.2l-0.1-0.2c-0.1-0.2-0.1-0.4-0.2-0.6l-0.1-0.3c0,0,0,0,0-0.1H105.6z
		 M116.5,169.7H98.2c-5.6,0-10.5-4-11.7-9.4l-0.1-0.6H120l-0.3,0.7c0,0.1-0.1,0.2-0.1,0.3c0,0.1-0.1,0.2-0.1,0.2
		c-0.3,0.7-0.6,1.4-0.9,2.1c-0.1,0.3-0.2,0.5-0.3,0.8c-0.2,0.7-0.5,1.4-0.7,2.2l-0.1,0.2c0,0.2-0.1,0.4-0.1,0.5
		c-0.2,0.7-0.3,1.4-0.4,2.3l-0.1,0.5L116.5,169.7z M87.6,160.7c1.3,4.7,5.7,8.1,10.6,8.1h17.9c0.1-0.9,0.3-1.6,0.4-2.2
		c0-0.2,0.1-0.4,0.1-0.6l0.1-0.2c0.2-0.8,0.4-1.5,0.7-2.3c0.1-0.3,0.2-0.5,0.3-0.8c0.3-0.7,0.5-1.3,0.9-2H87.6z M190.4,169.7h-18.7
		l0-0.4c0-0.1,0-0.2,0-0.2c-0.1-0.8-0.3-1.6-0.4-2.3c0-0.2-0.1-0.4-0.1-0.5L171,166c-0.2-0.7-0.4-1.5-0.7-2.2
		c-0.1-0.3-0.2-0.5-0.3-0.8c-0.3-0.7-0.6-1.4-0.9-2.1c0-0.1-0.1-0.2-0.1-0.3c0-0.1-0.1-0.2-0.1-0.3l-0.3-0.7h33.6l-0.1,0.6
		C200.9,165.8,196,169.7,190.4,169.7z M172.5,168.8h17.9c4.9,0,9.3-3.4,10.6-8.1h-30.9c0.3,0.6,0.6,1.3,0.9,2
		c0.1,0.3,0.2,0.6,0.3,0.8c0.2,0.7,0.5,1.5,0.7,2.2l0.1,0.3c0.1,0.2,0.1,0.4,0.1,0.6C172.3,167.3,172.4,168,172.5,168.8z"/>
</g>
</svg>
