<?xml version="1.0" encoding="utf-8"?>
<!-- Generator: Adobe Illustrator 20.1.0, SVG Export Plug-In . SVG Version: 6.00 Build 0)  -->
<svg version="1.1" xmlns="http://www.w3.org/2000/svg" xmlns:xlink="http://www.w3.org/1999/xlink" x="0px" y="0px"
	 viewBox="0 0 288 288" style="enable-background:new 0 0 288 288;" xml:space="preserve">
<style type="text/css">
	.st0{opacity:0.5;fill:none;stroke:#D0ECF0;stroke-width:0.5756;stroke-linecap:round;stroke-linejoin:round;stroke-miterlimit:10;}
	.st1{opacity:0.5;}
	.st2{fill:none;stroke:#D0ECF0;stroke-width:0.4688;stroke-linecap:round;stroke-linejoin:round;stroke-miterlimit:10;}
	.st3{fill:none;stroke:#FFFFFF;stroke-width:5;stroke-linecap:round;stroke-linejoin:round;stroke-miterlimit:10;}
	.st4{fill:none;stroke:#FFFFFF;stroke-width:5;stroke-miterlimit:10;}
	.st5{fill:none;stroke:#FFFFFF;stroke-width:5;stroke-linecap:round;stroke-miterlimit:10;}
	.st6{fill:#FFFFFF;}
	.st7{fill:#231F20;}
	.st8{fill:#362FC1;}
	.st9{fill:none;stroke:#FFFFFF;stroke-linecap:round;stroke-linejoin:round;stroke-miterlimit:10;}
	.st10{fill:none;stroke:#FFFFFF;stroke-miterlimit:10;}
	.st11{fill:none;stroke:#FFFFFF;stroke-linecap:round;stroke-miterlimit:10;}
	.st12{fill:#FFFFFF;stroke:#FFFFFF;stroke-miterlimit:10;}
</style>
<g id="Grid">
</g>
<g id="Layer_1">
	<g>
		<path class="st8" d="M98.1,166.2v-57.2c0-1.4-1.1-2.5-2.5-2.5H49.4c-1.4,0-2.5,1.1-2.5,2.5v45.6c-2.9-2.7-6.7-4.4-10.9-4.4
			c-8.8,0-15.9,7.1-15.9,15.9s7.1,15.9,15.9,15.9s15.9-7.1,15.9-15.9V135h41.1v19.7c-2.9-2.7-6.7-4.4-10.9-4.4
			c-8.8,0-15.9,7.1-15.9,15.9s7.1,15.9,15.9,15.9S98.1,175,98.1,166.2z M36,177.1c-6,0-10.9-4.9-10.9-10.9S30,155.3,36,155.3
			s10.9,4.9,10.9,10.9S42,177.1,36,177.1z M51.9,130v-18.4h41.1V130H51.9z M71.2,166.2c0-6,4.9-10.9,10.9-10.9s10.9,4.9,10.9,10.9
			s-4.9,10.9-10.9,10.9S71.2,172.2,71.2,166.2z"/>
		<path class="st8" d="M266.3,133.6c-1-0.4-2.1-0.1-2.8,0.7l-15,16.9v-15.3c0-1.4-1.1-2.5-2.5-2.5h-1.9c2.7-2.9,4.4-6.7,4.4-10.9
			c0-8.8-7.1-15.9-15.9-15.9c-5.6,0-10.6,3-13.4,7.4c-2.8-4.4-7.8-7.4-13.4-7.4c-8.8,0-15.9,7.1-15.9,15.9c0,4.2,1.7,8.1,4.4,10.9
			h-1.9c-1.4,0-2.5,1.1-2.5,2.5v43.7c0,1.4,1.1,2.5,2.5,2.5h53.6c1.4,0,2.5-1.1,2.5-2.5v-15.3l15,16.9c0.5,0.5,1.2,0.8,1.9,0.8
			c0.3,0,0.6-0.1,0.9-0.2c1-0.4,1.6-1.3,1.6-2.3v-43.7C267.9,134.9,267.3,133.9,266.3,133.6z M243.6,157.8v19.4h-48.6v-38.7h48.6
			V157.8C243.6,157.8,243.6,157.8,243.6,157.8z M217.4,133.4c0.7-0.7,1.3-1.5,1.9-2.4c0.5,0.9,1.2,1.7,1.9,2.4H217.4z M232.7,111.6
			c6,0,10.9,4.9,10.9,10.9s-4.9,10.9-10.9,10.9s-10.9-4.9-10.9-10.9S226.7,111.6,232.7,111.6z M194.9,122.5c0-6,4.9-10.9,10.9-10.9
			s10.9,4.9,10.9,10.9s-4.9,10.9-10.9,10.9S194.9,128.5,194.9,122.5z M262.9,173l-13.5-15.3l13.5-15.3V173z"/>
		<path class="st8" d="M145.5,194c-0.2-0.6-0.6-1.1-1.1-1.4c-0.4-0.2-0.9-0.3-1.3-0.3c-0.4,0-0.9,0.1-1.3,0.3
			c-0.6,0.3-0.9,0.8-1.1,1.4L102,260.4c-0.5,0.9-0.4,2.1,0.3,2.9c0.7,0.8,1.8,1.1,2.8,0.7l38-14.2l38,14.2c0.3,0.1,0.6,0.2,0.9,0.2
			c0.7,0,1.4-0.3,1.9-0.9c0.7-0.8,0.8-2,0.3-2.9L145.5,194z M143.9,244.8c-0.3-0.1-0.6-0.2-0.9-0.2s-0.6,0.1-0.9,0.2l-32.3,12.1
			l33.2-57.1l33.2,57.1L143.9,244.8z"/>
		<path class="st8" d="M154.5,158.9c-0.7-1.2-2.2-1.6-3.4-0.9c-1.2,0.7-1.6,2.2-0.9,3.4l59.1,101.7c0.5,0.8,1.3,1.2,2.2,1.2
			c0.4,0,0.9-0.1,1.3-0.3c1.2-0.7,1.6-2.2,0.9-3.4L154.5,158.9z"/>
		<path class="st8" d="M131.8,129.9c0.5,0.8,1.3,1.2,2.2,1.2c0.4,0,0.9-0.1,1.3-0.3c1.2-0.7,1.6-2.2,0.9-3.4L76.9,25.6
			c-0.7-1.2-2.2-1.6-3.4-0.9c-1.2,0.7-1.6,2.2-0.9,3.4L131.8,129.9z"/>
		<path class="st8" d="M212.7,24.7c-1.2-0.7-2.7-0.3-3.4,0.9l-136.6,235c-0.7,1.2-0.3,2.7,0.9,3.4c0.4,0.2,0.8,0.3,1.3,0.3
			c0.9,0,1.7-0.4,2.2-1.2l136.6-235C214.3,26.9,213.9,25.4,212.7,24.7z"/>
		<path class="st8" d="M140.7,94.6c0.3,0.8,0.9,1.4,1.7,1.7c0.2,0.1,0.4,0.1,0.7,0.1c0,0,0,0,0.1,0c0.4,0,0.9-0.1,1.3-0.3
			c0.6-0.3,0.9-0.8,1.1-1.4l20.6-35.4c0.3-0.6,0.4-1.3,0.3-1.9l-5.5-20V26.2c0-1.4-1.1-2.5-2.5-2.5h-30.7c-1.4,0-2.5,1.1-2.5,2.5
			v11.2l-5.5,20c-0.2,0.6-0.1,1.3,0.3,1.9L140.7,94.6z M130.3,28.7h25.7v6.5h-25.7V28.7z M129.7,40.1h26.8l4.8,17.5l-15.7,27V57.9
			c0-1.4-1.1-2.5-2.5-2.5s-2.5,1.1-2.5,2.5v26.6l-15.6-26.9L129.7,40.1z"/>
	</g>
</g>
</svg>
