<?xml version="1.0" encoding="utf-8"?>
<!-- Generator: Adobe Illustrator 20.1.0, SVG Export Plug-In . SVG Version: 6.00 Build 0)  -->
<svg version="1.1" xmlns="http://www.w3.org/2000/svg" xmlns:xlink="http://www.w3.org/1999/xlink" x="0px" y="0px"
	 viewBox="0 0 288 288" style="enable-background:new 0 0 288 288;" xml:space="preserve">
<style type="text/css">
	.st0{opacity:0.5;fill:none;stroke:#D0ECF0;stroke-width:0.5756;stroke-linecap:round;stroke-linejoin:round;stroke-miterlimit:10;}
	.st1{opacity:0.5;}
	.st2{fill:none;stroke:#D0ECF0;stroke-width:0.4688;stroke-linecap:round;stroke-linejoin:round;stroke-miterlimit:10;}
	.st3{fill:none;stroke:#FFFFFF;stroke-width:5;stroke-linecap:round;stroke-linejoin:round;stroke-miterlimit:10;}
	.st4{fill:none;stroke:#FFFFFF;stroke-width:5;stroke-miterlimit:10;}
	.st5{fill:none;stroke:#FFFFFF;stroke-width:5;stroke-linecap:round;stroke-miterlimit:10;}
	.st6{fill:#FFFFFF;}
	.st7{fill:#231F20;}
	.st8{fill:#362FC1;}
	.st9{fill:none;stroke:#FFFFFF;stroke-linecap:round;stroke-linejoin:round;stroke-miterlimit:10;}
	.st10{fill:none;stroke:#FFFFFF;stroke-miterlimit:10;}
	.st11{fill:none;stroke:#FFFFFF;stroke-linecap:round;stroke-miterlimit:10;}
	.st12{fill:#FFFFFF;stroke:#FFFFFF;stroke-miterlimit:10;}
</style>
<g id="Grid">
</g>
<g id="Layer_1">
	<g>
		<path class="st8" d="M200.3,161.7c-1.2-0.7-2.7-0.3-3.4,0.9c-0.7,1.2-0.3,2.7,0.9,3.4c32.4,19.1,52.6,54.2,52.6,91.8v2.4
			c0,1.4,1.1,2.5,2.5,2.5s2.5-1.1,2.5-2.5v-2.4C255.4,218.5,234.3,181.7,200.3,161.7z"/>
		<path class="st8" d="M90.6,165.8c1.2-0.7,1.6-2.2,0.9-3.4c-0.7-1.2-2.2-1.6-3.4-0.9c-34.3,19.9-55.5,56.8-55.5,96.4v2.6
			c0,1.4,1.1,2.5,2.5,2.5s2.5-1.1,2.5-2.5v-2.6C37.6,220.1,57.9,184.8,90.6,165.8z"/>
		<path class="st8" d="M182,193.2c-1.2-0.7-2.7-0.3-3.4,0.9c-0.7,1.2-0.3,2.7,0.9,3.4c22.5,12.8,36.5,36.8,36.5,62.7
			c0,1.4,1.1,2.5,2.5,2.5s2.5-1.1,2.5-2.5C221,232.6,206.1,206.9,182,193.2z"/>
		<path class="st8" d="M109.9,193.9c-0.7-1.2-2.2-1.6-3.4-1c-24.4,13.6-39.5,39.4-39.5,67.3c0,1.4,1.1,2.5,2.5,2.5s2.5-1.1,2.5-2.5
			c0-26.1,14.2-50.2,37-62.9C110.1,196.6,110.6,195.1,109.9,193.9z"/>
		<path class="st8" d="M163.2,225.4c-1.2-0.7-2.7-0.2-3.4,1c-0.7,1.2-0.2,2.7,1,3.4c11.1,6.1,18,17.8,18,30.4c0,1.4,1.1,2.5,2.5,2.5
			s2.5-1.1,2.5-2.5C183.8,245.8,175.9,232.4,163.2,225.4z"/>
		<path class="st8" d="M125,225.3c-12.8,7-20.8,20.4-20.8,35c0,1.4,1.1,2.5,2.5,2.5s2.5-1.1,2.5-2.5c0-12.8,7-24.5,18.2-30.6
			c1.2-0.7,1.7-2.2,1-3.4C127.8,225.1,126.2,224.6,125,225.3z"/>
		<path class="st8" d="M252.9,21.9h-108c-1.4,0-2.5,1.1-2.5,2.5v44.7h-23.8V47.8c0-1.4-1.1-2.5-2.5-2.5s-2.5,1.1-2.5,2.5v21.2H91.3
			V24.4c0-1.4-1.1-2.5-2.5-2.5s-2.5,1.1-2.5,2.5v44.7h-22V47.8c0-1.4-1.1-2.5-2.5-2.5s-2.5,1.1-2.5,2.5v21.2H35.1
			c-1.4,0-2.5,1.1-2.5,2.5v120.2c0,1.4,1.1,2.5,2.5,2.5s2.5-1.1,2.5-2.5V74.1h107.3c1.4,0,2.5-1.1,2.5-2.5V26.9h103v164.9
			c0,1.4,1.1,2.5,2.5,2.5s2.5-1.1,2.5-2.5V24.4C255.4,23,254.3,21.9,252.9,21.9z"/>
		<path class="st8" d="M160,47.8v35.4c0,1.4,1.1,2.5,2.5,2.5s2.5-1.1,2.5-2.5V50.3h67.7v115.5c0,1.4,1.1,2.5,2.5,2.5
			s2.5-1.1,2.5-2.5v-118c0-1.4-1.1-2.5-2.5-2.5h-72.7C161.1,45.3,160,46.5,160,47.8z"/>
		<circle class="st8" cx="199.2" cy="36.1" r="3.4"/>
		<circle class="st8" cx="144.3" cy="260.3" r="3.4"/>
		<path class="st8" d="M105,133c0,1.4,1.1,2.5,2.5,2.5s2.5-1.1,2.5-2.5c0-19.2,15.6-34.8,34.8-34.8s34.8,15.6,34.8,34.8
			s-15.6,34.8-34.8,34.8c-1.4,0-2.5,1.1-2.5,2.5V223c0,1.4,1.1,2.5,2.5,2.5s2.5-1.1,2.5-2.5v-50.3c20.8-1.3,37.3-18.6,37.3-39.7
			c0-21.9-17.8-39.8-39.8-39.8S105,111.1,105,133z"/>
	</g>
</g>
</svg>
