<?xml version="1.0" encoding="utf-8"?>
<!-- Generator: Adobe Illustrator 20.1.0, SVG Export Plug-In . SVG Version: 6.00 Build 0)  -->
<svg version="1.1" xmlns="http://www.w3.org/2000/svg" xmlns:xlink="http://www.w3.org/1999/xlink" x="0px" y="0px"
	 viewBox="0 0 288 288" style="enable-background:new 0 0 288 288;" xml:space="preserve">
<style type="text/css">
	.st0{opacity:0.5;fill:none;stroke:#D0ECF0;stroke-width:0.5756;stroke-linecap:round;stroke-linejoin:round;stroke-miterlimit:10;}
	.st1{opacity:0.5;}
	.st2{fill:none;stroke:#D0ECF0;stroke-width:0.4688;stroke-linecap:round;stroke-linejoin:round;stroke-miterlimit:10;}
	.st3{fill:none;stroke:#FFFFFF;stroke-width:5;stroke-linecap:round;stroke-linejoin:round;stroke-miterlimit:10;}
	.st4{fill:none;stroke:#FFFFFF;stroke-width:5;stroke-miterlimit:10;}
	.st5{fill:none;stroke:#FFFFFF;stroke-width:5;stroke-linecap:round;stroke-miterlimit:10;}
	.st6{fill:#FFFFFF;}
	.st7{fill:#231F20;}
	.st8{fill:#362FC1;}
	.st9{fill:none;stroke:#FFFFFF;stroke-linecap:round;stroke-linejoin:round;stroke-miterlimit:10;}
	.st10{fill:none;stroke:#FFFFFF;stroke-miterlimit:10;}
	.st11{fill:none;stroke:#FFFFFF;stroke-linecap:round;stroke-miterlimit:10;}
	.st12{fill:#FFFFFF;stroke:#FFFFFF;stroke-miterlimit:10;}
</style>
<g id="Grid">
</g>
<g id="Layer_1">
	<g>
		<path class="st8" d="M208.9,121c0-10.6-2.6-21.2-7.6-30.5c-0.1-0.2-0.2-0.3-0.3-0.4c-2.8-5.1-8.1-8.2-13.9-8.2
			c-2.9,0-5.5,0.8-7.8,2.1V26.1c0-1.4-1.1-2.5-2.5-2.5h-65.4c-1.4,0-2.5,1.1-2.5,2.5v57.8c-2.3-1.3-5-2.1-7.8-2.1
			c-5.9,0-11.2,3.2-14,8.3c-0.1,0.1-0.1,0.2-0.1,0.2l0,0c-5,9.4-7.7,19.9-7.7,30.6c0,22.4,11.7,43.4,30.7,55.2v85.5
			c0,1.4,1.1,2.5,2.5,2.5s2.5-1.1,2.5-2.5v-86.9c0-0.9-0.5-1.7-1.2-2.2c-18.2-10.7-29.5-30.5-29.5-51.6c0-9.7,2.4-19.4,6.9-27.9
			c0.1-0.1,0.1-0.2,0.2-0.3c1.9-3.6,5.6-5.9,9.7-5.9c6,0,10.9,4.9,10.9,10.9c0,5.7-4.4,10.5-10.1,10.9c-1.2,0.1-2.2,1.1-2.3,2.3
			c-0.4,2.5-0.6,5-0.6,7.5c0,24.9,20.3,45.2,45.2,45.2s45.2-20.3,45.2-45.2c0-2.6-0.2-5.2-0.7-7.7c0-0.2-0.1-0.3-0.1-0.5
			c-0.4-1-1.4-1.6-2.5-1.6c-5.5-0.6-9.8-5.3-9.8-10.9c0-6,4.9-10.9,10.9-10.9c4.1,0,7.8,2.3,9.7,5.9c0.1,0.1,0.1,0.2,0.2,0.3
			c4.5,8.6,6.9,18.2,6.9,27.9c0,21.1-11.3,40.9-29.5,51.6c-0.8,0.4-1.2,1.3-1.2,2.2v86.9c0,1.4,1.1,2.5,2.5,2.5s2.5-1.1,2.5-2.5
			v-85.5C197.1,164.4,208.9,143.4,208.9,121z M174.2,28.6v59.8c-0.2,0.2-0.3,0.4-0.5,0.7h-59.5c-0.2-0.2-0.3-0.4-0.5-0.7V28.6H174.2
			z M144,158.5c-13.4,0-24.3-10.9-24.3-24.3c0-13.4,10.9-24.3,24.3-24.3s24.3,10.9,24.3,24.3C168.3,147.6,157.4,158.5,144,158.5z
			 M183.9,113.4c0.2,1.7,0.3,3.4,0.3,5.1c0,13-6.2,24.5-15.8,31.9c3.1-4.6,4.9-10.2,4.9-16.2c0-16.2-13.2-29.3-29.3-29.3
			s-29.3,13.2-29.3,29.3c0,6,1.8,11.5,4.9,16.2c-9.6-7.4-15.8-18.9-15.8-31.9c0-1.7,0.1-3.4,0.3-5.1c7.3-1.5,12.7-8,12.7-15.6
			c0-1.3-0.2-2.5-0.4-3.7h55.2c-0.3,1.2-0.4,2.4-0.4,3.7C171.2,105.4,176.6,111.9,183.9,113.4z"/>
		<path class="st8" d="M274.2,150c-1-1.9-2.4-3.6-4-4.9V111c0-1.4-1.1-2.5-2.5-2.5h-42.1c-1.4,0-2.5,1.1-2.5,2.5v42.1
			c0,1.4,1.1,2.5,2.5,2.5h18.6c-0.1,0.6-0.1,1.2-0.1,1.8c0,7.6,5.4,14.1,12.7,15.6c0.2,1.7,0.3,3.4,0.3,5c0,14.4-7.6,27.1-19.1,34.2
			c4-5,6.4-11.4,6.4-18.3c0-16.2-13.2-29.3-29.3-29.3S186,177.7,186,193.9c0,10.1,5.1,19,13,24.3h-10.5c-1.4,0-2.5,1.1-2.5,2.5
			s1.1,2.5,2.5,2.5h28.6c24.9,0,45.2-20.3,45.2-45.2c0-2.6-0.2-5.2-0.7-7.7c-0.2-1.1-1.2-2-2.3-2.1c-5.7-0.4-10.1-5.2-10.1-10.9
			c0-1.1,0.2-2.1,0.5-3.1c0.1-0.2,0.2-0.4,0.2-0.7c1.5-4.1,5.5-7.1,10.2-7.1c2.2,0,4.3,0.7,6.1,1.9c0.1,0.1,0.2,0.1,0.3,0.2
			c1.4,1,2.5,2.3,3.3,3.8c0,0,0,0.1,0,0.1c4.6,8.6,7.1,18.4,7.1,28.2c0,21.1-11.3,40.9-29.5,51.6c-0.8,0.4-1.2,1.3-1.2,2.2v27.4
			c0,1.4,1.1,2.5,2.5,2.5s2.5-1.1,2.5-2.5v-26c19-11.8,30.7-32.8,30.7-55.2C281.9,170,279.3,159.4,274.2,150z M191,193.9
			c0-13.4,10.9-24.3,24.3-24.3s24.3,10.9,24.3,24.3s-10.9,24.3-24.3,24.3S191,207.3,191,193.9z M245.7,150.6h-17.5v-37.1h37.1v28.8
			c-1.6-0.6-3.4-0.9-5.2-0.9C253.8,141.4,248.3,145.2,245.7,150.6z"/>
		<path class="st8" d="M102,193.9c0-16.2-13.2-29.3-29.3-29.3s-29.3,13.2-29.3,29.3c0,6.9,2.4,13.3,6.4,18.3
			c-11.4-7.1-19.1-19.8-19.1-34.2c0-1.7,0.1-3.4,0.3-5c7.3-1.5,12.7-8,12.7-15.6c0-0.6,0-1.2-0.1-1.8h18.6c1.4,0,2.5-1.1,2.5-2.5
			V111c0-1.4-1.1-2.5-2.5-2.5H20.2c-1.4,0-2.5,1.1-2.5,2.5v34.1c-1.6,1.3-3,3-4,5c-5,9.4-7.7,19.9-7.7,30.6
			c0,22.4,11.7,43.4,30.7,55.2v26c0,1.4,1.1,2.5,2.5,2.5s2.5-1.1,2.5-2.5v-27.4c0-0.9-0.5-1.7-1.2-2.2
			c-18.2-10.7-29.5-30.5-29.5-51.6c0-9.9,2.4-19.6,7.1-28.2c0,0,0.1-0.1,0.1-0.1c0.8-1.5,2-2.8,3.3-3.8c0.1-0.1,0.2-0.1,0.3-0.2
			c1.8-1.2,3.9-1.9,6.1-1.9c4.7,0,8.7,3,10.2,7.1c0,0.2,0.1,0.5,0.2,0.7c0.3,1,0.5,2,0.5,3.1c0,5.7-4.4,10.5-10.1,10.9
			c-1.2,0.1-2.1,0.9-2.3,2.1c-0.4,2.5-0.7,5.1-0.7,7.7c0,24.9,20.3,45.2,45.2,45.2h28.6c1.4,0,2.5-1.1,2.5-2.5s-1.1-2.5-2.5-2.5
			H89.1C96.9,212.9,102,204,102,193.9z M27.9,141.4c-1.8,0-3.5,0.3-5.2,0.9v-28.8h37.1v37.1H42.3C39.7,145.2,34.2,141.4,27.9,141.4z
			 M72.7,218.2c-13.4,0-24.3-10.9-24.3-24.3s10.9-24.3,24.3-24.3S97,180.5,97,193.9S86.1,218.2,72.7,218.2z"/>
	</g>
</g>
</svg>
