<?xml version="1.0" encoding="utf-8"?>
<!-- Generator: Adobe Illustrator 19.1.0, SVG Export Plug-In . SVG Version: 6.00 Build 0)  -->
<svg version="1.1" id="Layer_1" xmlns="http://www.w3.org/2000/svg" xmlns:xlink="http://www.w3.org/1999/xlink" x="0px" y="0px"
	 viewBox="0 0 300 300" style="enable-background:new 0 0 300 300;" xml:space="preserve">
<style type="text/css">
	.st0{fill:#DA4060;}
	.st1{fill:none;}
	.st2{fill:#89D0E3;}
	.st3{fill:#89D0E2;}
</style>
<g>
	<path class="st2" d="M135.5,209.9c48.2,0,87.7-39.5,87.7-87.7s-39.5-87.7-87.7-87.7S47.8,74,47.8,122.2S87.2,209.9,135.5,209.9z
		 M207.2,122.2c0,11.6-2.8,22.3-7.6,31.9c-3.6,0-7.6-0.8-9.6-3.6c-2-2.8-1.6-8,0.4-13.6c3.6-9.2-1.2-18.3-6.4-27.5
		c-4.4-8-9.2-17.1-9.2-27.1c0-4.8,2-7.6,6-9.6c1.6-0.8,2.8-1.2,4.4-1.6C198.9,84.3,207.2,102.3,207.2,122.2z M135.5,50.4
		c13.2,0,25.1,3.6,35.9,9.6c-7.6,4.8-12,12.4-12,22.3c0,14,6,25.5,11.2,34.7c2.8,5.6,6.4,12,5.6,14.4c-4,10.8-3.6,21.1,1.2,28.3
		c2.4,3.2,6.4,6.8,13.2,8.8C177.3,184,157.8,194,135.9,194c-7.6,0-15.1-1.2-22.3-3.6c4-2.8,7.6-6.8,10-11.6c3.6-8.8,2-18.7-4.4-32.3
		c-2.4-4.4-2-5.6,6.8-12.8c10-7.6,24.7-19.1,17.5-45.8c-2.4-8.8-10.4-15.9-20.7-19.1C111.2,65.2,99.6,68,90.4,76
		c-5.6,5.2-11.2,6.8-15.1,7.2C87.6,64,110,50.4,135.5,50.4z M67.3,99.5c7.6,1.2,20.3,0.4,33.5-11.2c6.4-6,13.6-4.8,17.1-4
		c5.6,1.6,9.2,5.2,10,8c4.4,16.3-2.8,21.9-12,29.1c-8,6-19.5,15.5-11.6,32.3c4.4,8.8,5.6,15.1,4,19.1c-1.6,3.2-5.6,6.4-13.2,9.2
		c-19.1-12.8-31.5-34.7-31.5-59.4C63.7,114.2,64.9,106.7,67.3,99.5z"/>
	<path class="st0" d="M251.1,122.2c0-42.3-23.1-80.9-59.8-101.3c-4-2-8.8-0.8-10.8,3.2c-2,4-0.8,8.8,3.2,10.8
		c31.9,17.5,51.8,51,51.8,87.3c0,55-44.6,99.7-99.7,99.7c-26.3,0-51.4-10.4-70.2-28.7c-3.2-3.2-8.4-3.2-11.2,0
		c-3.2,3.2-3.2,8.4,0,11.2c19.9,19.5,45.8,31.1,73.4,33.1v24.3H104c-4.4,0-8,3.6-8,8c0,4.4,3.6,8,8,8h64.2c4.4,0,8-3.6,8-8
		c0-4.4-3.6-8-8-8h-24.3v-24.3C203.6,233.4,251.1,183.6,251.1,122.2z"/>
</g>
</svg>
