<?xml version="1.0" encoding="utf-8"?>
<!-- Generator: Adobe Illustrator 20.1.0, SVG Export Plug-In . SVG Version: 6.00 Build 0)  -->
<svg version="1.1" xmlns="http://www.w3.org/2000/svg" xmlns:xlink="http://www.w3.org/1999/xlink" x="0px" y="0px"
	 viewBox="0 0 288 288" style="enable-background:new 0 0 288 288;" xml:space="preserve">
<style type="text/css">
	.st0{opacity:0.5;fill:none;stroke:#D0ECF0;stroke-width:0.5756;stroke-linecap:round;stroke-linejoin:round;stroke-miterlimit:10;}
	.st1{opacity:0.5;}
	.st2{fill:none;stroke:#D0ECF0;stroke-width:0.4688;stroke-linecap:round;stroke-linejoin:round;stroke-miterlimit:10;}
	.st3{fill:none;stroke:#FFFFFF;stroke-width:5;stroke-linecap:round;stroke-linejoin:round;stroke-miterlimit:10;}
	.st4{fill:none;stroke:#FFFFFF;stroke-width:5;stroke-miterlimit:10;}
	.st5{fill:none;stroke:#FFFFFF;stroke-width:5;stroke-linecap:round;stroke-miterlimit:10;}
	.st6{fill:#FFFFFF;}
	.st7{fill:#231F20;}
	.st8{fill:#362FC1;}
	.st9{fill:none;stroke:#FFFFFF;stroke-linecap:round;stroke-linejoin:round;stroke-miterlimit:10;}
	.st10{fill:none;stroke:#FFFFFF;stroke-miterlimit:10;}
	.st11{fill:none;stroke:#FFFFFF;stroke-linecap:round;stroke-miterlimit:10;}
	.st12{fill:#FFFFFF;stroke:#FFFFFF;stroke-miterlimit:10;}
</style>
<g id="Grid">
</g>
<g id="Layer_1">
	<g>
		<path class="st8" d="M239.7,72.5H226c-1.4,0-2.5,1.1-2.5,2.5s1.1,2.5,2.5,2.5h11.2v169.4c0,6.2-5,11.2-11.2,11.2
			c-6.1,0-11.1-5-11.1-11.1v-13.1c0,0,0,0,0-0.1V27.3c0-0.7-0.3-1.3-0.7-1.8c-0.5-0.5-1.1-0.7-1.8-0.7c0,0,0,0,0,0L74.8,25.5
			c0,0,0,0-0.1,0c-0.2,0-0.4,0-0.6,0.1c0,0-0.1,0-0.1,0c-0.2,0.1-0.3,0.1-0.5,0.2c0,0-0.1,0-0.1,0c-0.2,0.1-0.3,0.2-0.5,0.4
			c0,0-0.1,0.1-0.1,0.1c-0.1,0.1-0.3,0.3-0.4,0.5l-26.5,47c-0.3,0.4-0.3,0.9-0.3,1.4v160.2c0,15.3,12.5,27.8,27.8,27.8h152.1
			c0,0,0.1,0,0.1,0c0.1,0,0.1,0,0.2,0c9,0,16.2-7.3,16.2-16.2V75C242.2,73.6,241.1,72.5,239.7,72.5z M72.4,72.5H52.6l19.7-35
			L72.4,72.5z M50.8,235.4V77.5h24.1c0.7,0,1.3-0.3,1.8-0.7c0.5-0.5,0.7-1.1,0.7-1.8l-0.1-44.5l132.6-0.6v45.1c0,0,0,0,0,0.1v172.1
			c0,4.3,1.7,8.2,4.5,11.1H73.6C61,258.2,50.8,248,50.8,235.4z"/>
		<path class="st8" d="M75.3,170.7h46.1c1.4,0,2.5-1.1,2.5-2.5s-1.1-2.5-2.5-2.5H75.3c-1.4,0-2.5,1.1-2.5,2.5S73.9,170.7,75.3,170.7
			z"/>
		<path class="st8" d="M185,165.7h-46.1c-1.4,0-2.5,1.1-2.5,2.5s1.1,2.5,2.5,2.5H185c1.4,0,2.5-1.1,2.5-2.5S186.4,165.7,185,165.7z"
			/>
		<path class="st8" d="M185,71.6h-46.1c-1.4,0-2.5,1.1-2.5,2.5s1.1,2.5,2.5,2.5H185c1.4,0,2.5-1.1,2.5-2.5S186.4,71.6,185,71.6z"/>
		<path class="st8" d="M185,189.4H75.3c-1.4,0-2.5,1.1-2.5,2.5s1.1,2.5,2.5,2.5H185c1.4,0,2.5-1.1,2.5-2.5S186.4,189.4,185,189.4z"
			/>
		<path class="st8" d="M185,213.1H75.3c-1.4,0-2.5,1.1-2.5,2.5s1.1,2.5,2.5,2.5H185c1.4,0,2.5-1.1,2.5-2.5S186.4,213.1,185,213.1z"
			/>
		<path class="st8" d="M138.9,147h46c1.4,0,2.5-1.1,2.5-2.5V97.5c0-1.4-1.1-2.5-2.5-2.5h-46c-1.4,0-2.5,1.1-2.5,2.5v47.1
			C136.4,145.9,137.5,147,138.9,147z M141.4,100h41V142h-41V100z"/>
		<path class="st8" d="M75.3,100h46.1c1.4,0,2.5-1.1,2.5-2.5s-1.1-2.5-2.5-2.5H75.3c-1.4,0-2.5,1.1-2.5,2.5S73.9,100,75.3,100z"/>
		<path class="st8" d="M75.3,123.4h46.1c1.4,0,2.5-1.1,2.5-2.5s-1.1-2.5-2.5-2.5H75.3c-1.4,0-2.5,1.1-2.5,2.5S73.9,123.4,75.3,123.4
			z"/>
		<path class="st8" d="M75.3,147h46.1c1.4,0,2.5-1.1,2.5-2.5s-1.1-2.5-2.5-2.5H75.3c-1.4,0-2.5,1.1-2.5,2.5S73.9,147,75.3,147z"/>
	</g>
</g>
</svg>
