<?xml version="1.0" encoding="utf-8"?>
<!-- Generator: Adobe Illustrator 19.1.0, SVG Export Plug-In . SVG Version: 6.00 Build 0)  -->
<svg version="1.1" id="Layer_1" xmlns="http://www.w3.org/2000/svg" xmlns:xlink="http://www.w3.org/1999/xlink" x="0px" y="0px"
	 viewBox="0 0 300 300" style="enable-background:new 0 0 300 300;" xml:space="preserve">
<style type="text/css">
	.st0{fill:#DA4060;}
	.st1{fill:none;}
	.st2{fill:#89D0E3;}
	.st3{fill:#89D0E2;}
</style>
<rect x="54.3" y="129.6" class="st0" width="33" height="14.2"/>
<rect x="54.3" y="157.9" class="st0" width="33" height="14.2"/>
<rect x="87.3" y="65.9" class="st2" width="181.3" height="14.1"/>
<g>
	<path class="st2" d="M261.9,195.6L261.9,195.6c0,13-10.6,23.6-23.6,23.6H93.4c-0.1,0-0.1-0.1-0.1-0.2c5.1-6.4,8.1-14.6,8.1-23.4
		V65.9H87.3v35.3c0,0.1-0.1,0.1-0.1,0.1H26.1c-0.1,0-0.1,0-0.1,0.1v94.1c0,20.9,16.9,37.8,37.8,37.8h174.3
		c20.9,0,37.8-16.9,37.8-37.8V65.9h-14.1V195.6z M87.3,129.6L87.3,129.6H54.4c-0.1,0-0.1,0-0.1,0.1v13.9c0,0.1,0.1,0.1,0.1,0.1h32.8
		c0.1,0,0.1,0,0.1,0.1v13.9c0,0.1-0.1,0.1-0.1,0.1H54.4c-0.1,0-0.1,0-0.1,0.1v13.9c0,0.1,0.1,0.1,0.1,0.1h32.8c0.1,0,0.1,0,0.1,0.1
		v22.4c0,13-10,24.3-23,24.7c-13.3,0.3-24.2-10.3-24.2-23.6v-80.1c0-0.1,0.1-0.1,0.1-0.1h46.9c0.1,0,0.1,0,0.1,0.1V129.6z"/>
	<path class="st1" d="M40.3,115.4c-0.1,0-0.1,0-0.1,0.1v80.1c0,13.2,10.9,23.9,24.2,23.6c13-0.3,23-11.7,23-24.7v-22.4
		c0-0.1-0.1-0.1-0.1-0.1H54.4c-0.1,0-0.1-0.1-0.1-0.1V158c0-0.1,0.1-0.1,0.1-0.1h32.8c0.1,0,0.1-0.1,0.1-0.1v-13.9
		c0-0.1-0.1-0.1-0.1-0.1H54.4c-0.1,0-0.1-0.1-0.1-0.1v-13.9c0-0.1,0.1-0.1,0.1-0.1h32.9h0v-14c0-0.1-0.1-0.1-0.1-0.1H40.3z"/>
	<path class="st1" d="M93.3,219c-0.1,0.1,0,0.2,0.1,0.2h144.9c13,0,23.6-10.6,23.6-23.6h0V65.9H101.5v129.7
		C101.5,204.5,98.4,212.6,93.3,219z M200.5,92.4h47.2v14.2h-47.2V92.4z M200.5,120.7h47.2v14.2h-47.2V120.7z M200.5,149h47.2v14.2
		h-47.2V149z M115.6,92.4h70.8v70.8h-70.8V92.4z M115.6,177.3h132.1v14.2H115.6V177.3z"/>
	<rect x="115.6" y="92.4" class="st0" width="70.8" height="70.8"/>
	<rect x="115.6" y="177.3" class="st0" width="132.1" height="14.2"/>
	<rect x="200.5" y="92.4" class="st0" width="47.2" height="14.2"/>
	<rect x="200.5" y="149" class="st0" width="47.2" height="14.2"/>
	<rect x="200.5" y="120.7" class="st0" width="47.2" height="14.2"/>
	<rect x="54.3" y="129.6" class="st0" width="33" height="14.2"/>
	<rect x="54.3" y="157.9" class="st0" width="33" height="14.2"/>
</g>
</svg>
