<?xml version="1.0" encoding="utf-8"?>
<!-- Generator: Adobe Illustrator 20.1.0, SVG Export Plug-In . SVG Version: 6.00 Build 0)  -->
<svg version="1.1" xmlns="http://www.w3.org/2000/svg" xmlns:xlink="http://www.w3.org/1999/xlink" x="0px" y="0px"
	 viewBox="0 0 288 288" style="enable-background:new 0 0 288 288;" xml:space="preserve">
<style type="text/css">
	.st0{opacity:0.5;fill:none;stroke:#D0ECF0;stroke-width:0.5756;stroke-linecap:round;stroke-linejoin:round;stroke-miterlimit:10;}
	.st1{opacity:0.5;}
	.st2{fill:none;stroke:#D0ECF0;stroke-width:0.4688;stroke-linecap:round;stroke-linejoin:round;stroke-miterlimit:10;}
	.st3{fill:none;stroke:#FFFFFF;stroke-width:5;stroke-linecap:round;stroke-linejoin:round;stroke-miterlimit:10;}
	.st4{fill:none;stroke:#FFFFFF;stroke-width:5;stroke-miterlimit:10;}
	.st5{fill:none;stroke:#FFFFFF;stroke-width:5;stroke-linecap:round;stroke-miterlimit:10;}
	.st6{fill:#FFFFFF;}
	.st7{fill:#231F20;}
	.st8{fill:#362FC1;}
	.st9{fill:none;stroke:#FFFFFF;stroke-linecap:round;stroke-linejoin:round;stroke-miterlimit:10;}
	.st10{fill:none;stroke:#FFFFFF;stroke-miterlimit:10;}
	.st11{fill:none;stroke:#FFFFFF;stroke-linecap:round;stroke-miterlimit:10;}
	.st12{fill:#FFFFFF;stroke:#FFFFFF;stroke-miterlimit:10;}
</style>
<g id="Grid">
</g>
<g id="Layer_1">
	<g>
		<path class="st8" d="M144,24c-44.6,0-80.9,36.3-80.9,80.9c0,13.2,3.3,26.4,9.5,38c0,0.1,0.1,0.2,0.1,0.2l69.1,119.7
			c0.4,0.8,1.3,1.2,2.2,1.2c0.9,0,1.7-0.5,2.2-1.2L215.3,143c6.3-11.7,9.6-24.9,9.6-38.2C224.9,60.3,188.6,24,144,24z M210.9,140.6
			L144,256.5L77.2,140.7c0,0,0-0.1-0.1-0.1c-5.9-10.9-9-23.3-9-35.8C68.1,63,102.2,29,144,29c41.8,0,75.9,34,75.9,75.9
			C219.9,117.3,216.8,129.7,210.9,140.6z"/>
		<path class="st8" d="M144,77.3c-16.2,0-29.3,13.2-29.3,29.3s13.2,29.3,29.3,29.3s29.3-13.2,29.3-29.3S160.2,77.3,144,77.3z
			 M144,130.9c-13.4,0-24.3-10.9-24.3-24.3s10.9-24.3,24.3-24.3s24.3,10.9,24.3,24.3S157.4,130.9,144,130.9z"/>
		<path class="st8" d="M208.5,104.4h-8.5c-1.1-29.1-24.5-52.6-53.6-53.9V42c0-1.4-1.1-2.5-2.5-2.5s-2.5,1.1-2.5,2.5v8.5
			c-29.1,1.3-52.5,24.8-53.6,53.9h-8.5c-1.4,0-2.5,1.1-2.5,2.5s1.1,2.5,2.5,2.5h8.5c1.4,28.8,24.7,52,53.6,53.2v8.5
			c0,1.4,1.1,2.5,2.5,2.5s2.5-1.1,2.5-2.5v-8.5c28.9-1.3,52.1-24.4,53.6-53.2h8.5c1.4,0,2.5-1.1,2.5-2.5S209.9,104.4,208.5,104.4z
			 M146.5,157.6v-8.3c0-1.4-1.1-2.5-2.5-2.5s-2.5,1.1-2.5,2.5v8.3c-26.1-1.3-47.1-22.2-48.6-48.2h8.3c1.4,0,2.5-1.1,2.5-2.5
			s-1.1-2.5-2.5-2.5h-8.4C94,78,115.2,56.8,141.5,55.5v8.3c0,1.4,1.1,2.5,2.5,2.5s2.5-1.1,2.5-2.5v-8.3
			c26.3,1.3,47.5,22.5,48.6,48.9h-8.4c-1.4,0-2.5,1.1-2.5,2.5s1.1,2.5,2.5,2.5h8.3C193.6,135.5,172.6,156.4,146.5,157.6z"/>
	</g>
</g>
</svg>
