<?xml version="1.0" encoding="utf-8"?>
<!-- Generator: Adobe Illustrator 19.1.0, SVG Export Plug-In . SVG Version: 6.00 Build 0)  -->
<svg version="1.1" id="Layer_1" xmlns="http://www.w3.org/2000/svg" xmlns:xlink="http://www.w3.org/1999/xlink" x="0px" y="0px"
	 viewBox="0 0 300 300" style="enable-background:new 0 0 300 300;" xml:space="preserve">
<style type="text/css">
	.st0{fill:#DA4060;}
	.st1{fill:none;}
	.st2{fill:#89D0E3;}
	.st3{fill:#89D0E2;}
</style>
<g>
	<path class="st1" d="M144.7,32.8c-45.5,0-82.5,37.2-82.5,82.9c0,42.6,64.7,133.4,82.6,150.4c17.9-16.6,82.4-106.9,82.4-150.4
		C227.2,70,190.2,32.8,144.7,32.8z M144,160c-24.9,0-45.1-20.3-45.1-45.1c0-24.9,20.3-45.1,45.1-45.1s45.1,20.3,45.1,45.1
		C189.1,139.7,168.9,160,144,160z"/>
	<path class="st1" d="M144,88.8c-14.4,0-26,11.7-26,26s11.7,26,26,26c14.4,0,26-11.7,26-26S158.3,88.8,144,88.8z"/>
	<path class="st0" d="M144.7,13.7c-56,0-101.6,45.8-101.6,102.1c0,31.8,27.4,79.5,43.7,105c10.4,16.4,21.7,32.2,31.8,44.5
		c16.3,20,21.5,21.6,26.1,21.6c4.6,0,10.1-1.7,26.4-21.6c10-12.3,21.3-28.1,31.8-44.6c16.2-25.5,43.4-73.1,43.4-105
		C246.3,59.5,200.7,13.7,144.7,13.7z M144.8,266.1c-17.9-16.9-82.6-107.7-82.6-150.4c0-45.7,37-82.9,82.5-82.9s82.5,37.2,82.5,82.9
		C227.2,159.2,162.6,249.5,144.8,266.1z"/>
	<path class="st2" d="M144,69.7c-24.9,0-45.1,20.3-45.1,45.1c0,24.9,20.3,45.1,45.1,45.1s45.1-20.3,45.1-45.1
		C189.1,89.9,168.9,69.7,144,69.7z M144,140.9c-14.4,0-26-11.7-26-26s11.7-26,26-26c14.4,0,26,11.7,26,26S158.3,140.9,144,140.9z"/>
</g>
</svg>
