<?xml version="1.0" encoding="utf-8"?>
<!-- Generator: Adobe Illustrator 20.1.0, SVG Export Plug-In . SVG Version: 6.00 Build 0)  -->
<svg version="1.1" xmlns="http://www.w3.org/2000/svg" xmlns:xlink="http://www.w3.org/1999/xlink" x="0px" y="0px"
	 viewBox="0 0 288 288" style="enable-background:new 0 0 288 288;" xml:space="preserve">
<style type="text/css">
	.st0{opacity:0.5;fill:none;stroke:#D0ECF0;stroke-width:0.5756;stroke-linecap:round;stroke-linejoin:round;stroke-miterlimit:10;}
	.st1{opacity:0.5;}
	.st2{fill:none;stroke:#D0ECF0;stroke-width:0.4688;stroke-linecap:round;stroke-linejoin:round;stroke-miterlimit:10;}
	.st3{fill:none;stroke:#FFFFFF;stroke-width:5;stroke-linecap:round;stroke-linejoin:round;stroke-miterlimit:10;}
	.st4{fill:none;stroke:#FFFFFF;stroke-width:5;stroke-miterlimit:10;}
	.st5{fill:none;stroke:#FFFFFF;stroke-width:5;stroke-linecap:round;stroke-miterlimit:10;}
	.st6{fill:#FFFFFF;}
	.st7{fill:#231F20;}
	.st8{fill:#362FC1;}
	.st9{fill:none;stroke:#FFFFFF;stroke-linecap:round;stroke-linejoin:round;stroke-miterlimit:10;}
	.st10{fill:none;stroke:#FFFFFF;stroke-miterlimit:10;}
	.st11{fill:none;stroke:#FFFFFF;stroke-linecap:round;stroke-miterlimit:10;}
	.st12{fill:#FFFFFF;stroke:#FFFFFF;stroke-miterlimit:10;}
</style>
<g id="Grid">
</g>
<g id="Layer_1">
	<path class="st8" d="M269.9,260.7L215.6,167l53.8-92.5c0.5-0.8,0.5-1.7,0-2.5s-1.3-1.3-2.2-1.3H211c-0.9,0-1.7,0.5-2.2,1.2
		l-24.3,41.7l-51.7-88.9c-0.4-0.8-1.3-1.2-2.2-1.2H20.3c-1.4,0-2.5,1.1-2.5,2.5v188.7c0,1.4,1.1,2.5,2.5,2.5h104.1l-25.2,43.4
		c-0.5,0.8-0.5,1.7,0,2.5s1.3,1.3,2.2,1.3h56.2c0.9,0,1.7-0.5,2.2-1.2l25-42.8l25,42.9c0.4,0.8,1.3,1.2,2.2,1.2h56
		c0.9,0,1.7-0.5,2.2-1.3S270.3,261.5,269.9,260.7z M22.8,212.2V28.5h106.5l24.5,42.2H67.4c-1.4,0-2.5,1.1-2.5,2.5v44.7H33.6
		c-1.4,0-2.5,1.1-2.5,2.5s1.1,2.5,2.5,2.5h31.4v44.7c0,1.4,1.1,2.5,2.5,2.5h84.3l-24.5,42.2H22.8z M69.9,122.9h44
		c1.4,0,2.5-1.1,2.5-2.5s-1.1-2.5-2.5-2.5h-44V75.7h30.5l51.3,89.4H69.9V122.9z M213.2,259.5l-26.4-45.4c-0.4-0.8-1.3-1.2-2.2-1.2
		s-1.7,0.5-2.2,1.2L156,259.4h-50.4l25.2-43.4l27.4-47.2c0,0,0,0,0,0s0,0,0,0l20.8-35.7c0.7-1.2,0.3-2.7-0.9-3.4
		c-1.2-0.7-2.7-0.3-3.4,0.9l-18.6,32l-49.9-86.9h50.5l25.7,44.2c0.4,0.8,1.3,1.2,2.2,1.2s1.7-0.5,2.2-1.2l25.7-44.2h50.5l-52.4,90
		l-20.3,34.9c-0.7,1.2-0.3,2.7,0.9,3.4c0.4,0.2,0.8,0.3,1.3,0.3c0.9,0,1.7-0.4,2.2-1.2l18.1-31.2l50.7,87.5H213.2z"/>
</g>
</svg>
