<?xml version="1.0" encoding="utf-8"?>
<!-- Generator: Adobe Illustrator 19.1.0, SVG Export Plug-In . SVG Version: 6.00 Build 0)  -->
<svg version="1.1" id="Layer_1" xmlns="http://www.w3.org/2000/svg" xmlns:xlink="http://www.w3.org/1999/xlink" x="0px" y="0px"
	 viewBox="0 0 300 300" style="enable-background:new 0 0 300 300;" xml:space="preserve">
<style type="text/css">
	.st0{fill:#DA4060;}
	.st1{fill:none;}
	.st2{fill:#89D0E3;}
	.st3{fill:#89D0E2;}
</style>
<g>
	<path class="st1" d="M145,116.1c-4-3-12.9-4.3-20.6-4.5v23.1c0.3,0,0.6,0,0.9,0c6.8,0,15.8,0.7,22.2,4c6.7-3.4,16.3-4.1,23.1-4
		v-23.1c-7.4,0.2-16,1.5-20,4.5C148.9,117.4,146.6,117.4,145,116.1z"/>
	<path class="st1" d="M73.9,235.1c-4-3-12.9-4.3-20.6-4.5v23.1c0.3,0,0.6,0,0.9,0c6.8,0,15.8,0.7,22.2,4c6.7-3.4,16.4-4.1,23.1-4
		v-23.1c-7.4,0.2-16,1.5-20,4.5C77.8,236.4,75.6,236.4,73.9,235.1z"/>
	<path class="st1" d="M218.8,235.1c-4-3-12.9-4.3-20.6-4.5v23.1c0.3,0,0.6,0,0.9,0c6.8,0,15.8,0.7,22.2,4c6.7-3.4,16.4-4.1,23.1-4
		v-23.1c-7.4,0.2-16,1.5-20,4.5C222.7,236.4,220.4,236.4,218.8,235.1z"/>
	<circle class="st3" cx="232" cy="172.1" r="18.4"/>
	<path class="st3" d="M269.1,221c0,0-1.3-0.1-3.4-0.1c-1.1,0-2.4,0-3.7,0.1c-2.9-13.9-15.3-24.3-30.1-24.3
		c-14.8,0-27.1,10.4-30,24.3c-1.3,0-2.5-0.1-3.6-0.1c-2.2,0-3.5,0.1-3.5,0.1c-3.3,0.1-5.9,2.8-5.9,6.1v43.3c0,1.7,0.7,3.4,2,4.5
		c1.3,1.2,3,1.7,4.7,1.6c0.1,0,2.9-0.2,6.9-0.2c12,0,21.5,1.9,25.8,5.2c1.1,0.8,2.4,1.2,3.7,1.2c1.3,0,2.6-0.4,3.7-1.2
		c4.4-3.3,13.8-5.2,25.8-5.2c4,0,6.7,0.2,6.9,0.2c1.8,0.1,3.4-0.5,4.7-1.6c1.3-1.2,2-2.8,2-4.5v-43.3
		C275,223.9,272.4,221.2,269.1,221z M262.7,264c-8.9-0.1-21.8,0.8-30.7,5.3c-8.5-4.4-20.4-5.3-29.5-5.3c-0.4,0-0.8,0-1.2,0v-30.7
		c10.2,0.3,22.1,1.9,27.4,5.9c2.2,1.6,5.2,1.6,7.4,0c5.3-4,16.8-5.6,26.7-5.9V264z"/>
	<circle class="st3" cx="68" cy="172.1" r="18.4"/>
	<path class="st3" d="M105.1,221c0,0-1.3-0.1-3.4-0.1c-1.1,0-2.4,0-3.7,0.1c-2.9-13.9-15.3-24.3-30.1-24.3
		c-14.8,0-27.1,10.4-30,24.3c-1.3,0-2.5-0.1-3.6-0.1c-2.2,0-3.5,0.1-3.5,0.1c-3.3,0.1-5.9,2.8-5.9,6.1v43.3c0,1.7,0.7,3.4,2,4.5
		c1.3,1.2,3,1.7,4.7,1.6c0.1,0,2.9-0.2,6.9-0.2c12,0,21.5,1.9,25.8,5.2c1.1,0.8,2.4,1.2,3.7,1.2c1.3,0,2.6-0.4,3.7-1.2
		c4.4-3.3,13.8-5.2,25.8-5.2c4,0,6.7,0.2,6.9,0.2c1.8,0.1,3.4-0.5,4.7-1.6c1.3-1.2,2-2.8,2-4.5v-43.3
		C111,223.9,108.4,221.2,105.1,221z M98.7,264c-8.9-0.1-21.8,0.8-30.7,5.3c-8.5-4.4-20.4-5.3-29.5-5.3c-0.4,0-0.8,0-1.2,0v-30.7
		c10.2,0.3,22.1,1.9,27.4,5.9c2.2,1.6,5.2,1.6,7.4,0c5.3-4,16.8-5.6,26.7-5.9V264z"/>
	<circle class="st3" cx="147.5" cy="35.7" r="18.4"/>
	<path class="st3" d="M184.6,84.6c0,0-1.3-0.1-3.4-0.1c-1.1,0-2.4,0-3.7,0.1c-2.9-13.9-15.3-24.3-30.1-24.3
		c-14.8,0-27.1,10.4-30,24.3c-1.3,0-2.5-0.1-3.6-0.1c-2.2,0-3.5,0.1-3.5,0.1c-3.3,0.1-5.9,2.8-5.9,6.1V134c0,1.7,0.7,3.4,2,4.5
		c1.3,1.2,3,1.7,4.7,1.6c0.1,0,2.9-0.2,6.9-0.2c12,0,21.5,1.9,25.8,5.2c1.1,0.8,2.4,1.2,3.7,1.2c1.3,0,2.6-0.4,3.7-1.2
		c4.4-3.3,13.8-5.2,25.8-5.2c4,0,6.7,0.2,6.9,0.2c1.8,0.1,3.4-0.5,4.7-1.6c1.3-1.2,2-2.8,2-4.5V90.8
		C190.5,87.5,187.9,84.8,184.6,84.6z M178.2,127.7c-8.9-0.1-21.8,0.8-30.7,5.3c-8.5-4.4-20.4-5.3-29.5-5.3c-0.4,0-0.8,0-1.2,0V96.9
		c10.2,0.3,22.1,1.9,27.4,5.9c2.2,1.6,5.2,1.6,7.4,0c5.3-4,16.8-5.6,26.7-5.9V127.7z"/>
	<path class="st0" d="M180.9,203l-28.1-14.1v-27.7c0-3-2.4-5.4-5.4-5.4c-3,0-5.4,2.4-5.4,5.4v27.8L114,203c-1.3,0.6-2.2,1.7-2.7,3.1
		c-0.5,1.4-0.3,2.8,0.3,4.1c1.3,2.6,4.5,3.7,7.2,2.4l28.7-14.3l28.7,14.3c0.8,0.4,1.6,0.6,2.4,0.6c2,0,3.9-1.1,4.8-3
		C184.7,207.5,183.6,204.3,180.9,203z"/>
</g>
</svg>
