<?xml version="1.0" encoding="utf-8"?>
<!-- Generator: Adobe Illustrator 20.1.0, SVG Export Plug-In . SVG Version: 6.00 Build 0)  -->
<svg version="1.1" xmlns="http://www.w3.org/2000/svg" xmlns:xlink="http://www.w3.org/1999/xlink" x="0px" y="0px"
	 viewBox="0 0 288 288" style="enable-background:new 0 0 288 288;" xml:space="preserve">
<style type="text/css">
	.st0{opacity:0.5;fill:none;stroke:#D0ECF0;stroke-width:0.5756;stroke-linecap:round;stroke-linejoin:round;stroke-miterlimit:10;}
	.st1{opacity:0.5;}
	.st2{fill:none;stroke:#D0ECF0;stroke-width:0.4688;stroke-linecap:round;stroke-linejoin:round;stroke-miterlimit:10;}
	.st3{fill:none;stroke:#FFFFFF;stroke-width:5;stroke-linecap:round;stroke-linejoin:round;stroke-miterlimit:10;}
	.st4{fill:none;stroke:#FFFFFF;stroke-width:5;stroke-miterlimit:10;}
	.st5{fill:none;stroke:#FFFFFF;stroke-width:5;stroke-linecap:round;stroke-miterlimit:10;}
	.st6{fill:#FFFFFF;}
	.st7{fill:#231F20;}
	.st8{fill:#362FC1;}
	.st9{fill:none;stroke:#FFFFFF;stroke-linecap:round;stroke-linejoin:round;stroke-miterlimit:10;}
	.st10{fill:none;stroke:#FFFFFF;stroke-miterlimit:10;}
	.st11{fill:none;stroke:#FFFFFF;stroke-linecap:round;stroke-miterlimit:10;}
	.st12{fill:#FFFFFF;stroke:#FFFFFF;stroke-miterlimit:10;}
</style>
<g id="Grid">
</g>
<g id="Layer_1">
	<g>
		<path class="st8" d="M254.9,106.7c-6.5-5-14.3-9.5-23.1-13.4c0.7-6.8,0.9-13.3,0.6-19.4c-1.2-21.7-8.8-37.2-22-44.8
			c-11.6-6.7-26.5-6.6-43.1,0.3c-7.6,3.1-15.4,7.6-23.2,13.3c-1.6-1.2-3.3-2.3-4.9-3.4c-23.8-15.7-45.6-19.3-61.5-10.2
			c-11.6,6.7-19,19.7-21.3,37.5c-1.1,8.1-1.1,17.1-0.1,26.7c-1.8,0.8-3.6,1.7-5.4,2.5c-25.5,12.7-39.5,29.8-39.5,48.2
			c0,13.5,7.6,26.4,22.1,37.4c6.5,4.9,14.2,9.4,22.8,13.3c-0.2,2-0.4,4-0.5,5.9c-1.7,28.4,6.1,49.1,21.9,58.3c5.8,3.4,12.4,5,19.5,5
			c14.1,0,30.3-6.4,46.9-18.5c1.6,1.2,3.2,2.3,4.9,3.4c15.1,10,29.5,15.1,42,15.1c7.1,0,13.7-1.6,19.4-5c11.6-6.7,19-19.7,21.3-37.6
			c1.1-8.1,1.1-17.1,0.1-26.7c1.8-0.8,3.6-1.7,5.4-2.5c25.5-12.7,39.5-29.8,39.5-48.2C276.7,130.6,269.2,117.7,254.9,106.7z
			 M207.9,33.4c15.2,8.8,21.7,30.3,19.1,57.9c-8.3-3.4-17.4-6.2-27.2-8.5c-1.3-0.3-2.7,0.5-3,1.9c-0.3,1.3,0.5,2.7,1.9,3
			c10.1,2.4,19.4,5.3,27.7,8.8c-1.6,12.7-5.1,26.5-10.4,40.9c-3.9-9.1-8.5-18.2-13.6-27c-15.3-26.5-34.2-49-54.2-64.5
			C171,29.6,192.8,24.7,207.9,33.4z M144,206.4c-11.8,0-23.5-0.8-34.7-2.4c-6.9-8.9-13.4-18.6-19.4-28.9C84,165,78.9,154.5,74.6,144
			c4.2-10.4,9.4-20.9,15.3-31.2c5.9-10.2,12.4-19.9,19.4-28.9c11.2-1.5,22.8-2.4,34.7-2.4c11.8,0,23.5,0.8,34.7,2.4
			c6.9,8.9,13.4,18.6,19.4,28.9c5.9,10.2,11,20.7,15.3,31.2c-4.3,10.5-9.4,21-15.3,31.2c-5.9,10.2-12.4,19.9-19.4,28.9
			C167.5,205.6,155.9,206.4,144,206.4z M80.1,33.4c14.2-8.2,34.1-4.6,56.2,10c1.2,0.8,2.3,1.6,3.5,2.4c-7,5.5-14,11.9-20.8,19.1
			c-0.9,1-0.9,2.6,0.1,3.5c1,0.9,2.6,0.9,3.5-0.1c7.1-7.5,14.2-14,21.3-19.4c10.4,8,20.6,17.9,30.2,29.5c-9.9-1.2-20-1.7-30.2-1.7
			c-30.6,0-59.5,5.2-83,14.7C58.5,63.5,65.1,42.1,80.1,33.4z M16.3,144c0-16.3,13.1-31.9,36.8-43.7c1.2-0.6,2.5-1.2,3.8-1.8
			c1.2,8.8,3.3,18.1,6.2,27.7c0.4,1.3,1.8,2.1,3.1,1.7c1.3-0.4,2.1-1.8,1.7-3.1c-3-9.9-5.1-19.4-6.2-28.4
			c12.1-5.1,25.9-8.9,40.6-11.4c-5.9,8-11.5,16.4-16.6,25.3C79.4,121.1,74,132,69.7,143c0,0.1,0,0.1-0.1,0.2
			c-6.4,15.9-10.7,31.6-12.8,46.4C31.5,177.8,16.3,161.4,16.3,144z M80.1,254.6c-14.2-8.2-21.1-27.2-19.5-53.7
			c0.1-1.4,0.2-2.8,0.3-4.2c8.5,3.4,17.9,6.4,27.9,8.7c0.2,0,0.4,0.1,0.6,0.1c1.1,0,2.2-0.8,2.4-1.9c0.3-1.3-0.5-2.7-1.9-3
			c-10.4-2.4-19.9-5.4-28.4-9c1.7-13,5.2-26.9,10.4-40.9c3.9,9.1,8.5,18.2,13.6,27c15.3,26.5,34.2,49,54.2,64.5
			C117,258.3,95.1,263.3,80.1,254.6z M207.9,254.6c-14.2,8.2-34.1,4.6-56.2-10c-1.1-0.8-2.3-1.5-3.4-2.4
			c6.7-5.3,13.5-11.5,20.2-18.5c0.9-1,0.9-2.6-0.1-3.5c-1-1-2.6-0.9-3.5,0.1c-6.9,7.3-13.9,13.6-20.8,18.9
			c-10.4-8-20.6-17.9-30.2-29.5c9.9,1.2,20,1.7,30.2,1.7c30.6,0,59.5-5.2,83-14.7C229.5,224.5,222.9,245.9,207.9,254.6z M235,187.7
			c-1.2,0.6-2.5,1.2-3.8,1.8c-1.2-8.9-3.3-18.2-6.2-27.9c-0.4-1.3-1.8-2.1-3.1-1.7c-1.3,0.4-2.1,1.8-1.7,3.1c3,10,5.1,19.5,6.3,28.5
			c-12.1,5.1-25.9,8.9-40.6,11.4c5.9-8,11.5-16.4,16.6-25.3c6.2-10.7,11.6-21.7,16-32.8c6.4-15.9,10.7-31.7,12.8-46.4
			c25.4,11.7,40.6,28.1,40.6,45.5C271.7,160.3,258.7,175.9,235,187.7z"/>
		<path class="st8" d="M144,114.7c-16.2,0-29.3,13.2-29.3,29.3c0,16.2,13.2,29.3,29.3,29.3c16.2,0,29.3-13.2,29.3-29.3
			C173.3,127.8,160.2,114.7,144,114.7z M144,168.3c-13.4,0-24.3-10.9-24.3-24.3c0-13.4,10.9-24.3,24.3-24.3
			c13.4,0,24.3,10.9,24.3,24.3C168.3,157.4,157.4,168.3,144,168.3z"/>
	</g>
</g>
</svg>
