<?xml version="1.0" encoding="utf-8"?>
<!-- Generator: Adobe Illustrator 19.1.0, SVG Export Plug-In . SVG Version: 6.00 Build 0)  -->
<svg version="1.1" id="Layer_1" xmlns="http://www.w3.org/2000/svg" xmlns:xlink="http://www.w3.org/1999/xlink" x="0px" y="0px"
	 viewBox="0 0 300 300" style="enable-background:new 0 0 300 300;" xml:space="preserve">
<style type="text/css">
	.st0{fill:#DA4060;}
	.st1{fill:none;}
	.st2{fill:#89D0E3;}
	.st3{fill:#89D0E2;}
</style>
<g>
	<path class="st1" d="M89.9,237.5h118.5v-5c0-11.9-3.5-21.9-10.3-29.9c-6.4-7.4-15.8-12.9-27.1-15.9l-5.3-1.4
		c-1.2-0.3-2-1.2-2.3-2.4c-0.2-1.2,0.2-2.4,1.2-3.1l4.3-3.4c7.9-6.1,12.4-15.4,12.4-25.4c0-17.7-14.4-32.1-32.1-32.1
		s-32.1,14.4-32.1,32.1c0,10,4.5,19.2,12.4,25.4l4.3,3.4c0.9,0.7,1.4,1.9,1.2,3.1c-0.2,1.2-1.1,2.1-2.3,2.4l-5.3,1.4
		c-11.4,3-20.8,8.5-27.1,15.9c-6.8,7.9-10.3,18-10.3,29.9V237.5z"/>
	<path class="st0" d="M183.4,178.5c6.2-7.7,9.6-17.3,9.6-27.4c0-24.2-19.7-43.8-43.8-43.8s-43.8,19.7-43.8,43.8
		c0,10.1,3.4,19.7,9.6,27.4c-23.4,9.4-36.8,28.9-36.8,54V246c0,1.7,1.4,3.2,3.2,3.2H217c1.7,0,3.2-1.4,3.2-3.2v-13.6
		C220.2,207.4,206.9,187.9,183.4,178.5z M127.4,186.7l5.3-1.4c1.2-0.3,2-1.2,2.3-2.4c0.2-1.2-0.2-2.4-1.2-3.1l-4.3-3.4
		c-7.9-6.1-12.4-15.4-12.4-25.4c0-17.7,14.4-32.1,32.1-32.1s32.1,14.4,32.1,32.1c0,10-4.5,19.2-12.4,25.4l-4.3,3.4
		c-0.9,0.7-1.4,1.9-1.2,3.1c0.2,1.2,1.1,2.1,2.3,2.4l5.3,1.4c11.4,3,20.8,8.5,27.1,15.9c6.8,7.9,10.3,18,10.3,29.9v5H89.9v-5
		c0-11.9,3.5-21.9,10.3-29.9C106.6,195.2,116,189.7,127.4,186.7z"/>
	<path class="st3" d="M235.7,130.7c6.2-7.7,9.6-17.3,9.6-27.4c0-24.2-19.7-43.8-43.8-43.8c-21.2,0-39.4,15.1-43.1,36
		c-0.3,1.7,0.8,3.4,2.5,3.7l5.3,1c0.8,0.2,1.7,0,2.4-0.5c0.7-0.5,1.2-1.2,1.3-2c2.8-15.3,16.1-26.4,31.6-26.4
		c17.7,0,32.1,14.4,32.1,32.1c0,10-4.5,19.2-12.4,25.4l-4.3,3.4c-0.9,0.7-1.4,1.9-1.2,3.1c0.2,1.2,1.1,2.1,2.3,2.4l5.3,1.4
		c11.4,3,20.8,8.5,27.1,15.9c6.8,7.9,10.3,18,10.3,29.9v7.2h-34.3c-1.7,0-3.2,1.4-3.2,3.2v5.4c0,1.7,1.4,3.2,3.2,3.2h42.8
		c1.7,0,3.2-1.4,3.2-3.2v-15.8C272.5,159.6,259.1,140.2,235.7,130.7z"/>
	<path class="st3" d="M71.6,200.5v-5.4c0-1.7-1.4-3.2-3.2-3.2H34.2v-7.2c0-11.9,3.5-21.9,10.3-29.9c6.4-7.4,15.8-12.9,27.1-15.9
		l5.3-1.4c1.2-0.3,2-1.2,2.3-2.4c0.2-1.2-0.2-2.4-1.1-3.1l-4.3-3.4c-7.9-6.1-12.4-15.4-12.4-25.4c0-17.7,14.4-32.1,32.1-32.1
		c15.6,0,28.9,11.1,31.6,26.4c0.1,0.8,0.6,1.6,1.3,2c0.7,0.5,1.5,0.7,2.4,0.5l5.3-1c1.7-0.3,2.9-2,2.5-3.7
		c-3.8-20.9-21.9-36-43.1-36c-24.2,0-43.8,19.7-43.8,43.8c0,10.1,3.4,19.7,9.6,27.4c-23.4,9.4-36.8,28.9-36.8,54v15.8
		c0,1.7,1.4,3.2,3.2,3.2h42.8C70.2,203.7,71.6,202.3,71.6,200.5z"/>
</g>
</svg>
