<?xml version="1.0" encoding="utf-8"?>
<!-- Generator: Adobe Illustrator 19.1.0, SVG Export Plug-In . SVG Version: 6.00 Build 0)  -->
<svg version="1.1" id="Layer_1" xmlns="http://www.w3.org/2000/svg" xmlns:xlink="http://www.w3.org/1999/xlink" x="0px" y="0px"
	 viewBox="0 0 300 300" style="enable-background:new 0 0 300 300;" xml:space="preserve">
<style type="text/css">
	.st0{fill:#DA4060;}
	.st1{fill:none;}
	.st2{fill:#89D0E3;}
	.st3{fill:#89D0E2;}
</style>
<g>
	<path class="st1" d="M121.7,93.1c3.2-1.8,6.5-3.6,9.8-5.3c-5.8-2.3-11.5-4.3-16.9-6.1c-1.3,5.6-2.4,11.5-3.2,17.5
		C114.6,97.1,118,95.1,121.7,93.1z"/>
	<path class="st1" d="M194.3,145.3c0-8-0.3-16.2-0.9-24.3c-6.5-4.5-13.4-8.8-20.6-13c-6.8-4-14-7.8-21.4-11.4
		c-7.4,3.5-14.6,7.2-21.5,11.1c-7.1,4-14.2,8.4-21,12.9c-0.6,8.1-0.9,16.4-0.9,24.6c0,8,0.3,16.2,0.9,24.3c6.7,4.6,13.6,8.9,20.6,13
		c6.8,4,14,7.8,21.4,11.4c7.3-3.4,14.5-7.2,21.5-11.1c7.2-4.1,14.3-8.4,21-12.9C194,161.9,194.3,153.6,194.3,145.3z M151.2,164.9
		c-10.8,0-19.6-8.8-19.6-19.6c0-10.8,8.8-19.6,19.6-19.6s19.6,8.8,19.6,19.6C170.8,156.1,162,164.9,151.2,164.9z"/>
	<path class="st1" d="M77.6,144.8c4.3,4,9,8,13.8,11.8c-0.1-4.1-0.2-7.9-0.2-11.4c0-3.9,0.1-7.8,0.2-12
		C86.5,137.1,81.9,141,77.6,144.8z"/>
	<path class="st1" d="M183.5,225.1c-10.7-3.3-21.7-7.6-32.8-12.6c-10.8,4.8-21.6,8.8-32.1,11.9c8.4,27.3,20.9,44.3,32.5,44.3
		C162.7,268.8,175.1,252,183.5,225.1z"/>
	<path class="st1" d="M236.7,133.9c2.6-2.8,5-5.5,7.1-8.1c14.1-17.4,19.7-32.8,14.9-41.3c-3.6-6.3-13.3-9.8-27.4-9.8
		c-8,0-17,1.1-26.9,3.2c2.3,10.5,4.1,21.8,5.2,33.7C219.4,118.9,228.5,126.3,236.7,133.9z"/>
	<path class="st1" d="M92.8,178.9c-9.9-7.1-19.1-14.6-27.3-22.2C46.4,177.1,38,196,43.7,206c3.6,6.3,13.3,9.8,27.4,9.8
		c7.9,0,17-1.1,26.9-3.2C95.7,202,93.9,190.7,92.8,178.9z"/>
	<path class="st1" d="M180.7,197.5c-3.4,1.9-6.8,3.7-9.8,5.3c5.5,2.2,11.2,4.2,16.9,6.1c1.3-5.7,2.4-11.5,3.2-17.5
		C187.9,193.4,184.5,195.4,180.7,197.5z"/>
	<path class="st1" d="M257.9,207.3c4.9-8.4-0.5-24-14.4-41.5c-2.1-2.6-4.4-5.4-7-8.2c-8.2,7.4-17.3,14.7-27,21.6
		c-1.2,12.1-3,23.6-5.4,34.1c10,2.3,19.2,3.4,27.3,3.4C245,216.8,254.4,213.4,257.9,207.3z"/>
	<path class="st1" d="M71,73.8c-13.6,0-23,3.3-26.5,9.4c-5.8,9.9,2.4,28.9,21.2,49.6c8.1-7.4,17.2-14.6,27.2-21.6
		c1.2-12,3-23.4,5.4-34C88.2,75,79,73.8,71,73.8z"/>
	<path class="st1" d="M111.3,191.3c0.8,5.6,1.9,11.3,3.1,17c5.5-1.7,11-3.6,16.4-5.6c-3.4-1.8-6.6-3.6-9.8-5.4
		C117.6,195.1,114.4,193.2,111.3,191.3z"/>
	<path class="st1" d="M224.7,145.7c-4.2-3.9-8.8-7.9-13.7-11.8c0.1,4.1,0.2,7.8,0.2,11.3c0,3.8-0.1,7.8-0.2,12
		C215.8,153.5,220.4,149.6,224.7,145.7z"/>
	<path class="st1" d="M191.1,99.3c-0.9-5.8-1.9-11.5-3.1-17c-5.3,1.6-10.8,3.5-16.4,5.6c3.4,1.8,6.6,3.6,9.7,5.4
		C184.5,95.3,187.8,97.3,191.1,99.3z"/>
	<path class="st1" d="M151.6,78.1c10.8-4.8,21.6-8.8,32.1-11.9c-8.4-27.3-20.9-44.3-32.5-44.3c-11.6,0-23.9,16.7-32.3,43.7
		C129.6,68.8,140.6,73,151.6,78.1z"/>
	<path class="st2" d="M271.6,215.3c8.6-14.7,3-35.8-15.7-59.3c-2.5-3.1-5.3-6.4-8.4-9.8l-0.3-0.3l0.3-0.3c3.2-3.3,6-6.6,8.6-9.7
		c18.9-23.3,24.8-44.2,16.4-59.1C267.9,68.7,257,59,231.2,59c-9.3,0-19.9,1.3-31.4,3.9l-0.5,0.1l-0.1-0.4
		C188.3,26.6,170.8,6,151.2,6c-19.5,0-36.9,20.3-47.8,55.8l-0.1,0.4l-0.5-0.1C91.1,59.4,80.4,58,71,58C46,58,35.3,67.4,30.8,75.3
		c-9.8,16.8-1,41.9,23.9,69.1l0.3,0.3l-0.3,0.3c-25.3,26.8-34.3,51.9-24.8,68.8c4.6,8.1,15.5,17.8,41.2,17.8c9.4,0,20-1.3,31.4-3.9
		l0.5-0.1l0.1,0.4c10.9,35.9,28.4,56.5,48,56.5c19.5,0,36.9-20.3,47.8-55.8l0.1-0.4l0.5,0.1c11.7,2.7,22.4,4.1,31.8,4.1
		C256.3,232.6,267,223.2,271.6,215.3z M98.7,213.4c-10.2,2.2-19.5,3.4-27.6,3.4c-14.5,0-24.6-3.7-28.3-10.3
		c-6-10.6,2.3-29.6,22.3-50.9l0.3-0.4l0.4,0.3c8.3,7.7,17.6,15.3,27.7,22.6l0.2,0.1l0,0.2c1.2,12,3,23.6,5.4,34.3l0.1,0.5
		L98.7,213.4z M92.4,157.7l0,1.1l-0.8-0.7c-5.3-4.2-10.3-8.5-15.1-12.9l-0.4-0.4l0.4-0.4c4.6-4.2,9.7-8.5,15.1-12.6l0.8-0.7l0,1.1
		c-0.2,4.6-0.3,8.9-0.3,13.1C92.2,149.1,92.3,153.1,92.4,157.7z M99.3,77c-2.5,10.8-4.3,22.4-5.5,34.6l0,0.2l-0.2,0.1
		c-10.1,7.1-19.4,14.5-27.6,22l-0.4,0.3l-0.3-0.4c-19.7-21.5-27.8-40.6-21.7-51.2c3.7-6.4,13.4-9.9,27.4-9.9c8.3,0,17.7,1.2,28,3.5
		l0.5,0.1L99.3,77z M188.7,81.1l0.1,0.5c1.3,6,2.5,12.3,3.4,18.6l0.2,1.1l-0.9-0.6c-3.6-2.3-7.2-4.4-10.6-6.5
		c-3.4-2-6.9-3.9-10.7-5.9l-1-0.5l1-0.4c6.1-2.3,12.2-4.4,18-6.2L188.7,81.1z M117.7,65.6c8.7-28.1,21.2-44.8,33.4-44.8
		c12.2,0,25.1,17.4,33.6,45.5l0.1,0.5l-0.5,0.1c-10.6,3.2-21.6,7.3-32.7,12.1l-0.2,0.1l-0.2-0.1c-11.2-5.1-22.4-9.4-33.3-12.8
		l-0.5-0.1L117.7,65.6z M110.2,100.1c0.9-6.5,2.1-13,3.5-19.1l0.1-0.5l0.5,0.2c6,1.9,12.2,4.1,18.5,6.7l1,0.4l-1,0.5
		c-3.6,1.9-7.2,3.8-10.8,5.8c-4,2.3-7.6,4.4-11.2,6.6l-0.9,0.6L110.2,100.1z M113.7,209.5l-0.1-0.5c-1.4-6.2-2.5-12.4-3.4-18.6
		l-0.2-1.1l0.9,0.6c3.4,2.1,6.9,4.3,10.6,6.5c3.4,2,7,4,10.7,5.9l1,0.5l-1,0.4c-5.9,2.3-11.9,4.4-18,6.2L113.7,209.5z M184.6,224.9
		c-8.7,28.1-21.2,44.8-33.4,44.8c-12.2,0-25.1-17.4-33.6-45.5l-0.1-0.5l0.5-0.1c10.7-3.2,21.7-7.3,32.7-12.1l0.2-0.1l0.2,0.1
		c11.2,5.1,22.4,9.4,33.3,12.8l0.5,0.1L184.6,224.9z M192.2,190.5c-0.9,6.5-2.1,13-3.5,19.1l-0.1,0.5L188,210
		c-6.3-2-12.6-4.2-18.5-6.7l-1-0.4l1-0.5c3.2-1.7,7-3.7,10.8-5.8c4.1-2.4,7.8-4.5,11.2-6.6l0.9-0.6L192.2,190.5z M194.4,170.2l0,0.2
		l-0.2,0.1c-6.8,4.6-14,9-21.3,13.1c-7.1,4-14.4,7.8-21.8,11.3l-0.2,0.1l-0.2-0.1c-7.5-3.6-14.8-7.5-21.7-11.5
		c-7.1-4.1-14.1-8.5-20.8-13.2l-0.2-0.1l0-0.2c-0.6-8.2-0.9-16.5-0.9-24.6c0-8.3,0.3-16.7,0.9-25l0-0.2l0.2-0.1
		c6.9-4.6,14.1-9,21.3-13.1c7-3.9,14.3-7.7,21.8-11.3l0.2-0.1l0.2,0.1c7.5,3.6,14.7,7.5,21.7,11.5c7.2,4.2,14.3,8.6,20.8,13.2
		l0.2,0.1l0,0.2c0.6,8.2,0.9,16.5,0.9,24.6C195.3,153.7,195,162.1,194.4,170.2z M203.6,77.2c10.2-2.2,19.5-3.4,27.6-3.4
		c14.5,0,24.6,3.6,28.3,10.3c5,8.9-0.6,24.7-15,42.4c-2.2,2.7-4.7,5.6-7.5,8.5l-0.3,0.4l-0.4-0.3c-8.3-7.8-17.6-15.4-27.6-22.6
		l-0.2-0.1l0-0.2c-1.2-12.1-3-23.7-5.3-34.3l-0.1-0.5L203.6,77.2z M209.9,132.9l0-1.1l0.8,0.7c5.4,4.3,10.4,8.6,15,12.9l0.4,0.4
		l-0.4,0.4c-4.6,4.2-9.7,8.4-15,12.6l-0.8,0.7l0-1.1c0.2-4.6,0.3-8.9,0.3-13C210.2,141.5,210.1,137.5,209.9,132.9z M258.8,207.8
		c-3.7,6.4-13.4,9.9-27.4,9.9c-8.3,0-17.7-1.2-28-3.6l-0.5-0.1l0.1-0.5c2.5-10.7,4.3-22.3,5.5-34.7l0-0.2l0.2-0.1
		c10-7,19.2-14.4,27.5-22l0.4-0.3l0.3,0.4c2.7,2.9,5.2,5.8,7.4,8.6C258.5,183.1,263.9,199,258.8,207.8z"/>
	<path class="st0" d="M151.2,125.7c-10.8,0-19.6,8.8-19.6,19.6c0,10.8,8.8,19.6,19.6,19.6s19.6-8.8,19.6-19.6
		C170.8,134.5,162,125.7,151.2,125.7z"/>
</g>
</svg>
