<?xml version="1.0" encoding="utf-8"?>
<!-- Generator: Adobe Illustrator 19.1.0, SVG Export Plug-In . SVG Version: 6.00 Build 0)  -->
<svg version="1.1" id="Layer_1" xmlns="http://www.w3.org/2000/svg" xmlns:xlink="http://www.w3.org/1999/xlink" x="0px" y="0px"
	 viewBox="0 0 57.9 63.1" style="enable-background:new 0 0 57.9 63.1;" xml:space="preserve">
<style type="text/css">
	.st0{fill:#55565A;}
	.st1{fill:#DA4060;}
	.st2{fill:none;}
	.st3{fill:#89D0E3;}
	.st4{fill:#89D0E2;}
</style>
<path class="st4" d="M57.8,15.8c0-0.1,0-0.1,0-0.2c0-0.1,0-0.3-0.1-0.4c0-0.1-0.1-0.1-0.1-0.2c0-0.1-0.1-0.2-0.1-0.3
	c0-0.1-0.1-0.1-0.1-0.2c-0.1-0.1-0.1-0.2-0.2-0.3c-0.1-0.1-0.1-0.1-0.2-0.2c-0.1-0.1-0.1-0.1-0.2-0.2c0,0-0.1,0-0.1,0c0,0,0,0-0.1,0
	L29.9,0.4c-0.6-0.3-1.4-0.3-2,0L1.2,14.5c0,0,0,0-0.1,0c0,0-0.1,0-0.1,0c-0.1,0-0.1,0.1-0.2,0.2c-0.1,0.1-0.1,0.1-0.2,0.2
	c-0.1,0.1-0.2,0.2-0.2,0.3c0,0.1-0.1,0.1-0.1,0.2c-0.1,0.1-0.1,0.3-0.2,0.4c0,0,0,0.1-0.1,0.1C0,16.1,0,16.3,0,16.5v31
	c0,0.8,0.5,1.6,1.2,2l26.9,13.4c0,0,0,0,0.1,0c0.1,0.1,0.2,0.1,0.3,0.1c0,0,0.1,0,0.1,0c0.2,0,0.3,0.1,0.5,0.1c0.2,0,0.3,0,0.5-0.1
	c0,0,0.1,0,0.1,0c0.1,0,0.2-0.1,0.4-0.1c0,0,0,0,0.1,0l26.4-14.1c0.7-0.4,1.2-1.1,1.2-2V15.8C57.8,15.8,57.8,15.8,57.8,15.8
	C57.8,15.8,57.8,15.8,57.8,15.8z M28.9,5l21.8,10.9L29.1,27.4l-22-10.9L28.9,5z M4.5,20.1l22.5,11.2v26L4.5,46.1V20.1z M53.3,45.4
	l-22,11.7V31.2l22-11.7V45.4z"/>
<g>
	<path class="st1" d="M50.7,38.5c-0.1-0.3-0.3-0.5-0.5-0.7c-0.7-0.3-1.7,0.1-2.3,1c-2.9,4.4-7.6,6.8-10.5,5.4
		c-0.7-0.3-1.7,0.1-2.3,1c-0.4,0.6-0.5,1.2-0.4,1.7c0.1,0.3,0.3,0.5,0.5,0.7c0.8,0.4,1.8,0.6,2.8,0.6c1.5,0,3.1-0.4,4.8-1.3
		c2.8-1.4,5.4-3.8,7.4-6.8C50.7,39.6,50.8,39,50.7,38.5z"/>
	<path class="st1" d="M36.7,37.3c0.2,0.1,0.5,0.2,0.7,0.2c0.3,0,0.6-0.1,1-0.3c1.1-0.6,2-1.9,2-3c0-0.6-0.2-1-0.6-1.3
		c-0.5-0.3-1.1-0.3-1.7,0.1c-1.1,0.6-2,1.9-2,3C36,36.6,36.3,37.1,36.7,37.3z"/>
	<path class="st1" d="M45.8,32.8c0.2,0.1,0.5,0.2,0.7,0.2c0.3,0,0.6-0.1,1-0.3h0c1.1-0.6,2-1.9,2-3c0-0.6-0.2-1-0.6-1.3
		c-0.5-0.3-1.1-0.3-1.7,0.1c-1.1,0.6-2,1.9-2,3C45.1,32.1,45.4,32.5,45.8,32.8z"/>
</g>
</svg>
