<?xml version="1.0" encoding="utf-8"?>
<!-- Generator: Adobe Illustrator 20.1.0, SVG Export Plug-In . SVG Version: 6.00 Build 0)  -->
<svg version="1.1" xmlns="http://www.w3.org/2000/svg" xmlns:xlink="http://www.w3.org/1999/xlink" x="0px" y="0px"
	 viewBox="0 0 288 288" style="enable-background:new 0 0 288 288;" xml:space="preserve">
<style type="text/css">
	.st0{opacity:0.5;fill:none;stroke:#D0ECF0;stroke-width:0.5756;stroke-linecap:round;stroke-linejoin:round;stroke-miterlimit:10;}
	.st1{opacity:0.5;}
	.st2{fill:none;stroke:#D0ECF0;stroke-width:0.4688;stroke-linecap:round;stroke-linejoin:round;stroke-miterlimit:10;}
	.st3{fill:none;stroke:#FFFFFF;stroke-width:5;stroke-linecap:round;stroke-linejoin:round;stroke-miterlimit:10;}
	.st4{fill:none;stroke:#FFFFFF;stroke-width:5;stroke-miterlimit:10;}
	.st5{fill:none;stroke:#FFFFFF;stroke-width:5;stroke-linecap:round;stroke-miterlimit:10;}
	.st6{fill:#FFFFFF;}
	.st7{fill:#231F20;}
	.st8{fill:#362FC1;}
	.st9{fill:none;stroke:#FFFFFF;stroke-linecap:round;stroke-linejoin:round;stroke-miterlimit:10;}
	.st10{fill:none;stroke:#FFFFFF;stroke-miterlimit:10;}
	.st11{fill:none;stroke:#FFFFFF;stroke-linecap:round;stroke-miterlimit:10;}
	.st12{fill:#FFFFFF;stroke:#FFFFFF;stroke-miterlimit:10;}
</style>
<g id="Grid">
</g>
<g id="Layer_1">
	<g>
		<path class="st8" d="M269.4,73.1c-0.4-0.8-1.3-1.3-2.2-1.3h-88.5c-10.2-27.4-36.6-47-67.5-47c-39.7,0-71.9,32.3-71.9,71.9
			c0,18.1,6.8,35.4,19,48.7c0.2,0.2,0.3,0.3,0.5,0.5l-40.1,68.8c-0.5,0.8-0.5,1.7,0,2.5s1.3,1.3,2.2,1.3h96.3
			c10.8,26.1,36.5,44.6,66.5,44.6c39.7,0,71.9-32.3,71.9-71.9c0-18.1-6.8-35.5-19.1-48.8c-1.2-1.3-2.5-2.6-3.8-3.8l36.7-63
			C269.8,74.9,269.8,73.9,269.4,73.1z M25.1,213.6l37.3-63.9c11.7,10.8,26.6,17.4,42.5,18.8c0.1,0,0.1,0,0.2,0c1.3,0,2.4-1,2.5-2.3
			c0.1-1.4-0.9-2.6-2.3-2.7c-16.6-1.4-32-9-43.4-21.3c-11.4-12.4-17.7-28.5-17.7-45.3c0-36.9,30-66.9,66.9-66.9s66.9,30,66.9,66.9
			c0,8.1-1.5,15.9-4.1,23.1c-35.6,4.7-62.3,35.1-62.3,71.3c0,7.8,1.3,15.3,3.6,22.4H25.1z M171.8,125.3c-9,19.2-26.9,33.4-48.7,37.3
			C132.1,143.5,150,129.2,171.8,125.3z M228.9,135.3c-11.1-9-24.7-14.5-39.1-15.8c-1.4-0.1-2.6,0.9-2.7,2.3
			c-0.1,1.4,0.9,2.6,2.3,2.7c16.6,1.4,32.1,9,43.4,21.3c11.4,12.4,17.7,28.5,17.7,45.4c0,36.9-30,66.9-66.9,66.9s-66.9-30-66.9-66.9
			c0-8.1,1.5-15.9,4.1-23.1c35.6-4.8,62.3-35.1,62.3-71.3c0-6.9-1-13.6-2.8-19.9h82.6L228.9,135.3z"/>
		<path class="st8" d="M137.4,105.3c0-1.4-1.1-2.5-2.5-2.5s-2.5,1.1-2.5,2.5c0,11.7-9.6,21.3-21.3,21.3s-21.3-9.6-21.3-21.3
			c0-1.4-1.1-2.5-2.5-2.5s-2.5,1.1-2.5,2.5c0,14.5,11.8,26.3,26.3,26.3S137.4,119.8,137.4,105.3z"/>
		<circle class="st8" cx="87.5" cy="85.4" r="3"/>
		<circle class="st8" cx="134.9" cy="85.4" r="3"/>
		<path class="st8" d="M162.2,199.7c0-1.4-1.1-2.5-2.5-2.5s-2.5,1.1-2.5,2.5c0,14.5,11.8,26.3,26.3,26.3s26.3-11.8,26.3-26.3
			c0-1.4-1.1-2.5-2.5-2.5s-2.5,1.1-2.5,2.5c0,11.7-9.6,21.3-21.3,21.3S162.2,211.5,162.2,199.7z"/>
		<circle class="st8" cx="160" cy="179.8" r="3"/>
		<circle class="st8" cx="207.3" cy="179.8" r="3"/>
	</g>
</g>
</svg>
