<?xml version="1.0" encoding="utf-8"?>
<!-- Generator: Adobe Illustrator 19.1.0, SVG Export Plug-In . SVG Version: 6.00 Build 0)  -->
<svg version="1.1" id="Layer_1" xmlns="http://www.w3.org/2000/svg" xmlns:xlink="http://www.w3.org/1999/xlink" x="0px" y="0px"
	 viewBox="0 0 110 98" style="enable-background:new 0 0 110 98;" xml:space="preserve">
<style type="text/css">
	.st0{fill:#55565A;}
	.st1{fill:#DA4060;}
	.st2{fill:none;}
	.st3{fill:#89D0E3;}
	.st4{fill:#89D0E2;}
</style>
<g>
	<g>
		<path class="st4" d="M44,74.6c-0.3,0-0.7-0.1-1-0.2L16.1,61c-0.8-0.4-1.2-1.2-1.2-2v-31c0-0.8,0.4-1.5,1.1-1.9
			c0.7-0.4,1.5-0.4,2.2-0.1L44,38.9l25.4-13.5c0.7-0.4,1.5-0.3,2.2,0.1c0.7,0.4,1.1,1.1,1.1,1.9v31c0,0.8-0.5,1.6-1.2,2L45.1,74.4
			C44.7,74.6,44.4,74.6,44,74.6z M19.3,57.6L44,69.9L68.2,57V31.1L45.1,43.4c-0.6,0.3-1.4,0.3-2,0L19.3,31.7V57.6z"/>
	</g>
	<g>
		<path class="st4" d="M44,43.7c-0.3,0-0.7-0.1-1-0.2L16.1,30.1c-0.8-0.4-1.2-1.1-1.2-2c0-0.8,0.5-1.6,1.2-2L42.7,12
			c0.6-0.3,1.4-0.3,2,0l26.7,13.4c0.7,0.4,1.2,1.1,1.2,2c0,0.8-0.4,1.6-1.2,2L45.1,43.4C44.7,43.6,44.4,43.7,44,43.7z M22,28
			l22,10.9l21.6-11.5L43.8,16.5L22,28z"/>
	</g>
	<g>
		<path class="st4" d="M44,74.6c-1.2,0-2.2-1-2.2-2.2v-31c0-1.2,1-2.2,2.2-2.2s2.2,1,2.2,2.2v31C46.3,73.6,45.3,74.6,44,74.6z"/>
	</g>
</g>
<g>
	<path class="st1" d="M57.6,58.2c2.6-1.3,5.3-3.6,7.3-6.6c0.5-0.7,0.5-1.5,0-1.8c-0.5-0.2-1.3,0.2-1.8,0.9c-3,4.5-7.9,7-11,5.5
		c-0.5-0.2-1.3,0.2-1.8,0.9c-0.5,0.7-0.5,1.5,0,1.8C52.4,59.8,55,59.5,57.6,58.2"/>
	<path class="st1" d="M53,59.8c-1,0-2-0.2-2.8-0.6c-0.3-0.1-0.4-0.4-0.5-0.7c-0.1-0.5,0-1.1,0.4-1.7c0.6-0.9,1.6-1.4,2.3-1
		c2.9,1.4,7.6-1,10.5-5.4c0.6-0.9,1.6-1.4,2.3-1c0.3,0.1,0.5,0.4,0.5,0.7c0.1,0.5,0,1.1-0.4,1.7c-2,3-4.6,5.4-7.4,6.8
		C56.1,59.3,54.5,59.8,53,59.8z M51.8,56.4c-0.3,0-0.8,0.3-1.1,0.8c-0.2,0.4-0.4,0.8-0.3,1.1c0,0.1,0.1,0.2,0.1,0.2
		c1.8,0.9,4.3,0.7,6.9-0.6l0.2,0.3l-0.2-0.3c2.7-1.4,5.2-3.7,7.1-6.5c0.2-0.4,0.4-0.8,0.3-1.1c0-0.1-0.1-0.2-0.1-0.2
		c-0.3-0.1-0.9,0.2-1.3,0.8c-3.1,4.7-8.2,7.2-11.4,5.6C51.9,56.4,51.9,56.4,51.8,56.4z"/>
</g>
<g>
	<path class="st1" d="M53.1,48.5c1-0.5,1.8-1.7,1.8-2.7c0-1-0.8-1.4-1.8-0.9c-1,0.5-1.8,1.7-1.8,2.7S52.1,49,53.1,48.5z"/>
	<path class="st1" d="M52.3,49.1c-0.3,0-0.5-0.1-0.7-0.2c-0.4-0.3-0.6-0.7-0.6-1.3c0-1.1,0.9-2.5,2-3c0.6-0.3,1.3-0.3,1.7-0.1
		c0.4,0.3,0.6,0.7,0.6,1.3c0,1.1-0.9,2.5-2,3l0,0C52.9,49,52.6,49.1,52.3,49.1z M53.9,45.1c-0.2,0-0.4,0.1-0.6,0.2
		c-0.9,0.4-1.6,1.5-1.6,2.4c0,0.2,0,0.5,0.3,0.7c0.2,0.1,0.6,0.1,1-0.1c0.9-0.4,1.6-1.5,1.6-2.4c0-0.2,0-0.5-0.3-0.6
		C54.1,45.1,54,45.1,53.9,45.1z"/>
</g>
<g>
	<path class="st1" d="M62.2,44c1-0.5,1.8-1.7,1.8-2.7c0-1-0.8-1.4-1.8-0.9c-1,0.5-1.8,1.7-1.8,2.7S61.2,44.5,62.2,44z"/>
	<path class="st1" d="M61.4,44.5c-0.3,0-0.5-0.1-0.7-0.2c-0.4-0.3-0.6-0.7-0.6-1.3c0-1.1,0.9-2.5,2-3c0.6-0.3,1.2-0.3,1.7-0.1
		c0.4,0.3,0.6,0.7,0.6,1.3c0,1.1-0.9,2.5-2,3h0C62,44.5,61.7,44.5,61.4,44.5z M63,40.5c-0.2,0-0.4,0.1-0.6,0.2
		c-0.9,0.4-1.6,1.5-1.6,2.4c0,0.2,0,0.5,0.3,0.6c0.2,0.1,0.6,0.1,1-0.1c0.9-0.4,1.6-1.5,1.6-2.4c0-0.2,0-0.5-0.3-0.7
		C63.2,40.6,63.1,40.5,63,40.5z"/>
</g>
</svg>
