<?xml version="1.0" encoding="UTF-8" standalone="no"?>
<!-- Created with Inkscape (http://www.inkscape.org/) -->

<svg
   xmlns:dc="http://purl.org/dc/elements/1.1/"
   xmlns:cc="http://creativecommons.org/ns#"
   xmlns:rdf="http://www.w3.org/1999/02/22-rdf-syntax-ns#"
   xmlns:svg="http://www.w3.org/2000/svg"
   xmlns="http://www.w3.org/2000/svg"
   version="1.1"
   width="225.36749"
   height="240"
   id="svg4157">
  <defs
     id="defs4159" />
  <metadata
     id="metadata4162">
    <rdf:RDF>
      <cc:Work
         rdf:about="">
        <dc:format>image/svg+xml</dc:format>
        <dc:type
           rdf:resource="http://purl.org/dc/dcmitype/StillImage" />
        <dc:title></dc:title>
      </cc:Work>
    </rdf:RDF>
  </metadata>
  <g
     transform="translate(-250.17339,-229.50504)"
     id="layer1">
    <g
       transform="matrix(1.25,0,0,-1.25,423.60177,301.78394)"
       id="g500">
      <path
         d="m 0,0 c 3,-4.828 8.53,-10.199 10.734,-15.974 1.62,0.517 3.413,0.863 5.163,1.02 C 12.759,-6.413 6,2.781 0,9.347 L 0,0 z"
         id="path502"
         style="fill:#87d1e4;fill-opacity:1;fill-rule:nonzero;stroke:none" />
    </g>
    <g
       transform="matrix(1.25,0,0,-1.25,288.67552,321.65934)"
       id="g504">
      <path
         d="m 0,0 c 2.201,5.747 4.941,11.093 8.941,15.9 l 0,7.896 C 2.941,17.235 -1.929,9.5 -5.066,0.966 -3.311,0.827 -1.629,0.501 0,0"
         id="path506"
         style="fill:#d93f5f;fill-opacity:1;fill-rule:nonzero;stroke:none" />
    </g>
    <g
       transform="matrix(1.25,0,0,-1.25,339.85177,434.42924)"
       id="g508">
      <path
         d="m 0,0 0,7.34 c -18,5.938 -34.307,19.776 -41.143,37.412 -1.625,-0.507 -3.452,-0.838 -5.205,-0.984 C -38.912,23.792 -20,6.2 0,0"
         id="path510"
         style="fill:#d93f5f;fill-opacity:1;fill-rule:nonzero;stroke:none" />
    </g>
    <g
       transform="matrix(1.25,0,0,-1.25,442.96914,379.69584)"
       id="g512">
      <path
         d="m 0,0 c -1.748,0.165 -3.446,0.521 -5.064,1.044 -6.823,-17.674 -21.43,-31.544 -39.43,-37.491 l 0,-5.34 C -23.494,-35.585 -7.432,-19.985 0,0"
         id="path514"
         style="fill:#87d1e4;fill-opacity:1;fill-rule:nonzero;stroke:none" />
    </g>
    <g
       transform="matrix(1.25,0,0,-1.25,311.26577,237.01884)"
       id="g516">
      <path
         d="m 0,0 c 1.49,0 2.698,-1.208 2.698,-2.699 0,-1.49 -1.208,-2.698 -2.698,-2.698 -1.49,0 -2.699,1.208 -2.699,2.698 C -2.699,-1.208 -1.49,0 0,0 m 7.807,0 c 1.491,0 2.699,-1.208 2.699,-2.699 0,-1.49 -1.208,-2.698 -2.699,-2.698 -1.49,0 -2.698,1.208 -2.698,2.698 C 5.109,-1.208 6.317,0 7.807,0 m 7.808,0 c 1.491,0 2.699,-1.208 2.699,-2.699 0,-1.49 -1.208,-2.698 -2.699,-2.698 -1.49,0 -2.698,1.208 -2.698,2.698 0,1.491 1.208,2.699 2.698,2.699 m 72.254,-7.989 0,8.524 c 0,1.241 -0.896,2.476 -2.137,2.476 l -89.2,0 c -1.24,0 -2.663,-1.235 -2.663,-2.476 l 0,-8.524 94,0 z"
         id="path518"
         style="fill:#87d1e4;fill-opacity:1;fill-rule:nonzero;stroke:none" />
    </g>
    <g
       transform="matrix(1.25,0,0,-1.25,359.85177,296.13444)"
       id="g520">
      <path
         d="m 0,0 c 0,-2.042 -1.655,-3.697 -3.697,-3.697 l -33.606,0 C -39.345,-3.697 -41,-2.042 -41,0 l 0,28.606 c 0,2.042 1.655,3.697 3.697,3.697 l 33.606,0 C -1.655,32.303 0,30.648 0,28.606 L 0,0 z m 43.5,26.803 c 0,-0.828 -0.671,-1.5 -1.5,-1.5 l -33,0 c -0.829,0 -1.5,0.672 -1.5,1.5 0,0.828 0.671,1.5 1.5,1.5 l 33,0 c 0.829,0 1.5,-0.672 1.5,-1.5 m 0,-11 c 0,-0.828 -0.671,-1.5 -1.5,-1.5 l -33,0 c -0.829,0 -1.5,0.672 -1.5,1.5 0,0.828 0.671,1.5 1.5,1.5 l 33,0 c 0.829,0 1.5,-0.672 1.5,-1.5 m -36,-11 c 0,0.828 0.671,1.5 1.5,1.5 l 33,0 c 0.829,0 1.5,-0.672 1.5,-1.5 0,-0.828 -0.671,-1.5 -1.5,-1.5 l -33,0 c -0.829,0 -1.5,0.672 -1.5,1.5 M -45,-4.914 c 0,-1.241 1.423,-1.783 2.664,-1.783 l 89.199,0 c 1.241,0 2.137,0.542 2.137,1.783 l 0,41.217 -94,0 0,-41.217 z"
         id="path522"
         style="fill:#ffffff;fill-opacity:1;fill-rule:nonzero;stroke:none" />
    </g>
    <g
       transform="matrix(1.25,0,0,-1.25,378.60177,450.07924)"
       id="g524">
      <path
         d="m 0,0 c 0,-1.956 -1.585,-3.541 -3.541,-3.541 l -17.918,0 C -23.415,-3.541 -25,-1.956 -25,0 l 0,35.918 c 0,1.956 1.585,3.541 3.541,3.541 l 17.918,0 C -1.585,39.459 0,37.874 0,35.918 L 0,0 z m -12.489,-10.962 c -1.49,0 -2.698,1.208 -2.698,2.698 0,1.491 1.208,2.699 2.698,2.699 1.491,0 2.699,-1.208 2.699,-2.699 0,-1.49 -1.208,-2.698 -2.699,-2.698 M 4,42.209 c 0,1.243 -1.007,2.25 -2.25,2.25 l -28.5,0 c -1.243,0 -2.25,-1.007 -2.25,-2.25 l 0,-52.5 c 0,-1.243 1.007,-2.25 2.25,-2.25 l 28.5,0 c 1.243,0 2.25,1.007 2.25,2.25 l 0,52.5 z"
         id="path526"
         style="fill:#ffffff;fill-opacity:1;fill-rule:nonzero;stroke:none" />
    </g>
    <g
       transform="matrix(1.25,0,0,-1.25,362.99115,457.03594)"
       id="g528">
      <path
         d="m 0,0 c -1.49,0 -2.698,-1.208 -2.698,-2.698 0,-1.491 1.208,-2.699 2.698,-2.699 1.49,0 2.698,1.208 2.698,2.699 C 2.698,-1.208 1.49,0 0,0"
         id="path530"
         style="fill:#000000;fill-opacity:1;fill-rule:nonzero;stroke:none" />
    </g>
    <g
       transform="matrix(1.25,0,0,-1.25,311.26577,243.76574)"
       id="g532">
      <path
         d="M 0,0 C 1.49,0 2.698,1.208 2.698,2.699 2.698,4.189 1.49,5.397 0,5.397 -1.49,5.397 -2.699,4.189 -2.699,2.699 -2.699,1.208 -1.49,0 0,0"
         id="path534"
         style="fill:#000000;fill-opacity:1;fill-rule:nonzero;stroke:none" />
    </g>
    <g
       transform="matrix(1.25,0,0,-1.25,321.02514,243.76574)"
       id="g536">
      <path
         d="M 0,0 C 1.49,0 2.699,1.208 2.699,2.699 2.699,4.189 1.49,5.397 0,5.397 -1.49,5.397 -2.698,4.189 -2.698,2.699 -2.698,1.208 -1.49,0 0,0"
         id="path538"
         style="fill:#000000;fill-opacity:1;fill-rule:nonzero;stroke:none" />
    </g>
    <g
       transform="matrix(1.25,0,0,-1.25,330.78465,243.76574)"
       id="g540">
      <path
         d="M 0,0 C 1.49,0 2.699,1.208 2.699,2.699 2.699,4.189 1.49,5.397 0,5.397 -1.49,5.397 -2.698,4.189 -2.698,2.699 -2.698,1.208 -1.49,0 0,0"
         id="path542"
         style="fill:#000000;fill-opacity:1;fill-rule:nonzero;stroke:none" />
    </g>
    <g
       transform="matrix(1.25,0,0,-1.25,356.10177,296.62644)"
       id="g544">
      <path
         d="m 0,0 c 0,-0.167 -0.136,-0.303 -0.303,-0.303 l -33.394,0 C -33.864,-0.303 -34,-0.167 -34,0 l 0,29.394 c 0,0.167 0.136,0.303 0.303,0.303 l 33.394,0 C -0.136,29.697 0,29.561 0,29.394 L 0,0 z m 3,29 c 0,2.042 -1.655,3.697 -3.697,3.697 l -33.606,0 C -36.345,32.697 -38,31.042 -38,29 l 0,-28.607 c 0,-2.041 1.655,-3.696 3.697,-3.696 l 33.606,0 C 1.345,-3.303 3,-1.648 3,0.393 L 3,29 z"
         id="path546"
         style="fill:#000000;fill-opacity:1;fill-rule:nonzero;stroke:none" />
    </g>
    <g
       transform="matrix(1.25,0,0,-1.25,288.54802,338.93654)"
       id="g548">
      <path
         d="m 0,0 c 1.619,1.62 4.254,1.619 5.875,0 1.619,-1.62 1.619,-4.255 0,-5.875 L -7.789,-19.538 c -0.785,-0.785 -1.828,-1.217 -2.937,-1.217 -1.109,0 -2.152,0.432 -2.938,1.217 l -5.701,5.702 c -1.619,1.619 -1.619,4.254 0,5.874 1.621,1.62 4.256,1.619 5.875,0 l 2.764,-2.764 L 0,0 z m -27.222,-8.923 c 0,-11.19 9.104,-20.294 20.294,-20.294 11.19,0 20.294,9.104 20.294,20.294 0,11.19 -9.104,20.293 -20.294,20.293 -11.19,0 -20.294,-9.103 -20.294,-20.293"
         id="path550"
         style="fill:#87d1e4;fill-opacity:1;fill-rule:nonzero;stroke:none" />
    </g>
    <g
       transform="matrix(1.25,0,0,-1.25,275.14052,357.64754)"
       id="g552">
      <path
         d="m 0,0 -4.885,4.885 c -0.225,0.225 -0.521,0.338 -0.816,0.338 -0.296,0 -0.591,-0.113 -0.817,-0.338 -0.449,-0.449 -0.449,-1.182 0,-1.632 l 5.702,-5.701 c 0.436,-0.436 1.196,-0.436 1.632,0 l 13.663,13.663 c 0.45,0.45 0.45,1.182 0,1.633 -0.45,0.449 -1.182,0.45 -1.632,0 L 0,0 z"
         id="path554"
         style="fill:#ffffff;fill-opacity:1;fill-rule:nonzero;stroke:none" />
    </g>
    <g
       transform="matrix(1.25,0,0,-1.25,291.19939,341.58794)"
       id="g556">
      <path
         d="m 0,0 c 0.45,0.45 1.182,0.449 1.632,0 0.45,-0.45 0.45,-1.183 0,-1.632 l -13.663,-13.663 c -0.436,-0.436 -1.196,-0.436 -1.633,-10e-4 l -5.701,5.702 c -0.449,0.449 -0.449,1.182 0,1.632 0.225,0.225 0.521,0.337 0.817,0.337 0.295,0 0.59,-0.112 0.816,-0.337 l 4.885,-4.886 L 0,0 z m -13.554,-7.898 -1.928,1.928 c -1.533,1.533 -4.023,1.785 -5.697,0.408 -1.921,-1.581 -2.023,-4.437 -0.307,-6.153 l 5.585,-5.586 c 0.683,-0.683 1.556,-1.179 2.513,-1.299 1.308,-0.164 2.567,0.272 3.478,1.183 L 3.625,-3.882 C 5.157,-2.35 5.41,0.138 4.034,1.812 2.454,3.734 -0.405,3.839 -2.121,2.121 L -12.14,-7.898 c -0.391,-0.39 -1.024,-0.39 -1.414,0"
         id="path558"
         style="fill:#000000;fill-opacity:1;fill-rule:nonzero;stroke:none" />
    </g>
    <g
       transform="matrix(1.25,0,0,-1.25,445.6879,357.51574)"
       id="g560">
      <path
         d="m 0,0 -3.895,-3.894 c -0.784,-0.785 -1.827,-1.217 -2.937,-1.217 -1.109,0 -2.152,0.432 -2.937,1.217 -1.62,1.62 -1.62,4.255 0,5.874 l 3.894,3.895 -3.894,3.895 c -1.62,1.619 -1.62,4.254 0,5.874 0.785,0.785 1.828,1.217 2.937,1.217 1.11,0 2.153,-0.432 2.938,-1.217 L 0,11.75 3.894,15.644 c 1.619,1.619 4.255,1.62 5.875,0 1.62,-1.62 1.62,-4.255 0,-5.874 L 5.875,5.875 9.769,1.98 c 1.62,-1.619 1.62,-4.254 0,-5.874 -0.785,-0.785 -1.828,-1.217 -2.937,-1.217 -1.11,0 -2.153,0.432 -2.938,1.217 L 0,0 z m 20.383,5.94 c 0,11.19 -9.104,20.293 -20.294,20.293 -11.19,0 -20.294,-9.103 -20.294,-20.293 0,-11.19 9.104,-20.294 20.294,-20.294 11.19,0 20.294,9.104 20.294,20.294"
         id="path562"
         style="fill:#d93f5f;fill-opacity:1;fill-rule:nonzero;stroke:none" />
    </g>
    <g
       transform="matrix(1.25,0,0,-1.25,453.2069,359.73134)"
       id="g564">
      <path
         d="m 0,0 c 0.437,-0.437 1.196,-0.437 1.633,0 0.45,0.45 0.45,1.182 0,1.632 l -6.016,6.015 6.016,6.016 c 0.45,0.45 0.45,1.182 0,1.632 -0.45,0.45 -1.183,0.45 -1.633,0 l -6.015,-6.015 -6.016,6.015 c -0.436,0.436 -1.196,0.436 -1.632,0 -0.45,-0.45 -0.45,-1.182 0,-1.632 l 6.016,-6.016 -6.016,-6.015 c -0.45,-0.45 -0.45,-1.182 0,-1.632 0.436,-0.437 1.196,-0.437 1.632,0 L -6.015,6.015 0,0 z"
         id="path566"
         style="fill:#ffffff;fill-opacity:1;fill-rule:nonzero;stroke:none" />
    </g>
    <g
       transform="matrix(1.25,0,0,-1.25,445.79964,375.45754)"
       id="g568">
      <path
         d="m 0,0 c -11.19,0 -20.294,9.104 -20.294,20.294 0,11.189 9.104,20.293 20.294,20.293 11.19,0 20.293,-9.104 20.293,-20.293 C 20.293,9.104 11.19,0 0,0 m -46.084,-39.61 c 17.404,5.969 31.56,19.368 38.43,36.42 0.192,0.477 0.704,0.721 1.199,0.581 0.947,-0.267 1.916,-0.477 2.906,-0.626 0.645,-0.096 1.057,-0.752 0.818,-1.359 -7.46,-18.996 -22.784,-33.865 -42.727,-40.185 -0.642,-0.204 -1.3,0.286 -1.3,0.961 l 0,3.27 c 0,0.426 0.271,0.799 0.674,0.938 m -79.487,36.353 c 6.901,-17.02 21.714,-30.392 39.138,-36.354 0.403,-0.138 0.675,-0.512 0.675,-0.938 l 0,-3.248 c 0,-0.68 -0.668,-1.173 -1.314,-0.959 -19.061,6.33 -36.039,21.173 -43.566,40.129 -0.238,0.598 0.156,1.269 0.795,1.354 1.044,0.137 2.09,0.338 3.083,0.601 0.493,0.13 0.998,-0.113 1.189,-0.585 m -7.158,43.844 c 11.189,0 20.293,-9.104 20.293,-20.293 0,-11.19 -9.104,-20.294 -20.293,-20.294 -11.19,0 -20.294,9.104 -20.294,20.294 0,11.189 9.104,20.293 20.294,20.293 m 15.746,18.08 c -3.685,-4.501 -6.287,-9.468 -8.39,-14.789 -0.188,-0.475 -0.697,-0.723 -1.191,-0.591 -1.358,0.362 -2.755,0.603 -4.202,0.717 2.823,7.677 7.047,14.708 12.235,20.819 0.606,0.713 1.773,0.292 1.773,-0.644 l 0,-4.888 c 0,-0.228 -0.081,-0.448 -0.225,-0.624 M -7.359,43.798 c -2.262,5.362 -6.395,10.366 -9.246,14.896 -0.102,0.162 -0.153,0.347 -0.153,0.538 l 0,4.977 c 0,0.928 1.149,1.355 1.759,0.656 5.067,-5.805 9.787,-12.441 12.675,-19.674 0.238,-0.594 -0.153,-1.261 -0.786,-1.349 -1.035,-0.145 -2.068,-0.354 -3.053,-0.623 -0.494,-0.134 -0.998,0.108 -1.196,0.579 m -45.123,-56.036 -28.025,0 c -3.171,0 -5.251,-2.521 -5.251,-5.692 l 0,-18.213 c -16,5.805 -30.573,18.686 -36.889,35.006 7.958,3.853 13.586,12.011 13.586,21.431 0,9.453 -5.48,17.635 -13.485,21.471 1.787,4.673 4.174,9.046 7.014,13.075 1.056,-1.259 2.67,-1.078 4.437,-1.078 l 89.2,0 c 1.768,0 2.35,-0.181 3.406,1.078 2.861,-4.061 6.233,-8.479 8.025,-13.191 -7.887,-3.879 -13.33,-11.992 -13.33,-21.359 0,-9.333 5.391,-17.422 13.232,-21.318 -6.299,-16.373 -19.196,-29.297 -36.196,-35.115 l 0,18.213 c 0,3.171 -2.554,5.692 -5.724,5.692 m -59.276,112.024 90,0 c 1.104,0 2,-0.895 2,-2 l 0,-39.242 c 0,-0.971 -0.788,-1.758 -1.759,-1.758 l -89.578,0 c -1.465,0 -2.663,1.199 -2.663,2.664 l 0,38.336 c 0,1.105 0.895,2 2,2 m 0.5,14 89.363,0 c 1.18,0 2.137,-0.957 2.137,-2.137 l 0,-6.863 c 0,-1.104 -0.896,-2 -2,-2 l -90,0 c -1.105,0 -2,0.896 -2,2 l 0,6.5 c 0,1.375 1.125,2.5 2.5,2.5 m 61.5,-183.774 c 0,-1.243 -1.008,-2.25 -2.25,-2.25 l -28.5,0 c -1.243,0 -2.25,1.007 -2.25,2.25 l 0,52.5 c 0,1.242 1.007,2.25 2.25,2.25 l 28.5,0 c 1.242,0 2.25,-1.008 2.25,-2.25 l 0,-52.5 z m 73.551,90.282 c 0,12.605 -9.662,22.947 -22.071,23.739 -3.696,10.617 -11.48,20.109 -18.48,27.817 l 0,39.436 c 0,3.171 -1.967,5.476 -5.137,5.476 l -89.2,0 c -3.17,0 -5.663,-2.305 -5.663,-5.476 l 0,-39.436 c -8,-7.713 -14.029,-17.212 -17.724,-27.837 -12.283,-0.923 -22.019,-11.204 -22.019,-23.719 0,-12.546 9.501,-22.848 21.826,-23.726 7.711,-21.894 26.917,-38.962 48.917,-45.383 l 0,-21.856 c 0,-3.171 2.08,-4.567 5.251,-4.567 l 28.025,0 c 3.17,0 5.724,1.396 5.724,4.567 l 0,21.856 c 22,6.419 40.468,23.479 48.183,45.362 12.452,0.747 22.368,11.11 22.368,23.747"
         id="path570"
         style="fill:#000000;fill-opacity:1;fill-rule:nonzero;stroke:none" />
    </g>
    <g
       transform="matrix(1.25,0,0,-1.25,445.6879,352.21234)"
       id="g572">
      <path
         d="m 0,0 -6.016,-6.015 c -0.436,-0.437 -1.195,-0.437 -1.632,0 -0.45,0.45 -0.45,1.182 0,1.632 l 6.016,6.015 -6.016,6.016 c -0.45,0.45 -0.45,1.182 0,1.632 0.437,0.436 1.196,0.436 1.632,0 L 0,3.265 6.015,9.28 c 0.45,0.449 1.183,0.449 1.633,0 0.45,-0.45 0.45,-1.182 0,-1.632 L 1.632,1.632 7.648,-4.383 c 0.45,-0.45 0.45,-1.182 0,-1.632 -0.437,-0.437 -1.196,-0.437 -1.633,0 L 0,0 z m 6.378,-9.33 c 1.372,-0.144 2.684,0.371 3.586,1.403 1.462,1.67 1.231,4.239 -0.339,5.809 L 6.582,0.925 c -0.391,0.391 -0.391,1.024 0,1.414 l 3.056,3.057 c 1.534,1.534 1.787,4.024 0.409,5.698 -1.581,1.921 -4.438,2.022 -6.153,0.307 L 0.707,8.214 c -0.39,-0.39 -1.024,-0.39 -1.414,0 l -3.057,3.057 c -0.708,0.708 -1.618,1.218 -2.614,1.323 -1.372,0.145 -2.684,-0.371 -3.586,-1.402 -1.462,-1.671 -1.231,-4.239 0.339,-5.809 l 3.043,-3.044 c 0.391,-0.39 0.391,-1.023 0,-1.414 l -3.043,-3.043 c -1.57,-1.57 -1.801,-4.138 -0.34,-5.809 0.902,-1.031 2.215,-1.547 3.586,-1.403 0.996,0.105 1.906,0.615 2.614,1.323 l 3.058,3.057 c 0.39,0.391 1.024,0.391 1.414,0 L 3.764,-8.006 C 4.472,-8.714 5.382,-9.225 6.378,-9.33"
         id="path574"
         style="fill:#000000;fill-opacity:1;fill-rule:nonzero;stroke:none" />
    </g>
    <g
       transform="matrix(1.25,0,0,-1.25,374.85177,405.07924)"
       id="g576">
      <path
         d="m 0,0 c 0,0.253 -0.206,0.459 -0.459,0.459 l -18.082,0 C -18.794,0.459 -19,0.253 -19,0 l 0,-35.082 c 0,-0.254 0.206,-0.459 0.459,-0.459 l 18.082,0 c 0.253,0 0.459,0.205 0.459,0.459 L 0,0 z"
         id="path578"
         style="fill:#87d1e4;fill-opacity:1;fill-rule:nonzero;stroke:none" />
    </g>
    <g
       transform="matrix(1.25,0,0,-1.25,374.85177,448.93174)"
       id="g580">
      <path
         d="m 0,0 c 0,-0.253 -0.206,-0.459 -0.459,-0.459 l -18.082,0 C -18.794,-0.459 -19,-0.253 -19,0 l 0,35.082 c 0,0.254 0.206,0.459 0.459,0.459 l 18.082,0 C -0.206,35.541 0,35.336 0,35.082 L 0,0 z m 3,35 c 0,1.956 -1.585,3.541 -3.541,3.541 l -17.918,0 C -20.415,38.541 -22,36.956 -22,35 l 0,-35.918 c 0,-1.956 1.585,-3.541 3.541,-3.541 l 17.918,0 C 1.415,-4.459 3,-2.874 3,-0.918 L 3,35 z"
         id="path582"
         style="fill:#000000;fill-opacity:1;fill-rule:nonzero;stroke:none" />
    </g>
    <g
       transform="matrix(1.25,0,0,-1.25,412.35177,274.50544)"
       id="g584">
      <path
         d="m 0,0 -33,0 c -0.829,0 -1.5,-0.672 -1.5,-1.5 0,-0.828 0.671,-1.5 1.5,-1.5 l 33,0 c 0.829,0 1.5,0.672 1.5,1.5 C 1.5,-0.672 0.829,0 0,0"
         id="path586"
         style="fill:#000000;fill-opacity:1;fill-rule:nonzero;stroke:none" />
    </g>
    <g
       transform="matrix(1.25,0,0,-1.25,412.35177,292.00544)"
       id="g588">
      <path
         d="M 0,0 C 0.829,0 1.5,0.672 1.5,1.5 1.5,2.328 0.829,3 0,3 L -33,3 C -33.829,3 -34.5,2.328 -34.5,1.5 -34.5,0.672 -33.829,0 -33,0 L 0,0 z"
         id="path590"
         style="fill:#000000;fill-opacity:1;fill-rule:nonzero;stroke:none" />
    </g>
    <g
       transform="matrix(1.25,0,0,-1.25,371.10177,260.75544)"
       id="g592">
      <path
         d="M 0,0 C -0.829,0 -1.5,-0.672 -1.5,-1.5 -1.5,-2.328 -0.829,-3 0,-3 l 33,0 c 0.829,0 1.5,0.672 1.5,1.5 C 34.5,-0.672 33.829,0 33,0 L 0,0 z"
         id="path594"
         style="fill:#000000;fill-opacity:1;fill-rule:nonzero;stroke:none" />
    </g>
    <g
       transform="matrix(1.25,0,0,-1.25,356.10177,259.85334)"
       id="g596">
      <path
         d="m 0,0 c 0,0.167 -0.139,0.278 -0.311,0.278 l -34.212,0 C -34.694,0.278 -35,0.167 -35,0 l 0,-29.395 c 0,-0.167 0.306,-0.327 0.477,-0.327 l 34.212,0 c 0.172,0 0.311,0.16 0.311,0.327 L 0,0 z"
         id="path598"
         style="fill:#87d1e4;fill-opacity:1;fill-rule:nonzero;stroke:none" />
    </g>
    <g
       transform="matrix(1.25,0,0,-1.25,317.97677,275.72494)"
       id="g600">
      <path
         d="m 0,0 0,7.5 c 0,0.552 0.448,1 1,1 l 9.5,0"
         id="path602"
         style="fill:none;stroke:#ffffff;stroke-width:3;stroke-linecap:round;stroke-linejoin:round;stroke-miterlimit:10;stroke-opacity:1;stroke-dasharray:none" />
    </g>
    <g
       transform="matrix(1.25,0,0,-1.25,369.22677,431.97494)"
       id="g604">
      <path
         d="m 0,0 0,-8.5 c 0,-0.552 -0.448,-1 -1,-1 l -8.5,0"
         id="path606"
         style="fill:none;stroke:#ffffff;stroke-width:3;stroke-linecap:round;stroke-linejoin:round;stroke-miterlimit:10;stroke-opacity:1;stroke-dasharray:none" />
    </g>
    <g
       transform="matrix(1.25,0,0,-1.25,330.13152,325.23344)"
       id="g608">
      <path
         d="M 0,0 C 0,0 -8.974,-5.357 -8.974,-18.75 -8.974,-32.143 0,-37.5 0,-37.5"
         id="path610"
         style="fill:none;stroke:#000000;stroke-width:3.5;stroke-linecap:round;stroke-linejoin:round;stroke-miterlimit:10;stroke-opacity:1;stroke-dasharray:none" />
    </g>
    <g
       transform="matrix(1.25,0,0,-1.25,332.66902,360.47874)"
       id="g612">
      <path
         d="m 0,0 -0.632,-11.251 -11.486,0.645"
         id="path614"
         style="fill:none;stroke:#000000;stroke-width:3.5;stroke-linecap:round;stroke-linejoin:round;stroke-miterlimit:10;stroke-opacity:1;stroke-dasharray:none" />
    </g>
    <g
       transform="matrix(1.25,0,0,-1.25,396.3089,374.54294)"
       id="g616">
      <path
         d="M 0,0 C 0,0 8.974,5.357 8.974,18.75 8.974,32.143 0,37.5 0,37.5"
         id="path618"
         style="fill:none;stroke:#000000;stroke-width:3.5;stroke-linecap:round;stroke-linejoin:round;stroke-miterlimit:10;stroke-opacity:1;stroke-dasharray:none" />
    </g>
    <g
       transform="matrix(1.25,0,0,-1.25,393.77139,339.29784)"
       id="g620">
      <path
         d="M 0,0 0.632,11.251 12.118,10.606"
         id="path622"
         style="fill:none;stroke:#000000;stroke-width:3.5;stroke-linecap:round;stroke-linejoin:round;stroke-miterlimit:10;stroke-opacity:1;stroke-dasharray:none" />
    </g>
  </g>
</svg>
