<svg id="Layer_1" data-name="Layer 1" xmlns="http://www.w3.org/2000/svg" viewBox="0 0 310 145"><defs><style>.cls-1{fill:#362fc1;}.cls-2{fill:#00fbdd;}</style></defs><title>icon</title><path class="cls-1" d="M104.6,22.89h-11A12.19,12.19,0,0,0,81.37,35V76.26a12.19,12.19,0,0,0,12.2,12.15h11a12.19,12.19,0,0,0,12.2-12.15V35A12.19,12.19,0,0,0,104.6,22.89Zm6.2,53.36a6.19,6.19,0,0,1-6.2,6.16h-11a6.19,6.19,0,0,1-6.2-6.16V35a6.19,6.19,0,0,1,6.2-6.16h11a6.19,6.19,0,0,1,6.2,6.16Z"/><path class="cls-1" d="M279.35,22.89H242.56A12.19,12.19,0,0,0,230.36,35V57.94a12.19,12.19,0,0,0,12.2,12.15h36.79a12.19,12.19,0,0,0,12.2-12.15V35A12.19,12.19,0,0,0,279.35,22.89Zm6.2,35a6.19,6.19,0,0,1-6.2,6.16H242.56a6.19,6.19,0,0,1-6.2-6.16V35a6.19,6.19,0,0,1,6.2-6.16h36.79a6.19,6.19,0,0,1,6.2,6.16Z"/><path class="cls-1" d="M306.19,139H3.19a3,3,0,1,0,0,6h303a3,3,0,1,0,0-6Z"/><path class="cls-1" d="M284,0H74.61A26.16,26.16,0,0,0,52.15,12.8L3.62,95.13a25.58,25.58,0,0,0-.17,26,25.78,25.78,0,0,0,22.63,13.1H284a26,26,0,0,0,26-25.94V25.94A26,26,0,0,0,284,0ZM49.63,28.89h7.14A6.19,6.19,0,0,1,63,35V76.26c0,3.64-3,7.08-6.2,7.08H17.54ZM172.19,128.2h-37V35a6.19,6.19,0,0,1,6.2-6.16h30.8Zm39.78,0H178.19V28.89h27.58A6.19,6.19,0,0,1,212,35Zm92-19.94a20,20,0,0,1-20,19.94H218V88.41h86Zm0-25.84H218V35a12.19,12.19,0,0,0-12.2-12.15H141.39A12.19,12.19,0,0,0,129.19,35V128.2H26.08A19.84,19.84,0,0,1,8.66,118.13a19.65,19.65,0,0,1,.13-20L14,89.33H56.77c6.5,0,12.2-6.11,12.2-13.07V35a12.19,12.19,0,0,0-12.2-12.15h-3.6l4.15-7A20.14,20.14,0,0,1,74.61,6H284a20,20,0,0,1,20,19.94Z"/><path class="cls-2" d="M279.35,28.89H242.56a6.19,6.19,0,0,0-6.2,6.16V57.94a6.19,6.19,0,0,0,6.2,6.16h36.79a6.19,6.19,0,0,0,6.2-6.16V35A6.19,6.19,0,0,0,279.35,28.89Z"/><path class="cls-2" d="M104.6,28.89h-11A6.19,6.19,0,0,0,87.37,35V76.26a6.19,6.19,0,0,0,6.2,6.16h11a6.19,6.19,0,0,0,6.2-6.16V35A6.19,6.19,0,0,0,104.6,28.89Z"/><path class="cls-2" d="M56.77,28.89H49.63L17.54,83.33H56.77c3.19,0,6.2-3.44,6.2-7.08V35A6.19,6.19,0,0,0,56.77,28.89Z"/></svg>