<svg id="Layer_1" data-name="Layer 1" xmlns="http://www.w3.org/2000/svg" viewBox="0 0 312 197"><defs><style>.cls-1{fill:#362fc1;}.cls-2{fill:#00fbdd;}</style></defs><title>icon</title><path class="cls-1" d="M310.52,98A10.88,10.88,0,0,0,301,92.45H230.34V64.56h10.3a3,3,0,0,0,3-3V46.8a3,3,0,0,0-3-3H206.91V17.6a3,3,0,0,0-3-3H175.29a3,3,0,0,0-3,3V43.81H154.13V3a3,3,0,0,0-3-3H122.52a3,3,0,0,0-3,3V43.81H85.12a3,3,0,0,0-3,3V61.56a3,3,0,0,0,3,3H97.26V92.45H11A11,11,0,0,0,1.5,108.94l43.83,77a16.13,16.13,0,0,1-24.63-1.39,3,3,0,0,0-4.8,3.59,22.12,22.12,0,0,0,33,2.71,22.12,22.12,0,0,0,30.6,0,22.12,22.12,0,0,0,30.6,0,22.12,22.12,0,0,0,30.6,0,22.12,22.12,0,0,0,30.6,0,22.12,22.12,0,0,0,30.6,0,22.12,22.12,0,0,0,30.6,0,22.12,22.12,0,0,0,30.6,0,22.12,22.12,0,0,0,33-2.71,3,3,0,0,0-4.8-3.59A16.13,16.13,0,0,1,266.74,186L310.49,109A10.86,10.86,0,0,0,310.52,98ZM178.29,20.59h22.62V29.2H178.29Zm0,14.6h22.62v8.61H178.29Zm-52.77-14.6h22.62V29.2H125.51Zm0-14.6h22.62V14.6H125.51Zm0,29.2h22.62v8.61H125.51ZM88.12,49.8H237.64v8.77H88.12ZM224.35,64.56V92.13H103.25V64.56Zm-207,60.11H57.51a5,5,0,0,1,5,5V153a5,5,0,0,1-5,5H36.34ZM275.67,158H167a5,5,0,0,1-5-5V129.66a5,5,0,0,1,5-5H294.68l-19,33.37ZM305.29,106l-7.23,12.73-.28,0H167a11,11,0,0,0-11,11V153a11,11,0,0,0,11,11h105.3l-11.75,20.69a16.11,16.11,0,0,1-25.67-.15,3,3,0,0,0-4.8,0,16.13,16.13,0,0,1-25.8,0,3,3,0,0,0-4.8,0,16.13,16.13,0,0,1-25.8,0,3,3,0,0,0-4.8,0,16.13,16.13,0,0,1-25.8,0,3,3,0,0,0-4.8,0,16.13,16.13,0,0,1-25.8,0,3,3,0,0,0-4.8,0,16.13,16.13,0,0,1-25.8,0,3,3,0,0,0-4.8,0,16.1,16.1,0,0,1-25.42.45l0-.09L39.75,164H57.51a11,11,0,0,0,11-11V129.66a11,11,0,0,0-11-11H13.94L6.7,105.95A5,5,0,0,1,11,98.44H301a5,5,0,0,1,4.3,7.53Z"/><path class="cls-1" d="M135.38,154.38a3,3,0,0,0-3,3,9.59,9.59,0,0,1-19.17,0V139.2h5a3,3,0,1,0,0-6h-5v-.46a8.76,8.76,0,1,0-6,0v.46h-4a3,3,0,1,0,0,6h4v18.18a9.59,9.59,0,0,1-19.17,0,3,3,0,0,0-6,0,15.58,15.58,0,0,0,28.17,9.17,15.58,15.58,0,0,0,28.17-9.17A3,3,0,0,0,135.38,154.38Zm-25.17-32.6a2.76,2.76,0,1,1-2.76,2.76A2.76,2.76,0,0,1,110.21,121.78Z"/><path class="cls-2" d="M167,124.67a5,5,0,0,0-5,5V153a5,5,0,0,0,5,5H275.67l19-33.37Z"/><path class="cls-2" d="M57.51,124.67H17.35L36.25,158H57.51a5,5,0,0,0,5-5V129.66A5,5,0,0,0,57.51,124.67Z"/><rect class="cls-2" x="125.51" y="20.59" width="22.62" height="8.61"/><rect class="cls-2" x="178.29" y="20.59" width="22.62" height="8.61"/></svg>