<svg id="Layer_1" data-name="Layer 1" xmlns="http://www.w3.org/2000/svg" viewBox="0 0 220 227"><defs><style>.cls-1{fill:#362fc1;}.cls-2{fill:#00fbdd;}</style></defs><title>icon</title><path class="cls-1" d="M215.84,106.38H192.2a7.18,7.18,0,0,0-1.71.17,3.57,3.57,0,0,0-2.56,3.93,3.61,3.61,0,0,0,3.78,3.14c7.37,0,14.74,0,22.1,0h2a4.52,4.52,0,0,0,3.26-1.18,3.37,3.37,0,0,0,1-2.49C220,107.8,218.35,106.39,215.84,106.38Z"/><path class="cls-1" d="M188.6,183.14c-5-5.16-10.27-10.33-15.31-15.35l-2.71-2.68a3.31,3.31,0,0,0-2.43-1,4,4,0,0,0-.49,0,3.37,3.37,0,0,0-3,2.34,3.47,3.47,0,0,0,1,3.93q7.86,7.87,15.73,15.71l.67.68a21.65,21.65,0,0,0,1.78,1.71,3.36,3.36,0,0,0,3.87.5c1.14-.54,1.93-1.39,2.11-3.7l-.16-.37A6,6,0,0,0,188.6,183.14Z"/><path class="cls-1" d="M167.32,55.47a4,4,0,0,0,3.08-1.29q3-3,5.92-5.9l5.82-5.8c2.28-2.26,4.56-4.53,6.81-6.81a3.59,3.59,0,0,0,.19-5.28,3.55,3.55,0,0,0-2.55-1.11A3.76,3.76,0,0,0,184,30.42q-7.06,7-14.08,14l-4.8,4.79a4.34,4.34,0,0,0-.39.45,3.64,3.64,0,0,0,2.62,5.8Z"/><path class="cls-1" d="M164.86,101.1a56.25,56.25,0,0,0-55.5-47.22,56.87,56.87,0,0,0-21.8,4.37A56,56,0,0,0,54,119.64c1.35,7.46,4.28,14.88,9.24,23.35,1.61,2.74,3.25,5.47,4.89,8.19,2.21,3.68,4.5,7.49,6.68,11.29a33,33,0,0,1,4.52,18.11,4.37,4.37,0,0,0,.9,3.32,4.88,4.88,0,0,0,3.62,1.33l18.16.2h33.49c3.59,0,4.72-1.34,4.82-5.09a52,52,0,0,1,.79-9c1.27-6.18,4.22-11.6,7.08-16.79,1.11-2,2.24-4,3.36-6.05,2.82-5,5.73-10.22,8.33-15.43A51.38,51.38,0,0,0,164.86,101.1Zm-12,29.75c-2.49,4.89-5.21,9.74-7.85,14.43-1.25,2.23-2.5,4.46-3.74,6.69-3.26,5.94-6.46,12.43-7.72,19.57l0,.12a19.08,19.08,0,0,0-.39,3.16,2.69,2.69,0,0,1-2.94,3H130c-2,0-7.56-.36-8.37-.36h-35l-.1-1.23c-.67-10.32-5.93-18.77-11-27-.37-.59-.74-1.13-1.11-1.72-.76-1.17-1.54-2.36-2.22-3.63s-1.49-2.68-2.24-4a109.47,109.47,0,0,1-5.73-11.21A48.52,48.52,0,0,1,66.13,87,49,49,0,0,1,100,62a47.5,47.5,0,0,1,9.34-.93c24.61,0,46,19.09,48.61,43.46C159,113.51,157.28,122.12,152.84,130.85Z"/><path class="cls-1" d="M133.59,199.35a9.06,9.06,0,0,0-1.74,0c-8.78,0-17.47.07-26.16.07H87.35a7.58,7.58,0,0,0-.82-.05,3.54,3.54,0,0,0-3.4,3.86c.12,2,1.7,3.3,3.93,3.31,3.18,0,6.37-.06,9.55-.06l13.13-.08h10l7.45.07c1.87,0,3.74,0,5.62,0a3.54,3.54,0,0,0,3.59-3.24A3.58,3.58,0,0,0,133.59,199.35Z"/><path class="cls-1" d="M123.42,219.75H96.2a4.34,4.34,0,0,0-3.11,1.16,3.39,3.39,0,0,0-.95,2.51c0,2.12,1.66,3.56,4,3.57h27.22c2.35,0,4-1.5,4-3.61S125.77,219.76,123.42,219.75Z"/><path class="cls-1" d="M106.13,16.52v3.74c0,2.88-.23,5.75-.21,8.64,0,2.42,1.21,4.21,3.37,4.23l-.16-.21a3.81,3.81,0,0,0,3.74-4c0-8.25.06-16.51.05-24.75,0-2.46-1.45-4.12-3.62-4.12s-3.61,1.67-3.62,4.14c0,2.88.22,5.75.23,8.63Z"/><path class="cls-1" d="M53.84,164.15a3.58,3.58,0,0,0-1.92-.56,3.48,3.48,0,0,0-2.51,1.08c-2.25,2.27-4.49,4.63-6.67,6.91l-4.9,5.12c-2.49,2.59-5,5.19-7.44,7.8a3.41,3.41,0,0,0-.73,4c.51,1.16,1.36,2,3.72,2.15l.38-.17a6,6,0,0,0,1.86-1.07c6.22-6.35,12.45-12.92,18.47-19.26l.35-.37a4.4,4.4,0,0,0,.92-1.52A3.5,3.5,0,0,0,53.84,164.15Z"/><path class="cls-1" d="M48.8,54.74a3.7,3.7,0,0,0,5.2.18,3.56,3.56,0,0,0,1.13-2.54A3.81,3.81,0,0,0,54,49.66C47.32,43,41.72,37.37,36,31.8a6.46,6.46,0,0,0-1.82-1l-.74-.35a4.45,4.45,0,0,0-3.33,2.42A3.57,3.57,0,0,0,31,36.93C37.77,43.76,43.45,49.43,48.8,54.74Z"/><path class="cls-1" d="M31.59,109.36a3.49,3.49,0,0,0-3.32-2.94c-2.91-.06-5.81,0-8.72,0H15.9l-7.22,0c-1.59,0-3.17,0-4.76,0a4.13,4.13,0,0,0-3,1.13A3.45,3.45,0,0,0,0,110a3.64,3.64,0,0,0,3.91,3.59q11.89,0,23.8,0a4.83,4.83,0,0,0,1.78-.35A3.55,3.55,0,0,0,31.59,109.36Z"/><path class="cls-2" d="M152.84,130.85c-2.49,4.89-5.21,9.74-7.85,14.43-1.25,2.23-2.5,4.46-3.74,6.69-3.26,5.94-6.46,12.43-7.72,19.57l0,.12a19.08,19.08,0,0,0-.39,3.16,2.69,2.69,0,0,1-2.94,3H130c-2,0-3.95-.21-5.93-.2-.81,0-1.63-.16-2.44-.16h-35l-.1-1.23c-.67-10.32-5.93-18.77-11-27-.37-.59-.74-1.13-1.11-1.72-.76-1.17-1.54-2.36-2.22-3.63s-1.49-2.68-2.24-4a109.47,109.47,0,0,1-5.73-11.21A48.52,48.52,0,0,1,66.13,87,49,49,0,0,1,100,62a47.5,47.5,0,0,1,9.34-.93c24.61,0,46,19.09,48.61,43.46C159,113.51,157.28,122.12,152.84,130.85Z"/></svg>