<svg id="Layer_1" data-name="Layer 1" xmlns="http://www.w3.org/2000/svg" viewBox="0 0 252 201"><defs><style>.cls-1{fill:#362fc1;}.cls-2{fill:#00fbdd;}</style></defs><title>icon</title><path class="cls-1" d="M88,123.19h30.13a11,11,0,0,0,11-11V93.62a11,11,0,0,0-11-11H88a11,11,0,0,0-11,11v18.6A11,11,0,0,0,88,123.19ZM83,93.62a5,5,0,0,1,5-5h30.13a5,5,0,0,1,5,5v18.6a5,5,0,0,1-5,5H88a5,5,0,0,1-5-5Z"/><path class="cls-1" d="M26.52,123.19H56.65a11,11,0,0,0,11-11V93.62a11,11,0,0,0-11-11H26.52a11,11,0,0,0-11,11v18.6A11,11,0,0,0,26.52,123.19Zm-5-29.58a5,5,0,0,1,5-5H56.65a5,5,0,0,1,5,5v18.6a5,5,0,0,1-5,5H26.52a5,5,0,0,1-5-5Z"/><path class="cls-1" d="M241.32,0H206.75a22.22,22.22,0,0,0-22.2,22.2v8.53H158l-10.3-17.2a3,3,0,1,0-5.14,3.08L151,30.72H118.89l-10.3-17.2a3,3,0,1,0-5.14,3.08l8.46,14.12H79.79l-10.3-17.2a3,3,0,1,0-5.14,3.08l8.46,14.12H40.68l-10.3-17.2a3,3,0,1,0-5.14,3.08l8.46,14.12H10.86A10.69,10.69,0,0,0,.18,41.4V154.76A22.22,22.22,0,0,0,22.38,177H51.84a22.79,22.79,0,0,0,16,18.05H3a3,3,0,1,0,0,6H248.45a3,3,0,1,0,0-6H215.37a22.79,22.79,0,0,0,16-18.12A22.22,22.22,0,0,0,252,154.76V10.67A10.69,10.69,0,0,0,241.32,0ZM51.64,171H22.38A16.23,16.23,0,0,1,6.17,154.76V142.26a3,3,0,0,0,.85.14h130.6a3,3,0,0,0,.85-.14V171H96.87a22.73,22.73,0,0,0-45.24,0Zm5.88,2.24A16.74,16.74,0,1,1,74.26,190,16.76,16.76,0,0,1,57.51,173.22ZM80.67,195a22.79,22.79,0,0,0,16-18.05h89.87a22.79,22.79,0,0,0,16,18.05Zm63.78-24V93.32a4.69,4.69,0,0,1,4.69-4.69H164.5a4.69,4.69,0,0,1,4.69,4.69V171ZM209,190a16.74,16.74,0,1,1,16.74-16.74A16.76,16.76,0,0,1,209,190ZM246,132.57H195.23a4.69,4.69,0,0,1-4.69-4.69V93.32a4.69,4.69,0,0,1,4.69-4.69H246Zm0-49.93H195.23a10.69,10.69,0,0,0-10.68,10.67v34.56a10.69,10.69,0,0,0,10.68,10.67H246v16.21a16.23,16.23,0,0,1-14.45,16.11,22.73,22.73,0,0,0-45.23.1H175.18V93.32A10.69,10.69,0,0,0,164.5,82.64H149.14a10.69,10.69,0,0,0-10.68,10.67v43.23a3,3,0,0,0-.85-.14H7a3,3,0,0,0-.85.14V67.43H246Zm0-36.56H226.26a5,5,0,0,1-5-5V30.18a5,5,0,0,1,5-5H246Zm0-26.88H226.26a11,11,0,0,0-11,11V41.1a11,11,0,0,0,11,11H246v9.38H6.17v-20a4.69,4.69,0,0,1,4.69-4.69H187.55a3,3,0,0,0,3-3V22.2A16.23,16.23,0,0,1,206.75,6h34.57A4.69,4.69,0,0,1,246,10.67Z"/><path class="cls-2" d="M195.23,88.63a4.69,4.69,0,0,0-4.69,4.69v34.56a4.69,4.69,0,0,0,4.69,4.69H246V88.63Z"/><path class="cls-2" d="M88,88.63a5,5,0,0,0-5,5v18.6a5,5,0,0,0,5,5h30.13a5,5,0,0,0,5-5V93.62a5,5,0,0,0-5-5Z"/><path class="cls-2" d="M26.52,88.63a5,5,0,0,0-5,5v18.6a5,5,0,0,0,5,5H56.65a5,5,0,0,0,5-5V93.62a5,5,0,0,0-5-5Z"/><path class="cls-2" d="M226.26,25.19a5,5,0,0,0-5,5V41.1a5,5,0,0,0,5,5H246V25.19Z"/></svg>