<svg xmlns="http://www.w3.org/2000/svg" width="286" height="218" viewBox="0 0 286 218"><g><path fill="#111" d="M30.424 97.344c-7.818-13.745-.24-26.136 13.643-26.982-3.225-5.75-4.936-11.572-1.744-17.854 3.123-6.15 8.452-8.545 15.256-9.088-1.356-3.467-3.367-6.484-3.302-10.3.165-9.71 6.352-16.37 16.092-16.52 10.826-.168 21.656-.12 32.483-.03 7.53.064 13.258 3.84 15.595 10.817.96 2.868 2.502 2.938 4.79 2.927 11.16-.05 22.32.1 33.478-.047 8.307-.11 14.178 3.276 16.662 11.313.887 2.87 2.754 1.874 4.307 1.91 9.934.234 9.934.19 9.908 10.263-.012 4.165.206 8.346-.1 12.49-.252 3.397.615 4.595 4.27 4.474 8.82-.29 17.658-.008 26.484-.154 2.557-.042 3.7.602 3.375 3.298-.178 1.478.012 2.996-.023 4.494-.08 3.478 1.073 7.922-.64 10.17-1.84 2.412-6.525.91-9.94.812-2.72-.076-2.92 1.093-2.866 3.268.125 4.994.182 10-.045 14.988-.14 3.052.817 3.923 3.926 3.9 19.82-.143 39.642-.064 59.464-.06h5.537c-4.72 10.563-9.124 20.52-13.61 30.44-8.593 19.004-17.112 38.043-25.945 56.936-1.886 4.034-.237 5.478 2.994 6.563 5.745 1.93 11.075 1.27 15.886-2.69 1.555-1.28 3.48-3.57 5.273-.538 1.328 2.246-.676 3.477-2.39 4.564-7.82 4.958-15.792 6.932-24.164 1.29-1.643-1.106-2.9-1.188-4.832.01-7.223 4.482-14.74 4.715-22.127.25-1.695-1.026-2.875-1.48-4.837-.25-7.422 4.648-15.062 4.696-22.468-.06-1.915-1.23-3.103-.9-4.852.168-7.31 4.463-14.81 4.558-22.074 0-2.118-1.328-3.485-.866-5.29.237-7.244 4.436-14.603 4.033-21.675-.234-2.04-1.23-3.2-1.32-5.197-.047-6.88 4.387-14.045 4.632-21.153.468-2.29-1.342-4.08-1.6-6.59-.043-6.614 4.104-13.584 4.115-20.258.05-2.58-1.57-4.52-1.502-7.085.03-6.307 3.765-12.96 4.133-19.383.334-3.024-1.788-5.24-1.593-8.343.138-7.582 4.23-15.04 2.79-21.98-2.017-1.796-1.243-3.99-2.78-2.29-5.188 1.845-2.613 3.542-.042 4.948.99 5.633 4.13 11.488 4.704 17.766 1.652 2.3-1.118 2.88-2.563 2.097-5.11-8.658-28.13-17.212-56.293-25.793-84.448-1.652-5.417 4.327-14.533 10.62-16.153 2.02-.517 4.062-.947 6.14-1.43zM19.506 116.43c1.803 6.338 3.61 12.332 5.185 18.386.762 2.925 2.307 3.794 5.3 3.734 9.99-.2 19.992.018 29.987-.15 2.843-.05 3.678.812 3.625 3.622-.16 8.494-.14 16.995-.003 25.49.04 2.44-.75 3.107-3.115 3.06-6.83-.14-13.668.132-20.49-.123-3.516-.132-4.29.73-3.178 4.127 2.522 7.703 4.885 15.47 6.992 23.295 1.132 4.207 3.888 6.383 7.666 7.665 5.256 1.783 10.39 1.197 14.56-2.403 3.252-2.81 5.46-2.257 8.557.154 5.8 4.513 13.125 4.418 18.836-.357 2.948-2.467 4.856-2.1 7.68.02 6.55 4.918 13.062 4.823 19.6-.308 2.763-2.17 4.644-2.083 7.358.05 6.336 4.977 13.407 5.238 19.19.464 3.058-2.523 5.066-2.405 8.134-.114 6.403 4.78 13.026 4.7 19.234-.18 2.887-2.268 4.875-2.225 7.735 0 6.107 4.75 12.875 5.02 18.798.44 3.447-2.667 5.722-2.313 8.99.19 6.457 4.95 17.374 3.72 20.884-2.857 5.106-9.563 9.168-19.684 13.925-30.113h-6.063c-33.824 0-67.646-.037-101.47.062-3.032.01-4.358-.474-4.243-3.937.267-7.99.26-15.998 0-23.987-.118-3.576 1.06-4.318 4.476-4.285 18.787.18 37.576.084 56.363.087 20.327.002 40.654.03 60.98-.02 1.69-.005 3.88.902 4.906-1.29 3.13-6.687 6.14-13.43 9.454-20.722H19.506zm30.42-4.99h19.977c11.463 0 11.463 0 11.463-11.276 0-10.28.004-10.376-10.38-10.666-2.57-.07-3.574-.72-3.448-3.386.188-3.987.242-8 0-11.98-.178-2.92.853-3.612 3.652-3.557 8.754.173 17.522-.187 26.267.152 3.913.152 4.173-1.468 4.118-4.6-.172-9.82.23-19.657-.188-29.46-.216-5.067.986-7.213 6.355-6.466 1.826.255 4.948 1.455 5.633-.972.712-2.53-1.816-4.393-3.96-5.77-2.13-1.37-4.466-2.14-7.03-2.122-10.146.07-20.293.122-30.438.22-1.64.016-3.267-.154-4.917.455-5.075 1.872-7.674 5.394-7.812 10.934-.115 4.548 3.158 9.496 8.663 10.682 3.02.65 1.64 2.247 1.887 3.326.527 2.282-1.477 1.6-2.582 1.63-3.492.092-6.994-.065-10.482.085-6.207.267-10.53 4.207-11.14 9.954-.563 5.292 2.882 10.544 8.468 11.757 2.276.494 2.517 1.256 2.562 3.126.068 2.867-1.892 2.1-3.42 2.12-2.793.035-5.588-.023-8.38.027-7.173.127-11.532 3.4-12.72 9.5-1.044 5.357 2.123 10.083 8.84 12.244 2.15.69 1.864 1.857 1.98 3.283.162 2.018-1.177 2.027-2.59 2.02-3.33-.02-6.662-.104-9.987.008-3.973.134-7.564 1.188-9.75 4.932-.562.964-1.77 1.82-1.227 3.047.607 1.376 2.054.713 3.12.718 9.153.046 18.31.027 27.467.037zm147.88 32.06c-18.31 0-36.62.135-54.927-.107-3.937-.052-4.788 1.227-4.56 4.773.277 4.31.26 8.662.014 12.975-.19 3.322.61 4.514 4.297 4.496 33.456-.157 66.914-.127 100.37-.012 3.17.01 4.797-1.02 5.957-3.937 1.838-4.615 3.984-9.124 6.25-13.55 1.812-3.542 1.396-4.78-2.972-4.732-18.14.194-36.286.08-54.43.095zm-52.753-67.865v-.018c-22.625 0-45.252.096-67.875-.093-3.858-.032-4.658 1.204-4.735 4.807-.085 3.958 1.77 4.135 4.833 4.13 44.945-.07 89.892-.086 134.838.02 3.314.007 4.568-.563 4.607-4.248.042-3.78-.986-4.714-4.712-4.685-22.32.178-44.637.088-66.955.088zm23.594-32.093c-1.483-5.337-4.704-7.977-9.687-8.133-7.322-.23-14.658-.023-21.98-.29-2.97-.11-3.525.982-3.484 3.675.146 9.494.14 18.993-.01 28.487-.04 2.563.57 3.513 3.288 3.402 5.155-.21 10.333-.204 15.49.006 2.695.11 3.364-.8 3.296-3.385-.178-6.66.122-13.335-.14-19.99-.126-3.2.956-4.07 3.956-3.825 2.937.24 5.91.052 9.27.052zM43.17 143.502v-.02c-4.157 0-8.316.055-12.473-.023-2.208-.043-3.016.553-2.227 2.904 1.896 5.653 3.667 11.352 5.363 17.07.545 1.838 1.637 2.147 3.33 2.127 6.152-.07 12.31-.07 18.46.02 2.064.03 2.98-.524 2.92-2.803-.146-5.484-.14-10.977-.006-16.46.055-2.23-.787-2.898-2.894-2.845-4.155.104-8.315.03-12.472.03zm65.152-43.238c0-2.318-.268-4.674.057-6.946.685-4.814-2.667-3.61-5.278-3.99-3.287-.474-3.496 1.267-3.426 3.76.12 4.302.147 8.612.018 12.913-.098 3.246-.138 5.63 4.48 5.584 4.417-.043 4.302-2.353 4.156-5.36-.098-1.982-.02-3.973-.008-5.96zm54.13-.06h-.018c0-2.66-.147-5.328.035-7.973.26-3.767-2.418-2.81-4.364-2.795-1.9.015-4.536-1.115-4.392 2.723.203 5.31.134 10.635.016 15.95-.052 2.328.797 3.153 3.12 3.365 4.075.372 6.42-.542 5.654-5.295-.31-1.945-.05-3.98-.05-5.975zm27.075.45c0-2.667-.242-5.36.062-7.99.39-3.38-1.56-3.49-3.892-3.224-2.022.23-5.012-1.198-4.928 2.87.108 5.33.107 10.663.055 15.993-.02 2.028.618 2.964 2.816 3.135 3.98.31 6.94-.03 5.944-5.298-.334-1.768-.05-3.654-.057-5.487zm-71.56-51.956v-.05c-2.48 0-4.98.2-7.433-.048-3.44-.347-4.206 1.208-4.077 4.315.113 2.745.03 4.808 3.864 4.48 4.27-.364 8.595-.207 12.89-.063 3.292.11 5.507.07 5.49-4.533-.02-4.513-2.377-4.2-5.278-4.113-1.817.055-3.637.01-5.455.01zm53.57 0v-.032c-2.654 0-5.318.16-7.957-.04-3.576-.267-3.033 2.19-3.002 4.262.028 1.997-.79 4.505 2.854 4.41 5.468-.146 10.944-.05 16.417.008 1.793.02 2.6-.58 2.845-2.513.658-5.24.05-6.075-5.188-6.094-1.99-.01-3.98-.002-5.97-.002zm-36.148 51.632h.022c0-2.65-.102-5.308.023-7.953.19-4.022-2.734-2.78-4.8-2.94-2.265-.175-4.215-.237-4.028 3.175.277 5.093.205 10.215.04 15.316-.083 2.495.554 3.41 3.235 3.552 3.965.21 6.438-.354 5.562-5.196-.346-1.925-.055-3.966-.055-5.954zm59.128-.35c0 2.812.205 5.642-.053 8.43-.328 3.545 1.955 3.148 4.08 2.996 2.058-.147 4.922 1.09 4.8-2.956-.164-5.287-.2-10.587.013-15.87.115-2.864-1.22-3.018-3.54-3.21-4.03-.334-6.24.514-5.367 5.165.33 1.757.054 3.627.068 5.446zm-22.492-37.6v-.024c-2.813 0-5.647.214-8.437-.054-3.526-.34-3.17 1.89-3.03 4.05.125 1.896-1.047 4.453 2.773 4.282 5.452-.244 10.926-.162 16.385-.015 2.32.06 3.016-.593 3.158-3.007.223-3.78-.354-6.053-4.9-5.287-1.93.326-3.963.055-5.95.055zm-54.456 8.19c2.65 0 5.322-.218 7.943.054 3.597.374 3.073-1.96 2.98-4.06-.088-1.927.972-4.43-2.813-4.246-5.287.256-10.6.204-15.893.014-2.616-.094-3.263.744-3.34 3.32-.107 3.534.413 5.657 4.673 4.98 2.1-.336 4.298-.06 6.45-.06zm-.2-26.98c2.817 0 5.646-.166 8.448.042 3.89.288 2.56-2.508 2.645-4.32.09-1.952.918-4.377-2.825-4.18-5.288.28-10.607.227-15.9.012-2.722-.11-3.105.894-3.308 3.373-.326 4 .69 5.81 4.983 5.13 1.94-.308 3.968-.053 5.957-.056zm-22.745 57.093c0-2.81-.195-5.638.048-8.427.335-3.85-2.37-2.668-4.257-2.77-2.09-.116-4.303-.624-4.118 2.965.27 5.277.16 10.58.03 15.867-.057 2.295.586 3.055 3.023 3.188 3.745.204 6.09-.3 5.33-4.88-.32-1.93-.053-3.958-.055-5.942zm27.04-.07c0-2.78-.208-5.578.052-8.332.36-3.81-2.244-2.734-4.177-2.784-2.03-.052-4.347-.85-4.155 2.867.273 5.282.113 10.59 0 15.886-.047 2.22.473 3.113 3.008 3.25 3.83.21 5.994-.48 5.316-4.937-.297-1.94-.052-3.964-.044-5.95zm27.033-.042c0-2.647-.27-5.33.066-7.936.445-3.45-1.565-3.4-3.842-3.147-1.96.22-4.808-1.215-4.56 2.963.305 5.114.203 10.264.018 15.39-.1 2.734.617 3.633 3.55 3.682 3.476.058 5.388-.47 4.823-4.502-.296-2.11-.052-4.297-.055-6.45zm27.183-.09h.06c0-2.83.04-5.66-.025-8.488-.02-.888.363-1.91-.95-2.496-3.786-1.686-7.48.458-7.482 4.454 0 4.83-.02 9.658.025 14.487.01 1.074-.36 2.297 1.136 2.94 3.704 1.597 7.2-.485 7.234-4.404.018-2.163.003-4.328.003-6.493zM214.01 31.567c3.194 1.982 7.154.903 11.184.128 1.182-.228 2.624.38 3.827.89 2.143.908 4.772 2.09 3.542 4.92-1.232 2.84-3.35.532-5.073-.015-.316-.1-.703-.434-.914-.34-5.554 2.482-11.476-1.39-17.013 1-1.41.607-2.982 1.41-3.932-.313-.936-1.703-.048-3.25 1.52-4.23 1.842-1.157 3.848-1.923 6.86-2.04zM248.797 61.25c3.758 2.134 7.684 1.357 11.73.477 1.437-.313 3.28.478 4.733 1.186 1.885.918 4.45 2.157 3.014 4.753-1.3 2.348-3.428.852-5.135-.173-.143-.085-.302-.273-.42-.25-5.604 1.15-11.305-.406-16.855.506-1.927.316-3.853 2.05-5.088-.435-1.1-2.21 1.1-3.277 2.63-4.105 1.567-.85 3.376-1.252 5.39-1.96z"/><path fill="#FCFCFC" d="M19.506 116.43H269.36c-3.314 7.293-6.324 14.036-9.454 20.722-1.026 2.193-3.218 1.286-4.905 1.29-20.326.05-40.653.024-60.98.02-18.788-.002-37.577.095-56.364-.086-3.416-.033-4.594.71-4.477 4.285.26 7.99.267 16 0 23.988-.114 3.463 1.212 3.946 4.244 3.937 33.823-.1 67.646-.062 101.47-.062h6.063c-4.757 10.43-8.818 20.55-13.925 30.113-3.51 6.576-14.427 7.807-20.885 2.857-3.268-2.503-5.542-2.857-8.99-.19-5.922 4.58-12.69 4.31-18.796-.44-2.86-2.225-4.848-2.268-7.734 0-6.208 4.88-12.83 4.96-19.234.18-3.067-2.29-5.076-2.41-8.134.114-5.783 4.774-12.854 4.513-19.19-.464-2.715-2.134-4.596-2.22-7.36-.05-6.536 5.13-13.048 5.226-19.598.308-2.823-2.12-4.73-2.486-7.68-.018-5.712 4.775-13.038 4.87-18.837.357-3.096-2.412-5.305-2.964-8.557-.155-4.17 3.6-9.304 4.186-14.56 2.403-3.778-1.28-6.534-3.458-7.667-7.665-2.108-7.826-4.47-15.592-6.993-23.295-1.112-3.396-.338-4.26 3.178-4.128 6.822.254 13.66-.017 20.49.123 2.365.048 3.154-.62 3.114-3.06-.14-8.496-.16-16.996.002-25.49.053-2.81-.782-3.67-3.625-3.623-9.995.17-19.996-.048-29.988.15-2.993.06-4.538-.81-5.3-3.733-1.573-6.056-3.38-12.05-5.184-18.386zm82.53 33.63c5.13-5.9 5.91-11.146 2.26-14.86-3.68-3.74-9.622-3.856-13.507-.3-1.698 1.553-2.34 3.494-2.575 5.73-.418 3.97 1.49 6.836 4.928 9.48-2.322.475-4.748-.306-4.82 2.398-.077 2.95 2.174 2.923 4.205 2.87 1.8-.044 2.226.826 2.203 2.44-.09 6.323.083 12.656-.2 18.97-.197 4.414-2.956 7.215-6.975 8.85-3.94 1.602-7.5.774-10.71-1.76-.775-.613-2.485-1.5-1.308-2.704 5.063-5.177-1.557-5.23-3.214-7.308-.858-1.077-2.546-1.888-3.867-.255-1.647 2.037-3.906 3.916-3.912 6.706-.005 2.167 1.772 2.445 3.67 1.908 1.41-.4 1.48 1.047 2 1.734 6.643 8.803 17.016 9.958 24.923 2.426 2.018-1.922 2.77-1.552 4.557.13 7.414 6.973 16.863 6.38 23.65-1.26.876-.988 1.627-2.942 2.478-2.966 8.524-.238 3.162-4.138 1.81-6.77-1.17-2.275-3.068-3.994-5.462-1.66-1.87 1.824-7.42 2.32-3.305 7.027 1.58 1.806-.396 2.388-1.16 3.037-6.245 5.296-15.894 1.876-17.43-6.266-1.24-6.583-.276-13.284-.53-19.927-.066-1.71.65-2.374 2.353-2.342 2.01.038 4.346.1 4.374-2.758.03-3.03-2.91-1.746-4.435-2.57z"/><path fill="#D93F5F" d="M197.805 143.493c18.145-.006 36.29.106 54.43-.088 4.37-.047 4.785 1.19 2.972 4.733-2.265 4.426-4.41 8.934-6.25 13.55-1.16 2.914-2.787 3.947-5.956 3.936-33.455-.115-66.913-.146-100.368.012-3.686.018-4.486-1.174-4.297-4.495.246-4.312.264-8.664-.014-12.974-.228-3.546.624-4.825 4.56-4.773 18.306.242 36.616.107 54.925.1z"/><path fill="#F8F8F8" d="M145.053 75.635c22.318 0 44.637.09 66.955-.088 3.726-.03 4.754.905 4.713 4.685-.038 3.685-1.292 4.254-4.606 4.247-44.946-.106-89.893-.09-134.838-.02-3.062.005-4.918-.172-4.833-4.13.077-3.602.877-4.838 4.735-4.806 22.623.19 45.25.093 67.875.093v.018z"/><path fill="#FEFEFE" d="M168.647 43.542c-3.362 0-6.334.187-9.27-.052-3-.244-4.083.626-3.957 3.826.262 6.654-.038 13.33.14 19.99.068 2.585-.6 3.494-3.297 3.384-5.156-.21-10.334-.217-15.49-.006-2.717.11-3.326-.838-3.286-3.402.147-9.494.155-18.994.01-28.487-.042-2.693.513-3.784 3.484-3.676 7.322.267 14.658.06 21.98.29 4.983.155 8.204 2.795 9.687 8.132z"/><path fill="#D93F5F" d="M43.17 143.502c4.158 0 8.318.074 12.475-.03 2.106-.054 2.948.613 2.894 2.843-.134 5.484-.14 10.977.005 16.46.06 2.28-.855 2.833-2.92 2.803-6.15-.09-12.308-.09-18.46-.018-1.693.02-2.785-.29-3.33-2.128-1.696-5.717-3.467-11.416-5.363-17.07-.79-2.35.02-2.945 2.227-2.904 4.155.078 8.314.022 12.473.022-.002.008-.002.015-.002.022z"/><path fill="#87D1E4" d="M108.316 100.264c-.006 1.987-.084 3.978.013 5.96.145 3.008.26 5.318-4.158 5.36-4.616.046-4.576-2.337-4.48-5.582.13-4.3.104-8.61-.017-12.913-.07-2.495.14-4.235 3.426-3.76 2.612.377 5.964-.825 5.278 3.99-.323 2.27-.056 4.626-.062 6.944zM162.453 100.203c0 1.994-.26 4.03.052 5.974.765 4.754-1.58 5.667-5.653 5.295-2.324-.212-3.173-1.038-3.12-3.365.117-5.315.187-10.64-.017-15.95-.145-3.838 2.49-2.708 4.392-2.723 1.946-.016 4.625-.972 4.363 2.796-.183 2.646-.035 5.314-.035 7.972h.018zM189.53 100.653c.003 1.833-.28 3.72.056 5.488.996 5.268-1.963 5.608-5.943 5.3-2.198-.172-2.836-1.108-2.816-3.136.053-5.33.054-10.663-.055-15.992-.084-4.068 2.905-2.64 4.928-2.87 2.332-.266 4.28-.157 3.89 3.222-.305 2.63-.063 5.324-.06 7.99z"/><path fill="#D93F5F" d="M117.967 48.698c1.818 0 3.64.044 5.455-.01 2.9-.087 5.26-.4 5.277 4.112.017 4.604-2.198 4.643-5.49 4.533-4.295-.144-8.62-.3-12.89.063-3.834.328-3.75-1.735-3.863-4.48-.13-3.107.637-4.662 4.077-4.315 2.454.248 4.954.05 7.433.05v.048zM171.536 48.698c1.99 0 3.98-.006 5.97 0 5.238.02 5.848.856 5.19 6.095-.245 1.934-1.053 2.532-2.847 2.513-5.474-.06-10.95-.154-16.418-.01-3.645.098-2.826-2.41-2.854-4.408-.03-2.07-.574-4.528 3.002-4.26 2.64.197 5.303.038 7.956.038v.032z"/><path fill="#87D1E4" d="M135.39 100.33c0 1.99-.292 4.03.056 5.956.875 4.842-1.598 5.405-5.562 5.196-2.682-.142-3.318-1.057-3.236-3.552.166-5.102.238-10.224-.04-15.316-.186-3.412 1.765-3.35 4.028-3.175 2.066.16 4.992-1.083 4.8 2.94-.124 2.644-.022 5.3-.022 7.952-.01-.002-.018-.002-.025-.002z"/><path fill="#F8F8F8" d="M194.51 99.98c-.006-1.818.27-3.69-.06-5.446-.872-4.65 1.337-5.5 5.368-5.165 2.32.19 3.654.345 3.54 3.21-.213 5.282-.178 10.582-.015 15.87.123 4.044-2.74 2.807-4.798 2.955-2.126.153-4.41.55-4.08-2.996.258-2.787.053-5.618.045-8.43z"/><path fill="#FEFEFE" d="M172.026 62.38c1.986 0 4.02.272 5.95-.054 4.547-.767 5.123 1.507 4.9 5.287-.143 2.414-.838 3.07-3.158 3.006-5.46-.148-10.933-.23-16.385.014-3.82.17-2.648-2.386-2.772-4.283-.14-2.157-.496-4.387 3.03-4.048 2.788.268 5.622.054 8.436.054v.025zM117.57 70.572c-2.152 0-4.35-.275-6.45.06-4.26.677-4.78-1.447-4.673-4.98.078-2.576.725-3.414 3.34-3.32 5.293.19 10.606.243 15.894-.014 3.785-.184 2.726 2.32 2.813 4.247.095 2.098.618 4.433-2.98 4.06-2.62-.273-5.293-.054-7.943-.053zM117.37 43.592c-1.99 0-4.018-.253-5.957.054-4.292.68-5.31-1.13-4.983-5.13.202-2.48.586-3.483 3.307-3.373 5.294.215 10.613.267 15.9-.012 3.744-.196 2.917 2.23 2.826 4.18-.085 1.812 1.246 4.608-2.645 4.32-2.802-.206-5.63-.04-8.448-.038z"/><path fill="#FCFCFC" d="M94.625 100.683c.002 1.983-.266 4.012.055 5.942.76 4.58-1.584 5.083-5.328 4.88-2.438-.134-3.08-.894-3.023-3.19.13-5.286.24-10.588-.03-15.865-.186-3.59 2.027-3.08 4.117-2.966 1.886.104 4.592-1.08 4.257 2.77-.244 2.79-.05 5.62-.05 8.43zM121.662 100.612c-.004 1.986-.25 4.01.047 5.95.677 4.457-1.488 5.148-5.317 4.94-2.535-.14-3.055-1.033-3.008-3.253.113-5.296.273-10.605 0-15.887-.19-3.716 2.125-2.92 4.155-2.867 1.933.05 4.537-1.027 4.177 2.785-.26 2.755-.05 5.553-.055 8.332zM148.7 100.57c0 2.153-.243 4.34.054 6.45.564 4.03-1.348 4.56-4.824 4.502-2.932-.048-3.647-.948-3.55-3.682.187-5.125.288-10.276-.017-15.39-.248-4.178 2.6-2.745 4.56-2.963 2.276-.254 4.287-.303 3.842 3.147-.337 2.605-.067 5.288-.066 7.937zM175.88 100.48c0 2.165.017 4.33-.003 6.494-.033 3.92-3.53 6-7.234 4.405-1.496-.645-1.125-1.868-1.136-2.942-.044-4.83-.026-9.658-.025-14.487 0-3.995 3.696-6.14 7.48-4.453 1.315.585.933 1.608.952 2.496.064 2.828.024 5.658.024 8.488h-.057z"/><path fill="#111" d="M102.037 150.06c1.526.824 4.464-.46 4.435 2.57-.028 2.858-2.363 2.797-4.374 2.76-1.702-.033-2.42.63-2.354 2.34.255 6.643-.71 13.344.532 19.927 1.535 8.142 11.184 11.562 17.428 6.266.766-.65 2.74-1.23 1.16-3.037-4.113-4.707 1.437-5.203 3.306-7.026 2.394-2.334 4.29-.616 5.462 1.66 1.353 2.63 6.715 6.53-1.81 6.77-.85.023-1.602 1.977-2.478 2.964-6.787 7.643-16.236 8.234-23.65 1.26-1.788-1.68-2.54-2.05-4.557-.13-7.907 7.533-18.28 6.378-24.924-2.425-.518-.69-.59-2.135-1.998-1.735-1.898.538-3.676.26-3.67-1.908.005-2.79 2.264-4.67 3.91-6.705 1.322-1.633 3.01-.822 3.868.255 1.657 2.078 8.277 2.13 3.214 7.308-1.178 1.205.532 2.09 1.31 2.704 3.208 2.533 6.767 3.36 10.708 1.758 4.02-1.634 6.777-4.435 6.975-8.85.283-6.313.11-12.646.2-18.97.023-1.613-.403-2.483-2.202-2.438-2.03.052-4.282.08-4.204-2.87.07-2.705 2.497-1.924 4.82-2.398-3.438-2.645-5.347-5.51-4.93-9.48.235-2.237.878-4.18 2.575-5.732 3.884-3.555 9.827-3.438 13.505.3 3.652 3.713 2.87 8.96-2.258 14.86zm-.478-8.99c-.358-2.537-1.806-4.143-4.558-3.968-2.535.16-3.865 1.81-3.697 4.328.177 2.663 1.564 4.345 4.457 4.116 2.594-.205 3.637-1.894 3.797-4.476z"/><path fill="#F8F8F8" d="M101.56 141.07c-.16 2.582-1.203 4.27-3.798 4.476-2.893.23-4.28-1.453-4.457-4.116-.168-2.52 1.162-4.167 3.697-4.328 2.752-.175 4.2 1.43 4.557 3.968z"/></g></svg>