<svg xmlns="http://www.w3.org/2000/svg" width="39.126" height="34.278" viewBox="0 0 39.126 34.278"><g><path fill="#fff" d="M34.9 7.086c-1.184.525-2.457.88-3.793 1.04 1.364-.817 2.41-2.11 2.904-3.653-1.274.757-2.688 1.306-4.192 1.603C28.614 4.792 26.898 3.99 25 3.99c-3.646 0-6.604 2.956-6.604 6.602 0 .518.06 1.02.172 1.505-5.488-.276-10.353-2.904-13.61-6.9-.567.977-.894 2.11-.894 3.32 0 2.292 1.166 4.313 2.938 5.497-1.082-.035-2.1-.332-2.99-.826v.083c0 3.2 2.275 5.868 5.296 6.475-.554.15-1.138.23-1.74.23-.425 0-.84-.04-1.24-.117.84 2.623 3.277 4.532 6.166 4.586-2.26 1.77-5.106 2.826-8.2 2.826-.533 0-1.06-.03-1.574-.093 2.922 1.874 6.393 2.967 10.12 2.967 12.146 0 18.786-10.06 18.786-18.786 0-.286-.006-.57-.02-.854 1.29-.93 2.41-2.094 3.294-3.418z"/></g></svg>