<?xml version="1.0" encoding="utf-8"?>
<!-- Generator: Adobe Illustrator 16.0.0, SVG Export Plug-In . SVG Version: 6.00 Build 0)  -->
<!DOCTYPE svg PUBLIC "-//W3C//DTD SVG 1.1//EN" "http://www.w3.org/Graphics/SVG/1.1/DTD/svg11.dtd">
<svg version="1.1" xmlns="http://www.w3.org/2000/svg" xmlns:xlink="http://www.w3.org/1999/xlink" x="0px" y="0px" width="274px"
	 height="218px" viewBox="0 0 274 218" enable-background="new 0 0 274 218" xml:space="preserve">
<g id="Layer_1">
	<g id="Layer_2">
	</g>
	<g>
		<path fill="#111111" d="M15.705,124.096c0-17.163-0.02-34.325,0.008-51.487c0.016-8.755,3.298-11.97,12.1-11.989
			c4-0.008,8.012-0.194,11.994,0.062c3.705,0.239,3.015-2.227,2.906-4.243c-0.107-2.003,1.174-4.846-3.004-4.623
			c-5.482,0.293-10.998,0.21-16.486-0.02c-1.656-0.069-4.6,1.764-4.702-2.268c-0.099-3.878,2.679-2.613,4.512-2.636
			c7.663-0.098,15.329-0.129,22.99,0.039c2.733,0.06,3.706-0.63,3.604-3.547c-0.233-6.657,0.044-13.331-0.13-19.991
			c-0.073-2.767,0.67-3.722,3.584-3.657c8.326,0.187,16.664,0.165,24.99-0.031c2.895-0.068,3.871,0.879,3.564,3.669
			c-0.181,1.646,0.254,3.38-0.055,4.985c-0.918,4.778,1.406,5.516,5.518,5.358c2.996-0.115,3.461-1.207,3.507-3.841
			c0.175-10.072,0.265-10.066,10.492-10.071c10.14-0.005,20.282,0.113,30.417-0.103c3.354-0.071,4.607,0.644,4.542,4.314
			c-0.172,9.579,0.021,9.583,9.614,9.582c7.331-0.001,14.666-0.139,21.992,0.06c2.955,0.08,3.991-0.56,3.986-3.789
			c-0.016-10.064,0.147-10.064,10.44-10.064c7.98,0,8.28,0.014,7.925,7.652c-0.229,4.92,1.075,6.638,6.254,6.273
			c7.294-0.513,7.582-0.113,7.212,7.55c-0.214,4.441,0.921,5.956,5.597,5.679c7.471-0.442,14.988-0.054,22.484-0.126
			c2.088-0.021,3.466,0.098,3.418,2.827c-0.049,2.799-1.843,2.222-3.398,2.229c-5.332,0.024-10.668,0.125-15.993-0.056
			c-3.332-0.113-5.329,0.03-5.269,4.519c0.057,4.23,1.814,4.382,5.044,4.317c8.161-0.166,16.328-0.065,24.492-0.041
			c7.31,0.021,9.729,2.162,10.9,9.277c5.042,30.653,8.327,61.546,12.653,92.297c0.343,2.433,0.581,4.875,0.984,7.315
			c1.537,9.315-6.044,17.789-16.135,18.036c-7.161,0.176-14.332,0.169-21.49-0.02c-2.25-0.06-3.154,0.711-3.853,2.688
			c-2.417,6.849-7.349,10.361-14.624,10.638c-7.715,0.294-12.602-3.88-15.328-10.479c-1.018-2.464-2.104-2.783-4.266-2.781
			c-36.91,0.032-73.82,0.045-110.729-0.065c-2.454-0.007-3.383,0.857-4.147,2.968c-2.406,6.638-7.295,10.057-14.326,10.323
			c-7.348,0.278-12.579-3.25-15.146-9.88c-1.186-3.065-2.729-3.486-5.42-3.394c-4.158,0.143-8.328,0.113-12.489,0.019
			c-6.94-0.156-10.679-3.971-10.696-10.991c-0.043-17.495-0.014-34.991-0.014-52.486C15.721,124.096,15.713,124.096,15.705,124.096z
			 M56.365,154.01c-0.359,0.229-0.993,0.425-1.025,0.693c-0.109,0.899,0.571,0.896,1.229,0.785
			c17.761,0.432,25.974,6.771,31.356,24.425c0.661,2.168,1.641,2.74,3.85,2.722c14.139-0.115,28.28-0.109,42.42-0.01
			c2.444,0.017,3.594-0.392,3.529-3.209c-0.174-7.482-0.121-14.972,0.002-22.456c0.038-2.297-0.506-3.201-3.023-3.188
			C108.592,153.918,82.479,153.948,56.365,154.01z M133.857,65.623c-30,0-59.999-0.002-89.998,0.002
			c-6.166,0.001-12.332,0.047-18.498,0.037c-3.912-0.007-4.507,2.559-4.659,5.677c-0.188,3.839,2.647,2.667,4.499,2.677
			c15.165,0.083,30.33,0.15,45.494-0.003c3.268-0.033,4.223,0.845,4.189,4.18c-0.169,16.996-0.148,33.996,0.001,50.993
			c0.028,3.206-0.688,4.272-4.128,4.226c-15.162-0.207-30.33-0.013-45.496-0.138c-3.225-0.027-4.692,0.533-4.686,4.296
			c0.007,3.671,1.254,4.301,4.578,4.29c35.999-0.117,71.998-0.147,107.996,0.011c3.789,0.017,4.645-0.953,4.607-4.653
			c-0.196-19.664-0.008-39.332-0.16-58.997c-0.026-3.304,0.888-4.236,4.17-4.206c16.609,0.152,33.223,0.22,49.829-0.035
			c4.146-0.063,5.289,1,5.24,5.173c-0.228,19.428-0.063,38.86-0.158,58.291c-0.015,2.875,0.187,4.486,3.859,4.441
			c17.278-0.207,34.56-0.089,51.839-0.159c1.098-0.004,2.692,0.878,3.183-1.246c0.839-3.638-1.694-7.115-5.355-7.118
			c-15.778-0.015-31.558-0.123-47.335,0.058c-3.399,0.039-4.174-1.039-4.147-4.246c0.142-16.917,0.159-33.837-0.009-50.753
			c-0.035-3.543,1.025-4.484,4.528-4.426c12.996,0.213,25.998,0.149,38.996,0.006c1.479-0.016,4.511,1.701,4.255-2.082
			c-0.193-2.852-0.471-5.862-4.314-6.231c-1.321-0.127-2.664-0.055-3.997-0.055C203.406,65.629,168.631,65.63,133.857,65.623z
			 M70.041,103.426c-0.041,0-0.08,0-0.12,0c0-6.826-0.13-13.655,0.06-20.476c0.083-3.019-0.827-4.058-3.936-4.026
			c-13.651,0.135-27.306,0.106-40.958-0.009c-3.054-0.025-4.415,0.659-4.365,4.13c0.196,13.816,0.165,27.638,0.04,41.456
			c-0.027,3.017,0.818,3.983,3.943,3.949c13.651-0.146,27.307-0.148,40.956,0.092c3.693,0.065,4.522-1.319,4.434-4.637
			C69.914,117.083,70.041,110.252,70.041,103.426z M191.695,103.718c-0.008,0-0.016,0-0.023,0c0-7.09-0.091-14.183,0.048-21.271
			c0.05-2.515-0.618-3.517-3.307-3.497c-14.062,0.103-28.126,0.083-42.188,0.004c-2.455-0.014-3.604,0.583-3.583,3.326
			c0.111,14.135,0.109,28.272,0.037,42.408c-0.014,2.672,0.687,3.882,3.641,3.85c13.968-0.151,27.94-0.205,41.908-0.083
			c3.015,0.026,3.589-1.079,3.524-3.783C191.585,117.691,191.695,110.703,191.695,103.718z M203.791,103.706c0.006,0,0.013,0,0.02,0
			c0,6.79,0.23,13.59-0.092,20.364c-0.174,3.639,1.063,4.486,4.471,4.446c13.609-0.16,27.226-0.247,40.83,0.044
			c4.359,0.093,5.004-1.543,4.45-5.229c-1.995-13.297-4.1-26.587-5.597-39.943c-0.432-3.856-1.842-4.651-5.132-4.616
			c-11.653,0.127-23.309,0.262-34.96,0.109c-3.447-0.045-4.172,1.166-4.062,4.344C203.953,90.046,203.791,96.879,203.791,103.706z
			 M142.68,157.682c-0.068,0-0.135,0-0.203,0c0,6.979,0.07,13.959-0.033,20.936c-0.043,2.914,0.889,4.081,4.03,4.015
			c9.481-0.199,18.972-0.154,28.455-0.036c2.376,0.029,3.349-0.446,3.911-3.063c1.535-7.138,4.928-13.374,10.978-17.784
			c1.548-1.127,1.983-2.364,1.962-4.165c-0.082-6.989-0.199-13.984,0.045-20.965c0.098-2.801-1.199-3.578-3.426-3.568
			c-14.117,0.066-28.234,0.279-42.352,0.252c-3.074-0.006-3.471,1.329-3.416,3.909C142.773,144.033,142.68,150.858,142.68,157.682z
			 M126.561,51.938c0,0.007,0,0.014,0,0.021c-24.812,0-49.625,0.068-74.437-0.079c-3.456-0.021-4.515,0.796-4.48,4.381
			c0.034,3.516,0.991,4.45,4.493,4.442c49.583-0.112,99.166-0.096,148.75-0.03c3.088,0.004,4.832-0.207,4.759-4.167
			c-0.069-3.698-0.929-4.699-4.729-4.669C176.133,52.033,151.346,51.938,126.561,51.938z M227.59,153.809
			c-8.988,0-17.977-0.024-26.965,0.028c-1.238,0.007-2.75-0.566-3.622,0.872c-0.324,0.534-0.507,1.371,0.192,1.793
			c1.276,0.772,2.553,0.061,3.807-0.231c14.948-3.488,29.551,4.396,34.682,18.734c2.781,7.77,2.781,7.77,11.489,7.569
			c8.776-0.203,13.489-5.645,12.261-14.262c-0.533-3.747-1.509-7.45-1.773-11.209c-0.188-2.669-1.19-3.37-3.671-3.342
			C245.19,153.862,236.39,153.8,227.59,153.809z M227.519,182.591c5.432,0.024,5.413-0.004,3.94-4.906
			c-1.699-5.656-5.239-9.997-9.893-13.35c-13.237-9.539-34.893-0.715-37.727,15.287c-0.211,1.189-0.954,2.912,1.306,2.906
			c3.237-0.009,6.597,1.211,8.28-3.716c2.245-6.565,7.724-10.063,14.645-9.885c6.982,0.179,12.391,3.54,14.701,10.53
			C223.668,182.174,225.223,183.071,227.519,182.591z M58.914,160.517c-10.361,0.06-19.796,6.54-23.134,15.889
			c-2.128,5.96-1.351,6.701,4.994,6.269c3.019-0.206,2.788-2.482,3.526-4.044c3.015-6.366,8.08-9.723,14.944-9.696
			c6.483,0.025,12.083,3.171,14.015,9.293c1.639,5.195,4.777,4.301,8.268,4.327c1.987,0.015,1.889-0.779,1.551-2.462
			C80.773,168.57,70.85,160.449,58.914,160.517z M66.174,46.873c3.039-0.307,7.76,1.546,9.965-0.729
			c1.76-1.815,0.576-6.524,0.622-9.95c0.15-11.288,0.138-11.288-11.023-11.288c-11.106,0-11.106,0-11.106,11.162
			C54.631,46.873,54.631,46.873,66.174,46.873z M106.092,46.873c11.425-0.001,11.425-0.001,11.424-11.347
			c0-10.62,0-10.62-10.781-10.62c-11.326,0-11.326,0-11.326,11.4C95.408,46.873,95.408,46.873,106.092,46.873z M54.297,153.815
			c-10.76,0-20.969,0.008-31.18-0.01c-1.324-0.002-2.342,0.308-2.339,1.851c0.011,7.639-0.105,15.284,0.155,22.916
			c0.103,3.015,2.555,3.765,5.326,4.068c3.234,0.354,3.1-1.722,3.697-3.846c3.125-11.092,9.663-19.031,21.153-22.26
			C52.117,156.25,53.489,156.24,54.297,153.815z M207.781,195.756c6.396,0.039,10.846-4.124,10.979-10.273
			c0.141-6.439-4.359-11.367-10.529-11.532c-6.104-0.164-11.262,4.737-11.392,10.822
			C196.709,190.935,201.474,195.718,207.781,195.756z M69.736,185.185c0.006-6.46-4.615-11.362-10.711-11.363
			c-5.907,0-11.156,5.299-11.096,11.204c0.062,6.181,4.826,10.748,11.249,10.783C65.416,195.843,69.73,191.501,69.736,185.185z
			 M153.475,46.896c0-0.009,0-0.018,0-0.027c4.985,0,9.979-0.175,14.953,0.061c3.445,0.163,3.183-1.9,3.141-4.132
			c-0.041-2.131,0.491-4.288-3.041-4.221c-9.635,0.184-19.277,0.241-28.909,0c-3.774-0.095-3.259,2.228-3.46,4.458
			c-0.234,2.587,0.474,4.04,3.509,3.911C144.262,46.752,148.871,46.896,153.475,46.896z M20.977,147.224
			c-0.018,0.317-0.035,0.635-0.054,0.952c38.86,0,77.72,0,116.581,0c-0.004-0.317-0.006-0.635-0.009-0.952
			C98.655,147.224,59.816,147.224,20.977,147.224z M122.578,36.066c-0.008,0-0.017,0-0.024,0c0,2.83,0.112,5.666-0.028,8.488
			c-0.188,3.782,2.712,2.213,4.181,2.197c1.458-0.015,4.251,1.575,4.161-2.25c-0.129-5.445,0.209-10.9,0.209-16.351
			c0-1.881-0.408-3.286-3.104-3.385c-4.055-0.149-6.346,0.573-5.455,5.319C122.881,32.015,122.578,34.069,122.578,36.066z
			 M184.912,36.167c-0.016,0-0.029,0-0.044,0c0-2.817-0.086-5.638,0.021-8.451c0.14-3.667-2.471-2.653-4.461-2.767
			c-2.129-0.122-3.971-0.137-3.883,2.929c0.149,5.299,0.104,10.606,0.035,15.909c-0.025,1.991,0.51,2.935,2.74,3.139
			c4.086,0.374,6.404-0.578,5.639-5.298C184.67,39.852,184.912,37.99,184.912,36.167z M197.2,147.198
			c-0.014,0.454-0.026,0.908-0.04,1.362c19.711,0,39.422,0,59.132,0c0-0.454-0.001-0.908-0.001-1.362
			C236.594,147.198,216.896,147.198,197.2,147.198z M86.372,38.735c-3.394-0.718-4.834,0.28-4.797,4.055
			c0.032,3.38,1.096,4.174,4.301,4.184c3.297,0.01,4.851-0.624,4.698-4.341C90.445,39.514,89.786,37.808,86.372,38.735z
			 M194.963,38.74c-3.27-0.549-5.121-0.154-4.986,3.911c0.117,3.546,1.136,4.253,4.549,4.333c4.066,0.094,4.025-1.867,4.125-4.86
			C198.754,39.011,198.006,37.667,194.963,38.74z"/>
		<path fill="#F8F8F8" d="M133.857,65.626c34.773,0.003,69.549,0.003,104.323,0.005c1.333,0,2.676-0.072,3.997,0.055
			c3.844,0.369,4.121,3.379,4.314,6.231c0.256,3.783-2.775,2.066-4.255,2.082c-12.998,0.144-26,0.208-38.996-0.006
			c-3.503-0.058-4.563,0.883-4.528,4.426c0.168,16.917,0.15,33.836,0.009,50.753c-0.026,3.207,0.748,4.284,4.147,4.246
			c15.777-0.18,31.557-0.072,47.335-0.058c3.661,0.003,6.194,3.48,5.355,7.118c-0.49,2.124-2.085,1.242-3.183,1.246
			c-17.279,0.069-34.561-0.048-51.839,0.159c-3.673,0.044-3.874-1.566-3.859-4.441c0.095-19.43-0.069-38.862,0.158-58.291
			c0.049-4.173-1.094-5.236-5.24-5.173c-16.606,0.255-33.22,0.187-49.829,0.035c-3.282-0.03-4.196,0.902-4.17,4.206
			c0.152,19.665-0.036,39.333,0.16,58.997c0.037,3.701-0.818,4.67-4.607,4.653c-35.998-0.158-71.997-0.127-107.996-0.011
			c-3.324,0.011-4.571-0.619-4.578-4.29c-0.007-3.764,1.461-4.323,4.686-4.296c15.166,0.125,30.334-0.069,45.496,0.138
			c3.439,0.047,4.156-1.02,4.128-4.226c-0.149-16.997-0.17-33.997-0.001-50.993c0.033-3.335-0.922-4.213-4.189-4.18
			c-15.164,0.153-30.329,0.086-45.494,0.003c-1.852-0.01-4.688,1.162-4.499-2.677c0.152-3.118,0.747-5.684,4.659-5.677
			c6.166,0.011,12.332-0.036,18.498-0.037C73.858,65.621,103.857,65.623,133.857,65.626z M106.51,74.065c0-0.005,0-0.01,0-0.015
			c-8.66,0-17.32,0.038-25.98-0.025c-2.273-0.017-3.727,0.22-3.711,3.158c0.104,17.651,0.062,35.304,0.008,52.956
			c-0.008,2.225,0.506,3.257,3.062,3.243c17.651-0.099,35.303-0.087,52.955,0.01c2.451,0.013,3.128-0.838,3.119-3.164
			c-0.066-17.653-0.088-35.306,0.018-52.958c0.016-2.734-0.99-3.296-3.492-3.257C123.83,74.149,115.168,74.065,106.51,74.065z"/>
		<path fill="#87D1E4" d="M70.041,103.426c0,6.827-0.127,13.657,0.054,20.478c0.089,3.318-0.74,4.702-4.434,4.637
			c-13.649-0.24-27.305-0.238-40.956-0.092c-3.125,0.034-3.971-0.933-3.943-3.949c0.125-13.818,0.156-27.639-0.04-41.456
			c-0.05-3.471,1.312-4.155,4.365-4.13c13.652,0.116,27.307,0.145,40.958,0.009c3.108-0.031,4.019,1.007,3.936,4.026
			c-0.189,6.821-0.06,13.65-0.06,20.476C69.961,103.426,70,103.426,70.041,103.426z"/>
		<path fill="#87D1E4" d="M191.695,103.718c0,6.985-0.11,13.973,0.057,20.955c0.064,2.704-0.51,3.809-3.524,3.783
			c-13.968-0.122-27.94-0.068-41.908,0.083c-2.954,0.032-3.654-1.177-3.641-3.85c0.072-14.135,0.074-28.272-0.037-42.408
			c-0.021-2.743,1.128-3.34,3.583-3.326c14.062,0.079,28.126,0.099,42.188-0.004c2.688-0.02,3.356,0.982,3.307,3.497
			c-0.139,7.088-0.048,14.18-0.048,21.271C191.68,103.718,191.688,103.718,191.695,103.718z"/>
		<path fill="#87D1E4" d="M203.791,103.706c0-6.827,0.162-13.66-0.072-20.479c-0.109-3.178,0.615-4.39,4.062-4.344
			c11.651,0.153,23.307,0.018,34.96-0.109c3.29-0.036,4.7,0.76,5.132,4.616c1.497,13.356,3.602,26.646,5.597,39.943
			c0.554,3.686-0.091,5.322-4.45,5.229c-13.604-0.291-27.221-0.204-40.83-0.044c-3.407,0.04-4.645-0.807-4.471-4.446
			c0.322-6.774,0.092-13.575,0.092-20.364C203.804,103.706,203.797,103.706,203.791,103.706z"/>
		<path fill="#FCFCFC" d="M142.68,157.682c0-6.823,0.094-13.648-0.049-20.469c-0.055-2.58,0.342-3.915,3.416-3.909
			c14.117,0.027,28.234-0.187,42.352-0.252c2.227-0.01,3.523,0.767,3.426,3.568c-0.244,6.981-0.127,13.977-0.045,20.965
			c0.021,1.801-0.414,3.038-1.962,4.165c-6.05,4.41-9.442,10.646-10.978,17.784c-0.562,2.617-1.535,3.093-3.911,3.063
			c-9.483-0.118-18.974-0.163-28.455,0.036c-3.142,0.066-4.073-1.101-4.03-4.015c0.104-6.977,0.033-13.957,0.033-20.936
			C142.545,157.682,142.611,157.682,142.68,157.682z"/>
		<path fill="#F8F8F8" d="M56.365,154.01c26.113-0.062,52.227-0.091,78.338-0.237c2.518-0.014,3.062,0.891,3.023,3.188
			c-0.123,7.484-0.176,14.974-0.002,22.456c0.064,2.817-1.085,3.226-3.529,3.209c-14.14-0.1-28.281-0.105-42.42,0.01
			c-2.209,0.018-3.188-0.554-3.85-2.722c-5.383-17.655-13.596-23.994-31.356-24.425C56.502,154.995,56.434,154.502,56.365,154.01z"
			/>
		<path fill="#F8F8F8" d="M126.561,51.938c24.785,0,49.572,0.095,74.355-0.1c3.801-0.03,4.66,0.972,4.729,4.669
			c0.073,3.96-1.671,4.17-4.759,4.167c-49.584-0.066-99.167-0.082-148.75,0.03c-3.502,0.008-4.459-0.926-4.493-4.442
			c-0.034-3.585,1.024-4.402,4.48-4.381c24.812,0.147,49.624,0.079,74.437,0.079C126.561,51.953,126.561,51.946,126.561,51.938z"/>
		<path fill="#F8F8F8" d="M227.59,153.804c8.8-0.004,17.601,0.058,26.399-0.043c2.48-0.028,3.483,0.672,3.671,3.342
			c0.265,3.759,1.24,7.463,1.773,11.209c1.229,8.617-3.484,14.059-12.261,14.262c-8.708,0.201-8.708,0.201-11.489-7.569
			c-5.131-14.338-19.733-22.222-34.682-18.734c-1.254,0.292-2.53,1.003-3.807,0.231c-0.699-0.422-0.517-1.259-0.192-1.793
			c0.872-1.438,2.384-0.865,3.622-0.872C209.613,153.785,218.602,153.809,227.59,153.804z"/>
		<path fill="#F8F8F8" d="M227.519,182.591c-2.296,0.479-3.851-0.417-4.747-3.134c-2.311-6.99-7.719-10.351-14.701-10.53
			c-6.921-0.178-12.399,3.32-14.645,9.885c-1.684,4.928-5.043,3.708-8.28,3.716c-2.26,0.006-1.517-1.717-1.306-2.906
			c2.834-16.002,24.489-24.826,37.727-15.287c4.653,3.353,8.193,7.694,9.893,13.35C232.932,182.587,232.95,182.616,227.519,182.591z
			"/>
		<path fill="#F8F8F8" d="M58.914,160.517c11.936-0.068,21.859,8.053,24.164,19.575c0.338,1.683,0.437,2.477-1.551,2.462
			c-3.49-0.026-6.629,0.869-8.268-4.327c-1.932-6.122-7.531-9.268-14.015-9.293c-6.864-0.027-11.93,3.331-14.944,9.696
			c-0.738,1.562-0.508,3.838-3.526,4.044c-6.345,0.432-7.122-0.309-4.994-6.269C39.118,167.057,48.553,160.577,58.914,160.517z"/>
		<path fill="#D93F5F" d="M66.174,46.873c-11.543,0-11.543,0-11.543-10.804c0-11.162,0-11.162,11.106-11.162
			c11.161,0,11.174,0,11.023,11.288c-0.046,3.426,1.138,8.135-0.622,9.95C73.934,48.418,69.213,46.565,66.174,46.873z"/>
		<path fill="#D93F5F" d="M106.092,46.873c-10.684,0-10.684,0-10.684-10.566c0-11.4,0-11.4,11.326-11.4
			c10.781,0,10.781,0,10.781,10.62C117.517,46.872,117.517,46.872,106.092,46.873z"/>
		<path fill="#FCFCFC" d="M54.297,153.815c-0.808,2.424-2.18,2.435-3.187,2.718c-11.49,3.229-18.028,11.167-21.153,22.26
			c-0.598,2.125-0.463,4.2-3.697,3.846c-2.771-0.303-5.224-1.053-5.326-4.068c-0.261-7.631-0.145-15.276-0.155-22.916
			c-0.003-1.543,1.015-1.854,2.339-1.851C33.328,153.824,43.537,153.815,54.297,153.815z"/>
		<path fill="#D93F5F" d="M207.781,195.756c-6.308-0.038-11.072-4.821-10.942-10.983c0.13-6.085,5.288-10.985,11.392-10.822
			c6.17,0.166,10.67,5.093,10.529,11.532C218.627,191.632,214.178,195.795,207.781,195.756z"/>
		<path fill="#D93F5F" d="M69.736,185.185c-0.006,6.316-4.32,10.658-10.558,10.624c-6.423-0.035-11.187-4.603-11.249-10.783
			c-0.061-5.905,5.188-11.205,11.096-11.204C65.121,173.823,69.742,178.725,69.736,185.185z"/>
		<path fill="#D93F5F" d="M153.475,46.896c-4.604,0-9.213-0.144-13.808,0.051c-3.035,0.129-3.743-1.324-3.509-3.911
			c0.201-2.231-0.314-4.553,3.46-4.458c9.632,0.241,19.274,0.184,28.909,0c3.532-0.067,3,2.089,3.041,4.221
			c0.042,2.232,0.305,4.295-3.141,4.132c-4.975-0.236-9.968-0.061-14.953-0.061C153.475,46.878,153.475,46.887,153.475,46.896z"/>
		<path fill="#F8F8F8" d="M20.977,147.224c38.84,0,77.679,0,116.519,0c0.003,0.317,0.005,0.635,0.009,0.952
			c-38.861,0-77.721,0-116.581,0C20.941,147.858,20.959,147.541,20.977,147.224z"/>
		<path fill="#D93F5F" d="M122.578,36.066c0-1.998,0.303-4.052-0.061-5.981c-0.891-4.746,1.4-5.468,5.455-5.319
			c2.695,0.099,3.104,1.504,3.104,3.385c0,5.451-0.338,10.905-0.209,16.351c0.09,3.825-2.703,2.235-4.161,2.25
			c-1.469,0.016-4.368,1.585-4.181-2.197c0.141-2.823,0.028-5.658,0.028-8.488C122.562,36.066,122.57,36.066,122.578,36.066z"/>
		<path fill="#D93F5F" d="M184.912,36.167c0,1.823-0.242,3.685,0.047,5.461c0.766,4.721-1.553,5.672-5.639,5.298
			c-2.23-0.204-2.766-1.148-2.74-3.139c0.068-5.302,0.114-10.609-0.035-15.909c-0.088-3.066,1.754-3.051,3.883-2.929
			c1.99,0.114,4.601-0.901,4.461,2.767c-0.106,2.813-0.021,5.633-0.021,8.451C184.883,36.167,184.896,36.167,184.912,36.167z"/>
		<path fill="#F8F8F8" d="M197.2,147.198c19.696,0,39.394,0,59.091,0c0,0.454,0.001,0.908,0.001,1.362c-19.71,0-39.421,0-59.132,0
			C197.174,148.106,197.187,147.652,197.2,147.198z"/>
		<path fill="#D93F5F" d="M86.372,38.735c3.414-0.927,4.073,0.779,4.202,3.897c0.152,3.717-1.401,4.351-4.698,4.341
			c-3.205-0.009-4.269-0.804-4.301-4.184C81.538,39.015,82.979,38.017,86.372,38.735z"/>
		<path fill="#D93F5F" d="M194.963,38.74c3.043-1.073,3.791,0.271,3.688,3.384c-0.1,2.993-0.059,4.954-4.125,4.86
			c-3.413-0.079-4.432-0.786-4.549-4.333C189.842,38.586,191.693,38.191,194.963,38.74z"/>
		<path fill="#FCFCFC" d="M56.365,154.01c0.068,0.493,0.137,0.985,0.204,1.478c-0.658,0.111-1.339,0.114-1.229-0.785
			C55.372,154.435,56.006,154.239,56.365,154.01z"/>
		<path fill="#111111" d="M106.51,74.065c8.658,0,17.32,0.084,25.979-0.053c2.502-0.039,3.508,0.523,3.492,3.257
			c-0.105,17.652-0.084,35.305-0.018,52.958c0.009,2.326-0.668,3.177-3.119,3.164c-17.652-0.097-35.304-0.108-52.955-0.01
			c-2.557,0.015-3.07-1.018-3.062-3.243c0.055-17.652,0.096-35.305-0.008-52.956c-0.016-2.938,1.438-3.175,3.711-3.158
			c8.66,0.063,17.32,0.025,25.98,0.025C106.51,74.056,106.51,74.061,106.51,74.065z M130.869,104.003c0.016,0,0.031,0,0.047,0
			c0-7.162-0.057-14.324,0.032-21.485c0.029-2.332-0.237-3.61-3.192-3.578c-14.154,0.157-28.312,0.088-42.47,0.023
			c-2.688-0.012-3.737,0.797-3.703,3.754c0.162,13.823,0.156,27.649-0.013,41.472c-0.04,3.275,0.936,4.36,4.232,4.324
			c13.824-0.148,27.65-0.176,41.473-0.005c3.252,0.04,3.805-1.006,3.682-4.021C130.678,117.67,130.869,110.833,130.869,104.003z"/>
		<path fill="#87D1E4" d="M130.869,104.003c0,6.829-0.191,13.667,0.088,20.484c0.123,3.015-0.43,4.062-3.682,4.021
			c-13.822-0.171-27.648-0.143-41.473,0.005c-3.297,0.036-4.272-1.049-4.232-4.324c0.169-13.823,0.175-27.649,0.013-41.472
			c-0.034-2.957,1.015-3.766,3.703-3.754c14.157,0.065,28.315,0.134,42.47-0.023c2.955-0.033,3.222,1.246,3.192,3.578
			c-0.089,7.161-0.032,14.323-0.032,21.485C130.9,104.003,130.885,104.003,130.869,104.003z"/>
	</g>
</g>
<g id="Layer_3">
</g>
</svg>
