<?xml version="1.0" encoding="utf-8"?>
<!-- Generator: Adobe Illustrator 19.2.0, SVG Export Plug-In . SVG Version: 6.00 Build 0)  -->
<!DOCTYPE svg PUBLIC "-//W3C//DTD SVG 1.1//EN" "http://www.w3.org/Graphics/SVG/1.1/DTD/svg11.dtd">
<svg version="1.1" xmlns="http://www.w3.org/2000/svg" xmlns:xlink="http://www.w3.org/1999/xlink" x="0px" y="0px"
	 viewBox="0 0 300 300" style="enable-background:new 0 0 300 300;" xml:space="preserve">
<style type="text/css">
	.st0{fill:#FFFFFF;}
	.st1{fill:#F2CC45;}
	.st2{fill:#2B3C6A;}
	.st3{fill:#D93F5F;}
	.st4{fill:#82BEA5;}
	.st5{fill:#CFCABC;}
	.st6{fill:#87D1E4;}
	.st7{fill:#FEFEFE;}
</style>
<g id="Layer_1">
	<g>
		<g>
			<path class="st0" d="M627.1-26.3c-0.3-0.3-0.3-0.7-0.1-1l0,0c0.3-0.3,0.7-0.3,1-0.1l0,0c0.3,0.3,0.3,0.7,0.1,1l0,0
				c-0.1,0.2-0.3,0.2-0.5,0.2l0,0C627.5-26.1,627.3-26.2,627.1-26.3z M630.1-29.6c-0.3-0.3-0.3-0.7-0.1-1l0,0c0.3-0.3,0.7-0.3,1-0.1
				l0,0c0.3,0.3,0.3,0.7,0.1,1l0,0c-0.1,0.2-0.3,0.2-0.5,0.2l0,0C630.4-29.4,630.2-29.5,630.1-29.6z M633.1-32.9
				c-0.3-0.3-0.3-0.7-0.1-1l0,0c0.3-0.3,0.7-0.3,1-0.1l0,0c0.3,0.3,0.3,0.7,0.1,1l0,0c-0.1,0.2-0.3,0.2-0.5,0.2l0,0
				C633.4-32.7,633.2-32.7,633.1-32.9z M636-36.2c-0.3-0.3-0.3-0.7-0.1-1l0,0c0.3-0.3,0.7-0.3,1-0.1l0,0c0.3,0.3,0.3,0.7,0.1,1l0,0
				c-0.1,0.2-0.3,0.2-0.5,0.2l0,0C636.4-36,636.2-36,636-36.2z M639-39.5c-0.3-0.3-0.3-0.7-0.1-1l0,0c0.3-0.3,0.7-0.3,1-0.1l0,0
				c0.3,0.3,0.3,0.7,0.1,1l0,0c-0.1,0.2-0.3,0.2-0.5,0.2l0,0C639.3-39.3,639.2-39.3,639-39.5z M642-42.7c-0.3-0.3-0.3-0.7-0.1-1l0,0
				c0.3-0.3,0.7-0.3,1-0.1l0,0c0.3,0.3,0.3,0.7,0.1,1l0,0c-0.1,0.2-0.3,0.2-0.5,0.2l0,0C642.3-42.6,642.1-42.6,642-42.7z M645-46
				c-0.3-0.3-0.3-0.7-0.1-1l0,0c0.3-0.3,0.7-0.3,1-0.1l0,0c0.3,0.3,0.3,0.7,0.1,1l0,0c-0.1,0.2-0.3,0.2-0.5,0.2l0,0
				C645.3-45.8,645.1-45.9,645-46z M647.9-49.3c-0.3-0.3-0.3-0.7-0.1-1l0,0c0.3-0.3,0.7-0.3,1-0.1l0,0c0.3,0.3,0.3,0.7,0.1,1l0,0
				c-0.1,0.2-0.3,0.2-0.5,0.2l0,0C648.2-49.1,648.1-49.2,647.9-49.3z M650.9-52.6c-0.3-0.3-0.3-0.7-0.1-1l0,0c0.3-0.3,0.7-0.3,1-0.1
				l0,0c0.3,0.3,0.3,0.7,0.1,1l0,0c-0.1,0.2-0.3,0.2-0.5,0.2l0,0C651.2-52.4,651-52.5,650.9-52.6z M653.9-55.9
				c-0.3-0.3-0.3-0.7-0.1-1l0,0c0.3-0.3,0.7-0.3,1-0.1l0,0c0.3,0.3,0.3,0.7,0.1,1l0,0c-0.1,0.2-0.3,0.2-0.5,0.2l0,0
				C654.2-55.7,654-55.8,653.9-55.9z M656.8-59.2c-0.3-0.3-0.3-0.7-0.1-1l0,0c0.3-0.3,0.7-0.3,1-0.1l0,0c0.3,0.3,0.3,0.7,0.1,1l0,0
				c-0.1,0.2-0.3,0.2-0.5,0.2l0,0C657.2-59,657-59.1,656.8-59.2z M659.8-62.5c-0.3-0.3-0.3-0.7-0.1-1l0,0c0.3-0.3,0.7-0.3,1-0.1l0,0
				c0.3,0.3,0.3,0.7,0.1,1l0,0c-0.1,0.2-0.3,0.2-0.5,0.2l0,0C660.1-62.3,660-62.3,659.8-62.5z M662.8-65.8c-0.3-0.3-0.3-0.7-0.1-1
				l0,0c0.3-0.3,0.7-0.3,1-0.1l0,0c0.3,0.3,0.3,0.7,0.1,1l0,0c-0.1,0.2-0.3,0.2-0.5,0.2l0,0C663.1-65.6,662.9-65.6,662.8-65.8z
				 M665.8-69.1c-0.3-0.3-0.3-0.7-0.1-1l0,0c0.3-0.3,0.7-0.3,1-0.1l0,0c0.3,0.3,0.3,0.7,0.1,1l0,0c-0.1,0.2-0.3,0.2-0.5,0.2l0,0
				C666.1-68.9,665.9-68.9,665.8-69.1z M668.7-72.3c-0.3-0.3-0.3-0.7-0.1-1l0,0c0.3-0.3,0.7-0.3,1-0.1l0,0c0.3,0.3,0.3,0.7,0.1,1
				l0,0c-0.1,0.2-0.3,0.2-0.5,0.2l0,0C669-72.2,668.9-72.2,668.7-72.3z M671.7-75.6c-0.3-0.3-0.3-0.7-0.1-1l0,0
				c0.3-0.3,0.7-0.3,1-0.1l0,0c0.3,0.3,0.3,0.7,0.1,1l0,0c-0.1,0.2-0.3,0.2-0.5,0.2l0,0C672-75.4,671.8-75.5,671.7-75.6z
				 M674.7-78.9c-0.3-0.3-0.3-0.7-0.1-1l0,0c0.3-0.3,0.7-0.3,1-0.1l0,0c0.3,0.3,0.3,0.7,0.1,1l0,0c-0.1,0.2-0.3,0.2-0.5,0.2l0,0
				C675-78.7,674.8-78.8,674.7-78.9z M677.6-82.2c-0.3-0.3-0.3-0.7-0.1-1l0,0c0.3-0.3,0.7-0.3,1-0.1l0,0c0.3,0.3,0.3,0.7,0.1,1l0,0
				c-0.1,0.2-0.3,0.2-0.5,0.2l0,0C678-82,677.8-82.1,677.6-82.2z M680.6-85.5c-0.3-0.3-0.3-0.7-0.1-1l0,0c0.3-0.3,0.7-0.3,1-0.1l0,0
				c0.3,0.3,0.3,0.7,0.1,1l0,0c-0.1,0.2-0.3,0.2-0.5,0.2l0,0C680.9-85.3,680.8-85.4,680.6-85.5z M683.6-88.8c-0.3-0.3-0.3-0.7-0.1-1
				l0,0c0.3-0.3,0.7-0.3,1-0.1l0,0c0.3,0.3,0.3,0.7,0.1,1l0,0c-0.1,0.2-0.3,0.2-0.5,0.2l0,0C683.9-88.6,683.7-88.7,683.6-88.8z
				 M686.6-92.1c-0.3-0.3-0.3-0.7-0.1-1l0,0c0.3-0.3,0.7-0.3,1-0.1l0,0c0.3,0.3,0.3,0.7,0.1,1l0,0c-0.1,0.2-0.3,0.2-0.5,0.2l0,0
				C686.9-91.9,686.7-91.9,686.6-92.1z M689.5-95.4c-0.3-0.3-0.3-0.7-0.1-1l0,0c0.3-0.3,0.7-0.3,1-0.1l0,0c0.3,0.3,0.3,0.7,0.1,1
				l0,0c-0.1,0.2-0.3,0.2-0.5,0.2l0,0C689.8-95.2,689.7-95.2,689.5-95.4z M692.5-98.7c-0.3-0.3-0.3-0.7-0.1-1l0,0
				c0.3-0.3,0.7-0.3,1-0.1l0,0c0.3,0.3,0.3,0.7,0.1,1l0,0c-0.1,0.2-0.3,0.2-0.5,0.2l0,0C692.8-98.5,692.6-98.5,692.5-98.7z
				 M695.5-101.9c-0.3-0.3-0.3-0.7-0.1-1l0,0c0.3-0.3,0.7-0.3,1-0.1l0,0c0.3,0.3,0.3,0.7,0.1,1l0,0c-0.1,0.2-0.3,0.2-0.5,0.2l0,0
				C695.8-101.8,695.6-101.8,695.5-101.9z M698.4-105.2c-0.3-0.3-0.3-0.7-0.1-1l0,0c0.3-0.3,0.7-0.3,1-0.1l0,0
				c0.3,0.3,0.3,0.7,0.1,1l0,0c-0.1,0.2-0.3,0.2-0.5,0.2l0,0C698.8-105,698.6-105.1,698.4-105.2z M701.4-108.5
				c-0.3-0.3-0.3-0.7-0.1-1l0,0c0.3-0.3,0.7-0.3,1-0.1l0,0c0.3,0.3,0.3,0.7,0.1,1l0,0c-0.1,0.2-0.3,0.2-0.5,0.2l0,0
				C701.7-108.3,701.5-108.4,701.4-108.5z M704.4-111.8c-0.3-0.3-0.3-0.7-0.1-1l0,0c0.3-0.3,0.7-0.3,1-0.1l0,0
				c0.3,0.3,0.3,0.7,0.1,1l0,0c-0.1,0.2-0.3,0.2-0.5,0.2l0,0C704.7-111.6,704.5-111.7,704.4-111.8z M707.3-115.1
				c-0.3-0.3-0.3-0.7-0.1-1l0,0c0.3-0.3,0.7-0.3,1-0.1l0,0c0.3,0.3,0.3,0.7,0.1,1l0,0c-0.1,0.2-0.3,0.2-0.5,0.2l0,0
				C707.7-114.9,707.5-115,707.3-115.1z M710.3-118.4c-0.3-0.3-0.3-0.7-0.1-1l0,0c0.3-0.3,0.7-0.3,1-0.1l0,0c0.3,0.3,0.3,0.7,0.1,1
				l0,0c-0.1,0.2-0.3,0.2-0.5,0.2l0,0C710.6-118.2,710.5-118.3,710.3-118.4z"/>
		</g>
		<g>
			<path class="st0" d="M627.4-26.1c-0.4-0.1-0.6-0.5-0.5-0.9l0,0c0.1-0.4,0.5-0.6,0.9-0.5l0,0c0.4,0.1,0.6,0.5,0.5,0.9l0,0
				c-0.1,0.3-0.4,0.5-0.7,0.5l0,0C627.6-26.1,627.5-26.1,627.4-26.1z M623.2-27.5c-0.4-0.1-0.6-0.5-0.5-0.9l0,0
				c0.1-0.4,0.5-0.6,0.9-0.5l0,0c0.4,0.1,0.6,0.5,0.5,0.9l0,0c-0.1,0.3-0.4,0.5-0.7,0.5l0,0C623.3-27.5,623.3-27.5,623.2-27.5z
				 M619-29c-0.4-0.1-0.6-0.5-0.5-0.9l0,0c0.1-0.4,0.5-0.6,0.9-0.5l0,0c0.4,0.1,0.6,0.5,0.5,0.9l0,0c-0.1,0.3-0.4,0.5-0.7,0.5l0,0
				C619.1-28.9,619.1-28.9,619-29z M614.8-30.4c-0.4-0.1-0.6-0.5-0.5-0.9l0,0c0.1-0.4,0.5-0.6,0.9-0.5l0,0c0.4,0.1,0.6,0.5,0.5,0.9
				l0,0c-0.1,0.3-0.4,0.5-0.7,0.5l0,0C614.9-30.3,614.9-30.3,614.8-30.4z M610.6-31.8c-0.4-0.1-0.6-0.5-0.5-0.9l0,0
				c0.1-0.4,0.5-0.6,0.9-0.5l0,0c0.4,0.1,0.6,0.5,0.5,0.9l0,0c-0.1,0.3-0.4,0.5-0.7,0.5l0,0C610.7-31.7,610.7-31.7,610.6-31.8z
				 M606.4-33.2c-0.4-0.1-0.6-0.5-0.5-0.9l0,0c0.1-0.4,0.5-0.6,0.9-0.5l0,0c0.4,0.1,0.6,0.5,0.5,0.9l0,0c-0.1,0.3-0.4,0.5-0.7,0.5
				l0,0C606.5-33.1,606.5-33.1,606.4-33.2z M602.2-34.6c-0.4-0.1-0.6-0.5-0.5-0.9l0,0c0.1-0.4,0.5-0.6,0.9-0.5l0,0
				c0.4,0.1,0.6,0.5,0.5,0.9l0,0c-0.1,0.3-0.4,0.5-0.7,0.5l0,0C602.3-34.5,602.2-34.5,602.2-34.6z M598-36c-0.4-0.1-0.6-0.5-0.5-0.9
				l0,0c0.1-0.4,0.5-0.6,0.9-0.5l0,0c0.4,0.1,0.6,0.5,0.5,0.9l0,0c-0.1,0.3-0.4,0.5-0.7,0.5l0,0C598.1-35.9,598-35.9,598-36z
				 M593.8-37.4c-0.4-0.1-0.6-0.5-0.5-0.9l0,0c0.1-0.4,0.5-0.6,0.9-0.5l0,0c0.4,0.1,0.6,0.5,0.5,0.9l0,0c-0.1,0.3-0.4,0.5-0.7,0.5
				l0,0C593.9-37.3,593.8-37.4,593.8-37.4z M589.6-38.8c-0.4-0.1-0.6-0.5-0.5-0.9l0,0c0.1-0.4,0.5-0.6,0.9-0.5l0,0
				c0.4,0.1,0.6,0.5,0.5,0.9l0,0c-0.1,0.3-0.4,0.5-0.7,0.5l0,0C589.7-38.7,589.6-38.8,589.6-38.8z M585.4-40.2
				c-0.4-0.1-0.6-0.5-0.5-0.9l0,0c0.1-0.4,0.5-0.6,0.9-0.5l0,0c0.4,0.1,0.6,0.5,0.5,0.9l0,0c-0.1,0.3-0.4,0.5-0.7,0.5l0,0
				C585.5-40.1,585.4-40.2,585.4-40.2z M581.2-41.6c-0.4-0.1-0.6-0.5-0.5-0.9l0,0c0.1-0.4,0.5-0.6,0.9-0.5l0,0
				c0.4,0.1,0.6,0.5,0.5,0.9l0,0c-0.1,0.3-0.4,0.5-0.7,0.5l0,0C581.3-41.6,581.2-41.6,581.2-41.6z M576.9-43
				c-0.4-0.1-0.6-0.5-0.5-0.9l0,0c0.1-0.4,0.5-0.6,0.9-0.5l0,0c0.4,0.1,0.6,0.5,0.5,0.9l0,0c-0.1,0.3-0.4,0.5-0.7,0.5l0,0
				C577.1-43,577-43,576.9-43z M572.7-44.4c-0.4-0.1-0.6-0.5-0.5-0.9l0,0c0.1-0.4,0.5-0.6,0.9-0.5l0,0c0.4,0.1,0.6,0.5,0.5,0.9l0,0
				c-0.1,0.3-0.4,0.5-0.7,0.5l0,0C572.9-44.4,572.8-44.4,572.7-44.4z M568.5-45.8c-0.4-0.1-0.6-0.5-0.5-0.9l0,0
				c0.1-0.4,0.5-0.6,0.9-0.5l0,0c0.4,0.1,0.6,0.5,0.5,0.9l0,0c-0.1,0.3-0.4,0.5-0.7,0.5l0,0C568.7-45.8,568.6-45.8,568.5-45.8z
				 M564.3-47.2c-0.4-0.1-0.6-0.5-0.5-0.9l0,0c0.1-0.4,0.5-0.6,0.9-0.5l0,0c0.4,0.1,0.6,0.5,0.5,0.9l0,0c-0.1,0.3-0.4,0.5-0.7,0.5
				l0,0C564.5-47.2,564.4-47.2,564.3-47.2z M560.1-48.6c-0.4-0.1-0.6-0.5-0.5-0.9l0,0c0.1-0.4,0.5-0.6,0.9-0.5l0,0
				c0.4,0.1,0.6,0.5,0.5,0.9l0,0c-0.1,0.3-0.4,0.5-0.7,0.5l0,0C560.3-48.6,560.2-48.6,560.1-48.6z M555.9-50
				c-0.4-0.1-0.6-0.5-0.5-0.9l0,0c0.1-0.4,0.5-0.6,0.9-0.5l0,0c0.4,0.1,0.6,0.5,0.5,0.9l0,0c-0.1,0.3-0.4,0.5-0.7,0.5l0,0
				C556.1-50,556-50,555.9-50z M551.7-51.4c-0.4-0.1-0.6-0.5-0.5-0.9l0,0c0.1-0.4,0.5-0.6,0.9-0.5l0,0c0.4,0.1,0.6,0.5,0.5,0.9l0,0
				c-0.1,0.3-0.4,0.5-0.7,0.5l0,0C551.9-51.4,551.8-51.4,551.7-51.4z M547.5-52.8c-0.4-0.1-0.6-0.5-0.5-0.9l0,0
				c0.1-0.4,0.5-0.6,0.9-0.5l0,0c0.4,0.1,0.6,0.5,0.5,0.9l0,0c-0.1,0.3-0.4,0.5-0.7,0.5l0,0C547.7-52.8,547.6-52.8,547.5-52.8z
				 M543.3-54.2c-0.4-0.1-0.6-0.5-0.5-0.9l0,0c0.1-0.4,0.5-0.6,0.9-0.5l0,0c0.4,0.1,0.6,0.5,0.5,0.9l0,0c-0.1,0.3-0.4,0.5-0.7,0.5
				l0,0C543.5-54.2,543.4-54.2,543.3-54.2z M539.1-55.6c-0.4-0.1-0.6-0.5-0.5-0.9l0,0c0.1-0.4,0.5-0.6,0.9-0.5l0,0
				c0.4,0.1,0.6,0.5,0.5,0.9l0,0c-0.1,0.3-0.4,0.5-0.7,0.5l0,0C539.3-55.6,539.2-55.6,539.1-55.6z M534.9-57
				c-0.4-0.1-0.6-0.5-0.5-0.9l0,0c0.1-0.4,0.5-0.6,0.9-0.5l0,0c0.4,0.1,0.6,0.5,0.5,0.9l0,0c-0.1,0.3-0.4,0.5-0.7,0.5l0,0
				C535.1-57,535-57,534.9-57z M530.7-58.4c-0.4-0.1-0.6-0.5-0.5-0.9l0,0c0.1-0.4,0.5-0.6,0.9-0.5l0,0c0.4,0.1,0.6,0.5,0.5,0.9l0,0
				c-0.1,0.3-0.4,0.5-0.7,0.5l0,0C530.9-58.4,530.8-58.4,530.7-58.4z M526.5-59.8c-0.4-0.1-0.6-0.5-0.5-0.9l0,0
				c0.1-0.4,0.5-0.6,0.9-0.5l0,0c0.4,0.1,0.6,0.5,0.5,0.9l0,0c-0.1,0.3-0.4,0.5-0.7,0.5l0,0C526.7-59.8,526.6-59.8,526.5-59.8z
				 M522.3-61.2c-0.4-0.1-0.6-0.5-0.5-0.9l0,0c0.1-0.4,0.5-0.6,0.9-0.5l0,0c0.4,0.1,0.6,0.5,0.5,0.9l0,0c-0.1,0.3-0.4,0.5-0.7,0.5
				l0,0C522.5-61.2,522.4-61.2,522.3-61.2z"/>
		</g>
		<g>
			<path class="st0" d="M615.6,79.6c-0.4,0-0.7-0.4-0.7-0.8l0,0c0-0.4,0.4-0.7,0.8-0.7l0,0c0.4,0,0.7,0.4,0.6,0.8l0,0
				C616.4,79.3,616.1,79.6,615.6,79.6L615.6,79.6C615.7,79.6,615.7,79.6,615.6,79.6z M616.1,75.2c-0.4,0-0.7-0.4-0.7-0.8l0,0
				c0-0.4,0.4-0.7,0.8-0.7l0,0c0.4,0,0.7,0.4,0.7,0.8l0,0C616.9,74.9,616.6,75.2,616.1,75.2L616.1,75.2
				C616.2,75.2,616.2,75.2,616.1,75.2z M616.6,70.8c-0.4,0-0.7-0.4-0.7-0.8l0,0c0-0.4,0.4-0.7,0.8-0.7l0,0c0.4,0,0.7,0.4,0.7,0.8
				l0,0C617.4,70.5,617.1,70.8,616.6,70.8L616.6,70.8C616.7,70.8,616.7,70.8,616.6,70.8z M617.1,66.4c-0.4,0-0.7-0.4-0.7-0.8l0,0
				c0-0.4,0.4-0.7,0.8-0.7l0,0c0.4,0,0.7,0.4,0.7,0.8l0,0C617.9,66.1,617.6,66.4,617.1,66.4L617.1,66.4
				C617.2,66.4,617.2,66.4,617.1,66.4z M617.6,62c-0.4,0-0.7-0.4-0.7-0.8l0,0c0-0.4,0.4-0.7,0.8-0.7l0,0c0.4,0,0.7,0.4,0.7,0.8l0,0
				C618.4,61.7,618.1,62,617.6,62L617.6,62C617.7,62,617.7,62,617.6,62z M618.1,57.6c-0.4,0-0.7-0.4-0.7-0.8l0,0
				c0-0.4,0.4-0.7,0.8-0.6l0,0c0.4,0,0.7,0.4,0.7,0.8l0,0C618.9,57.3,618.6,57.6,618.1,57.6L618.1,57.6
				C618.2,57.6,618.1,57.6,618.1,57.6z M618.6,53.2c-0.4,0-0.7-0.4-0.6-0.8l0,0c0-0.4,0.4-0.7,0.8-0.6l0,0c0.4,0,0.7,0.4,0.7,0.8
				l0,0C619.4,52.9,619.1,53.2,618.6,53.2L618.6,53.2C618.7,53.2,618.6,53.2,618.6,53.2z M619.1,48.8c-0.4,0-0.7-0.4-0.7-0.8l0,0
				c0-0.4,0.4-0.7,0.8-0.7l0,0c0.4,0,0.7,0.4,0.7,0.8l0,0C619.9,48.5,619.6,48.8,619.1,48.8L619.1,48.8
				C619.2,48.8,619.1,48.8,619.1,48.8z M619.6,44.4c-0.4,0-0.7-0.4-0.7-0.8l0,0c0-0.4,0.4-0.7,0.8-0.7l0,0c0.4,0,0.7,0.4,0.7,0.8
				l0,0C620.4,44.1,620.1,44.4,619.6,44.4L619.6,44.4C619.7,44.4,619.6,44.4,619.6,44.4z M620.1,40c-0.4,0-0.7-0.4-0.6-0.8l0,0
				c0-0.4,0.4-0.7,0.8-0.7l0,0c0.4,0,0.7,0.4,0.7,0.8l0,0C620.9,39.7,620.6,40,620.1,40L620.1,40C620.2,40,620.1,40,620.1,40z
				 M620.6,35.5c-0.4,0-0.7-0.4-0.7-0.8l0,0c0-0.4,0.4-0.7,0.8-0.7l0,0c0.4,0,0.7,0.4,0.6,0.8l0,0C621.4,35.3,621.1,35.6,620.6,35.5
				L620.6,35.5C620.7,35.6,620.6,35.6,620.6,35.5z M621.1,31.1c-0.4,0-0.7-0.4-0.7-0.8l0,0c0-0.4,0.4-0.7,0.8-0.7l0,0
				c0.4,0,0.7,0.4,0.7,0.8l0,0C621.9,30.9,621.6,31.1,621.1,31.1L621.1,31.1C621.2,31.1,621.1,31.1,621.1,31.1z M621.6,26.7
				c-0.4,0-0.7-0.4-0.7-0.8l0,0c0-0.4,0.4-0.7,0.8-0.7l0,0c0.4,0,0.7,0.4,0.7,0.8l0,0C622.4,26.5,622,26.7,621.6,26.7L621.6,26.7
				C621.7,26.7,621.6,26.7,621.6,26.7z M622.1,22.3c-0.4,0-0.7-0.4-0.7-0.8l0,0c0-0.4,0.4-0.7,0.8-0.6l0,0c0.4,0,0.7,0.4,0.7,0.8
				l0,0C622.9,22.1,622.5,22.3,622.1,22.3L622.1,22.3C622.1,22.3,622.1,22.3,622.1,22.3z M622.6,17.9c-0.4,0-0.7-0.4-0.7-0.8l0,0
				c0-0.4,0.4-0.7,0.8-0.7l0,0c0.4,0,0.7,0.4,0.7,0.8l0,0C623.4,17.7,623,17.9,622.6,17.9L622.6,17.9
				C622.6,17.9,622.6,17.9,622.6,17.9z M623.1,13.5c-0.4,0-0.7-0.4-0.6-0.8l0,0c0-0.4,0.4-0.7,0.8-0.7l0,0c0.4,0,0.7,0.4,0.7,0.8
				l0,0C623.9,13.3,623.5,13.5,623.1,13.5L623.1,13.5C623.1,13.5,623.1,13.5,623.1,13.5z M623.6,9.1c-0.4,0-0.7-0.4-0.6-0.8l0,0
				c0-0.4,0.4-0.7,0.8-0.7l0,0c0.4,0,0.7,0.4,0.7,0.8l0,0C624.4,8.8,624,9.1,623.6,9.1L623.6,9.1C623.6,9.1,623.6,9.1,623.6,9.1z
				 M624.1,4.7c-0.4,0-0.7-0.4-0.7-0.8l0,0c0-0.4,0.4-0.7,0.8-0.6l0,0c0.4,0,0.7,0.4,0.6,0.8l0,0C624.8,4.4,624.5,4.7,624.1,4.7
				L624.1,4.7C624.1,4.7,624.1,4.7,624.1,4.7z M624.6,0.3c-0.4,0-0.7-0.4-0.6-0.8l0,0c0-0.4,0.4-0.7,0.8-0.7l0,0
				c0.4,0,0.7,0.4,0.7,0.8l0,0C625.3,0,625,0.3,624.6,0.3L624.6,0.3C624.6,0.3,624.6,0.3,624.6,0.3z M625.1-4.1
				c-0.4,0-0.7-0.4-0.7-0.8l0,0c0-0.4,0.4-0.7,0.8-0.7l0,0c0.4,0,0.7,0.4,0.7,0.8l0,0C625.8-4.4,625.5-4.1,625.1-4.1L625.1-4.1
				C625.1-4.1,625.1-4.1,625.1-4.1z M625.6-8.5c-0.4,0-0.7-0.4-0.7-0.8l0,0c0-0.4,0.4-0.7,0.8-0.7l0,0c0.4,0,0.7,0.4,0.6,0.8l0,0
				C626.3-8.8,626-8.5,625.6-8.5L625.6-8.5C625.6-8.5,625.6-8.5,625.6-8.5z M626.1-12.9c-0.4,0-0.7-0.4-0.7-0.8l0,0
				c0-0.4,0.4-0.7,0.8-0.7l0,0c0.4,0,0.7,0.4,0.7,0.8l0,0C626.8-13.2,626.5-12.9,626.1-12.9L626.1-12.9
				C626.1-12.9,626.1-12.9,626.1-12.9z M626.6-17.3c-0.4,0-0.7-0.4-0.6-0.8l0,0c0-0.4,0.4-0.7,0.8-0.7l0,0c0.4,0,0.7,0.4,0.7,0.8
				l0,0C627.3-17.6,627-17.3,626.6-17.3L626.6-17.3C626.6-17.3,626.6-17.3,626.6-17.3z M627.1-21.7c-0.4,0-0.7-0.4-0.7-0.8l0,0
				c0-0.4,0.4-0.7,0.8-0.7l0,0c0.4,0,0.7,0.4,0.7,0.8l0,0C627.8-22,627.5-21.7,627.1-21.7L627.1-21.7
				C627.1-21.7,627.1-21.7,627.1-21.7z M627.5-26.1c-0.4,0-0.7-0.4-0.7-0.8l0,0c0-0.4,0.4-0.7,0.8-0.7l0,0c0.4,0,0.7,0.4,0.7,0.8
				l0,0C628.3-26.4,628-26.1,627.5-26.1L627.5-26.1C627.6-26.1,627.6-26.1,627.5-26.1z"/>
		</g>
		<g>
			<path class="st0" d="M626.9-26.8c0-0.4,0.3-0.8,0.7-0.8l0,0c0.4,0,0.8,0.3,0.8,0.7l0,0c0,0.4-0.3,0.8-0.7,0.8l0,0c0,0,0,0,0,0
				l0,0C627.2-26.1,626.9-26.4,626.9-26.8z M631.3-27c0-0.4,0.3-0.8,0.7-0.8l0,0c0.4,0,0.8,0.3,0.8,0.7l0,0c0,0.4-0.3,0.8-0.7,0.8
				l0,0c0,0,0,0,0,0l0,0C631.7-26.3,631.3-26.6,631.3-27z M635.7-27.3c0-0.4,0.3-0.8,0.7-0.8l0,0c0.4,0,0.8,0.3,0.8,0.7l0,0
				c0,0.4-0.3,0.8-0.7,0.8l0,0c0,0,0,0,0,0l0,0C636.1-26.6,635.8-26.9,635.7-27.3z M640.2-27.5c0-0.4,0.3-0.8,0.7-0.8l0,0
				c0.4,0,0.8,0.3,0.8,0.7l0,0c0,0.4-0.3,0.8-0.7,0.8l0,0c0,0,0,0,0,0l0,0C640.5-26.8,640.2-27.1,640.2-27.5z M644.6-27.7
				c0-0.4,0.3-0.8,0.7-0.8l0,0c0.4,0,0.8,0.3,0.8,0.7l0,0c0,0.4-0.3,0.8-0.7,0.8l0,0c0,0,0,0,0,0l0,0
				C644.9-27,644.6-27.3,644.6-27.7z M649-27.9c0-0.4,0.3-0.8,0.7-0.8l0,0c0.4,0,0.8,0.3,0.8,0.7l0,0c0,0.4-0.3,0.8-0.7,0.8l0,0
				c0,0,0,0,0,0l0,0C649.4-27.2,649-27.5,649-27.9z M653.4-28.2c0-0.4,0.3-0.8,0.7-0.8l0,0c0.4,0,0.8,0.3,0.8,0.7l0,0
				c0,0.4-0.3,0.8-0.7,0.8l0,0c0,0,0,0,0,0l0,0C653.8-27.5,653.5-27.8,653.4-28.2z M657.9-28.4c0-0.4,0.3-0.8,0.7-0.8l0,0
				c0.4,0,0.8,0.3,0.8,0.7l0,0c0,0.4-0.3,0.8-0.7,0.8l0,0c0,0,0,0,0,0l0,0C658.2-27.7,657.9-28,657.9-28.4z M662.3-28.6
				c0-0.4,0.3-0.8,0.7-0.8l0,0c0.4,0,0.8,0.3,0.8,0.7l0,0c0,0.4-0.3,0.8-0.7,0.8l0,0c0,0,0,0,0,0l0,0
				C662.6-27.9,662.3-28.2,662.3-28.6z M666.7-28.9c0-0.4,0.3-0.8,0.7-0.8l0,0c0.4,0,0.8,0.3,0.8,0.7l0,0c0,0.4-0.3,0.8-0.7,0.8l0,0
				c0,0,0,0,0,0l0,0C667.1-28.2,666.7-28.5,666.7-28.9z M671.2-29.1c0-0.4,0.3-0.8,0.7-0.8l0,0c0.4,0,0.8,0.3,0.8,0.7l0,0
				c0,0.4-0.3,0.8-0.7,0.8l0,0c0,0,0,0,0,0l0,0C671.5-28.4,671.2-28.7,671.2-29.1z M675.6-29.3c0-0.4,0.3-0.8,0.7-0.8l0,0
				c0.4,0,0.8,0.3,0.8,0.7l0,0c0,0.4-0.3,0.8-0.7,0.8l0,0c0,0,0,0,0,0l0,0C675.9-28.6,675.6-28.9,675.6-29.3z M680-29.5
				c0-0.4,0.3-0.8,0.7-0.8l0,0c0.4,0,0.8,0.3,0.8,0.7l0,0c0,0.4-0.3,0.8-0.7,0.8l0,0c0,0,0,0,0,0l0,0C680.4-28.8,680-29.1,680-29.5z
				 M684.4-29.8c0-0.4,0.3-0.8,0.7-0.8l0,0c0.4,0,0.8,0.3,0.8,0.7l0,0c0,0.4-0.3,0.8-0.7,0.8l0,0c0,0,0,0,0,0l0,0
				C684.8-29.1,684.5-29.4,684.4-29.8z M688.9-30c0-0.4,0.3-0.8,0.7-0.8l0,0c0.4,0,0.8,0.3,0.8,0.7l0,0c0,0.4-0.3,0.8-0.7,0.8l0,0
				c0,0,0,0,0,0l0,0C689.2-29.3,688.9-29.6,688.9-30z M693.3-30.2c0-0.4,0.3-0.8,0.7-0.8l0,0c0.4,0,0.8,0.3,0.8,0.7l0,0
				c0,0.4-0.3,0.8-0.7,0.8l0,0c0,0,0,0,0,0l0,0C693.6-29.5,693.3-29.8,693.3-30.2z M697.7-30.4c0-0.4,0.3-0.8,0.7-0.8l0,0
				c0.4,0,0.8,0.3,0.8,0.7l0,0c0,0.4-0.3,0.8-0.7,0.8l0,0c0,0,0,0,0,0l0,0C698.1-29.7,697.7-30.1,697.7-30.4z M702.1-30.7
				c0-0.4,0.3-0.8,0.7-0.8l0,0c0.4,0,0.8,0.3,0.8,0.7l0,0c0,0.4-0.3,0.8-0.7,0.8l0,0c0,0,0,0,0,0l0,0
				C702.5-30,702.2-30.3,702.1-30.7z M706.6-30.9c0-0.4,0.3-0.8,0.7-0.8l0,0c0.4,0,0.8,0.3,0.8,0.7l0,0c0,0.4-0.3,0.8-0.7,0.8l0,0
				c0,0,0,0,0,0l0,0C706.9-30.2,706.6-30.5,706.6-30.9z M711-31.1c0-0.4,0.3-0.8,0.7-0.8l0,0c0.4,0,0.8,0.3,0.8,0.7l0,0
				c0,0.4-0.3,0.8-0.7,0.8l0,0c0,0,0,0,0,0l0,0C711.3-30.4,711-30.7,711-31.1z M715.4-31.4c0-0.4,0.3-0.8,0.7-0.8l0,0
				c0.4,0,0.8,0.3,0.8,0.7l0,0c0,0.4-0.3,0.8-0.7,0.8l0,0c0,0,0,0,0,0l0,0C715.8-30.7,715.4-31,715.4-31.4z M719.8-31.6
				c0-0.4,0.3-0.8,0.7-0.8l0,0c0.4,0,0.8,0.3,0.8,0.7l0,0c0,0.4-0.3,0.8-0.7,0.8l0,0c0,0,0,0,0,0l0,0
				C720.2-30.9,719.9-31.2,719.8-31.6z M724.3-31.8c0-0.4,0.3-0.8,0.7-0.8l0,0c0.4,0,0.8,0.3,0.8,0.7l0,0c0,0.4-0.3,0.8-0.7,0.8l0,0
				c0,0,0,0,0,0l0,0C724.6-31.1,724.3-31.4,724.3-31.8z M728.7-32c0-0.4,0.3-0.8,0.7-0.8l0,0c0.4,0,0.8,0.3,0.8,0.7l0,0
				c0,0.4-0.3,0.8-0.7,0.8l0,0c0,0,0,0,0,0l0,0C729-31.3,728.7-31.6,728.7-32z M733.1-32.3c0-0.4,0.3-0.8,0.7-0.8l0,0
				c0.4,0,0.8,0.3,0.8,0.7l0,0c0,0.4-0.3,0.8-0.7,0.8l0,0c0,0,0,0,0,0l0,0C733.5-31.6,733.1-31.9,733.1-32.3z M737.5-32.5
				c0-0.4,0.3-0.8,0.7-0.8l0,0c0.4,0,0.8,0.3,0.8,0.7l0,0c0,0.4-0.3,0.8-0.7,0.8l0,0c0,0,0,0,0,0l0,0
				C737.9-31.8,737.6-32.1,737.5-32.5z"/>
		</g>
		<g>
			<path class="st0" d="M733.1-32.7c-0.4-0.2-0.5-0.6-0.3-1l0,0c0.2-0.4,0.6-0.5,1-0.3l0,0c0.4,0.2,0.5,0.6,0.3,1l0,0
				c-0.1,0.3-0.4,0.4-0.7,0.4l0,0C733.3-32.6,733.2-32.7,733.1-32.7z M729.2-34.7c-0.4-0.2-0.5-0.6-0.3-1l0,0c0.2-0.4,0.6-0.5,1-0.3
				l0,0c0.4,0.2,0.5,0.6,0.3,1l0,0c-0.1,0.3-0.4,0.4-0.7,0.4l0,0C729.4-34.6,729.3-34.6,729.2-34.7z M725.2-36.6
				c-0.4-0.2-0.5-0.6-0.3-1l0,0c0.2-0.4,0.6-0.5,1-0.3l0,0c0.4,0.2,0.5,0.6,0.3,1l0,0c-0.1,0.3-0.4,0.4-0.7,0.4l0,0
				C725.4-36.6,725.3-36.6,725.2-36.6z M721.2-38.6c-0.4-0.2-0.5-0.6-0.3-1l0,0c0.2-0.4,0.6-0.5,1-0.3l0,0c0.4,0.2,0.5,0.6,0.3,1
				l0,0c-0.1,0.3-0.4,0.4-0.7,0.4l0,0C721.4-38.5,721.3-38.5,721.2-38.6z M717.2-40.5c-0.4-0.2-0.5-0.6-0.3-1l0,0
				c0.2-0.4,0.6-0.5,1-0.3l0,0c0.4,0.2,0.5,0.6,0.3,1l0,0c-0.1,0.3-0.4,0.4-0.7,0.4l0,0C717.4-40.5,717.3-40.5,717.2-40.5z
				 M713.2-42.5c-0.4-0.2-0.5-0.6-0.3-1l0,0c0.2-0.4,0.6-0.5,1-0.3l0,0c0.4,0.2,0.5,0.6,0.3,1l0,0c-0.1,0.3-0.4,0.4-0.7,0.4l0,0
				C713.5-42.4,713.3-42.4,713.2-42.5z M709.3-44.5c-0.4-0.2-0.5-0.6-0.3-1l0,0c0.2-0.4,0.6-0.5,1-0.3l0,0c0.4,0.2,0.5,0.6,0.3,1
				l0,0c-0.1,0.3-0.4,0.4-0.7,0.4l0,0C709.5-44.4,709.4-44.4,709.3-44.5z M705.3-46.4c-0.4-0.2-0.5-0.6-0.3-1l0,0
				c0.2-0.4,0.6-0.5,1-0.3l0,0c0.4,0.2,0.5,0.6,0.3,1l0,0c-0.1,0.3-0.4,0.4-0.7,0.4l0,0C705.5-46.3,705.4-46.4,705.3-46.4z
				 M701.3-48.4c-0.4-0.2-0.5-0.6-0.3-1l0,0c0.2-0.4,0.6-0.5,1-0.3l0,0c0.4,0.2,0.5,0.6,0.3,1l0,0c-0.1,0.3-0.4,0.4-0.7,0.4l0,0
				C701.5-48.3,701.4-48.3,701.3-48.4z M697.3-50.3c-0.4-0.2-0.5-0.6-0.3-1l0,0c0.2-0.4,0.6-0.5,1-0.3l0,0c0.4,0.2,0.5,0.6,0.3,1
				l0,0c-0.1,0.3-0.4,0.4-0.7,0.4l0,0C697.5-50.2,697.4-50.3,697.3-50.3z M693.4-52.3c-0.4-0.2-0.5-0.6-0.3-1l0,0
				c0.2-0.4,0.6-0.5,1-0.3l0,0c0.4,0.2,0.5,0.6,0.3,1l0,0c-0.1,0.3-0.4,0.4-0.7,0.4l0,0C693.6-52.2,693.5-52.2,693.4-52.3z
				 M689.4-54.2c-0.4-0.2-0.5-0.6-0.3-1l0,0c0.2-0.4,0.6-0.5,1-0.3l0,0c0.4,0.2,0.5,0.6,0.3,1l0,0c-0.1,0.3-0.4,0.4-0.7,0.4l0,0
				C689.6-54.2,689.5-54.2,689.4-54.2z M685.4-56.2c-0.4-0.2-0.5-0.6-0.3-1l0,0c0.2-0.4,0.6-0.5,1-0.3l0,0c0.4,0.2,0.5,0.6,0.3,1
				l0,0c-0.1,0.3-0.4,0.4-0.7,0.4l0,0C685.6-56.1,685.5-56.1,685.4-56.2z M681.4-58.1c-0.4-0.2-0.5-0.6-0.3-1l0,0
				c0.2-0.4,0.6-0.5,1-0.3l0,0c0.4,0.2,0.5,0.6,0.3,1l0,0c-0.1,0.3-0.4,0.4-0.7,0.4l0,0C681.6-58.1,681.5-58.1,681.4-58.1z
				 M677.4-60.1c-0.4-0.2-0.5-0.6-0.3-1l0,0c0.2-0.4,0.6-0.5,1-0.3l0,0c0.4,0.2,0.5,0.6,0.3,1l0,0c-0.1,0.3-0.4,0.4-0.7,0.4l0,0
				C677.7-60,677.6-60.1,677.4-60.1z M673.5-62.1c-0.4-0.2-0.5-0.6-0.3-1l0,0c0.2-0.4,0.6-0.5,1-0.3l0,0c0.4,0.2,0.5,0.6,0.3,1l0,0
				c-0.1,0.3-0.4,0.4-0.7,0.4l0,0C673.7-62,673.6-62,673.5-62.1z M669.5-64c-0.4-0.2-0.5-0.6-0.3-1l0,0c0.2-0.4,0.6-0.5,1-0.3l0,0
				c0.4,0.2,0.5,0.6,0.3,1l0,0c-0.1,0.3-0.4,0.4-0.7,0.4l0,0C669.7-63.9,669.6-64,669.5-64z M665.5-66c-0.4-0.2-0.5-0.6-0.3-1l0,0
				c0.2-0.4,0.6-0.5,1-0.3l0,0c0.4,0.2,0.5,0.6,0.3,1l0,0c-0.1,0.3-0.4,0.4-0.7,0.4l0,0C665.7-65.9,665.6-65.9,665.5-66z
				 M661.5-67.9c-0.4-0.2-0.5-0.6-0.3-1l0,0c0.2-0.4,0.6-0.5,1-0.3l0,0c0.4,0.2,0.5,0.6,0.3,1l0,0c-0.1,0.3-0.4,0.4-0.7,0.4l0,0
				C661.8-67.9,661.6-67.9,661.5-67.9z M657.6-69.9c-0.4-0.2-0.5-0.6-0.3-1l0,0c0.2-0.4,0.6-0.5,1-0.3l0,0c0.4,0.2,0.5,0.6,0.3,1
				l0,0c-0.1,0.3-0.4,0.4-0.7,0.4l0,0C657.8-69.8,657.7-69.8,657.6-69.9z M653.6-71.8c-0.4-0.2-0.5-0.6-0.3-1l0,0
				c0.2-0.4,0.6-0.5,1-0.3l0,0c0.4,0.2,0.5,0.6,0.3,1l0,0c-0.1,0.3-0.4,0.4-0.7,0.4l0,0C653.8-71.8,653.7-71.8,653.6-71.8z
				 M649.6-73.8c-0.4-0.2-0.5-0.6-0.3-1l0,0c0.2-0.4,0.6-0.5,1-0.3l0,0c0.4,0.2,0.5,0.6,0.3,1l0,0c-0.1,0.3-0.4,0.4-0.7,0.4l0,0
				C649.8-73.7,649.7-73.8,649.6-73.8z M645.6-75.8c-0.4-0.2-0.5-0.6-0.3-1l0,0c0.2-0.4,0.6-0.5,1-0.3l0,0c0.4,0.2,0.5,0.6,0.3,1
				l0,0c-0.1,0.3-0.4,0.4-0.7,0.4l0,0C645.8-75.7,645.7-75.7,645.6-75.8z M641.7-77.7c-0.4-0.2-0.5-0.6-0.3-1l0,0
				c0.2-0.4,0.6-0.5,1-0.3l0,0c0.4,0.2,0.5,0.6,0.3,1l0,0c-0.1,0.3-0.4,0.4-0.7,0.4l0,0C641.9-77.6,641.8-77.7,641.7-77.7z
				 M637.7-79.7c-0.4-0.2-0.5-0.6-0.3-1l0,0c0.2-0.4,0.6-0.5,1-0.3l0,0c0.4,0.2,0.5,0.6,0.3,1l0,0c-0.1,0.3-0.4,0.4-0.7,0.4l0,0
				C637.9-79.6,637.8-79.6,637.7-79.7z M633.7-81.6c-0.4-0.2-0.5-0.6-0.3-1l0,0c0.2-0.4,0.6-0.5,1-0.3l0,0c0.4,0.2,0.5,0.6,0.3,1
				l0,0c-0.1,0.3-0.4,0.4-0.7,0.4l0,0C633.9-81.6,633.8-81.6,633.7-81.6z M629.7-83.6c-0.4-0.2-0.5-0.6-0.3-1l0,0
				c0.2-0.4,0.6-0.5,1-0.3l0,0c0.4,0.2,0.5,0.6,0.3,1l0,0c-0.1,0.3-0.4,0.4-0.7,0.4l0,0C629.9-83.5,629.8-83.5,629.7-83.6z
				 M625.7-85.5c-0.4-0.2-0.5-0.6-0.3-1l0,0c0.2-0.4,0.6-0.5,1-0.3l0,0c0.4,0.2,0.5,0.6,0.3,1l0,0c-0.1,0.3-0.4,0.4-0.7,0.4l0,0
				C626-85.5,625.9-85.5,625.7-85.5z M621.8-87.5c-0.4-0.2-0.5-0.6-0.3-1l0,0c0.2-0.4,0.6-0.5,1-0.3l0,0c0.4,0.2,0.5,0.6,0.3,1l0,0
				c-0.1,0.3-0.4,0.4-0.7,0.4l0,0C622-87.4,621.9-87.4,621.8-87.5z M617.8-89.5c-0.4-0.2-0.5-0.6-0.3-1l0,0c0.2-0.4,0.6-0.5,1-0.3
				l0,0c0.4,0.2,0.5,0.6,0.3,1l0,0c-0.1,0.3-0.4,0.4-0.7,0.4l0,0C618-89.4,617.9-89.4,617.8-89.5z M613.8-91.4
				c-0.4-0.2-0.5-0.6-0.3-1l0,0c0.2-0.4,0.6-0.5,1-0.3l0,0c0.4,0.2,0.5,0.6,0.3,1l0,0c-0.1,0.3-0.4,0.4-0.7,0.4l0,0
				C614-91.3,613.9-91.4,613.8-91.4z M609.8-93.4c-0.4-0.2-0.5-0.6-0.3-1l0,0c0.2-0.4,0.6-0.5,1-0.3l0,0c0.4,0.2,0.5,0.6,0.3,1l0,0
				c-0.1,0.3-0.4,0.4-0.7,0.4l0,0C610.1-93.3,609.9-93.3,609.8-93.4z M605.9-95.3c-0.4-0.2-0.5-0.6-0.3-1l0,0c0.2-0.4,0.6-0.5,1-0.3
				l0,0c0.4,0.2,0.5,0.6,0.3,1l0,0c-0.1,0.3-0.4,0.4-0.7,0.4l0,0C606.1-95.2,606-95.3,605.9-95.3z M601.9-97.3
				c-0.4-0.2-0.5-0.6-0.3-1l0,0c0.2-0.4,0.6-0.5,1-0.3l0,0c0.4,0.2,0.5,0.6,0.3,1l0,0c-0.1,0.3-0.4,0.4-0.7,0.4l0,0
				C602.1-97.2,602-97.2,601.9-97.3z M597.9-99.2c-0.4-0.2-0.5-0.6-0.3-1l0,0c0.2-0.4,0.6-0.5,1-0.3l0,0c0.4,0.2,0.5,0.6,0.3,1l0,0
				c-0.1,0.3-0.4,0.4-0.7,0.4l0,0C598.1-99.2,598-99.2,597.9-99.2z M593.9-101.2c-0.4-0.2-0.5-0.6-0.3-1l0,0c0.2-0.4,0.6-0.5,1-0.3
				l0,0c0.4,0.2,0.5,0.6,0.3,1l0,0c-0.1,0.3-0.4,0.4-0.7,0.4l0,0C594.2-101.1,594-101.1,593.9-101.2z M590-103.1
				c-0.4-0.2-0.5-0.6-0.3-1l0,0c0.2-0.4,0.6-0.5,1-0.3l0,0c0.4,0.2,0.5,0.6,0.3,1l0,0c-0.1,0.3-0.4,0.4-0.7,0.4l0,0
				C590.2-103.1,590.1-103.1,590-103.1z M586-105.1c-0.4-0.2-0.5-0.6-0.3-1l0,0c0.2-0.4,0.6-0.5,1-0.3l0,0c0.4,0.2,0.5,0.6,0.3,1
				l0,0c-0.1,0.3-0.4,0.4-0.7,0.4l0,0C586.2-105,586.1-105.1,586-105.1z M582-107.1c-0.4-0.2-0.5-0.6-0.3-1l0,0
				c0.2-0.4,0.6-0.5,1-0.3l0,0c0.4,0.2,0.5,0.6,0.3,1l0,0c-0.1,0.3-0.4,0.4-0.7,0.4l0,0C582.2-107,582.1-107,582-107.1z"/>
		</g>
		<g>
			<path class="st0" d="M533.5-4.3c-0.2-0.3-0.1-0.8,0.2-1l0,0c0.3-0.2,0.8-0.1,1,0.2l0,0c0.2,0.3,0.1,0.8-0.2,1l0,0
				c-0.1,0.1-0.3,0.1-0.4,0.1l0,0C533.8-3.9,533.6-4.1,533.5-4.3z M537.1-6.7c-0.2-0.3-0.1-0.8,0.2-1l0,0c0.3-0.2,0.8-0.1,1,0.2l0,0
				c0.2,0.3,0.1,0.8-0.2,1l0,0c-0.1,0.1-0.3,0.1-0.4,0.1l0,0C537.5-6.4,537.3-6.5,537.1-6.7z M540.8-9.2c-0.2-0.3-0.1-0.8,0.2-1l0,0
				c0.3-0.2,0.8-0.1,1,0.2l0,0c0.2,0.3,0.1,0.8-0.2,1l0,0c-0.1,0.1-0.3,0.1-0.4,0.1l0,0C541.2-8.9,541-9,540.8-9.2z M544.5-11.7
				c-0.2-0.3-0.1-0.8,0.2-1l0,0c0.3-0.2,0.8-0.1,1,0.2l0,0c0.2,0.3,0.1,0.8-0.2,1l0,0c-0.1,0.1-0.3,0.1-0.4,0.1l0,0
				C544.9-11.4,544.6-11.5,544.5-11.7z M548.2-14.2c-0.2-0.3-0.1-0.8,0.2-1l0,0c0.3-0.2,0.8-0.1,1,0.2l0,0c0.2,0.3,0.1,0.8-0.2,1
				l0,0c-0.1,0.1-0.3,0.1-0.4,0.1l0,0C548.5-13.8,548.3-14,548.2-14.2z M551.8-16.6c-0.2-0.3-0.1-0.8,0.2-1l0,0
				c0.3-0.2,0.8-0.1,1,0.2l0,0c0.2,0.3,0.1,0.8-0.2,1l0,0c-0.1,0.1-0.3,0.1-0.4,0.1l0,0C552.2-16.3,552-16.4,551.8-16.6z
				 M555.5-19.1c-0.2-0.3-0.1-0.8,0.2-1l0,0c0.3-0.2,0.8-0.1,1,0.2l0,0c0.2,0.3,0.1,0.8-0.2,1l0,0c-0.1,0.1-0.3,0.1-0.4,0.1l0,0
				C555.9-18.8,555.7-18.9,555.5-19.1z M559.2-21.6c-0.2-0.3-0.1-0.8,0.2-1l0,0c0.3-0.2,0.8-0.1,1,0.2l0,0c0.2,0.3,0.1,0.8-0.2,1
				l0,0c-0.1,0.1-0.3,0.1-0.4,0.1l0,0C559.6-21.3,559.3-21.4,559.2-21.6z M562.9-24.1c-0.2-0.3-0.1-0.8,0.2-1l0,0
				c0.3-0.2,0.8-0.1,1,0.2l0,0c0.2,0.3,0.1,0.8-0.2,1l0,0c-0.1,0.1-0.3,0.1-0.4,0.1l0,0C563.3-23.7,563-23.9,562.9-24.1z
				 M566.6-26.5c-0.2-0.3-0.1-0.8,0.2-1l0,0c0.3-0.2,0.8-0.1,1,0.2l0,0c0.2,0.3,0.1,0.8-0.2,1l0,0c-0.1,0.1-0.3,0.1-0.4,0.1l0,0
				C566.9-26.2,566.7-26.3,566.6-26.5z M570.2-29c-0.2-0.3-0.1-0.8,0.2-1l0,0c0.3-0.2,0.8-0.1,1,0.2l0,0c0.2,0.3,0.1,0.8-0.2,1l0,0
				c-0.1,0.1-0.3,0.1-0.4,0.1l0,0C570.6-28.7,570.4-28.8,570.2-29z M573.9-31.5c-0.2-0.3-0.1-0.8,0.2-1l0,0c0.3-0.2,0.8-0.1,1,0.2
				l0,0c0.2,0.3,0.1,0.8-0.2,1l0,0c-0.1,0.1-0.3,0.1-0.4,0.1l0,0C574.3-31.2,574.1-31.3,573.9-31.5z M577.6-34
				c-0.2-0.3-0.1-0.8,0.2-1l0,0c0.3-0.2,0.8-0.1,1,0.2l0,0c0.2,0.3,0.1,0.8-0.2,1l0,0c-0.1,0.1-0.3,0.1-0.4,0.1l0,0
				C578-33.6,577.7-33.8,577.6-34z M581.3-36.4c-0.2-0.3-0.1-0.8,0.2-1l0,0c0.3-0.2,0.8-0.1,1,0.2l0,0c0.2,0.3,0.1,0.8-0.2,1l0,0
				c-0.1,0.1-0.3,0.1-0.4,0.1l0,0C581.6-36.1,581.4-36.2,581.3-36.4z M584.9-38.9c-0.2-0.3-0.1-0.8,0.2-1l0,0c0.3-0.2,0.8-0.1,1,0.2
				l0,0c0.2,0.3,0.1,0.8-0.2,1l0,0c-0.1,0.1-0.3,0.1-0.4,0.1l0,0C585.3-38.6,585.1-38.7,584.9-38.9z M588.6-41.4
				c-0.2-0.3-0.1-0.8,0.2-1l0,0c0.3-0.2,0.8-0.1,1,0.2l0,0c0.2,0.3,0.1,0.8-0.2,1l0,0c-0.1,0.1-0.3,0.1-0.4,0.1l0,0
				C589-41.1,588.8-41.2,588.6-41.4z M592.3-43.9c-0.2-0.3-0.1-0.8,0.2-1l0,0c0.3-0.2,0.8-0.1,1,0.2l0,0c0.2,0.3,0.1,0.8-0.2,1l0,0
				c-0.1,0.1-0.3,0.1-0.4,0.1l0,0C592.7-43.5,592.4-43.6,592.3-43.9z M596-46.3c-0.2-0.3-0.1-0.8,0.2-1l0,0c0.3-0.2,0.8-0.1,1,0.2
				l0,0c0.2,0.3,0.1,0.8-0.2,1l0,0c-0.1,0.1-0.3,0.1-0.4,0.1l0,0C596.3-46,596.1-46.1,596-46.3z M599.6-48.8c-0.2-0.3-0.1-0.8,0.2-1
				l0,0c0.3-0.2,0.8-0.1,1,0.2l0,0c0.2,0.3,0.1,0.8-0.2,1l0,0c-0.1,0.1-0.3,0.1-0.4,0.1l0,0C600-48.5,599.8-48.6,599.6-48.8z
				 M603.3-51.3c-0.2-0.3-0.1-0.8,0.2-1l0,0c0.3-0.2,0.8-0.1,1,0.2l0,0c0.2,0.3,0.1,0.8-0.2,1l0,0c-0.1,0.1-0.3,0.1-0.4,0.1l0,0
				C603.7-51,603.5-51.1,603.3-51.3z M607-53.8c-0.2-0.3-0.1-0.8,0.2-1l0,0c0.3-0.2,0.8-0.1,1,0.2l0,0c0.2,0.3,0.1,0.8-0.2,1l0,0
				c-0.1,0.1-0.3,0.1-0.4,0.1l0,0C607.4-53.4,607.1-53.5,607-53.8z M610.7-56.2c-0.2-0.3-0.1-0.8,0.2-1l0,0c0.3-0.2,0.8-0.1,1,0.2
				l0,0c0.2,0.3,0.1,0.8-0.2,1l0,0c-0.1,0.1-0.3,0.1-0.4,0.1l0,0C611.1-55.9,610.8-56,610.7-56.2z M614.4-58.7
				c-0.2-0.3-0.1-0.8,0.2-1l0,0c0.3-0.2,0.8-0.1,1,0.2l0,0c0.2,0.3,0.1,0.8-0.2,1l0,0c-0.1,0.1-0.3,0.1-0.4,0.1l0,0
				C614.7-58.4,614.5-58.5,614.4-58.7z M618-61.2c-0.2-0.3-0.1-0.8,0.2-1l0,0c0.3-0.2,0.8-0.1,1,0.2l0,0c0.2,0.3,0.1,0.8-0.2,1l0,0
				c-0.1,0.1-0.3,0.1-0.4,0.1l0,0C618.4-60.9,618.2-61,618-61.2z M621.7-63.7c-0.2-0.3-0.1-0.8,0.2-1l0,0c0.3-0.2,0.8-0.1,1,0.2l0,0
				c0.2,0.3,0.1,0.8-0.2,1l0,0c-0.1,0.1-0.3,0.1-0.4,0.1l0,0C622.1-63.3,621.9-63.4,621.7-63.7z M625.4-66.1c-0.2-0.3-0.1-0.8,0.2-1
				l0,0c0.3-0.2,0.8-0.1,1,0.2l0,0c0.2,0.3,0.1,0.8-0.2,1l0,0c-0.1,0.1-0.3,0.1-0.4,0.1l0,0C625.8-65.8,625.5-65.9,625.4-66.1z
				 M629.1-68.6c-0.2-0.3-0.1-0.8,0.2-1l0,0c0.3-0.2,0.8-0.1,1,0.2l0,0c0.2,0.3,0.1,0.8-0.2,1l0,0c-0.1,0.1-0.3,0.1-0.4,0.1l0,0
				C629.4-68.3,629.2-68.4,629.1-68.6z M632.7-71.1c-0.2-0.3-0.1-0.8,0.2-1l0,0c0.3-0.2,0.8-0.1,1,0.2l0,0c0.2,0.3,0.1,0.8-0.2,1
				l0,0c-0.1,0.1-0.3,0.1-0.4,0.1l0,0C633.1-70.8,632.9-70.9,632.7-71.1z M636.4-73.6c-0.2-0.3-0.1-0.8,0.2-1l0,0
				c0.3-0.2,0.8-0.1,1,0.2l0,0c0.2,0.3,0.1,0.8-0.2,1l0,0c-0.1,0.1-0.3,0.1-0.4,0.1l0,0C636.8-73.2,636.6-73.3,636.4-73.6z
				 M640.1-76c-0.2-0.3-0.1-0.8,0.2-1l0,0c0.3-0.2,0.8-0.1,1,0.2l0,0c0.2,0.3,0.1,0.8-0.2,1l0,0c-0.1,0.1-0.3,0.1-0.4,0.1l0,0
				C640.5-75.7,640.2-75.8,640.1-76z M643.8-78.5c-0.2-0.3-0.1-0.8,0.2-1l0,0c0.3-0.2,0.8-0.1,1,0.2l0,0c0.2,0.3,0.1,0.8-0.2,1l0,0
				c-0.1,0.1-0.3,0.1-0.4,0.1l0,0C644.1-78.2,643.9-78.3,643.8-78.5z M647.4-81c-0.2-0.3-0.1-0.8,0.2-1l0,0c0.3-0.2,0.8-0.1,1,0.2
				l0,0c0.2,0.3,0.1,0.8-0.2,1l0,0c-0.1,0.1-0.3,0.1-0.4,0.1l0,0C647.8-80.7,647.6-80.8,647.4-81z M651.1-83.5
				c-0.2-0.3-0.1-0.8,0.2-1l0,0c0.3-0.2,0.8-0.1,1,0.2l0,0c0.2,0.3,0.1,0.8-0.2,1l0,0c-0.1,0.1-0.3,0.1-0.4,0.1l0,0
				C651.5-83.1,651.3-83.2,651.1-83.5z M654.8-85.9c-0.2-0.3-0.1-0.8,0.2-1l0,0c0.3-0.2,0.8-0.1,1,0.2l0,0c0.2,0.3,0.1,0.8-0.2,1
				l0,0c-0.1,0.1-0.3,0.1-0.4,0.1l0,0C655.2-85.6,654.9-85.7,654.8-85.9z M658.5-88.4c-0.2-0.3-0.1-0.8,0.2-1l0,0
				c0.3-0.2,0.8-0.1,1,0.2l0,0c0.2,0.3,0.1,0.8-0.2,1l0,0c-0.1,0.1-0.3,0.1-0.4,0.1l0,0C658.9-88.1,658.6-88.2,658.5-88.4z
				 M662.2-90.9c-0.2-0.3-0.1-0.8,0.2-1l0,0c0.3-0.2,0.8-0.1,1,0.2l0,0c0.2,0.3,0.1,0.8-0.2,1l0,0c-0.1,0.1-0.3,0.1-0.4,0.1l0,0
				C662.5-90.6,662.3-90.7,662.2-90.9z M665.8-93.4c-0.2-0.3-0.1-0.8,0.2-1l0,0c0.3-0.2,0.8-0.1,1,0.2l0,0c0.2,0.3,0.1,0.8-0.2,1
				l0,0c-0.1,0.1-0.3,0.1-0.4,0.1l0,0C666.2-93,666-93.1,665.8-93.4z M669.5-95.8c-0.2-0.3-0.1-0.8,0.2-1l0,0c0.3-0.2,0.8-0.1,1,0.2
				l0,0c0.2,0.3,0.1,0.8-0.2,1l0,0c-0.1,0.1-0.3,0.1-0.4,0.1l0,0C669.9-95.5,669.7-95.6,669.5-95.8z M673.2-98.3
				c-0.2-0.3-0.1-0.8,0.2-1l0,0c0.3-0.2,0.8-0.1,1,0.2l0,0c0.2,0.3,0.1,0.8-0.2,1l0,0c-0.1,0.1-0.3,0.1-0.4,0.1l0,0
				C673.6-98,673.3-98.1,673.2-98.3z M676.9-100.8c-0.2-0.3-0.1-0.8,0.2-1l0,0c0.3-0.2,0.8-0.1,1,0.2l0,0c0.2,0.3,0.1,0.8-0.2,1l0,0
				c-0.1,0.1-0.3,0.1-0.4,0.1l0,0C677.2-100.5,677-100.6,676.9-100.8z M680.5-103.3c-0.2-0.3-0.1-0.8,0.2-1l0,0
				c0.3-0.2,0.8-0.1,1,0.2l0,0c0.2,0.3,0.1,0.8-0.2,1l0,0c-0.1,0.1-0.3,0.1-0.4,0.1l0,0C680.9-102.9,680.7-103,680.5-103.3z
				 M684.2-105.7c-0.2-0.3-0.1-0.8,0.2-1l0,0c0.3-0.2,0.8-0.1,1,0.2l0,0c0.2,0.3,0.1,0.8-0.2,1l0,0c-0.1,0.1-0.3,0.1-0.4,0.1l0,0
				C684.6-105.4,684.4-105.5,684.2-105.7z M687.9-108.2c-0.2-0.3-0.1-0.8,0.2-1l0,0c0.3-0.2,0.8-0.1,1,0.2l0,0
				c0.2,0.3,0.1,0.8-0.2,1l0,0c-0.1,0.1-0.3,0.1-0.4,0.1l0,0C688.3-107.9,688-108,687.9-108.2z M691.6-110.7c-0.2-0.3-0.1-0.8,0.2-1
				l0,0c0.3-0.2,0.8-0.1,1,0.2l0,0c0.2,0.3,0.1,0.8-0.2,1l0,0c-0.1,0.1-0.3,0.1-0.4,0.1l0,0C691.9-110.3,691.7-110.5,691.6-110.7z
				 M695.2-113.2c-0.2-0.3-0.1-0.8,0.2-1l0,0c0.3-0.2,0.8-0.1,1,0.2l0,0c0.2,0.3,0.1,0.8-0.2,1l0,0c-0.1,0.1-0.3,0.1-0.4,0.1l0,0
				C695.6-112.8,695.4-112.9,695.2-113.2z M698.9-115.6c-0.2-0.3-0.1-0.8,0.2-1l0,0c0.3-0.2,0.8-0.1,1,0.2l0,0
				c0.2,0.3,0.1,0.8-0.2,1l0,0c-0.1,0.1-0.3,0.1-0.4,0.1l0,0C699.3-115.3,699.1-115.4,698.9-115.6z M702.6-118.1
				c-0.2-0.3-0.1-0.8,0.2-1l0,0c0.3-0.2,0.8-0.1,1,0.2l0,0c0.2,0.3,0.1,0.8-0.2,1l0,0c-0.1,0.1-0.3,0.1-0.4,0.1l0,0
				C703-117.8,702.7-117.9,702.6-118.1z M706.3-120.6c-0.2-0.3-0.1-0.8,0.2-1l0,0c0.3-0.2,0.8-0.1,1,0.2l0,0c0.2,0.3,0.1,0.8-0.2,1
				l0,0c-0.1,0.1-0.3,0.1-0.4,0.1l0,0C706.7-120.2,706.4-120.4,706.3-120.6z M710-123c-0.2-0.3-0.1-0.8,0.2-1l0,0
				c0.3-0.2,0.8-0.1,1,0.2l0,0c0.2,0.3,0.1,0.8-0.2,1l0,0c-0.1,0.1-0.3,0.1-0.4,0.1l0,0C710.3-122.7,710.1-122.8,710-123z"/>
		</g>
		<g>
			<path class="st0" d="M531.3-2.3c-0.4-0.2-0.5-0.6-0.4-1l0,0c0.2-0.4,0.6-0.5,1-0.4l0,0c0.4,0.2,0.5,0.6,0.4,1l0,0
				c-0.1,0.3-0.4,0.4-0.7,0.4l0,0C531.5-2.2,531.4-2.3,531.3-2.3z M533.2-6.3c-0.4-0.2-0.5-0.6-0.4-1l0,0c0.2-0.4,0.6-0.5,1-0.4l0,0
				c0.4,0.2,0.5,0.6,0.4,1l0,0c-0.1,0.3-0.4,0.4-0.7,0.4l0,0C533.4-6.2,533.3-6.3,533.2-6.3z M535-10.3c-0.4-0.2-0.5-0.6-0.4-1l0,0
				c0.2-0.4,0.6-0.5,1-0.4l0,0c0.4,0.2,0.5,0.6,0.4,1l0,0c-0.1,0.3-0.4,0.4-0.7,0.4l0,0C535.2-10.3,535.1-10.3,535-10.3z
				 M536.9-14.3c-0.4-0.2-0.5-0.6-0.4-1l0,0c0.2-0.4,0.6-0.5,1-0.4l0,0c0.4,0.2,0.5,0.6,0.4,1l0,0c-0.1,0.3-0.4,0.4-0.7,0.4l0,0
				C537.1-14.3,537-14.3,536.9-14.3z M538.8-18.3c-0.4-0.2-0.5-0.6-0.4-1l0,0c0.2-0.4,0.6-0.5,1-0.4l0,0c0.4,0.2,0.5,0.6,0.4,1l0,0
				c-0.1,0.3-0.4,0.4-0.7,0.4l0,0C539-18.3,538.9-18.3,538.8-18.3z M540.7-22.4c-0.4-0.2-0.5-0.6-0.4-1l0,0c0.2-0.4,0.6-0.5,1-0.4
				l0,0c0.4,0.2,0.5,0.6,0.4,1l0,0c-0.1,0.3-0.4,0.4-0.7,0.4l0,0C540.9-22.3,540.8-22.3,540.7-22.4z M542.6-26.4
				c-0.4-0.2-0.5-0.6-0.4-1l0,0c0.2-0.4,0.6-0.5,1-0.4l0,0c0.4,0.2,0.5,0.6,0.4,1l0,0c-0.1,0.3-0.4,0.4-0.7,0.4l0,0
				C542.8-26.3,542.7-26.3,542.6-26.4z M544.5-30.4c-0.4-0.2-0.5-0.6-0.4-1l0,0c0.2-0.4,0.6-0.5,1-0.4l0,0c0.4,0.2,0.5,0.6,0.4,1
				l0,0c-0.1,0.3-0.4,0.4-0.7,0.4l0,0C544.7-30.3,544.6-30.3,544.5-30.4z M546.4-34.4c-0.4-0.2-0.5-0.6-0.4-1l0,0
				c0.2-0.4,0.6-0.5,1-0.4l0,0c0.4,0.2,0.5,0.6,0.4,1l0,0c-0.1,0.3-0.4,0.4-0.7,0.4l0,0C546.6-34.3,546.5-34.3,546.4-34.4z
				 M548.2-38.4c-0.4-0.2-0.5-0.6-0.4-1l0,0c0.2-0.4,0.6-0.5,1-0.4l0,0c0.4,0.2,0.5,0.6,0.4,1l0,0c-0.1,0.3-0.4,0.4-0.7,0.4l0,0
				C548.4-38.3,548.3-38.4,548.2-38.4z M550.1-42.4c-0.4-0.2-0.5-0.6-0.4-1l0,0c0.2-0.4,0.6-0.5,1-0.4l0,0c0.4,0.2,0.5,0.6,0.4,1
				l0,0c-0.1,0.3-0.4,0.4-0.7,0.4l0,0C550.3-42.3,550.2-42.4,550.1-42.4z M552-46.4c-0.4-0.2-0.5-0.6-0.4-1l0,0
				c0.2-0.4,0.6-0.5,1-0.4l0,0c0.4,0.2,0.5,0.6,0.4,1l0,0c-0.1,0.3-0.4,0.4-0.7,0.4l0,0C552.2-46.4,552.1-46.4,552-46.4z
				 M553.9-50.4c-0.4-0.2-0.5-0.6-0.4-1l0,0c0.2-0.4,0.6-0.5,1-0.4l0,0c0.4,0.2,0.5,0.6,0.4,1l0,0c-0.1,0.3-0.4,0.4-0.7,0.4l0,0
				C554.1-50.4,554-50.4,553.9-50.4z M555.8-54.4c-0.4-0.2-0.5-0.6-0.4-1l0,0c0.2-0.4,0.6-0.5,1-0.4l0,0c0.4,0.2,0.5,0.6,0.4,1l0,0
				c-0.1,0.3-0.4,0.4-0.7,0.4l0,0C556-54.4,555.9-54.4,555.8-54.4z M557.7-58.5c-0.4-0.2-0.5-0.6-0.4-1l0,0c0.2-0.4,0.6-0.5,1-0.4
				l0,0c0.4,0.2,0.5,0.6,0.4,1l0,0c-0.1,0.3-0.4,0.4-0.7,0.4l0,0C557.9-58.4,557.8-58.4,557.7-58.5z M559.6-62.5
				c-0.4-0.2-0.5-0.6-0.4-1l0,0c0.2-0.4,0.6-0.5,1-0.4l0,0c0.4,0.2,0.5,0.6,0.4,1l0,0c-0.1,0.3-0.4,0.4-0.7,0.4l0,0
				C559.8-62.4,559.7-62.4,559.6-62.5z M561.4-66.5c-0.4-0.2-0.5-0.6-0.4-1l0,0c0.2-0.4,0.6-0.5,1-0.4l0,0c0.4,0.2,0.5,0.6,0.4,1
				l0,0c-0.1,0.3-0.4,0.4-0.7,0.4l0,0C561.6-66.4,561.5-66.4,561.4-66.5z M563.3-70.5c-0.4-0.2-0.5-0.6-0.4-1l0,0
				c0.2-0.4,0.6-0.5,1-0.4l0,0c0.4,0.2,0.5,0.6,0.4,1l0,0c-0.1,0.3-0.4,0.4-0.7,0.4l0,0C563.5-70.4,563.4-70.4,563.3-70.5z
				 M565.2-74.5c-0.4-0.2-0.5-0.6-0.4-1l0,0c0.2-0.4,0.6-0.5,1-0.4l0,0c0.4,0.2,0.5,0.6,0.4,1l0,0c-0.1,0.3-0.4,0.4-0.7,0.4l0,0
				C565.4-74.4,565.3-74.5,565.2-74.5z M567.1-78.5c-0.4-0.2-0.5-0.6-0.4-1l0,0c0.2-0.4,0.6-0.5,1-0.4l0,0c0.4,0.2,0.5,0.6,0.4,1
				l0,0c-0.1,0.3-0.4,0.4-0.7,0.4l0,0C567.3-78.4,567.2-78.5,567.1-78.5z M569-82.5c-0.4-0.2-0.5-0.6-0.4-1l0,0
				c0.2-0.4,0.6-0.5,1-0.4l0,0c0.4,0.2,0.5,0.6,0.4,1l0,0c-0.1,0.3-0.4,0.4-0.7,0.4l0,0C569.2-82.5,569.1-82.5,569-82.5z
				 M570.9-86.5c-0.4-0.2-0.5-0.6-0.4-1l0,0c0.2-0.4,0.6-0.5,1-0.4l0,0c0.4,0.2,0.5,0.6,0.4,1l0,0c-0.1,0.3-0.4,0.4-0.7,0.4l0,0
				C571.1-86.5,571-86.5,570.9-86.5z M572.8-90.5c-0.4-0.2-0.5-0.6-0.4-1l0,0c0.2-0.4,0.6-0.5,1-0.4l0,0c0.4,0.2,0.5,0.6,0.4,1l0,0
				c-0.1,0.3-0.4,0.4-0.7,0.4l0,0C573-90.5,572.9-90.5,572.8-90.5z M574.6-94.6c-0.4-0.2-0.5-0.6-0.4-1l0,0c0.2-0.4,0.6-0.5,1-0.4
				l0,0c0.4,0.2,0.5,0.6,0.4,1l0,0c-0.1,0.3-0.4,0.4-0.7,0.4l0,0C574.9-94.5,574.7-94.5,574.6-94.6z M576.5-98.6
				c-0.4-0.2-0.5-0.6-0.4-1l0,0c0.2-0.4,0.6-0.5,1-0.4l0,0c0.4,0.2,0.5,0.6,0.4,1l0,0c-0.1,0.3-0.4,0.4-0.7,0.4l0,0
				C576.7-98.5,576.6-98.5,576.5-98.6z M578.4-102.6c-0.4-0.2-0.5-0.6-0.4-1l0,0c0.2-0.4,0.6-0.5,1-0.4l0,0c0.4,0.2,0.5,0.6,0.4,1
				l0,0c-0.1,0.3-0.4,0.4-0.7,0.4l0,0C578.6-102.5,578.5-102.5,578.4-102.6z M580.3-106.6c-0.4-0.2-0.5-0.6-0.4-1l0,0
				c0.2-0.4,0.6-0.5,1-0.4l0,0c0.4,0.2,0.5,0.6,0.4,1l0,0c-0.1,0.3-0.4,0.4-0.7,0.4l0,0C580.5-106.5,580.4-106.5,580.3-106.6z
				 M582.2-110.6c-0.4-0.2-0.5-0.6-0.4-1l0,0c0.2-0.4,0.6-0.5,1-0.4l0,0c0.4,0.2,0.5,0.6,0.4,1l0,0c-0.1,0.3-0.4,0.4-0.7,0.4l0,0
				C582.4-110.5,582.3-110.5,582.2-110.6z"/>
		</g>
		<g>
			<path class="st0" d="M616.6,82.8c-0.3-0.3-0.3-0.8,0-1l0,0c0.3-0.3,0.8-0.3,1,0l0,0c0.3,0.3,0.3,0.8,0,1l0,0
				c-0.1,0.1-0.3,0.2-0.5,0.2l0,0C617,83,616.8,82.9,616.6,82.8z M613.5,79.6c-0.3-0.3-0.3-0.8,0-1l0,0c0.3-0.3,0.8-0.3,1,0l0,0
				c0.3,0.3,0.3,0.8,0,1l0,0c-0.1,0.1-0.3,0.2-0.5,0.2l0,0C613.9,79.8,613.7,79.8,613.5,79.6z M610.4,76.4c-0.3-0.3-0.3-0.8,0-1l0,0
				c0.3-0.3,0.8-0.3,1,0l0,0c0.3,0.3,0.3,0.8,0,1l0,0c-0.1,0.1-0.3,0.2-0.5,0.2l0,0C610.8,76.7,610.6,76.6,610.4,76.4z M607.4,73.3
				c-0.3-0.3-0.3-0.8,0-1l0,0c0.3-0.3,0.8-0.3,1,0l0,0c0.3,0.3,0.3,0.8,0,1l0,0c-0.1,0.1-0.3,0.2-0.5,0.2l0,0
				C607.7,73.5,607.5,73.4,607.4,73.3z M604.3,70.1c-0.3-0.3-0.3-0.8,0-1l0,0c0.3-0.3,0.8-0.3,1,0l0,0c0.3,0.3,0.3,0.8,0,1l0,0
				c-0.1,0.1-0.3,0.2-0.5,0.2l0,0C604.6,70.3,604.4,70.2,604.3,70.1z M601.2,66.9c-0.3-0.3-0.3-0.8,0-1l0,0c0.3-0.3,0.8-0.3,1,0l0,0
				c0.3,0.3,0.3,0.8,0,1l0,0c-0.1,0.1-0.3,0.2-0.5,0.2l0,0C601.5,67.1,601.3,67.1,601.2,66.9z M598.1,63.7c-0.3-0.3-0.3-0.8,0-1l0,0
				c0.3-0.3,0.8-0.3,1,0l0,0c0.3,0.3,0.3,0.8,0,1l0,0c-0.1,0.1-0.3,0.2-0.5,0.2l0,0C598.4,64,598.2,63.9,598.1,63.7z M595,60.6
				c-0.3-0.3-0.3-0.8,0-1l0,0c0.3-0.3,0.8-0.3,1,0l0,0c0.3,0.3,0.3,0.8,0,1l0,0c-0.1,0.1-0.3,0.2-0.5,0.2l0,0
				C595.3,60.8,595.1,60.7,595,60.6z M591.9,57.4c-0.3-0.3-0.3-0.8,0-1l0,0c0.3-0.3,0.8-0.3,1,0l0,0c0.3,0.3,0.3,0.8,0,1l0,0
				c-0.1,0.1-0.3,0.2-0.5,0.2l0,0C592.2,57.6,592,57.5,591.9,57.4z M588.8,54.2c-0.3-0.3-0.3-0.8,0-1l0,0c0.3-0.3,0.8-0.3,1,0l0,0
				c0.3,0.3,0.3,0.8,0,1l0,0c-0.1,0.1-0.3,0.2-0.5,0.2l0,0C589.1,54.4,588.9,54.4,588.8,54.2z M585.7,51c-0.3-0.3-0.3-0.8,0-1l0,0
				c0.3-0.3,0.8-0.3,1,0l0,0c0.3,0.3,0.3,0.8,0,1l0,0c-0.1,0.1-0.3,0.2-0.5,0.2l0,0C586,51.3,585.9,51.2,585.7,51z M582.6,47.9
				c-0.3-0.3-0.3-0.8,0-1l0,0c0.3-0.3,0.8-0.3,1,0l0,0c0.3,0.3,0.3,0.8,0,1l0,0c-0.1,0.1-0.3,0.2-0.5,0.2l0,0
				C583,48.1,582.8,48,582.6,47.9z M579.5,44.7c-0.3-0.3-0.3-0.8,0-1l0,0c0.3-0.3,0.8-0.3,1,0l0,0c0.3,0.3,0.3,0.8,0,1l0,0
				c-0.1,0.1-0.3,0.2-0.5,0.2l0,0C579.9,44.9,579.7,44.8,579.5,44.7z M576.4,41.5c-0.3-0.3-0.3-0.8,0-1l0,0c0.3-0.3,0.8-0.3,1,0l0,0
				c0.3,0.3,0.3,0.8,0,1l0,0c-0.1,0.1-0.3,0.2-0.5,0.2l0,0C576.8,41.7,576.6,41.7,576.4,41.5z M573.3,38.3c-0.3-0.3-0.3-0.8,0-1l0,0
				c0.3-0.3,0.8-0.3,1,0l0,0c0.3,0.3,0.3,0.8,0,1l0,0c-0.1,0.1-0.3,0.2-0.5,0.2l0,0C573.7,38.6,573.5,38.5,573.3,38.3z M570.2,35.2
				c-0.3-0.3-0.3-0.8,0-1l0,0c0.3-0.3,0.8-0.3,1,0l0,0c0.3,0.3,0.3,0.8,0,1l0,0c-0.1,0.1-0.3,0.2-0.5,0.2l0,0
				C570.6,35.4,570.4,35.3,570.2,35.2z M567.2,32c-0.3-0.3-0.3-0.8,0-1l0,0c0.3-0.3,0.8-0.3,1,0l0,0c0.3,0.3,0.3,0.8,0,1l0,0
				c-0.1,0.1-0.3,0.2-0.5,0.2l0,0C567.5,32.2,567.3,32.1,567.2,32z M564.1,28.8c-0.3-0.3-0.3-0.8,0-1l0,0c0.3-0.3,0.8-0.3,1,0l0,0
				c0.3,0.3,0.3,0.8,0,1l0,0c-0.1,0.1-0.3,0.2-0.5,0.2l0,0C564.4,29,564.2,29,564.1,28.8z M561,25.6c-0.3-0.3-0.3-0.8,0-1l0,0
				c0.3-0.3,0.8-0.3,1,0l0,0c0.3,0.3,0.3,0.8,0,1l0,0c-0.1,0.1-0.3,0.2-0.5,0.2l0,0C561.3,25.9,561.1,25.8,561,25.6z M557.9,22.5
				c-0.3-0.3-0.3-0.8,0-1l0,0c0.3-0.3,0.8-0.3,1,0l0,0c0.3,0.3,0.3,0.8,0,1l0,0c-0.1,0.1-0.3,0.2-0.5,0.2l0,0
				C558.2,22.7,558,22.6,557.9,22.5z M554.8,19.3c-0.3-0.3-0.3-0.8,0-1l0,0c0.3-0.3,0.8-0.3,1,0l0,0c0.3,0.3,0.3,0.8,0,1l0,0
				c-0.1,0.1-0.3,0.2-0.5,0.2l0,0C555.1,19.5,554.9,19.4,554.8,19.3z M551.7,16.1c-0.3-0.3-0.3-0.8,0-1l0,0c0.3-0.3,0.8-0.3,1,0l0,0
				c0.3,0.3,0.3,0.8,0,1l0,0c-0.1,0.1-0.3,0.2-0.5,0.2l0,0C552,16.3,551.8,16.3,551.7,16.1z M548.6,12.9c-0.3-0.3-0.3-0.8,0-1l0,0
				c0.3-0.3,0.8-0.3,1,0l0,0c0.3,0.3,0.3,0.8,0,1l0,0c-0.1,0.1-0.3,0.2-0.5,0.2l0,0C548.9,13.2,548.7,13.1,548.6,12.9z M545.5,9.8
				c-0.3-0.3-0.3-0.8,0-1l0,0c0.3-0.3,0.8-0.3,1,0l0,0c0.3,0.3,0.3,0.8,0,1l0,0c-0.1,0.1-0.3,0.2-0.5,0.2l0,0
				C545.8,10,545.7,9.9,545.5,9.8z M542.4,6.6c-0.3-0.3-0.3-0.8,0-1l0,0c0.3-0.3,0.8-0.3,1,0l0,0c0.3,0.3,0.3,0.8,0,1l0,0
				c-0.1,0.1-0.3,0.2-0.5,0.2l0,0C542.8,6.8,542.6,6.7,542.4,6.6z M539.3,3.4c-0.3-0.3-0.3-0.8,0-1l0,0c0.3-0.3,0.8-0.3,1,0l0,0
				c0.3,0.3,0.3,0.8,0,1l0,0c-0.1,0.1-0.3,0.2-0.5,0.2l0,0C539.7,3.6,539.5,3.6,539.3,3.4z M536.2,0.2c-0.3-0.3-0.3-0.8,0-1l0,0
				c0.3-0.3,0.8-0.3,1,0l0,0c0.3,0.3,0.3,0.8,0,1l0,0c-0.1,0.1-0.3,0.2-0.5,0.2l0,0C536.6,0.5,536.4,0.4,536.2,0.2z"/>
		</g>
		<g>
			<path class="st0" d="M614.1,83c-0.2-0.3-0.1-0.8,0.3-1l0,0c0.3-0.2,0.8-0.1,1,0.3l0,0c0.2,0.3,0.1,0.8-0.3,1l0,0
				c-0.1,0.1-0.3,0.1-0.4,0.1l0,0C614.4,83.4,614.2,83.2,614.1,83z M617.8,80.7c-0.2-0.3-0.1-0.8,0.3-1l0,0c0.3-0.2,0.8-0.1,1,0.3
				l0,0c0.2,0.3,0.1,0.8-0.3,1l0,0c-0.1,0.1-0.3,0.1-0.4,0.1l0,0C618.2,81.1,618,81,617.8,80.7z M621.6,78.4c-0.2-0.3-0.1-0.8,0.3-1
				l0,0c0.3-0.2,0.8-0.1,1,0.3l0,0c0.2,0.3,0.1,0.8-0.3,1l0,0c-0.1,0.1-0.3,0.1-0.4,0.1l0,0C622,78.8,621.8,78.7,621.6,78.4z
				 M625.4,76.1c-0.2-0.3-0.1-0.8,0.3-1l0,0c0.3-0.2,0.8-0.1,1,0.3l0,0c0.2,0.3,0.1,0.8-0.3,1l0,0c-0.1,0.1-0.3,0.1-0.4,0.1l0,0
				C625.8,76.5,625.6,76.4,625.4,76.1z M629.2,73.9c-0.2-0.4-0.1-0.8,0.3-1l0,0c0.3-0.2,0.8-0.1,1,0.3l0,0c0.2,0.4,0.1,0.8-0.3,1
				l0,0c-0.1,0.1-0.3,0.1-0.4,0.1l0,0C629.6,74.2,629.4,74.1,629.2,73.9z M633,71.6c-0.2-0.4-0.1-0.8,0.3-1l0,0
				c0.3-0.2,0.8-0.1,1,0.3l0,0c0.2,0.3,0.1,0.8-0.3,1l0,0c-0.1,0.1-0.3,0.1-0.4,0.1l0,0C633.4,71.9,633.2,71.8,633,71.6z
				 M636.8,69.3c-0.2-0.3-0.1-0.8,0.3-1l0,0c0.3-0.2,0.8-0.1,1,0.3l0,0c0.2,0.3,0.1,0.8-0.2,1l0,0c-0.1,0.1-0.3,0.1-0.4,0.1l0,0
				C637.2,69.6,637,69.5,636.8,69.3z M640.6,67c-0.2-0.3-0.1-0.8,0.3-1l0,0c0.3-0.2,0.8-0.1,1,0.3l0,0c0.2,0.3,0.1,0.8-0.2,1l0,0
				c-0.1,0.1-0.3,0.1-0.4,0.1l0,0C641,67.3,640.8,67.2,640.6,67z M644.4,64.7c-0.2-0.3-0.1-0.8,0.2-1l0,0c0.4-0.2,0.8-0.1,1,0.3l0,0
				c0.2,0.3,0.1,0.8-0.3,1l0,0c-0.1,0.1-0.3,0.1-0.4,0.1l0,0C644.8,65,644.5,64.9,644.4,64.7z M648.2,62.4c-0.2-0.3-0.1-0.8,0.3-1
				l0,0c0.3-0.2,0.8-0.1,1,0.2l0,0c0.2,0.4,0.1,0.8-0.3,1l0,0c-0.1,0.1-0.3,0.1-0.4,0.1l0,0C648.6,62.8,648.3,62.6,648.2,62.4z
				 M652,60.1c-0.2-0.3-0.1-0.8,0.3-1l0,0c0.3-0.2,0.8-0.1,1,0.3l0,0c0.2,0.3,0.1,0.8-0.3,1l0,0c-0.1,0.1-0.3,0.1-0.4,0.1l0,0
				C652.4,60.5,652.1,60.3,652,60.1z M655.8,57.8c-0.2-0.3-0.1-0.8,0.3-1l0,0c0.3-0.2,0.8-0.1,1,0.3l0,0c0.2,0.3,0.1,0.8-0.3,1l0,0
				c-0.1,0.1-0.3,0.1-0.4,0.1l0,0C656.2,58.2,655.9,58,655.8,57.8z M659.6,55.5c-0.2-0.3-0.1-0.8,0.3-1l0,0c0.3-0.2,0.8-0.1,1,0.3
				l0,0c0.2,0.3,0.1,0.8-0.3,1l0,0c-0.1,0.1-0.2,0.1-0.4,0.1l0,0C660,55.9,659.7,55.8,659.6,55.5z M663.4,53.2
				c-0.2-0.3-0.1-0.8,0.3-1l0,0c0.3-0.2,0.8-0.1,1,0.3l0,0c0.2,0.3,0.1,0.8-0.3,1l0,0c-0.1,0.1-0.3,0.1-0.4,0.1l0,0
				C663.8,53.6,663.5,53.5,663.4,53.2z M667.2,50.9c-0.2-0.3-0.1-0.8,0.3-1l0,0c0.3-0.2,0.8-0.1,1,0.2l0,0c0.2,0.4,0.1,0.8-0.3,1
				l0,0c-0.1,0.1-0.3,0.1-0.4,0.1l0,0C667.6,51.3,667.3,51.2,667.2,50.9z M671,48.7c-0.2-0.4-0.1-0.8,0.3-1l0,0
				c0.3-0.2,0.8-0.1,1,0.2l0,0c0.2,0.4,0.1,0.8-0.3,1l0,0c-0.1,0.1-0.3,0.1-0.4,0.1l0,0C671.4,49,671.1,48.9,671,48.7z M674.8,46.4
				c-0.2-0.3-0.1-0.8,0.3-1l0,0c0.3-0.2,0.8-0.1,1,0.3l0,0c0.2,0.3,0.1,0.8-0.3,1l0,0c-0.1,0.1-0.3,0.1-0.4,0.1l0,0
				C675.1,46.7,674.9,46.6,674.8,46.4z"/>
		</g>
		<g>
			<path class="st0" d="M674.8,48.2c-0.4-0.1-0.6-0.6-0.5-0.9l0,0c0.1-0.4,0.6-0.6,0.9-0.5l0,0c0.4,0.1,0.6,0.6,0.5,0.9l0,0
				c-0.1,0.3-0.4,0.5-0.7,0.5l0,0C674.9,48.3,674.8,48.3,674.8,48.2z M670.6,46.8c-0.4-0.1-0.6-0.6-0.5-0.9l0,0
				c0.1-0.4,0.6-0.6,0.9-0.5l0,0c0.4,0.1,0.6,0.6,0.5,0.9l0,0c-0.1,0.3-0.4,0.5-0.7,0.5l0,0C670.7,46.8,670.6,46.8,670.6,46.8z
				 M666.4,45.3c-0.4-0.1-0.6-0.6-0.5-0.9l0,0c0.1-0.4,0.6-0.6,0.9-0.5l0,0c0.4,0.1,0.6,0.6,0.5,0.9l0,0c-0.1,0.3-0.4,0.5-0.7,0.5
				l0,0C666.5,45.4,666.5,45.4,666.4,45.3z M662.2,43.9c-0.4-0.1-0.6-0.6-0.5-0.9l0,0c0.1-0.4,0.6-0.6,0.9-0.5l0,0
				c0.4,0.1,0.6,0.6,0.5,0.9l0,0c-0.1,0.3-0.4,0.5-0.7,0.5l0,0C662.3,43.9,662.3,43.9,662.2,43.9z M658,42.4
				c-0.4-0.1-0.6-0.6-0.5-0.9l0,0c0.1-0.4,0.6-0.6,0.9-0.5l0,0c0.4,0.1,0.6,0.6,0.5,0.9l0,0c-0.1,0.3-0.4,0.5-0.7,0.5l0,0
				C658.2,42.5,658.1,42.5,658,42.4z M653.8,41c-0.4-0.1-0.6-0.6-0.5-0.9l0,0c0.1-0.4,0.6-0.6,0.9-0.5l0,0c0.4,0.1,0.6,0.6,0.5,0.9
				l0,0c-0.1,0.3-0.4,0.5-0.7,0.5l0,0C654,41,653.9,41,653.8,41z M649.6,39.5c-0.4-0.1-0.6-0.6-0.5-0.9l0,0c0.1-0.4,0.6-0.6,0.9-0.5
				l0,0c0.4,0.1,0.6,0.6,0.5,0.9l0,0c-0.1,0.3-0.4,0.5-0.7,0.5l0,0C649.8,39.6,649.7,39.6,649.6,39.5z M645.4,38.1
				c-0.4-0.1-0.6-0.6-0.5-0.9l0,0c0.1-0.4,0.6-0.6,0.9-0.5l0,0c0.4,0.1,0.6,0.6,0.5,0.9l0,0c-0.1,0.3-0.4,0.5-0.7,0.5l0,0
				C645.6,38.1,645.5,38.1,645.4,38.1z M641.2,36.6c-0.4-0.1-0.6-0.6-0.5-0.9l0,0c0.1-0.4,0.6-0.6,0.9-0.5l0,0
				c0.4,0.1,0.6,0.6,0.5,0.9l0,0c-0.1,0.3-0.4,0.5-0.7,0.5l0,0C641.4,36.7,641.3,36.7,641.2,36.6z M637.1,35.2
				c-0.4-0.1-0.6-0.6-0.5-0.9l0,0c0.1-0.4,0.6-0.6,0.9-0.5l0,0c0.4,0.1,0.6,0.6,0.5,0.9l0,0c-0.1,0.3-0.4,0.5-0.7,0.5l0,0
				C637.2,35.2,637.1,35.2,637.1,35.2z M632.9,33.7c-0.4-0.1-0.6-0.6-0.5-0.9l0,0c0.1-0.4,0.6-0.6,0.9-0.5l0,0
				c0.4,0.1,0.6,0.6,0.5,0.9l0,0c-0.1,0.3-0.4,0.5-0.7,0.5l0,0C633,33.8,632.9,33.8,632.9,33.7z M628.7,32.3
				c-0.4-0.1-0.6-0.6-0.5-0.9l0,0c0.1-0.4,0.6-0.6,0.9-0.5l0,0c0.4,0.1,0.6,0.6,0.5,0.9l0,0c-0.1,0.3-0.4,0.5-0.7,0.5l0,0
				C628.8,32.3,628.8,32.3,628.7,32.3z M624.5,30.8c-0.4-0.1-0.6-0.6-0.5-0.9l0,0c0.1-0.4,0.6-0.6,0.9-0.5l0,0
				c0.4,0.1,0.6,0.6,0.5,0.9l0,0c-0.1,0.3-0.4,0.5-0.7,0.5l0,0C624.6,30.9,624.6,30.9,624.5,30.8z M620.3,29.4
				c-0.4-0.1-0.6-0.6-0.5-0.9l0,0c0.1-0.4,0.6-0.6,0.9-0.5l0,0c0.4,0.1,0.6,0.6,0.5,0.9l0,0c-0.1,0.3-0.4,0.5-0.7,0.5l0,0
				C620.5,29.4,620.4,29.4,620.3,29.4z M616.1,27.9c-0.4-0.1-0.6-0.6-0.5-0.9l0,0c0.1-0.4,0.6-0.6,0.9-0.5l0,0
				c0.4,0.1,0.6,0.6,0.5,0.9l0,0c-0.1,0.3-0.4,0.5-0.7,0.5l0,0C616.3,28,616.2,28,616.1,27.9z M611.9,26.5c-0.4-0.1-0.6-0.6-0.5-0.9
				l0,0c0.1-0.4,0.6-0.6,0.9-0.5l0,0c0.4,0.1,0.6,0.6,0.5,0.9l0,0c-0.1,0.3-0.4,0.5-0.7,0.5l0,0C612.1,26.5,612,26.5,611.9,26.5z
				 M607.7,25.1c-0.4-0.1-0.6-0.6-0.5-0.9l0,0c0.1-0.4,0.6-0.6,0.9-0.5l0,0c0.4,0.1,0.6,0.6,0.5,0.9l0,0c-0.1,0.3-0.4,0.5-0.7,0.5
				l0,0C607.9,25.1,607.8,25.1,607.7,25.1z M603.5,23.6c-0.4-0.1-0.6-0.6-0.5-0.9l0,0c0.1-0.4,0.6-0.6,0.9-0.5l0,0
				c0.4,0.1,0.6,0.6,0.5,0.9l0,0c-0.1,0.3-0.4,0.5-0.7,0.5l0,0C603.7,23.6,603.6,23.6,603.5,23.6z M599.4,22.2
				c-0.4-0.1-0.6-0.6-0.5-0.9l0,0c0.1-0.4,0.6-0.6,0.9-0.5l0,0c0.4,0.1,0.6,0.6,0.5,0.9l0,0c-0.1,0.3-0.4,0.5-0.7,0.5l0,0
				C599.5,22.2,599.4,22.2,599.4,22.2z M595.2,20.7c-0.4-0.1-0.6-0.6-0.5-0.9l0,0c0.1-0.4,0.6-0.6,0.9-0.5l0,0
				c0.4,0.1,0.6,0.6,0.5,0.9l0,0c-0.1,0.3-0.4,0.5-0.7,0.5l0,0C595.3,20.7,595.2,20.7,595.2,20.7z M591,19.3
				c-0.4-0.1-0.6-0.6-0.5-0.9l0,0c0.1-0.4,0.6-0.6,0.9-0.5l0,0c0.4,0.1,0.6,0.6,0.5,0.9l0,0c-0.1,0.3-0.4,0.5-0.7,0.5l0,0
				C591.1,19.3,591.1,19.3,591,19.3z M586.8,17.8c-0.4-0.1-0.6-0.6-0.5-0.9l0,0c0.1-0.4,0.6-0.6,0.9-0.5l0,0
				c0.4,0.1,0.6,0.6,0.5,0.9l0,0c-0.1,0.3-0.4,0.5-0.7,0.5l0,0C586.9,17.9,586.9,17.8,586.8,17.8z M582.6,16.4
				c-0.4-0.1-0.6-0.6-0.5-0.9l0,0c0.1-0.4,0.6-0.6,0.9-0.5l0,0c0.4,0.1,0.6,0.6,0.5,0.9l0,0c-0.1,0.3-0.4,0.5-0.7,0.5l0,0
				C582.8,16.4,582.7,16.4,582.6,16.4z M578.4,14.9c-0.4-0.1-0.6-0.6-0.5-0.9l0,0c0.1-0.4,0.6-0.6,0.9-0.5l0,0
				c0.4,0.1,0.6,0.6,0.5,0.9l0,0c-0.1,0.3-0.4,0.5-0.7,0.5l0,0C578.6,15,578.5,14.9,578.4,14.9z M574.2,13.5
				c-0.4-0.1-0.6-0.6-0.5-0.9l0,0c0.1-0.4,0.6-0.6,0.9-0.5l0,0c0.4,0.1,0.6,0.6,0.5,0.9l0,0c-0.1,0.3-0.4,0.5-0.7,0.5l0,0
				C574.4,13.5,574.3,13.5,574.2,13.5z M570,12c-0.4-0.1-0.6-0.6-0.5-0.9l0,0c0.1-0.4,0.6-0.6,0.9-0.5l0,0c0.4,0.1,0.6,0.6,0.5,0.9
				l0,0c-0.1,0.3-0.4,0.5-0.7,0.5l0,0C570.2,12.1,570.1,12,570,12z M565.8,10.6c-0.4-0.1-0.6-0.6-0.5-0.9l0,0
				c0.1-0.4,0.6-0.6,0.9-0.5l0,0c0.4,0.1,0.6,0.6,0.5,0.9l0,0c-0.1,0.3-0.4,0.5-0.7,0.5l0,0C566,10.6,565.9,10.6,565.8,10.6z
				 M561.7,9.1c-0.4-0.1-0.6-0.6-0.5-0.9l0,0c0.1-0.4,0.6-0.6,0.9-0.5l0,0c0.4,0.1,0.6,0.6,0.5,0.9l0,0c-0.1,0.3-0.4,0.5-0.7,0.5
				l0,0C561.8,9.2,561.7,9.1,561.7,9.1z M557.5,7.7c-0.4-0.1-0.6-0.6-0.5-0.9l0,0c0.1-0.4,0.6-0.6,0.9-0.5l0,0
				c0.4,0.1,0.6,0.6,0.5,0.9l0,0c-0.1,0.3-0.4,0.5-0.7,0.5l0,0C557.6,7.7,557.5,7.7,557.5,7.7z M553.3,6.2c-0.4-0.1-0.6-0.6-0.5-0.9
				l0,0c0.1-0.4,0.6-0.6,0.9-0.5l0,0c0.4,0.1,0.6,0.6,0.5,0.9l0,0c-0.1,0.3-0.4,0.5-0.7,0.5l0,0C553.4,6.3,553.4,6.2,553.3,6.2z
				 M549.1,4.8c-0.4-0.1-0.6-0.6-0.5-0.9l0,0c0.1-0.4,0.6-0.6,0.9-0.5l0,0c0.4,0.1,0.6,0.6,0.5,0.9l0,0c-0.1,0.3-0.4,0.5-0.7,0.5
				l0,0C549.2,4.8,549.2,4.8,549.1,4.8z M544.9,3.3c-0.4-0.1-0.6-0.6-0.5-0.9l0,0c0.1-0.4,0.6-0.6,0.9-0.5l0,0
				c0.4,0.1,0.6,0.6,0.5,0.9l0,0c-0.1,0.3-0.4,0.5-0.7,0.5l0,0C545.1,3.4,545,3.4,544.9,3.3z M540.7,1.9c-0.4-0.1-0.6-0.6-0.5-0.9
				l0,0c0.1-0.4,0.6-0.6,0.9-0.5l0,0c0.4,0.1,0.6,0.6,0.5,0.9l0,0c-0.1,0.3-0.4,0.5-0.7,0.5l0,0C540.9,1.9,540.8,1.9,540.7,1.9z
				 M536.5,0.4c-0.4-0.1-0.6-0.6-0.5-0.9l0,0c0.1-0.4,0.6-0.6,0.9-0.5l0,0c0.4,0.1,0.6,0.6,0.5,0.9l0,0c-0.1,0.3-0.4,0.5-0.7,0.5
				l0,0C536.7,0.5,536.6,0.5,536.5,0.4z"/>
		</g>
		<g>
			<path class="st0" d="M676.9,37.6c-0.4-0.2-0.5-0.6-0.3-1l0,0c0.2-0.4,0.6-0.5,1-0.3l0,0c0.4,0.2,0.5,0.6,0.3,1l0,0
				c-0.1,0.3-0.4,0.4-0.7,0.4l0,0C677.2,37.7,677,37.7,676.9,37.6z M679,33.7c-0.4-0.2-0.5-0.6-0.3-1l0,0c0.2-0.4,0.6-0.5,1-0.3l0,0
				c0.4,0.2,0.5,0.6,0.3,1l0,0c-0.1,0.3-0.4,0.4-0.7,0.4l0,0C679.2,33.8,679.1,33.8,679,33.7z M681,29.8c-0.4-0.2-0.5-0.6-0.3-1l0,0
				c0.2-0.4,0.6-0.5,1-0.3l0,0c0.4,0.2,0.5,0.6,0.3,1l0,0c-0.1,0.3-0.4,0.4-0.7,0.4l0,0C681.3,29.8,681.1,29.8,681,29.8z
				 M683.1,25.8c-0.4-0.2-0.5-0.6-0.3-1l0,0c0.2-0.4,0.6-0.5,1-0.3l0,0c0.4,0.2,0.5,0.6,0.3,1l0,0c-0.1,0.3-0.4,0.4-0.7,0.4l0,0
				C683.3,25.9,683.2,25.9,683.1,25.8z M685.1,21.9c-0.4-0.2-0.5-0.6-0.3-1l0,0c0.2-0.4,0.6-0.5,1-0.3l0,0c0.4,0.2,0.5,0.6,0.3,1
				l0,0c-0.1,0.3-0.4,0.4-0.7,0.4l0,0C685.4,22,685.2,22,685.1,21.9z M687.2,18c-0.4-0.2-0.5-0.6-0.3-1l0,0c0.2-0.4,0.6-0.5,1-0.3
				l0,0c0.4,0.2,0.5,0.6,0.3,1l0,0c-0.1,0.3-0.4,0.4-0.7,0.4l0,0C687.4,18.1,687.3,18,687.2,18z M689.2,14c-0.4-0.2-0.5-0.6-0.3-1
				l0,0c0.2-0.4,0.6-0.5,1-0.3l0,0c0.4,0.2,0.5,0.6,0.3,1l0,0c-0.1,0.3-0.4,0.4-0.7,0.4l0,0C689.5,14.1,689.3,14.1,689.2,14z
				 M691.3,10.1c-0.4-0.2-0.5-0.6-0.3-1l0,0c0.2-0.4,0.6-0.5,1-0.3l0,0c0.4,0.2,0.5,0.6,0.3,1l0,0c-0.1,0.3-0.4,0.4-0.7,0.4l0,0
				C691.5,10.2,691.4,10.2,691.3,10.1z M693.3,6.2c-0.4-0.2-0.5-0.6-0.3-1l0,0c0.2-0.4,0.6-0.5,1-0.3l0,0c0.4,0.2,0.5,0.6,0.3,1l0,0
				c-0.1,0.3-0.4,0.4-0.7,0.4l0,0C693.6,6.3,693.4,6.2,693.3,6.2z M695.4,2.3c-0.4-0.2-0.5-0.6-0.3-1l0,0c0.2-0.4,0.6-0.5,1-0.3l0,0
				c0.4,0.2,0.5,0.6,0.3,1l0,0c-0.1,0.3-0.4,0.4-0.7,0.4l0,0C695.6,2.3,695.5,2.3,695.4,2.3z"/>
		</g>
		<g>
			<path class="st0" d="M699.1,3.3c-0.4-0.2-0.6-0.6-0.4-1l0,0c0.2-0.4,0.6-0.6,1-0.4l0,0c0.4,0.2,0.6,0.6,0.4,1l0,0
				c-0.1,0.3-0.4,0.5-0.7,0.5l0,0C699.3,3.3,699.2,3.3,699.1,3.3z M695,1.6c-0.4-0.2-0.6-0.6-0.4-1l0,0c0.2-0.4,0.6-0.6,1-0.4l0,0
				c0.4,0.2,0.6,0.6,0.4,1l0,0c-0.1,0.3-0.4,0.5-0.7,0.5l0,0C695.2,1.7,695.1,1.6,695,1.6z M690.9-0.1c-0.4-0.2-0.6-0.6-0.4-1l0,0
				c0.2-0.4,0.6-0.6,1-0.4l0,0c0.4,0.2,0.6,0.6,0.4,1l0,0c-0.1,0.3-0.4,0.5-0.7,0.5l0,0C691.1,0,691,0,690.9-0.1z M686.8-1.7
				c-0.4-0.2-0.6-0.6-0.4-1l0,0c0.2-0.4,0.6-0.6,1-0.4l0,0c0.4,0.2,0.6,0.6,0.4,1l0,0c-0.1,0.3-0.4,0.5-0.7,0.5l0,0
				C687-1.7,686.9-1.7,686.8-1.7z M682.7-3.4c-0.4-0.2-0.6-0.6-0.4-1l0,0c0.2-0.4,0.6-0.6,1-0.4l0,0c0.4,0.2,0.6,0.6,0.4,1l0,0
				c-0.1,0.3-0.4,0.5-0.7,0.5l0,0C682.9-3.3,682.8-3.4,682.7-3.4z M678.6-5.1c-0.4-0.2-0.6-0.6-0.4-1l0,0c0.2-0.4,0.6-0.6,1-0.4l0,0
				c0.4,0.2,0.6,0.6,0.4,1l0,0c-0.1,0.3-0.4,0.5-0.7,0.5l0,0C678.8-5,678.7-5,678.6-5.1z M674.5-6.7c-0.4-0.2-0.6-0.6-0.4-1l0,0
				c0.2-0.4,0.6-0.6,1-0.4l0,0c0.4,0.2,0.6,0.6,0.4,1l0,0c-0.1,0.3-0.4,0.5-0.7,0.5l0,0C674.7-6.7,674.6-6.7,674.5-6.7z M670.4-8.4
				c-0.4-0.2-0.6-0.6-0.4-1l0,0c0.2-0.4,0.6-0.6,1-0.4l0,0c0.4,0.2,0.6,0.6,0.4,1l0,0c-0.1,0.3-0.4,0.5-0.7,0.5l0,0
				C670.6-8.3,670.5-8.3,670.4-8.4z M666.3-10c-0.4-0.2-0.6-0.6-0.4-1l0,0c0.2-0.4,0.6-0.6,1-0.4l0,0c0.4,0.2,0.6,0.6,0.4,1l0,0
				c-0.1,0.3-0.4,0.5-0.7,0.5l0,0C666.5-10,666.4-10,666.3-10z M662.2-11.7c-0.4-0.2-0.6-0.6-0.4-1l0,0c0.2-0.4,0.6-0.6,1-0.4l0,0
				c0.4,0.2,0.6,0.6,0.4,1l0,0c-0.1,0.3-0.4,0.5-0.7,0.5l0,0C662.4-11.7,662.3-11.7,662.2-11.7z M658.1-13.4c-0.4-0.2-0.6-0.6-0.4-1
				l0,0c0.2-0.4,0.6-0.6,1-0.4l0,0c0.4,0.2,0.6,0.6,0.4,1l0,0c-0.1,0.3-0.4,0.5-0.7,0.5l0,0C658.3-13.3,658.2-13.3,658.1-13.4z
				 M654-15c-0.4-0.2-0.6-0.6-0.4-1l0,0c0.2-0.4,0.6-0.6,1-0.4l0,0c0.4,0.2,0.6,0.6,0.4,1l0,0c-0.1,0.3-0.4,0.5-0.7,0.5l0,0
				C654.2-15,654.1-15,654-15z M649.9-16.7c-0.4-0.2-0.6-0.6-0.4-1l0,0c0.2-0.4,0.6-0.6,1-0.4l0,0c0.4,0.2,0.6,0.6,0.4,1l0,0
				c-0.1,0.3-0.4,0.5-0.7,0.5l0,0C650-16.7,650-16.7,649.9-16.7z M645.8-18.4c-0.4-0.2-0.6-0.6-0.4-1l0,0c0.2-0.4,0.6-0.6,1-0.4l0,0
				c0.4,0.2,0.6,0.6,0.4,1l0,0c-0.1,0.3-0.4,0.5-0.7,0.5l0,0C645.9-18.3,645.8-18.3,645.8-18.4z M641.6-20c-0.4-0.2-0.6-0.6-0.4-1
				l0,0c0.2-0.4,0.6-0.6,1-0.4l0,0c0.4,0.2,0.6,0.6,0.4,1l0,0c-0.1,0.3-0.4,0.5-0.7,0.5l0,0C641.8-20,641.7-20,641.6-20z
				 M637.5-21.7c-0.4-0.2-0.6-0.6-0.4-1l0,0c0.2-0.4,0.6-0.6,1-0.4l0,0c0.4,0.2,0.6,0.6,0.4,1l0,0c-0.1,0.3-0.4,0.5-0.7,0.5l0,0
				C637.7-21.7,637.6-21.7,637.5-21.7z M633.4-23.4c-0.4-0.2-0.6-0.6-0.4-1l0,0c0.2-0.4,0.6-0.6,1-0.4l0,0c0.4,0.2,0.6,0.6,0.4,1
				l0,0c-0.1,0.3-0.4,0.5-0.7,0.5l0,0C633.6-23.3,633.5-23.3,633.4-23.4z M629.3-25c-0.4-0.2-0.6-0.6-0.4-1l0,0
				c0.2-0.4,0.6-0.6,1-0.4l0,0c0.4,0.2,0.6,0.6,0.4,1l0,0c-0.1,0.3-0.4,0.5-0.7,0.5l0,0C629.5-25,629.4-25,629.3-25z"/>
		</g>
		<g>
			<path class="st0" d="M735.7-33.9c-0.1-0.4,0.1-0.8,0.5-0.9l0,0c0.4-0.1,0.8,0.1,0.9,0.5l0,0c0.1,0.4-0.1,0.8-0.5,0.9l0,0
				c-0.1,0-0.1,0-0.2,0l0,0C736.1-33.3,735.8-33.5,735.7-33.9z M734.5-38.1c-0.1-0.4,0.1-0.8,0.5-0.9l0,0c0.4-0.1,0.8,0.1,0.9,0.5
				l0,0c0.1,0.4-0.1,0.8-0.5,0.9l0,0c-0.1,0-0.1,0-0.2,0l0,0C734.9-37.6,734.6-37.8,734.5-38.1z M733.3-42.4
				c-0.1-0.4,0.1-0.8,0.5-0.9l0,0c0.4-0.1,0.8,0.1,0.9,0.5l0,0c0.1,0.4-0.1,0.8-0.5,0.9l0,0c-0.1,0-0.1,0-0.2,0l0,0
				C733.7-41.8,733.4-42,733.3-42.4z M732-46.6c-0.1-0.4,0.1-0.8,0.5-0.9l0,0c0.4-0.1,0.8,0.1,0.9,0.5l0,0c0.1,0.4-0.1,0.8-0.5,0.9
				l0,0c-0.1,0-0.1,0-0.2,0l0,0C732.4-46.1,732.1-46.3,732-46.6z M730.8-50.9c-0.1-0.4,0.1-0.8,0.5-0.9l0,0c0.4-0.1,0.8,0.1,0.9,0.5
				l0,0c0.1,0.4-0.1,0.8-0.5,0.9l0,0c-0.1,0-0.1,0-0.2,0l0,0C731.2-50.3,730.9-50.6,730.8-50.9z M729.6-55.1
				c-0.1-0.4,0.1-0.8,0.5-0.9l0,0c0.4-0.1,0.8,0.1,0.9,0.5l0,0c0.1,0.4-0.1,0.8-0.5,0.9l0,0c-0.1,0-0.1,0-0.2,0l0,0
				C730-54.6,729.7-54.8,729.6-55.1z M728.3-59.4c-0.1-0.4,0.1-0.8,0.5-0.9l0,0c0.4-0.1,0.8,0.1,0.9,0.5l0,0
				c0.1,0.4-0.1,0.8-0.5,0.9l0,0c-0.1,0-0.1,0-0.2,0l0,0C728.7-58.9,728.4-59.1,728.3-59.4z M727.1-63.7c-0.1-0.4,0.1-0.8,0.5-0.9
				l0,0c0.4-0.1,0.8,0.1,0.9,0.5l0,0c0.1,0.4-0.1,0.8-0.5,0.9l0,0c-0.1,0-0.1,0-0.2,0l0,0C727.5-63.1,727.2-63.3,727.1-63.7z
				 M725.9-67.9c-0.1-0.4,0.1-0.8,0.5-0.9l0,0c0.4-0.1,0.8,0.1,0.9,0.5l0,0c0.1,0.4-0.1,0.8-0.5,0.9l0,0c-0.1,0-0.1,0-0.2,0l0,0
				C726.3-67.4,726-67.6,725.9-67.9z M724.7-72.2c-0.1-0.4,0.1-0.8,0.5-0.9l0,0c0.4-0.1,0.8,0.1,0.9,0.5l0,0
				c0.1,0.4-0.1,0.8-0.5,0.9l0,0c-0.1,0-0.1,0-0.2,0l0,0C725-71.6,724.7-71.8,724.7-72.2z M723.4-76.4c-0.1-0.4,0.1-0.8,0.5-0.9l0,0
				c0.4-0.1,0.8,0.1,0.9,0.5l0,0c0.1,0.4-0.1,0.8-0.5,0.9l0,0c-0.1,0-0.1,0-0.2,0l0,0C723.8-75.9,723.5-76.1,723.4-76.4z
				 M722.2-80.7c-0.1-0.4,0.1-0.8,0.5-0.9l0,0c0.4-0.1,0.8,0.1,0.9,0.5l0,0c0.1,0.4-0.1,0.8-0.5,0.9l0,0c-0.1,0-0.1,0-0.2,0l0,0
				C722.6-80.2,722.3-80.4,722.2-80.7z M721-84.9c-0.1-0.4,0.1-0.8,0.5-0.9l0,0c0.4-0.1,0.8,0.1,0.9,0.5l0,0
				c0.1,0.4-0.1,0.8-0.5,0.9l0,0c-0.1,0-0.1,0-0.2,0l0,0C721.3-84.4,721-84.6,721-84.9z M719.7-89.2c-0.1-0.4,0.1-0.8,0.5-0.9l0,0
				c0.4-0.1,0.8,0.1,0.9,0.5l0,0c0.1,0.4-0.1,0.8-0.5,0.9l0,0c-0.1,0-0.1,0-0.2,0l0,0C720.1-88.7,719.8-88.9,719.7-89.2z
				 M718.5-93.5c-0.1-0.4,0.1-0.8,0.5-0.9l0,0c0.4-0.1,0.8,0.1,0.9,0.5l0,0c0.1,0.4-0.1,0.8-0.5,0.9l0,0c-0.1,0-0.1,0-0.2,0l0,0
				C718.9-92.9,718.6-93.1,718.5-93.5z M717.3-97.7c-0.1-0.4,0.1-0.8,0.5-0.9l0,0c0.4-0.1,0.8,0.1,0.9,0.5l0,0
				c0.1,0.4-0.1,0.8-0.5,0.9l0,0c-0.1,0-0.1,0-0.2,0l0,0C717.6-97.2,717.3-97.4,717.3-97.7z M716-102c-0.1-0.4,0.1-0.8,0.5-0.9l0,0
				c0.4-0.1,0.8,0.1,0.9,0.5l0,0c0.1,0.4-0.1,0.8-0.5,0.9l0,0c-0.1,0-0.1,0-0.2,0l0,0C716.4-101.4,716.1-101.6,716-102z
				 M714.8-106.2c-0.1-0.4,0.1-0.8,0.5-0.9l0,0c0.4-0.1,0.8,0.1,0.9,0.5l0,0c0.1,0.4-0.1,0.8-0.5,0.9l0,0c-0.1,0-0.1,0-0.2,0l0,0
				C715.2-105.7,714.9-105.9,714.8-106.2z M713.6-110.5c-0.1-0.4,0.1-0.8,0.5-0.9l0,0c0.4-0.1,0.8,0.1,0.9,0.5l0,0
				c0.1,0.4-0.1,0.8-0.5,0.9l0,0c-0.1,0-0.1,0-0.2,0l0,0C713.9-110,713.7-110.2,713.6-110.5z M712.3-114.7c-0.1-0.4,0.1-0.8,0.5-0.9
				l0,0c0.4-0.1,0.8,0.1,0.9,0.5l0,0c0.1,0.4-0.1,0.8-0.5,0.9l0,0c-0.1,0-0.1,0-0.2,0l0,0C712.7-114.2,712.4-114.4,712.3-114.7z
				 M711.1-119c-0.1-0.4,0.1-0.8,0.5-0.9l0,0c0.4-0.1,0.8,0.1,0.9,0.5l0,0c0.1,0.4-0.1,0.8-0.5,0.9l0,0c-0.1,0-0.1,0-0.2,0l0,0
				C711.5-118.5,711.2-118.7,711.1-119z M709.9-123.3c-0.1-0.4,0.1-0.8,0.5-0.9l0,0c0.4-0.1,0.8,0.1,0.9,0.5l0,0
				c0.1,0.4-0.1,0.8-0.5,0.9l0,0c-0.1,0-0.1,0-0.2,0l0,0C710.2-122.7,710-122.9,709.9-123.3z"/>
		</g>
		<g>
			<path class="st0" d="M518.5-63.2c-0.2-0.3-0.1-0.8,0.2-1l0,0c0.3-0.2,0.8-0.1,1,0.2l0,0c0.2,0.3,0.1,0.8-0.2,1l0,0
				c-0.1,0.1-0.3,0.1-0.4,0.1l0,0C518.8-62.9,518.6-63,518.5-63.2z M522.1-65.7c-0.2-0.3-0.1-0.8,0.2-1l0,0c0.3-0.2,0.8-0.1,1,0.2
				l0,0c0.2,0.3,0.1,0.8-0.2,1l0,0c-0.1,0.1-0.3,0.1-0.4,0.1l0,0C522.5-65.4,522.2-65.5,522.1-65.7z M525.8-68.2
				c-0.2-0.3-0.1-0.8,0.2-1l0,0c0.3-0.2,0.8-0.1,1,0.2l0,0c0.2,0.3,0.1,0.8-0.2,1l0,0c-0.1,0.1-0.3,0.1-0.4,0.1l0,0
				C526.1-67.9,525.9-68,525.8-68.2z M529.4-70.8c-0.2-0.3-0.1-0.8,0.2-1l0,0c0.3-0.2,0.8-0.1,1,0.2l0,0c0.2,0.3,0.1,0.8-0.2,1l0,0
				c-0.1,0.1-0.3,0.1-0.4,0.1l0,0C529.8-70.4,529.5-70.5,529.4-70.8z M533-73.3c-0.2-0.3-0.1-0.8,0.2-1l0,0c0.3-0.2,0.8-0.1,1,0.2
				l0,0c0.2,0.3,0.1,0.8-0.2,1l0,0c-0.1,0.1-0.3,0.1-0.4,0.1l0,0C533.4-73,533.2-73.1,533-73.3z M536.7-75.8c-0.2-0.3-0.1-0.8,0.2-1
				l0,0c0.3-0.2,0.8-0.1,1,0.2l0,0c0.2,0.3,0.1,0.8-0.2,1l0,0c-0.1,0.1-0.3,0.1-0.4,0.1l0,0C537.1-75.5,536.8-75.6,536.7-75.8z
				 M540.3-78.3c-0.2-0.3-0.1-0.8,0.2-1l0,0c0.3-0.2,0.8-0.1,1,0.2l0,0c0.2,0.3,0.1,0.8-0.2,1l0,0c-0.1,0.1-0.3,0.1-0.4,0.1l0,0
				C540.7-78,540.5-78.1,540.3-78.3z M544-80.8c-0.2-0.3-0.1-0.8,0.2-1l0,0c0.3-0.2,0.8-0.1,1,0.2l0,0c0.2,0.3,0.1,0.8-0.2,1l0,0
				c-0.1,0.1-0.3,0.1-0.4,0.1l0,0C544.4-80.5,544.1-80.6,544-80.8z M547.6-83.3c-0.2-0.3-0.1-0.8,0.2-1l0,0c0.3-0.2,0.8-0.1,1,0.2
				l0,0c0.2,0.3,0.1,0.8-0.2,1l0,0c-0.1,0.1-0.3,0.1-0.4,0.1l0,0C548-83,547.8-83.1,547.6-83.3z M551.3-85.9c-0.2-0.3-0.1-0.8,0.2-1
				l0,0c0.3-0.2,0.8-0.1,1,0.2l0,0c0.2,0.3,0.1,0.8-0.2,1l0,0c-0.1,0.1-0.3,0.1-0.4,0.1l0,0C551.7-85.5,551.4-85.7,551.3-85.9z
				 M554.9-88.4c-0.2-0.3-0.1-0.8,0.2-1l0,0c0.3-0.2,0.8-0.1,1,0.2l0,0c0.2,0.3,0.1,0.8-0.2,1l0,0c-0.1,0.1-0.3,0.1-0.4,0.1l0,0
				C555.3-88.1,555.1-88.2,554.9-88.4z M558.6-90.9c-0.2-0.3-0.1-0.8,0.2-1l0,0c0.3-0.2,0.8-0.1,1,0.2l0,0c0.2,0.3,0.1,0.8-0.2,1
				l0,0c-0.1,0.1-0.3,0.1-0.4,0.1l0,0C559-90.6,558.7-90.7,558.6-90.9z M562.2-93.4c-0.2-0.3-0.1-0.8,0.2-1l0,0
				c0.3-0.2,0.8-0.2,1,0.2l0,0c0.2,0.3,0.1,0.8-0.2,1l0,0c-0.1,0.1-0.3,0.1-0.4,0.1l0,0C562.6-93.1,562.4-93.2,562.2-93.4z
				 M565.9-95.9c-0.2-0.3-0.1-0.8,0.2-1l0,0c0.3-0.2,0.8-0.1,1,0.2l0,0c0.2,0.3,0.1,0.8-0.2,1l0,0c-0.1,0.1-0.3,0.1-0.4,0.1l0,0
				C566.3-95.6,566-95.7,565.9-95.9z M569.5-98.5c-0.2-0.3-0.1-0.8,0.2-1l0,0c0.3-0.2,0.8-0.1,1,0.2l0,0c0.2,0.3,0.1,0.8-0.2,1l0,0
				c-0.1,0.1-0.3,0.1-0.4,0.1l0,0C569.9-98.1,569.7-98.2,569.5-98.5z M573.2-101c-0.2-0.3-0.1-0.8,0.2-1l0,0c0.3-0.2,0.8-0.1,1,0.2
				l0,0c0.2,0.3,0.1,0.8-0.2,1l0,0c-0.1,0.1-0.3,0.1-0.4,0.1l0,0C573.5-100.7,573.3-100.8,573.2-101z M576.8-103.5
				c-0.2-0.3-0.1-0.8,0.2-1l0,0c0.3-0.2,0.8-0.1,1,0.2l0,0c0.2,0.3,0.1,0.8-0.2,1l0,0c-0.1,0.1-0.3,0.1-0.4,0.1l0,0
				C577.2-103.2,577-103.3,576.8-103.5z"/>
		</g>
		<g>
			<path class="st0" d="M579.8-105.9c0-0.4,0.2-0.8,0.6-0.8l0,0c0.4,0,0.8,0.2,0.8,0.7l0,0c0,0.4-0.2,0.8-0.7,0.8l0,0
				c0,0-0.1,0-0.1,0l0,0C580.1-105.3,579.8-105.6,579.8-105.9z M584.2-106.4c0-0.4,0.2-0.8,0.7-0.8l0,0c0.4,0,0.8,0.2,0.8,0.6l0,0
				c0,0.4-0.2,0.8-0.6,0.8l0,0c0,0-0.1,0-0.1,0l0,0C584.5-105.8,584.2-106.1,584.2-106.4z M588.6-106.9c0-0.4,0.2-0.8,0.6-0.8l0,0
				c0.4,0,0.8,0.2,0.8,0.7l0,0c0,0.4-0.2,0.8-0.7,0.8l0,0c0,0-0.1,0-0.1,0l0,0C588.9-106.3,588.6-106.6,588.6-106.9z M593-107.4
				c0-0.4,0.2-0.8,0.6-0.8l0,0c0.4,0,0.8,0.2,0.8,0.6l0,0c0,0.4-0.2,0.8-0.6,0.8l0,0c0,0-0.1,0-0.1,0l0,0
				C593.3-106.8,593-107.1,593-107.4z M597.4-107.9c0-0.4,0.2-0.8,0.7-0.8l0,0c0.4,0,0.8,0.2,0.8,0.7l0,0c0,0.4-0.2,0.8-0.7,0.8l0,0
				c0,0-0.1,0-0.1,0l0,0C597.7-107.3,597.4-107.6,597.4-107.9z M601.8-108.4c0-0.4,0.2-0.8,0.6-0.8l0,0c0.4,0,0.8,0.2,0.8,0.7l0,0
				c0,0.4-0.2,0.8-0.7,0.8l0,0c0,0-0.1,0-0.1,0l0,0C602.1-107.8,601.8-108.1,601.8-108.4z M606.2-108.9c0-0.4,0.2-0.8,0.7-0.8l0,0
				c0.4,0,0.8,0.2,0.8,0.6l0,0c0,0.4-0.2,0.8-0.6,0.8l0,0c0,0-0.1,0-0.1,0l0,0C606.5-108.3,606.2-108.6,606.2-108.9z M610.6-109.4
				c0-0.4,0.2-0.8,0.6-0.8l0,0c0.4,0,0.8,0.2,0.8,0.7l0,0c0,0.4-0.2,0.8-0.7,0.8l0,0c0,0-0.1,0-0.1,0l0,0
				C610.9-108.8,610.6-109.1,610.6-109.4z M615-109.9c0-0.4,0.2-0.8,0.6-0.8l0,0c0.4,0,0.8,0.2,0.8,0.7l0,0c0,0.4-0.2,0.8-0.6,0.8
				l0,0c0,0-0.1,0-0.1,0l0,0C615.4-109.3,615-109.6,615-109.9z M619.4-110.4c0-0.4,0.2-0.8,0.7-0.8l0,0c0.4,0,0.8,0.2,0.8,0.7l0,0
				c0,0.4-0.2,0.8-0.7,0.8l0,0c0,0-0.1,0-0.1,0l0,0C619.8-109.8,619.4-110.1,619.4-110.4z M623.8-110.9c0-0.4,0.2-0.8,0.6-0.8l0,0
				c0.4,0,0.8,0.2,0.8,0.7l0,0c0,0.4-0.2,0.8-0.6,0.8l0,0c0,0-0.1,0-0.1,0l0,0C624.2-110.3,623.8-110.6,623.8-110.9z M628.2-111.4
				c0-0.4,0.2-0.8,0.7-0.8l0,0c0.4,0,0.8,0.2,0.8,0.7l0,0c0,0.4-0.2,0.8-0.6,0.8l0,0c0,0-0.1,0-0.1,0l0,0
				C628.6-110.8,628.2-111.1,628.2-111.4z M632.6-111.9c0-0.4,0.2-0.8,0.6-0.8l0,0c0.4,0,0.8,0.2,0.8,0.7l0,0c0,0.4-0.2,0.8-0.7,0.8
				l0,0c0,0-0.1,0-0.1,0l0,0C633-111.3,632.6-111.6,632.6-111.9z M637-112.4c0-0.4,0.2-0.8,0.7-0.8l0,0c0.4,0,0.8,0.2,0.8,0.7l0,0
				c0,0.4-0.2,0.8-0.6,0.8l0,0c0,0-0.1,0-0.1,0l0,0C637.4-111.8,637.1-112.1,637-112.4z M641.4-112.9c0-0.4,0.2-0.8,0.7-0.8l0,0
				c0.4,0,0.8,0.2,0.8,0.7l0,0c0,0.4-0.2,0.8-0.7,0.8l0,0c0,0-0.1,0-0.1,0l0,0C641.8-112.3,641.5-112.6,641.4-112.9z M645.8-113.4
				c0-0.4,0.2-0.8,0.7-0.8l0,0c0.4,0,0.8,0.2,0.8,0.7l0,0c0,0.4-0.2,0.8-0.6,0.8l0,0c0,0-0.1,0-0.1,0l0,0
				C646.2-112.8,645.9-113.1,645.8-113.4z M650.2-113.9c0-0.4,0.2-0.8,0.7-0.8l0,0c0.4,0,0.8,0.2,0.8,0.7l0,0c0,0.4-0.2,0.8-0.6,0.8
				l0,0c0,0-0.1,0-0.1,0l0,0C650.6-113.3,650.3-113.6,650.2-113.9z M654.6-114.4c0-0.4,0.2-0.8,0.7-0.8l0,0c0.4,0,0.8,0.2,0.8,0.7
				l0,0c0,0.4-0.2,0.8-0.7,0.8l0,0c0,0-0.1,0-0.1,0l0,0C655-113.8,654.7-114.1,654.6-114.4z M659-114.9c0-0.4,0.2-0.8,0.7-0.8l0,0
				c0.4,0,0.8,0.2,0.8,0.7l0,0c0,0.4-0.2,0.8-0.6,0.8l0,0c0,0-0.1,0-0.1,0l0,0C659.4-114.3,659.1-114.6,659-114.9z M663.4-115.4
				c0-0.4,0.2-0.8,0.7-0.8l0,0c0.4,0,0.8,0.2,0.8,0.7l0,0c0,0.4-0.2,0.8-0.7,0.8l0,0c0,0-0.1,0-0.1,0l0,0
				C663.8-114.8,663.5-115.1,663.4-115.4z M667.8-115.9c0-0.4,0.2-0.8,0.7-0.8l0,0c0.4,0,0.8,0.2,0.8,0.7l0,0c0,0.4-0.2,0.8-0.6,0.8
				l0,0c0,0-0.1,0-0.1,0l0,0C668.2-115.3,667.9-115.6,667.8-115.9z M672.2-116.4c0-0.4,0.2-0.8,0.7-0.8l0,0c0.4,0,0.8,0.2,0.8,0.7
				l0,0c0,0.4-0.2,0.8-0.7,0.8l0,0c0,0-0.1,0-0.1,0l0,0C672.6-115.8,672.3-116.1,672.2-116.4z M676.6-116.9c0-0.4,0.2-0.8,0.7-0.8
				l0,0c0.4,0,0.8,0.2,0.8,0.7l0,0c0,0.4-0.2,0.8-0.7,0.8l0,0c0,0-0.1,0-0.1,0l0,0C677-116.3,676.7-116.6,676.6-116.9z M681-117.4
				c0-0.4,0.2-0.8,0.7-0.8l0,0c0.4,0,0.8,0.2,0.8,0.6l0,0c0,0.4-0.2,0.8-0.7,0.8l0,0c0,0-0.1,0-0.1,0l0,0
				C681.4-116.8,681.1-117.1,681-117.4z M685.4-117.9c0-0.4,0.2-0.8,0.7-0.8l0,0c0.4,0,0.8,0.2,0.8,0.7l0,0c0,0.4-0.2,0.8-0.7,0.8
				l0,0c0,0-0.1,0-0.1,0l0,0C685.8-117.3,685.5-117.6,685.4-117.9z M689.9-118.4c0-0.4,0.2-0.8,0.7-0.8l0,0c0.4,0,0.8,0.2,0.8,0.7
				l0,0c0,0.4-0.2,0.8-0.7,0.8l0,0c0,0-0.1,0-0.1,0l0,0C690.2-117.8,689.9-118.1,689.9-118.4z M694.3-118.9c0-0.4,0.2-0.8,0.7-0.8
				l0,0c0.4,0,0.8,0.2,0.8,0.6l0,0c0,0.4-0.2,0.8-0.7,0.8l0,0c0,0-0.1,0-0.1,0l0,0C694.6-118.3,694.3-118.6,694.3-118.9z
				 M698.7-119.4c0-0.4,0.2-0.8,0.7-0.8l0,0c0.4,0,0.8,0.2,0.8,0.7l0,0c0,0.4-0.2,0.8-0.7,0.8l0,0c0,0-0.1,0-0.1,0l0,0
				C699-118.8,698.7-119.1,698.7-119.4z M703.1-119.9c0-0.4,0.2-0.8,0.7-0.8l0,0c0.4,0,0.8,0.2,0.8,0.6l0,0c0,0.4-0.2,0.8-0.7,0.8
				l0,0c0,0-0.1,0-0.1,0l0,0C703.4-119.3,703.1-119.6,703.1-119.9z M707.5-120.4c0-0.4,0.2-0.8,0.7-0.8l0,0c0.4,0,0.8,0.2,0.8,0.7
				l0,0c0,0.4-0.2,0.8-0.7,0.8l0,0c0,0-0.1,0-0.1,0l0,0C707.8-119.8,707.5-120.1,707.5-120.4z"/>
		</g>
		<g>
			<path class="st0" d="M694.6,1.5c-0.3-0.3-0.2-0.8,0.1-1l0,0c0.3-0.3,0.8-0.2,1,0.1l0,0c0.3,0.3,0.2,0.8-0.1,1l0,0
				c-0.1,0.1-0.3,0.2-0.5,0.2l0,0C694.9,1.8,694.7,1.7,694.6,1.5z M698.1-1.2c-0.2-0.3-0.2-0.8,0.1-1l0,0c0.3-0.2,0.8-0.2,1,0.1l0,0
				c0.3,0.3,0.2,0.8-0.1,1l0,0c-0.1,0.1-0.3,0.2-0.5,0.2l0,0C698.4-0.9,698.2-1,698.1-1.2z M701.6-3.9c-0.2-0.3-0.2-0.8,0.1-1l0,0
				c0.3-0.3,0.8-0.2,1,0.1l0,0c0.2,0.3,0.2,0.8-0.1,1l0,0c-0.1,0.1-0.3,0.2-0.5,0.2l0,0C701.9-3.6,701.7-3.7,701.6-3.9z M705.1-6.6
				c-0.3-0.3-0.2-0.8,0.1-1l0,0c0.3-0.2,0.8-0.2,1,0.1l0,0c0.2,0.3,0.2,0.8-0.1,1l0,0c-0.1,0.1-0.3,0.2-0.5,0.2l0,0
				C705.5-6.4,705.2-6.4,705.1-6.6z M708.6-9.4c-0.3-0.3-0.2-0.8,0.1-1l0,0c0.3-0.3,0.8-0.2,1,0.1l0,0c0.2,0.3,0.2,0.8-0.1,1l0,0
				c-0.1,0.1-0.3,0.2-0.5,0.2l0,0C709-9.1,708.7-9.2,708.6-9.4z M712.1-12.1c-0.3-0.3-0.2-0.8,0.1-1l0,0c0.3-0.3,0.8-0.2,1,0.1l0,0
				c0.3,0.3,0.2,0.8-0.1,1l0,0c-0.1,0.1-0.3,0.2-0.5,0.2l0,0C712.5-11.8,712.2-11.9,712.1-12.1z M715.6-14.8c-0.3-0.3-0.2-0.8,0.1-1
				l0,0c0.3-0.3,0.8-0.2,1,0.1l0,0c0.3,0.3,0.2,0.8-0.1,1l0,0c-0.1,0.1-0.3,0.2-0.5,0.2l0,0C716-14.5,715.7-14.6,715.6-14.8z
				 M719.1-17.5c-0.2-0.3-0.2-0.8,0.1-1l0,0c0.3-0.3,0.8-0.2,1,0.1l0,0c0.3,0.3,0.2,0.8-0.1,1l0,0c-0.1,0.1-0.3,0.2-0.5,0.2l0,0
				C719.5-17.2,719.2-17.3,719.1-17.5z M722.6-20.2c-0.3-0.3-0.2-0.8,0.1-1l0,0c0.3-0.3,0.8-0.2,1,0.1l0,0c0.2,0.3,0.2,0.8-0.1,1
				l0,0c-0.1,0.1-0.3,0.2-0.5,0.2l0,0C723-19.9,722.7-20,722.6-20.2z M726.1-22.9c-0.3-0.3-0.2-0.8,0.1-1l0,0c0.3-0.3,0.8-0.2,1,0.1
				l0,0c0.2,0.3,0.2,0.8-0.1,1l0,0c-0.1,0.1-0.3,0.2-0.5,0.2l0,0C726.5-22.7,726.2-22.8,726.1-22.9z M729.6-25.7
				c-0.3-0.3-0.2-0.8,0.1-1l0,0c0.3-0.2,0.8-0.2,1,0.1l0,0c0.2,0.3,0.2,0.8-0.1,1l0,0c-0.1,0.1-0.3,0.2-0.4,0.2l0,0
				C730-25.4,729.7-25.5,729.6-25.7z M733.1-28.4c-0.3-0.3-0.2-0.8,0.1-1l0,0c0.3-0.3,0.8-0.2,1,0.1l0,0c0.3,0.3,0.2,0.8-0.1,1l0,0
				c-0.1,0.1-0.3,0.2-0.5,0.2l0,0C733.5-28.1,733.2-28.2,733.1-28.4z M736.6-31.1c-0.3-0.3-0.2-0.8,0.1-1l0,0c0.3-0.2,0.8-0.2,1,0.1
				l0,0c0.3,0.3,0.2,0.8-0.1,1l0,0c-0.1,0.1-0.3,0.2-0.5,0.2l0,0C737-30.8,736.7-30.9,736.6-31.1z"/>
		</g>
		<g>
			<path class="st0" d="M627-26.5c-0.2-0.4-0.1-0.8,0.3-1l0,0c0.4-0.2,0.8-0.1,1,0.3l0,0c0.2,0.4,0.1,0.8-0.3,1l0,0
				c-0.1,0.1-0.2,0.1-0.4,0.1l0,0C627.4-26.1,627.1-26.2,627-26.5z M624.8-30.3c-0.2-0.4-0.1-0.8,0.3-1l0,0c0.4-0.2,0.8-0.1,1,0.3
				l0,0c0.2,0.4,0.1,0.8-0.3,1l0,0c-0.1,0.1-0.2,0.1-0.4,0.1l0,0C625.1-29.9,624.9-30.1,624.8-30.3z M622.5-34.1
				c-0.2-0.4-0.1-0.8,0.3-1l0,0c0.4-0.2,0.8-0.1,1,0.3l0,0c0.2,0.4,0.1,0.8-0.3,1l0,0c-0.1,0.1-0.2,0.1-0.4,0.1l0,0
				C622.9-33.8,622.7-33.9,622.5-34.1z M620.3-38c-0.2-0.4-0.1-0.8,0.3-1l0,0c0.4-0.2,0.8-0.1,1,0.3l0,0c0.2,0.4,0.1,0.8-0.3,1l0,0
				c-0.1,0.1-0.2,0.1-0.4,0.1l0,0C620.7-37.6,620.4-37.7,620.3-38z M618.1-41.8c-0.2-0.4-0.1-0.8,0.3-1l0,0c0.4-0.2,0.8-0.1,1,0.3
				l0,0c0.2,0.4,0.1,0.8-0.3,1l0,0c-0.1,0.1-0.2,0.1-0.4,0.1l0,0C618.5-41.4,618.2-41.6,618.1-41.8z M615.9-45.6
				c-0.2-0.4-0.1-0.8,0.3-1l0,0c0.4-0.2,0.8-0.1,1,0.3l0,0c0.2,0.4,0.1,0.8-0.3,1l0,0c-0.1,0.1-0.2,0.1-0.4,0.1l0,0
				C616.2-45.3,616-45.4,615.9-45.6z M613.6-49.5c-0.2-0.4-0.1-0.8,0.3-1l0,0c0.4-0.2,0.8-0.1,1,0.3l0,0c0.2,0.4,0.1,0.8-0.3,1l0,0
				c-0.1,0.1-0.2,0.1-0.4,0.1l0,0C614-49.1,613.8-49.2,613.6-49.5z M611.4-53.3c-0.2-0.4-0.1-0.8,0.3-1l0,0c0.4-0.2,0.8-0.1,1,0.3
				l0,0c0.2,0.4,0.1,0.8-0.3,1l0,0c-0.1,0.1-0.2,0.1-0.4,0.1l0,0C611.8-52.9,611.5-53.1,611.4-53.3z M609.2-57.1
				c-0.2-0.4-0.1-0.8,0.3-1l0,0c0.4-0.2,0.8-0.1,1,0.3l0,0c0.2,0.4,0.1,0.8-0.3,1l0,0c-0.1,0.1-0.2,0.1-0.4,0.1l0,0
				C609.6-56.8,609.3-56.9,609.2-57.1z M606.9-61c-0.2-0.4-0.1-0.8,0.3-1l0,0c0.4-0.2,0.8-0.1,1,0.3l0,0c0.2,0.4,0.1,0.8-0.3,1l0,0
				c-0.1,0.1-0.2,0.1-0.4,0.1l0,0C607.3-60.6,607.1-60.7,606.9-61z M604.7-64.8c-0.2-0.4-0.1-0.8,0.3-1l0,0c0.4-0.2,0.8-0.1,1,0.3
				l0,0c0.2,0.4,0.1,0.8-0.3,1l0,0c-0.1,0.1-0.2,0.1-0.4,0.1l0,0C605.1-64.4,604.8-64.6,604.7-64.8z M602.5-68.6
				c-0.2-0.4-0.1-0.8,0.3-1l0,0c0.4-0.2,0.8-0.1,1,0.3l0,0c0.2,0.4,0.1,0.8-0.3,1l0,0c-0.1,0.1-0.2,0.1-0.4,0.1l0,0
				C602.9-68.3,602.6-68.4,602.5-68.6z M600.3-72.5c-0.2-0.4-0.1-0.8,0.3-1l0,0c0.4-0.2,0.8-0.1,1,0.3l0,0c0.2,0.4,0.1,0.8-0.3,1
				l0,0c-0.1,0.1-0.2,0.1-0.4,0.1l0,0C600.6-72.1,600.4-72.2,600.3-72.5z M598-76.3c-0.2-0.4-0.1-0.8,0.3-1l0,0
				c0.4-0.2,0.8-0.1,1,0.3l0,0c0.2,0.4,0.1,0.8-0.3,1l0,0c-0.1,0.1-0.2,0.1-0.4,0.1l0,0C598.4-75.9,598.2-76,598-76.3z M595.8-80.1
				c-0.2-0.4-0.1-0.8,0.3-1l0,0c0.4-0.2,0.8-0.1,1,0.3l0,0c0.2,0.4,0.1,0.8-0.3,1l0,0c-0.1,0.1-0.2,0.1-0.4,0.1l0,0
				C596.2-79.7,595.9-79.9,595.8-80.1z M593.6-83.9c-0.2-0.4-0.1-0.8,0.3-1l0,0c0.4-0.2,0.8-0.1,1,0.3l0,0c0.2,0.4,0.1,0.8-0.3,1
				l0,0c-0.1,0.1-0.2,0.1-0.4,0.1l0,0C594-83.6,593.7-83.7,593.6-83.9z M591.3-87.8c-0.2-0.4-0.1-0.8,0.3-1l0,0
				c0.4-0.2,0.8-0.1,1,0.3l0,0c0.2,0.4,0.1,0.8-0.3,1l0,0c-0.1,0.1-0.2,0.1-0.4,0.1l0,0C591.7-87.4,591.5-87.5,591.3-87.8z
				 M589.1-91.6c-0.2-0.4-0.1-0.8,0.3-1l0,0c0.4-0.2,0.8-0.1,1,0.3l0,0c0.2,0.4,0.1,0.8-0.3,1l0,0c-0.1,0.1-0.2,0.1-0.4,0.1l0,0
				C589.5-91.2,589.3-91.4,589.1-91.6z M586.9-95.4c-0.2-0.4-0.1-0.8,0.3-1l0,0c0.4-0.2,0.8-0.1,1,0.3l0,0c0.2,0.4,0.1,0.8-0.3,1
				l0,0c-0.1,0.1-0.2,0.1-0.4,0.1l0,0C587.3-95.1,587-95.2,586.9-95.4z M584.7-99.3c-0.2-0.4-0.1-0.8,0.3-1l0,0
				c0.4-0.2,0.8-0.1,1,0.3l0,0c0.2,0.4,0.1,0.8-0.3,1l0,0c-0.1,0.1-0.2,0.1-0.4,0.1l0,0C585-98.9,584.8-99,584.7-99.3z M582.4-103.1
				c-0.2-0.4-0.1-0.8,0.3-1l0,0c0.4-0.2,0.8-0.1,1,0.3l0,0c0.2,0.4,0.1,0.8-0.3,1l0,0c-0.1,0.1-0.2,0.1-0.4,0.1l0,0
				C582.8-102.7,582.6-102.9,582.4-103.1z"/>
		</g>
		<g>
			<path class="st0" d="M532.4-2.7c-0.1-0.4,0.1-0.8,0.5-0.9l0,0c0.4-0.1,0.8,0.1,0.9,0.5l0,0c0.1,0.4-0.1,0.8-0.5,0.9l0,0
				c-0.1,0-0.1,0-0.2,0l0,0C532.8-2.1,532.5-2.3,532.4-2.7z M536.7-3.8c-0.1-0.4,0.1-0.8,0.5-0.9l0,0c0.4-0.1,0.8,0.1,0.9,0.5l0,0
				c0.1,0.4-0.1,0.8-0.5,0.9l0,0c-0.1,0-0.1,0-0.2,0l0,0C537.1-3.2,536.8-3.4,536.7-3.8z M541-4.9c-0.1-0.4,0.1-0.8,0.5-0.9l0,0
				c0.4-0.1,0.8,0.1,0.9,0.5l0,0c0.1,0.4-0.1,0.8-0.5,0.9l0,0c-0.1,0-0.1,0-0.2,0l0,0C541.4-4.3,541.1-4.5,541-4.9z M545.3-5.9
				c-0.1-0.4,0.1-0.8,0.5-0.9l0,0c0.4-0.1,0.8,0.1,0.9,0.5l0,0c0.1,0.4-0.1,0.8-0.5,0.9l0,0c-0.1,0-0.1,0-0.2,0l0,0
				C545.7-5.4,545.4-5.6,545.3-5.9z M549.6-7c-0.1-0.4,0.1-0.8,0.5-0.9l0,0c0.4-0.1,0.8,0.1,0.9,0.5l0,0c0.1,0.4-0.1,0.8-0.5,0.9
				l0,0c-0.1,0-0.1,0-0.2,0l0,0C550-6.5,549.7-6.7,549.6-7z M553.9-8.1c-0.1-0.4,0.1-0.8,0.5-0.9l0,0c0.4-0.1,0.8,0.1,0.9,0.5l0,0
				c0.1,0.4-0.1,0.8-0.5,0.9l0,0c-0.1,0-0.1,0-0.2,0l0,0C554.3-7.6,554-7.8,553.9-8.1z M558.2-9.2c-0.1-0.4,0.1-0.8,0.5-0.9l0,0
				c0.4-0.1,0.8,0.1,0.9,0.5l0,0c0.1,0.4-0.1,0.8-0.5,0.9l0,0c-0.1,0-0.1,0-0.2,0l0,0C558.6-8.7,558.3-8.9,558.2-9.2z M562.5-10.3
				c-0.1-0.4,0.1-0.8,0.5-0.9l0,0c0.4-0.1,0.8,0.1,0.9,0.5l0,0c0.1,0.4-0.1,0.8-0.5,0.9l0,0c-0.1,0-0.1,0-0.2,0l0,0
				C562.9-9.7,562.6-10,562.5-10.3z M566.8-11.4c-0.1-0.4,0.1-0.8,0.5-0.9l0,0c0.4-0.1,0.8,0.1,0.9,0.5l0,0c0.1,0.4-0.1,0.8-0.5,0.9
				l0,0c-0.1,0-0.1,0-0.2,0l0,0C567.2-10.8,566.9-11.1,566.8-11.4z M571.1-12.5c-0.1-0.4,0.1-0.8,0.5-0.9l0,0
				c0.4-0.1,0.8,0.1,0.9,0.5l0,0c0.1,0.4-0.1,0.8-0.5,0.9l0,0c-0.1,0-0.1,0-0.2,0l0,0C571.5-11.9,571.2-12.2,571.1-12.5z
				 M575.4-13.6c-0.1-0.4,0.1-0.8,0.5-0.9l0,0c0.4-0.1,0.8,0.1,0.9,0.5l0,0c0.1,0.4-0.1,0.8-0.5,0.9l0,0c-0.1,0-0.1,0-0.2,0l0,0
				C575.7-13,575.4-13.2,575.4-13.6z M579.7-14.7c-0.1-0.4,0.1-0.8,0.5-0.9l0,0c0.4-0.1,0.8,0.1,0.9,0.5l0,0
				c0.1,0.4-0.1,0.8-0.5,0.9l0,0c-0.1,0-0.1,0-0.2,0l0,0C580-14.1,579.7-14.3,579.7-14.7z M584-15.8c-0.1-0.4,0.1-0.8,0.5-0.9l0,0
				c0.4-0.1,0.8,0.1,0.9,0.5l0,0c0.1,0.4-0.1,0.8-0.5,0.9l0,0c-0.1,0-0.1,0-0.2,0l0,0C584.3-15.2,584-15.4,584-15.8z M588.2-16.9
				c-0.1-0.4,0.1-0.8,0.5-0.9l0,0c0.4-0.1,0.8,0.1,0.9,0.5l0,0c0.1,0.4-0.1,0.8-0.5,0.9l0,0c-0.1,0-0.1,0-0.2,0l0,0
				C588.6-16.3,588.3-16.5,588.2-16.9z M592.5-17.9c-0.1-0.4,0.1-0.8,0.5-0.9l0,0c0.4-0.1,0.8,0.1,0.9,0.5l0,0
				c0.1,0.4-0.1,0.8-0.5,0.9l0,0c-0.1,0-0.1,0-0.2,0l0,0C592.9-17.4,592.6-17.6,592.5-17.9z M596.8-19c-0.1-0.4,0.1-0.8,0.5-0.9l0,0
				c0.4-0.1,0.8,0.1,0.9,0.5l0,0c0.1,0.4-0.1,0.8-0.5,0.9l0,0c-0.1,0-0.1,0-0.2,0l0,0C597.2-18.5,596.9-18.7,596.8-19z M601.1-20.1
				c-0.1-0.4,0.1-0.8,0.5-0.9l0,0c0.4-0.1,0.8,0.1,0.9,0.5l0,0c0.1,0.4-0.1,0.8-0.5,0.9l0,0c-0.1,0-0.1,0-0.2,0l0,0
				C601.5-19.6,601.2-19.8,601.1-20.1z M605.4-21.2c-0.1-0.4,0.1-0.8,0.5-0.9l0,0c0.4-0.1,0.8,0.1,0.9,0.5l0,0
				c0.1,0.4-0.1,0.8-0.5,0.9l0,0c-0.1,0-0.1,0-0.2,0l0,0C605.8-20.7,605.5-20.9,605.4-21.2z M609.7-22.3c-0.1-0.4,0.1-0.8,0.5-0.9
				l0,0c0.4-0.1,0.8,0.1,0.9,0.5l0,0c0.1,0.4-0.1,0.8-0.5,0.9l0,0c-0.1,0-0.1,0-0.2,0l0,0C610.1-21.7,609.8-22,609.7-22.3z
				 M614-23.4c-0.1-0.4,0.1-0.8,0.5-0.9l0,0c0.4-0.1,0.8,0.1,0.9,0.5l0,0c0.1,0.4-0.1,0.8-0.5,0.9l0,0c-0.1,0-0.1,0-0.2,0l0,0
				C614.4-22.8,614.1-23.1,614-23.4z M618.3-24.5c-0.1-0.4,0.1-0.8,0.5-0.9l0,0c0.4-0.1,0.8,0.1,0.9,0.5l0,0
				c0.1,0.4-0.1,0.8-0.5,0.9l0,0c-0.1,0-0.1,0-0.2,0l0,0C618.7-23.9,618.4-24.1,618.3-24.5z M622.6-25.6c-0.1-0.4,0.1-0.8,0.5-0.9
				l0,0c0.4-0.1,0.8,0.1,0.9,0.5l0,0c0.1,0.4-0.1,0.8-0.5,0.9l0,0c-0.1,0-0.1,0-0.2,0l0,0C623-25,622.7-25.2,622.6-25.6z
				 M626.9-26.7c-0.1-0.4,0.1-0.8,0.5-0.9l0,0c0.4-0.1,0.8,0.1,0.9,0.5l0,0c0.1,0.4-0.1,0.8-0.5,0.9l0,0c-0.1,0-0.1,0-0.2,0l0,0
				C627.3-26.1,627-26.3,626.9-26.7z"/>
		</g>
		<g>
			<path class="st0" d="M673.3,43.9c-0.2-0.3-0.1-0.8,0.2-1l0,0c0.3-0.2,0.8-0.1,1,0.2l0,0c0.2,0.3,0.1,0.8-0.2,1l0,0
				c-0.1,0.1-0.3,0.1-0.4,0.1l0,0C673.6,44.3,673.4,44.1,673.3,43.9z M670.8,40.2c-0.2-0.3-0.1-0.8,0.2-1l0,0c0.3-0.2,0.8-0.1,1,0.2
				l0,0c0.2,0.3,0.1,0.8-0.2,1l0,0c-0.1,0.1-0.3,0.1-0.4,0.1l0,0C671.2,40.6,671,40.4,670.8,40.2z M668.4,36.5
				c-0.2-0.3-0.1-0.8,0.2-1l0,0c0.3-0.2,0.8-0.1,1,0.2l0,0c0.2,0.3,0.1,0.8-0.2,1l0,0c-0.1,0.1-0.3,0.1-0.4,0.1l0,0
				C668.8,36.9,668.5,36.7,668.4,36.5z M666,32.8c-0.2-0.3-0.1-0.8,0.2-1l0,0c0.3-0.2,0.8-0.1,1,0.2l0,0c0.2,0.3,0.1,0.8-0.2,1l0,0
				c-0.1,0.1-0.3,0.1-0.4,0.1l0,0C666.3,33.2,666.1,33,666,32.8z M663.5,29.1c-0.2-0.3-0.1-0.8,0.2-1l0,0c0.3-0.2,0.8-0.1,1,0.2l0,0
				c0.2,0.3,0.1,0.8-0.2,1l0,0c-0.1,0.1-0.3,0.1-0.4,0.1l0,0C663.9,29.5,663.7,29.3,663.5,29.1z M661.1,25.4c-0.2-0.3-0.1-0.8,0.2-1
				l0,0c0.3-0.2,0.8-0.1,1,0.2l0,0c0.2,0.3,0.1,0.8-0.2,1l0,0c-0.1,0.1-0.3,0.1-0.4,0.1l0,0C661.5,25.7,661.2,25.6,661.1,25.4z
				 M658.7,21.7c-0.2-0.3-0.1-0.8,0.2-1l0,0c0.3-0.2,0.8-0.1,1,0.2l0,0c0.2,0.3,0.1,0.8-0.2,1l0,0c-0.1,0.1-0.3,0.1-0.4,0.1l0,0
				C659,22,658.8,21.9,658.7,21.7z M656.2,18c-0.2-0.3-0.1-0.8,0.2-1l0,0c0.3-0.2,0.8-0.1,1,0.2l0,0c0.2,0.3,0.1,0.8-0.2,1l0,0
				c-0.1,0.1-0.3,0.1-0.4,0.1l0,0C656.6,18.3,656.4,18.2,656.2,18z M653.8,14.3c-0.2-0.3-0.1-0.8,0.2-1l0,0c0.3-0.2,0.8-0.1,1,0.2
				l0,0c0.2,0.3,0.1,0.8-0.2,1l0,0c-0.1,0.1-0.3,0.1-0.4,0.1l0,0C654.2,14.6,653.9,14.5,653.8,14.3z M651.4,10.6
				c-0.2-0.3-0.1-0.8,0.2-1l0,0c0.3-0.2,0.8-0.1,1,0.2l0,0c0.2,0.3,0.1,0.8-0.2,1l0,0c-0.1,0.1-0.3,0.1-0.4,0.1l0,0
				C651.7,10.9,651.5,10.8,651.4,10.6z M648.9,6.9c-0.2-0.3-0.1-0.8,0.2-1l0,0c0.3-0.2,0.8-0.1,1,0.2l0,0c0.2,0.3,0.1,0.8-0.2,1l0,0
				c-0.1,0.1-0.3,0.1-0.4,0.1l0,0C649.3,7.2,649.1,7.1,648.9,6.9z M646.5,3.2c-0.2-0.3-0.1-0.8,0.2-1l0,0c0.3-0.2,0.8-0.1,1,0.2l0,0
				c0.2,0.3,0.1,0.8-0.2,1l0,0c-0.1,0.1-0.3,0.1-0.4,0.1l0,0C646.9,3.5,646.6,3.4,646.5,3.2z M644.1-0.5c-0.2-0.3-0.1-0.8,0.2-1l0,0
				c0.3-0.2,0.8-0.1,1,0.2l0,0c0.2,0.3,0.1,0.8-0.2,1l0,0c-0.1,0.1-0.3,0.1-0.4,0.1l0,0C644.4-0.2,644.2-0.3,644.1-0.5z M641.6-4.2
				c-0.2-0.3-0.1-0.8,0.2-1l0,0c0.3-0.2,0.8-0.1,1,0.2l0,0c0.2,0.3,0.1,0.8-0.2,1l0,0c-0.1,0.1-0.3,0.1-0.4,0.1l0,0
				C642-3.9,641.8-4,641.6-4.2z M639.2-7.9c-0.2-0.3-0.1-0.8,0.2-1l0,0c0.3-0.2,0.8-0.1,1,0.2l0,0c0.2,0.3,0.1,0.8-0.2,1l0,0
				c-0.1,0.1-0.3,0.1-0.4,0.1l0,0C639.6-7.6,639.3-7.7,639.2-7.9z M636.7-11.6c-0.2-0.3-0.1-0.8,0.2-1l0,0c0.3-0.2,0.8-0.1,1,0.2
				l0,0c0.2,0.3,0.1,0.8-0.2,1l0,0c-0.1,0.1-0.3,0.1-0.4,0.1l0,0C637.1-11.3,636.9-11.4,636.7-11.6z M634.3-15.3
				c-0.2-0.3-0.1-0.8,0.2-1l0,0c0.3-0.2,0.8-0.1,1,0.2l0,0c0.2,0.3,0.1,0.8-0.2,1l0,0c-0.1,0.1-0.3,0.1-0.4,0.1l0,0
				C634.7-15,634.5-15.1,634.3-15.3z M631.9-19c-0.2-0.3-0.1-0.8,0.2-1l0,0c0.3-0.2,0.8-0.1,1,0.2l0,0c0.2,0.3,0.1,0.8-0.2,1l0,0
				c-0.1,0.1-0.3,0.1-0.4,0.1l0,0C632.3-18.7,632-18.8,631.9-19z M629.4-22.7c-0.2-0.3-0.1-0.8,0.2-1l0,0c0.3-0.2,0.8-0.1,1,0.2l0,0
				c0.2,0.3,0.1,0.8-0.2,1l0,0c-0.1,0.1-0.3,0.1-0.4,0.1l0,0C629.8-22.4,629.6-22.5,629.4-22.7z M627-26.4c-0.2-0.3-0.1-0.8,0.2-1
				l0,0c0.3-0.2,0.8-0.1,1,0.2l0,0c0.2,0.3,0.1,0.8-0.2,1l0,0c-0.1,0.1-0.3,0.1-0.4,0.1l0,0C627.4-26.1,627.2-26.2,627-26.4z"/>
		</g>
		<g>
			<path class="st0" d="M530.3-4c-0.1-0.4,0.2-0.8,0.6-0.8l0,0c0.4-0.1,0.8,0.2,0.8,0.6l0,0c0.1,0.4-0.2,0.8-0.6,0.8l0,0
				c0,0-0.1,0-0.1,0l0,0C530.7-3.4,530.4-3.6,530.3-4z M529.7-8.4c-0.1-0.4,0.2-0.8,0.6-0.8l0,0c0.4-0.1,0.8,0.2,0.8,0.6l0,0
				c0.1,0.4-0.2,0.8-0.6,0.8l0,0c0,0-0.1,0-0.1,0l0,0C530-7.8,529.7-8,529.7-8.4z M529-12.8c-0.1-0.4,0.2-0.8,0.6-0.8l0,0
				c0.4-0.1,0.8,0.2,0.8,0.6l0,0c0.1,0.4-0.2,0.8-0.6,0.8l0,0c0,0-0.1,0-0.1,0l0,0C529.4-12.1,529.1-12.4,529-12.8z M528.3-17.2
				c-0.1-0.4,0.2-0.8,0.6-0.8l0,0c0.4-0.1,0.8,0.2,0.8,0.6l0,0c0.1,0.4-0.2,0.8-0.6,0.8l0,0c0,0-0.1,0-0.1,0l0,0
				C528.7-16.5,528.4-16.8,528.3-17.2z M527.7-21.5c-0.1-0.4,0.2-0.8,0.6-0.8l0,0c0.4-0.1,0.8,0.2,0.8,0.6l0,0
				c0.1,0.4-0.2,0.8-0.6,0.8l0,0c0,0-0.1,0-0.1,0l0,0C528-20.9,527.7-21.2,527.7-21.5z M527-25.9c-0.1-0.4,0.2-0.8,0.6-0.8l0,0
				c0.4-0.1,0.8,0.2,0.8,0.6l0,0c0.1,0.4-0.2,0.8-0.6,0.8l0,0c0,0-0.1,0-0.1,0l0,0C527.4-25.3,527.1-25.6,527-25.9z M526.3-30.3
				c-0.1-0.4,0.2-0.8,0.6-0.8l0,0c0.4-0.1,0.8,0.2,0.8,0.6l0,0c0.1,0.4-0.2,0.8-0.6,0.8l0,0c0,0-0.1,0-0.1,0l0,0
				C526.7-29.7,526.4-29.9,526.3-30.3z M525.7-34.7c-0.1-0.4,0.2-0.8,0.6-0.8l0,0c0.4-0.1,0.8,0.2,0.8,0.6l0,0
				c0.1,0.4-0.2,0.8-0.6,0.8l0,0c0,0-0.1,0-0.1,0l0,0C526-34.1,525.7-34.3,525.7-34.7z M525-39.1c-0.1-0.4,0.2-0.8,0.6-0.8l0,0
				c0.4-0.1,0.8,0.2,0.8,0.6l0,0c0.1,0.4-0.2,0.8-0.6,0.8l0,0c0,0-0.1,0-0.1,0l0,0C525.4-38.4,525.1-38.7,525-39.1z M524.3-43.4
				c-0.1-0.4,0.2-0.8,0.6-0.8l0,0c0.4-0.1,0.8,0.2,0.8,0.6l0,0c0.1,0.4-0.2,0.8-0.6,0.8l0,0c0,0-0.1,0-0.1,0l0,0
				C524.7-42.8,524.4-43.1,524.3-43.4z M523.7-47.8c-0.1-0.4,0.2-0.8,0.6-0.8l0,0c0.4-0.1,0.8,0.2,0.8,0.6l0,0
				c0.1,0.4-0.2,0.8-0.6,0.8l0,0c0,0-0.1,0-0.1,0l0,0C524-47.2,523.7-47.5,523.7-47.8z M523-52.2c-0.1-0.4,0.2-0.8,0.6-0.8l0,0
				c0.4-0.1,0.8,0.2,0.8,0.6l0,0c0.1,0.4-0.2,0.8-0.6,0.8l0,0c0,0-0.1,0-0.1,0l0,0C523.4-51.6,523-51.8,523-52.2z M522.3-56.6
				c-0.1-0.4,0.2-0.8,0.6-0.8l0,0c0.4-0.1,0.8,0.2,0.8,0.6l0,0c0.1,0.4-0.2,0.8-0.6,0.8l0,0c0,0-0.1,0-0.1,0l0,0
				C522.7-56,522.4-56.2,522.3-56.6z M521.7-61c-0.1-0.4,0.2-0.8,0.6-0.8l0,0c0.4-0.1,0.8,0.2,0.8,0.6l0,0c0.1,0.4-0.2,0.8-0.6,0.8
				l0,0c0,0-0.1,0-0.1,0l0,0C522-60.3,521.7-60.6,521.7-61z M521-65.4c-0.1-0.4,0.2-0.8,0.6-0.8l0,0c0.4-0.1,0.8,0.2,0.8,0.6l0,0
				c0.1,0.4-0.2,0.8-0.6,0.8l0,0c0,0-0.1,0-0.1,0l0,0C521.4-64.7,521-65,521-65.4z"/>
		</g>
		<g>
			<circle class="st1" cx="627.6" cy="-26.8" r="42.5"/>
		</g>
		<g>
			<circle class="st2" cx="675.8" cy="46.7" r="20"/>
		</g>
		<g>
			<circle class="st3" cx="615.5" cy="80.7" r="14.2"/>
		</g>
		<g>
			<circle class="st4" cx="531.7" cy="-2.9" r="23.1"/>
		</g>
		<g>
			<circle class="st3" cx="710.7" cy="-119.4" r="28.1"/>
		</g>
		<g>
			<circle class="st2" cx="583.7" cy="-106.7" r="16.5"/>
		</g>
		<g>
			<circle class="st4" cx="738.3" cy="-31.4" r="22.3"/>
		</g>
		<g>
			<circle class="st5" cx="695.7" cy="1.6" r="11.8"/>
		</g>
		<g>
			<circle class="st3" cx="521.9" cy="-64.4" r="15.3"/>
		</g>
	</g>
	<g id="layer1" transform="translate(-294.07446,-77.36566)">
		<g id="g428" transform="matrix(1.25,0,0,-1.25,478.33446,199.09591)">
			<path id="path430" class="st3" d="M24.8-16c0.7,0.1,1.4,0.1,2.2,0.2c3.9,0.2,8.8,0.5,14,0.5c-0.7,1.1-1.5,2.4-2.5,3.8
				C34.9-6.3,30.1,1,27.4,8.5c-3.3,9.1-3.8,18.3-4.1,23.3c0,0.7-0.1,1.4-0.1,1.9c-3.6,0.2-7.1,0.3-10.6,0.2
				C15.6,21.5,20,5.2,24.4-1.6l0.1,0c0,0,0.1-0.2,0.3-0.5c0,0,0,0,0,0l0,0c0.6-1.4,1.9-5,0.4-8.7c-0.8-2.1-2.4-3.9-4.6-5.4
				C21.9-16.2,23.3-16.1,24.8-16"/>
		</g>
		<g id="g432" transform="matrix(1.25,0,0,-1.25,525.31566,201.04901)">
			<path id="path434" class="st6" d="M24.8-16c1.2,0.7,3.4,2.1,3.7,2.8c-0.3,0.7-2.5,2-3.7,2.8c-2.7,1.6-5.2,3.1-5.4,5.5
				c-0.2,2.4,2,4.4,4.3,6.5c1,0.9,2.9,2.6,3.1,3.4c-0.4,0.6-2.9,1.5-4.2,2c-2.9,1.1-5.7,2.1-6.4,4.3c-0.7,2.3,1.1,4.6,2.9,7.2
				c0.8,1.1,2.3,3.2,2.4,3.9c-0.6,0.5-3.1,0.9-4.5,1.1c-3.1,0.5-6,0.9-7.1,3c-1.1,2.1,0.1,4.8,1.5,7.6c0.6,1.3,1.7,3.6,1.5,4.3
				c-0.6,0.4-3.2,0.3-4.6,0.2c-3.1-0.1-6.1-0.3-7.6,1.5c-1.5,1.8-0.8,4.7,0,7.7c0.3,1.3,0.9,3.8,0.7,4.5c-0.7,0.3-3.2-0.3-4.5-0.7
				c-3-0.7-5.9-1.4-7.7,0c-1.8,1.5-1.7,4.4-1.5,7.6c0.1,1.4,0.2,3.9-0.2,4.6c-0.7,0.1-3.1-1-4.3-1.5c-2.8-1.3-5.5-2.6-7.6-1.5
				c-2.1,1.1-2.5,4-3,7.1c-0.2,1.4-0.6,3.9-1.1,4.5c-0.8,0-2.8-1.5-3.9-2.4c-2.5-1.9-4.9-3.6-7.2-2.9c-2.2,0.7-3.2,3.4-4.3,6.4
				c-0.5,1.3-1.4,3.7-2,4.2c-0.7-0.2-2.4-2.1-3.4-3.1c-2.1-2.3-4.1-4.5-6.5-4.3c-2.3,0.2-3.8,2.7-5.4,5.4c-0.7,1.2-2.1,3.4-2.8,3.7
				c-0.7-0.3-2-2.5-2.8-3.7c-1.6-2.7-3.1-5.2-5.4-5.4c-2.4-0.2-4.4,2-6.5,4.3c-0.9,1-2.6,2.9-3.4,3.1c-0.6-0.4-1.5-2.9-2-4.2
				c-1.1-2.9-2.1-5.7-4.3-6.4c-2.3-0.7-4.6,1.1-7.2,2.9c-1.1,0.8-3.2,2.3-3.9,2.4c-0.5-0.6-0.9-3.1-1.1-4.5c-0.5-3.1-0.9-6-3-7.1
				c-2.1-1.1-4.8,0.1-7.6,1.5c-1.3,0.6-3.6,1.7-4.3,1.5c-0.4-0.6-0.3-3.2-0.2-4.6c0.1-3.1,0.3-6.1-1.5-7.6c-1.8-1.5-4.7-0.8-7.7,0
				c-1.4,0.3-3.8,0.9-4.5,0.7c-0.3-0.7,0.3-3.2,0.7-4.5c0.7-3,1.4-5.9,0-7.7c-1.5-1.8-4.4-1.7-7.6-1.5c-1.4,0.1-3.9,0.2-4.6-0.2
				c-0.1-0.7,1-3.1,1.5-4.3c1.3-2.8,2.6-5.5,1.5-7.6c-1.1-2.1-4-2.5-7.1-3c-1.4-0.2-3.9-0.6-4.5-1.1c0-0.8,1.5-2.8,2.4-3.9
				c1.9-2.5,3.6-4.9,2.9-7.2c-0.7-2.2-3.4-3.2-6.4-4.3c-1.3-0.5-3.7-1.4-4.2-2c0.2-0.7,2.1-2.4,3.1-3.4c2.3-2.1,4.5-4.1,4.3-6.5
				c-0.2-2.3-2.7-3.8-5.4-5.5c-1.2-0.7-3.4-2.1-3.7-2.8c0.3-0.7,2.5-2,3.7-2.8c2.7-1.6,5.2-3.1,5.4-5.4c0.2-2.4-2-4.4-4.3-6.5
				c-1-0.9-2.9-2.6-3.1-3.4c0.4-0.6,2.9-1.5,4.2-2c2.9-1.1,5.7-2.1,6.4-4.3c0.7-2.3-1.1-4.6-2.9-7.2c-0.8-1.1-2.3-3.2-2.4-3.9
				c0.6-0.5,3.1-0.9,4.5-1.1c3.1-0.5,6-0.9,7.1-3c1.1-2.1-0.1-4.8-1.5-7.6c-0.6-1.3-1.7-3.6-1.5-4.3c0.6-0.4,3.2-0.3,4.6-0.2
				c3.1,0.1,6.1,0.3,7.6-1.5c1.5-1.8,0.8-4.7,0-7.7c-0.3-1.4-0.9-3.8-0.7-4.5c0.7-0.3,3.2,0.3,4.5,0.7c3,0.7,5.9,1.4,7.7,0
				c1.8-1.5,1.7-4.4,1.5-7.6c-0.1-1.4-0.2-3.9,0.2-4.6c0.8-0.1,3.1,1,4.3,1.5c2.8,1.3,5.5,2.6,7.6,1.5c2.1-1.1,2.5-4,3-7.1
				c0.2-1.4,0.6-3.9,1.1-4.5c0.8,0,2.8,1.5,3.9,2.4c2.5,1.9,4.9,3.6,7.2,2.9c2.2-0.7,3.2-3.4,4.3-6.4c0.5-1.3,1.4-3.7,2-4.2
				c0.7,0.2,2.4,2.1,3.4,3.1c1.8,1.9,3.5,3.8,5.4,4.2l-24.7,62.2c-0.3-0.1-0.7-0.1-1-0.1c-0.1,0-0.1,0-0.2,0c-1.3,0-2.5,0.6-3.4,1.6
				c-4.8,5.4-16.2,20.6-18.2,45.4c-0.1,1.4,0.4,2.7,1.3,3.7c0.2,0.3,0.6,0.6,0.9,0.9l-2.1,5.3c-0.2,0-0.4,0.1-0.6,0.1
				c-2,0.5-3.6,1.7-4.2,3.4c-1.3,3.3,1.2,7.3,5.6,9c4.4,1.7,8.9,0.4,10.2-2.9l0,0c0.6-1.7,0.3-3.6-0.8-5.4c-0.1-0.1-0.2-0.3-0.3-0.4
				l0.7-1.8c13.7,10.7,40.9,27,79.5,27.2c1.3,0,2.5-0.9,2.7-2.3c0.4-2.1,1.1-5.8,2.2-10.2c4.1,0.1,8.2,0,12.3-0.2
				c1.3-0.1,2.4-1.1,2.6-2.5c0.1-0.6,0.1-1.5,0.2-2.7c0.3-4.8,0.8-13.7,3.9-22.3C-4.3,4.1,0.4-2.9,3.8-8c1.3-1.9,2.4-3.6,3.2-5
				c0.5-0.9,0.5-2,0-2.9c-0.5-0.9-1.4-1.4-2.4-1.4c-5.5,0-10.9-0.3-15.1-0.5c-0.7,0-1.4-0.1-2.1-0.2c-1.3-0.1-2.6-0.2-3.9-0.2
				c-1.1,0-2.2,0.1-3.3,0.3c-5.7,1.1-9.9,5.8-11.2,12.4C-31-5-31.1-4.1-31.2-2.7c0,0.1,0,0.3,0,0.4C-47-5.1-71.1-13.1-89.5-27.8
				l29-73c1.3,2.1,2.7,3.9,4.7,4.1c2.4,0.2,4.4-2,6.5-4.3c0.9-1,2.6-2.9,3.4-3.1c0.6,0.4,1.5,2.9,2,4.2c1.1,2.9,2.1,5.7,4.3,6.4
				c2.3,0.7,4.6-1.1,7.2-2.9c1.1-0.8,3.2-2.3,3.9-2.4c0.5,0.6,0.9,3.1,1.1,4.5c0.5,3.1,0.9,6,3,7.1c2.1,1.1,4.8-0.1,7.6-1.5
				c1.3-0.6,3.6-1.7,4.3-1.5c0.4,0.6,0.3,3.2,0.2,4.6c-0.1,3.1-0.3,6.1,1.5,7.6c1.8,1.5,4.7,0.8,7.7,0c1.4-0.3,3.8-0.9,4.5-0.7
				c0.3,0.7-0.3,3.2-0.7,4.5c-0.7,3-1.4,5.9,0,7.7c1.5,1.8,4.4,1.7,7.6,1.5c1.4-0.1,3.9-0.2,4.6,0.2c0.1,0.7-1,3.1-1.5,4.3
				c-1.3,2.8-2.6,5.5-1.5,7.6c1.1,2.1,4,2.5,7.1,3c1.4,0.2,3.9,0.6,4.5,1.1c0,0.8-1.5,2.8-2.4,3.9c-1.9,2.5-3.6,4.9-2.9,7.2
				c0.7,2.2,3.4,3.2,6.4,4.3c1.3,0.5,3.7,1.4,4.2,2c-0.2,0.7-2.1,2.4-3.1,3.4c-2.3,2.1-4.5,4.1-4.3,6.5C19.6-19.1,22.1-17.6,24.8-16
				"/>
		</g>
		<g id="g436" transform="matrix(1.25,0,0,-1.25,523.93196,215.95691)">
			<path id="path438" d="M24.8-16c1-0.9,2.9-2.6,3.1-3.4c-0.4-0.6-2.9-1.5-4.2-2c-2.9-1.1-5.7-2.1-6.4-4.3c-0.7-2.3,1.1-4.6,2.9-7.2
				c0.8-1.1,2.3-3.2,2.4-3.9c-0.6-0.5-3.1-0.9-4.5-1.1c-3.1-0.5-6-0.9-7.1-3c-1.1-2.1,0.1-4.8,1.5-7.6c0.6-1.3,1.7-3.6,1.5-4.3
				c-0.6-0.4-3.2-0.3-4.6-0.2c-3.1,0.1-6.1,0.3-7.6-1.5c-1.5-1.8-0.8-4.7,0-7.7c0.3-1.3,0.9-3.8,0.7-4.5C1.8-67-0.7-66.4-2-66.1
				c-3,0.7-5.9,1.4-7.7,0c-1.8-1.5-1.7-4.4-1.5-7.6c0.1-1.4,0.2-3.9-0.2-4.6c-0.8-0.1-3.1,1-4.3,1.5c-2.8,1.3-5.5,2.6-7.6,1.5
				c-2.1-1.1-2.5-4-3-7.1c-0.2-1.4-0.6-3.9-1.1-4.5c-0.8,0-2.8,1.5-3.9,2.4c-2.5,1.9-4.9,3.6-7.2,2.9c-2.2-0.7-3.2-3.4-4.3-6.4
				c-0.5-1.3-1.4-3.7-2-4.2c-0.7,0.2-2.4,2.1-3.4,3.1c-2.1,2.3-4.1,4.5-6.5,4.3c-1.9-0.2-3.3-2-4.7-4.1l-29,73
				C-70-1.2-45.9,6.9-30.1,9.6c0-0.1,0-0.2,0-0.4c0.1-1.4,0.2-2.3,0.2-2.7c1.3-6.6,5.6-11.3,11.2-12.4c1.1-0.2,2.2-0.3,3.3-0.3
				c1.3,0,2.6,0.1,3.9,0.2c0.7,0.1,1.4,0.1,2.1,0.2c4.1,0.3,9.6,0.5,15.1,0.5c1,0,1.9,0.5,2.4,1.4c0.5,0.9,0.5,2,0,2.9
				C7.3,0.3,6.2,2,4.9,3.9C1.5,9-3.2,16-5.8,23.1c-3.1,8.6-3.6,17.5-3.9,22.3c-0.1,1.1-0.1,2-0.2,2.7c-0.2,1.3-1.2,2.4-2.6,2.5
				c-4.1,0.3-8.2,0.3-12.3,0.2c-1,4.5-1.8,8.2-2.2,10.2c-0.2,1.3-1.4,2.3-2.7,2.3c-38.6-0.2-65.8-16.5-79.5-27.2l-0.7,1.8
				c0.1,0.1,0.2,0.3,0.3,0.4c1.2,1.7,1.5,3.7,0.8,5.4l0,0c-1.3,3.3-5.7,4.6-10.2,2.9c-4.4-1.7-6.9-5.6-5.6-9
				c0.6-1.7,2.2-2.9,4.2-3.4c0.2,0,0.4-0.1,0.6-0.1l2.1-5.3c-0.3-0.3-0.6-0.6-0.9-0.9c-1-1-1.5-2.3-1.3-3.7
				c1.9-24.9,13.3-40,18.2-45.4c0.9-1,2.1-1.5,3.4-1.6c0.1,0,0.1,0,0.2,0c0.3,0,0.7,0,1,0.1l24.7-62.2c-1.9-0.4-3.6-2.3-5.4-4.2
				c-0.9-1-2.6-2.9-3.4-3.1c-0.6,0.4-1.5,2.9-2,4.2c-1.1,2.9-2.1,5.7-4.3,6.4c-2.3,0.7-4.6-1.1-7.2-2.9c-1.1-0.8-3.2-2.3-3.9-2.4
				c-0.5,0.6-0.9,3.1-1.1,4.5c-0.5,3.1-0.9,6-3,7.1c-2.1,1.1-4.8-0.1-7.6-1.5c-1.3-0.6-3.6-1.7-4.3-1.5c-0.4,0.6-0.3,3.2-0.2,4.6
				c0.1,3.1,0.3,6.1-1.5,7.6c-1.8,1.5-4.7,0.8-7.7,0c-1.4-0.3-3.8-0.9-4.5-0.7c-0.3,0.7,0.3,3.2,0.7,4.5c0.7,3,1.4,5.9,0,7.7
				c-1.5,1.8-4.4,1.7-7.6,1.5c-1.4-0.1-3.9-0.2-4.6,0.2c-0.1,0.7,1,3.1,1.5,4.3c1.3,2.8,2.6,5.5,1.5,7.6c-1.1,2.1-4,2.5-7.1,3
				c-1.4,0.2-3.9,0.6-4.5,1.1c0,0.8,1.5,2.8,2.4,3.9c1.9,2.5,3.6,4.9,2.9,7.2c-0.7,2.2-3.4,3.2-6.4,4.3c-1.3,0.5-3.7,1.4-4.2,2
				c0.2,0.7,2.1,2.4,3.1,3.4c2.3,2.1,4.5,4.1,4.3,6.5c-0.2,2.3-2.7,3.8-5.4,5.4c-1.2,0.7-3.4,2.1-3.7,2.8c0.3,0.7,2.5,2,3.7,2.8
				c2.7,1.6,5.2,3.1,5.4,5.5c0.2,2.4-2,4.4-4.3,6.5c-1,0.9-2.9,2.6-3.1,3.4c0.4,0.6,2.9,1.5,4.2,2c2.9,1.1,5.7,2.1,6.4,4.3
				c0.7,2.3-1.1,4.6-2.9,7.2c-0.8,1.1-2.3,3.2-2.4,3.9c0.6,0.5,3.1,0.9,4.5,1.1c3.1,0.5,6,0.9,7.1,3c1.1,2.1-0.1,4.8-1.5,7.6
				c-0.6,1.3-1.7,3.6-1.5,4.3c0.6,0.4,3.2,0.3,4.6,0.2c3.1-0.1,6.1-0.3,7.6,1.5c1.5,1.8,0.8,4.7,0,7.7c-0.3,1.3-0.9,3.8-0.7,4.5
				c0.7,0.3,3.2-0.3,4.5-0.7c3-0.7,5.9-1.4,7.7,0c1.8,1.5,1.7,4.4,1.5,7.6c-0.1,1.4-0.2,3.9,0.2,4.6c0.8,0.1,3.1-1,4.3-1.5
				c2.8-1.3,5.5-2.6,7.6-1.5c2.1,1.1,2.5,4,3,7.1c0.2,1.4,0.6,3.9,1.1,4.5c0.8,0,2.8-1.5,3.9-2.4c2.5-1.9,4.9-3.6,7.2-2.9
				c2.2,0.7,3.2,3.4,4.3,6.4c0.5,1.3,1.4,3.7,2,4.2c0.7-0.2,2.4-2.1,3.4-3.1c2.1-2.3,4.1-4.5,6.5-4.3c2.3,0.2,3.8,2.7,5.4,5.4
				c0.7,1.2,2.1,3.4,2.8,3.7c0.7-0.3,2-2.5,2.8-3.7c1.6-2.7,3.1-5.2,5.4-5.4c2.3-0.2,4.4,2,6.5,4.3c0.9,1,2.6,2.9,3.4,3.1
				c0.6-0.4,1.5-2.9,2-4.2c1.1-2.9,2.1-5.7,4.3-6.4c2.3-0.7,4.6,1.1,7.2,2.9c1.1,0.8,3.2,2.3,3.9,2.4c0.5-0.6,0.9-3.1,1.1-4.5
				c0.5-3.1,0.9-6,3-7.1c2.1-1.1,4.8,0.1,7.6,1.5c1.3,0.6,3.6,1.7,4.3,1.5c0.4-0.6,0.3-3.2,0.2-4.6c-0.1-3.1-0.3-6.1,1.5-7.6
				c1.8-1.5,4.7-0.8,7.7,0c1.4,0.3,3.8,0.9,4.5,0.7c0.3-0.7-0.3-3.2-0.7-4.5c-0.7-3-1.4-5.9,0-7.7c1.5-1.8,4.4-1.7,7.6-1.5
				c1.4,0.1,3.9,0.2,4.6-0.2c0.1-0.7-1-3.1-1.5-4.3c-1.3-2.8-2.6-5.5-1.5-7.6c1.1-2.1,4-2.5,7.1-3c1.4-0.2,3.9-0.6,4.5-1.1
				c0-0.8-1.5-2.8-2.4-3.9c-1.9-2.5-3.6-4.9-2.9-7.2c0.7-2.2,3.4-3.2,6.4-4.3c1.3-0.5,3.7-1.4,4.2-2c-0.2-0.7-2.1-2.4-3.1-3.4
				c-2.3-2.1-4.5-4.1-4.3-6.5c0.2-2.3,2.7-3.8,5.4-5.5c1.2-0.7,3.4-2.1,3.7-2.8c-0.3-0.7-2.5-2-3.7-2.8c-2.7-1.6-5.2-3.1-5.4-5.4
				C20.3-11.9,22.5-13.9,24.8-16 M-11.4,2.7c1.5,3.8,0.2,7.4-0.4,8.7l0,0c0,0,0,0,0,0c-0.1,0.3-0.2,0.5-0.3,0.5l-0.1,0
				c-4.3,6.8-8.8,23-11.7,35.4c3.5,0.1,7.1,0,10.6-0.2c0-0.5,0.1-1.1,0.1-1.9c0.3-4.9,0.8-14.2,4.1-23.3C-6.4,14.5-1.5,7.2,2,2
				c0.9-1.4,1.8-2.7,2.5-3.8c-5.2,0-10.1-0.3-14-0.5c-0.7,0-1.4-0.1-2.2-0.2c-1.5-0.1-2.9-0.2-4.3-0.2C-13.8-1.3-12.2,0.5-11.4,2.7
				 M-15.3,10.2L-15.3,10.2c0,0,0.2-0.5,0.5-1.2c0.4-1.2,0.7-3.1,0-4.9c-0.7-1.9-2.5-3.5-5.1-4.6c-0.4-0.2-0.8-0.4-1.3-0.5
				c-3.5,2.3-4.8,6.4-5.2,8.3c-0.1,0.3-0.1,1.5-0.2,2.3c0,0.2,0,0.5,0,0.7C-21.4,10.8-17.4,10.8-15.3,10.2 M-116.2,37.4
				c0.5,0.3,1,0.5,1.7,0.7c0.5,0.1,0.9-0.2,1.1-0.6l1.2-3c0.2-0.4,0-0.9-0.3-1.1c-0.4-0.3-0.8-0.7-1.2-1c-0.5-0.5-1.3-0.3-1.6,0.4
				l-1.4,3.5C-116.8,36.6-116.6,37.1-116.2,37.4 M-121.1,38.9c-0.5,1.3,0.9,3.4,3.6,4.4c0.9,0.4,1.8,0.5,2.6,0.5
				c1.5,0,2.7-0.6,3-1.4l0,0c0.1-0.3,0.1-0.6,0.1-0.9l-0.3,0c-5.4,0.8-8.1-3.2-8.2-3.4l-0.1-0.1C-120.7,38.3-120.9,38.5-121.1,38.9
				 M-98.9-18.9c-4.6,5.1-15.4,19.5-17.3,43.3c0,0.4,0.1,0.7,0.3,1c5.5,5.6,35.3,33.5,84.9,34.3c0.5,0,0.9-0.3,1-0.8
				c1.3-6.3,6.7-31.9,12.8-45c-15,1.2-55.6-9.4-79.9-32.9c-0.2-0.2-0.6-0.4-0.9-0.3C-98.4-19.3-98.7-19.1-98.9-18.9 M-57.8-111.7
				l-35.7,89.9c-0.3,0.7-0.1,1.4,0.4,1.9l0,0c0.9,0.8,2.3,0.5,2.8-0.6l35.7-89.9c0.3-0.9,0-1.9-0.9-2.3c0,0,0,0,0,0
				C-56.4-113.1-57.4-112.6-57.8-111.7 M27.8-7.2c2.8,1.7,5.5,3.3,5.5,5.9c0,2.5-2.7,4.1-5.5,5.9c-1.2,0.7-3.5,2.1-3.7,2.7
				c0.1,0.7,2.1,2.5,3.1,3.5c2.4,2.2,4.7,4.3,4.2,6.7c-0.5,2.5-3.4,3.5-6.5,4.7c-1.3,0.5-3.8,1.4-4.1,1.9c-0.1,0.7,1.5,2.9,2.4,4
				c1.9,2.6,3.8,5.1,2.8,7.4c-1,2.3-4,2.8-7.3,3.3c-1.4,0.2-4,0.6-4.5,1.1c-0.2,0.7,0.9,3.1,1.5,4.4c1.4,3,2.7,5.8,1.3,7.8
				c-1.4,2.1-4.5,1.9-7.8,1.8c-1.4-0.1-4.1-0.2-4.6,0.2c-0.3,0.6,0.3,3.2,0.7,4.6c0.8,3.2,1.5,6.2-0.3,8s-4.8,1-8,0.3
				c-1.4-0.3-4-1-4.6-0.7c-0.4,0.5-0.3,3.2-0.3,4.6c0.1,3.3,0.3,6.4-1.8,7.8c-2.1,1.4-4.9,0.1-7.8-1.3c-1.3-0.6-3.7-1.7-4.3-1.6
				c-0.5,0.4-0.9,3.1-1.1,4.5c-0.5,3.2-1,6.3-3.3,7.3c-2.3,1-4.8-0.9-7.4-2.8c-1.2-0.9-3.3-2.4-4-2.4c-0.6,0.3-1.5,2.8-2,4.2
				c-1.1,3.1-2.2,6-4.7,6.5c-2.4,0.5-4.5-1.8-6.7-4.2c-1-1.1-2.8-3.1-3.4-3.1c-0.7,0.2-2,2.5-2.8,3.7c-1.7,2.8-3.3,5.5-5.9,5.5
				c-2.5,0-4.1-2.7-5.9-5.5c-0.7-1.2-2.1-3.5-2.7-3.7c-0.7,0.1-2.5,2.1-3.5,3.1c-2.2,2.4-4.3,4.7-6.7,4.2c-2.5-0.5-3.5-3.4-4.7-6.5
				c-0.5-1.3-1.4-3.8-1.9-4.1c-0.7-0.1-2.9,1.5-4,2.4c-2.6,1.9-5.1,3.8-7.4,2.8c-2.3-1-2.8-4-3.3-7.3c-0.2-1.4-0.6-4-1.1-4.5
				c-0.7-0.2-3.1,0.9-4.4,1.5c-3,1.4-5.8,2.7-7.8,1.3c-2.1-1.4-1.9-4.5-1.8-7.8c0.1-1.4,0.2-4.1-0.2-4.6c-0.6-0.3-3.2,0.3-4.6,0.7
				c-3.2,0.8-6.2,1.5-8-0.3c-1.8-1.8-1-4.8-0.3-8c0.3-1.4,1-4,0.7-4.6c-0.5-0.4-3.2-0.3-4.6-0.3c-3.3,0.1-6.4,0.3-7.8-1.8
				c-1.4-2.1-0.1-4.9,1.3-7.8c0.6-1.3,1.7-3.7,1.6-4.3c-0.4-0.5-3.1-0.9-4.5-1.1c-3.2-0.5-6.3-1-7.3-3.3c-1-2.3,0.9-4.8,2.8-7.4
				c0.9-1.2,2.4-3.3,2.4-4c-0.3-0.6-2.8-1.5-4.2-2c-3.1-1.1-6-2.2-6.5-4.7c-0.5-2.4,1.8-4.5,4.2-6.7c1.1-1,3.1-2.8,3.1-3.4
				c-0.2-0.7-2.5-2-3.7-2.8c-2.8-1.7-5.5-3.3-5.5-5.9c0-2.5,2.7-4.1,5.5-5.9c1.2-0.7,3.5-2.1,3.7-2.7c-0.1-0.7-2.1-2.5-3.1-3.5
				c-2.4-2.2-4.7-4.3-4.2-6.7c0.5-2.5,3.4-3.5,6.5-4.7c1.3-0.5,3.8-1.4,4.1-1.9c0.1-0.7-1.5-2.9-2.4-4c-1.9-2.6-3.8-5.1-2.8-7.4
				c1-2.3,4-2.8,7.3-3.3c1.4-0.2,4-0.6,4.5-1.1c0.2-0.7-0.9-3.1-1.5-4.4c-1.4-3-2.7-5.8-1.3-7.8c1.4-2.1,4.5-1.9,7.8-1.8
				c1.4,0.1,4.1,0.2,4.6-0.2c0.3-0.6-0.3-3.2-0.7-4.6c-0.8-3.2-1.5-6.2,0.3-8c1.8-1.8,4.8-1,8-0.3c1.4,0.3,4,1,4.6,0.7
				c0.4-0.5,0.3-3.2,0.3-4.6c-0.1-3.3-0.3-6.4,1.8-7.8c2.1-1.4,4.9-0.1,7.8,1.3c1.3,0.6,3.7,1.7,4.3,1.6c0.5-0.4,0.9-3.1,1.1-4.5
				c0.5-3.2,1-6.3,3.3-7.3c2.3-1,4.8,0.9,7.4,2.8c1.2,0.9,3.3,2.4,4,2.4c0.6-0.3,1.5-2.8,2-4.2c1.1-3.1,2.2-6,4.7-6.5
				c2.4-0.5,4.5,1.8,6.7,4.2c1,1.1,2.8,3.1,3.4,3.1c0.3-0.1,0.7-0.6,1.1-1.2l10.5-26.5l0.7-0.3c0.5-0.2,1.3-0.3,2.2-0.3
				c2,0,4.5,0.8,6.4,3.6l0.5,0.8L-57.7-93c0.2,0.3,0.4,0.7,0.6,1c0.7,1.2,2.1,3.5,2.7,3.7c0.7-0.1,2.5-2.1,3.5-3.1
				c2.2-2.4,4.3-4.7,6.7-4.2c2.5,0.5,3.5,3.4,4.7,6.5c0.5,1.3,1.4,3.8,1.9,4.1c0.7,0.1,2.9-1.5,4-2.4c2.6-1.9,5.1-3.8,7.4-2.8
				c2.3,1,2.8,4,3.3,7.3c0.2,1.4,0.6,4,1.1,4.5c0.7,0.2,3.1-0.9,4.4-1.5c3-1.4,5.8-2.7,7.8-1.3c2.1,1.4,1.9,4.5,1.8,7.8
				c-0.1,1.4-0.2,4.1,0.2,4.6c0.6,0.3,3.2-0.3,4.6-0.7c3.2-0.8,6.2-1.5,8,0.3c1.8,1.8,1,4.8,0.3,8c-0.3,1.4-1,4-0.7,4.6
				c0.5,0.4,3.2,0.3,4.6,0.3c3.3-0.1,6.4-0.3,7.8,1.8c1.4,2.1,0.1,4.9-1.3,7.8c-0.6,1.3-1.7,3.7-1.6,4.3c0.4,0.5,3.1,0.9,4.5,1.1
				c3.2,0.5,6.3,1,7.3,3.3c1,2.3-0.9,4.8-2.8,7.4c-0.9,1.2-2.4,3.3-2.4,4c0.3,0.6,2.8,1.5,4.2,2c3.1,1.1,6,2.2,6.5,4.7
				c0.5,2.4-1.8,4.5-4.2,6.7c-1.1,1-3.1,2.8-3.1,3.4C24.3-9.3,26.6-7.9,27.8-7.2"/>
		</g>
		<g id="g440" transform="matrix(1.25,0,0,-1.25,352.73686,144.02881)">
			<path id="path442" class="st7" d="M24.8-16l0.3,0c0.1,0.3,0,0.6-0.1,0.9v0c-0.3,0.8-1.5,1.4-3,1.4c-0.8,0-1.7-0.2-2.6-0.5
				c-2.7-1-4-3.2-3.6-4.4c0.1-0.3,0.4-0.6,0.6-0.8l0.1,0.1C16.7-19.2,19.4-15.2,24.8-16"/>
		</g>
		<g id="g444" transform="matrix(1.25,0,0,-1.25,376.59786,220.83841)">
			<path id="path446" class="st7" d="M24.8-16L24.8-16c-0.6-0.5-0.7-1.3-0.5-1.9l35.7-89.9c0.4-0.9,1.4-1.4,2.3-1c0,0,0,0,0,0
				c0.9,0.4,1.2,1.4,0.9,2.3L27.6-16.6C27.1-15.5,25.7-15.2,24.8-16"/>
		</g>
		<g id="g448" transform="matrix(1.25,0,0,-1.25,350.89596,155.59731)">
			<path id="path450" class="st7" d="M24.8-16c0.4,0.3,0.8,0.7,1.2,1c0.3,0.3,0.4,0.7,0.3,1.1l-1.2,3c-0.2,0.4-0.6,0.7-1.1,0.6
				c-0.7-0.1-1.3-0.4-1.7-0.7c-0.4-0.3-0.6-0.8-0.4-1.2l1.4-3.5C23.5-16.3,24.3-16.5,24.8-16"/>
		</g>
		<g id="g452" transform="matrix(1.25,0,0,-1.25,474.42336,184.77721)">
			<path id="path454" class="st3" d="M24.8-16c-0.2,0.7-0.5,1.2-0.5,1.2l0,0c-2.2,0.6-6.2,0.6-11.3-0.1c0-0.2,0-0.4,0-0.7
				c0.1-0.7,0.1-2,0.2-2.3c0.4-2,1.6-6.1,5.2-8.3c0.5,0.2,0.9,0.3,1.3,0.5c2.6,1.2,4.3,2.7,5.1,4.6C25.5-19.1,25.2-17.2,24.8-16"/>
		</g>
		<g id="g456" transform="matrix(1.25,0,0,-1.25,385.81966,174.44691)">
			<path id="path458" class="st3" d="M24.8-16l5.7,7.3c0.2,0.3,0.3,0.7,0.1,1l-3.8,8.3c-0.2,0.3-0.1,0.7,0.1,1l6.6,8.4
				c0.2,0.2,0.5,0.4,0.8,0.4c0,0,0.1,0,0.1,0l9.7-1.2c0.3,0,0.6-0.3,0.8-0.6l4-8.5c0.1-0.3,0.4-0.5,0.8-0.6l8.3-1
				c0.3,0,0.6-0.3,0.8-0.6l4.6-9.8c0.2-0.3,0.1-0.8-0.1-1.1l-6.7-8.2c-0.2-0.2-0.5-0.4-0.8-0.4c0,0-0.1,0-0.1,0l-8.1,1
				c0,0-0.1,0-0.1,0c-0.3,0-0.6-0.1-0.8-0.4l-6-7.3c-0.2-0.2-0.5-0.4-0.8-0.4c0,0-0.1,0-0.1,0l-9.7,1.2c-0.3,0-0.6,0.3-0.8,0.6
				L24.7-17C24.5-16.7,24.6-16.3,24.8-16 M93.3-19.2c-6.1,13.1-11.5,38.7-12.8,45c-0.1,0.5-0.5,0.8-1,0.8C30,25.7,0.2-2.2-5.3-7.8
				c-0.3-0.3-0.4-0.6-0.3-1C-3.8-32.5,7-47,11.6-52.1c0.2-0.3,0.5-0.4,0.9-0.4c0.3,0,0.7,0.1,0.9,0.3C37.7-28.6,78.3-18,93.3-19.2"
				/>
		</g>
		<g id="g460" transform="matrix(1.25,0,0,-1.25,406.91876,169.49201)">
			<path id="path462" class="st7" d="M24.8-16l-4.6-5.9l3-6.3l4.3,5.2c0.1,0.2,0.3,0.3,0.4,0.4L24.8-16z"/>
		</g>
		<g id="g464" transform="matrix(1.25,0,0,-1.25,398.46326,174.79181)">
			<path id="path466" class="st7" d="M24.8-16l4.5,5.7l-6.4,0.7c-0.1-0.2-0.2-0.4-0.3-0.5l-4-5.2L24.8-16z"/>
		</g>
		<g id="g468" transform="matrix(1.25,0,0,-1.25,401.83346,186.16081)">
			<path id="path470" class="st7" d="M24.8-16l-3,6.4l-6.4,0.8l3-6.4L24.8-16z"/>
		</g>
		<g id="g472" transform="matrix(1.25,0,0,-1.25,417.79226,169.34991)">
			<path id="path474" class="st7" d="M24.8-16l-6.1,0.8l3.1-6.5c0.1,0,0.2,0,0.3,0l5.7-0.7L24.8-16z"/>
		</g>
		<g id="g476" transform="matrix(1.25,0,0,-1.25,420.90066,168.03151)">
			<path id="path478" class="st7" d="M24.8-16l3-6.4l4.5,5.5l-3.1,6.5L24.8-16z"/>
		</g>
		<g id="g480" transform="matrix(1.25,0,0,-1.25,401.08586,153.03091)">
			<path id="path482" class="st7" d="M24.8-16l4.5,5.7l-6.5,0.8l-4.5-5.7L24.8-16z"/>
		</g>
		<g id="g484" transform="matrix(1.25,0,0,-1.25,409.27546,148.11941)">
			<path id="path486" class="st7" d="M24.8-16l-4.4-5.5l3.1-6.5l4.4,5.5c-0.1,0.2-0.2,0.4-0.3,0.6L24.8-16z"/>
		</g>
		<g id="g488" transform="matrix(1.25,0,0,-1.25,400.69696,156.38351)">
			<path id="path490" class="st7" d="M24.8-16l-6.3,0.8l2.6-5.7c0.1-0.2,0.2-0.4,0.2-0.6l6.4-0.7L24.8-16z"/>
		</g>
		<g id="g492" transform="matrix(1.25,0,0,-1.25,418.20386,166.00031)">
			<path id="path494" class="st7" d="M24.8-16l4.4,5.5l-5.8,0.7c-0.1,0-0.2,0-0.3,0.1l-4.4-5.5L24.8-16z"/>
		</g>
		<rect x="414.7" y="159.5" class="st3" width="52" height="41.8"/>
		<rect x="411.2" y="192.7" class="st3" width="32.5" height="17.2"/>
	</g>
</g>
<g id="Layer_2">
	<ellipse class="st6" cx="145.7" cy="104.6" rx="21.7" ry="22.3"/>
	<path class="st1" d="M154.4,85.6c-0.1,0.4-2.2,4.5-2.2,4.5l0.9,3.2l1.9,3l1.4,1.5l3.4,3.9l0.8,2.1l0.4,3l3.1,1.5l2.6-0.6l-0.6-10.4
		l-2.4-4.8l-4.8-5.2L154.4,85.6z"/>
	<polygon class="st1" points="126.5,101.8 135.3,95.2 141.7,95.2 144.8,99.7 143.3,108 141.2,112.3 142.8,115.3 144.8,122.3 
		142.7,124.3 138.2,124.3 127.8,113.5 	"/>
	<path d="M153.2,126.1c12-3.6,18.9-16.4,15.2-28.4c-3.6-12-16.4-18.9-28.4-15.2c-12,3.6-18.9,16.4-15.2,28.4
		S141.2,129.8,153.2,126.1z M165.4,98.6c0.9,3,1,6.1,0.5,9c-0.9,0.3-2.1,0.4-2.8-0.2c-0.7-0.6-1.1-2-1-3.6c0.2-2.7-1.8-4.7-3.9-6.7
		c-1.8-1.7-3.8-3.7-4.6-6.4c-0.4-1.3-0.1-2.1,0.8-3c0.4-0.3,0.6-0.5,1-0.8C160.2,89.4,163.8,93.4,165.4,98.6z M140.9,85.5
		c3.5-1,6.9-1,10.2-0.3c-1.6,1.9-2.2,4.2-1.4,6.8c1.1,3.7,3.6,6.2,5.7,8.2c1.2,1.2,2.6,2.6,2.6,3.3c-0.2,3.1,0.7,5.8,2.6,7.3
		c0.9,0.6,2.2,1.3,4.2,1.3c-2.3,5.1-6.6,9.3-12.3,11c-2,0.6-4,0.9-6.1,0.8c0.8-1,1.5-2.4,1.7-3.8c0.2-2.6-1-5.1-3.7-8.1
		c-1-1-1-1.3,0.8-3.9c2-2.8,5-7,1-13.4c-1.3-2.1-4-3.3-6.9-3.4c-3.3,0-6.1,1.6-7.9,4.4c-1.1,1.8-2.4,2.7-3.4,3.1
		C129.4,92.9,134.2,87.5,140.9,85.5z M126.9,103.8c2.1-0.3,5.3-1.5,7.9-5.6c1.2-2.1,3.2-2.3,4.2-2.4c1.6,0,2.8,0.6,3.3,1.3
		c2.4,3.9,1,6-0.8,8.6c-1.6,2.2-3.9,5.6-0.5,9.4c1.8,2,2.7,3.5,2.6,4.7c-0.2,1-1,2.1-2.7,3.5c-6-1.8-11-6.6-12.9-13.1
		C127.2,107.9,126.9,105.8,126.9,103.8z"/>
</g>
</svg>
