<svg xmlns="http://www.w3.org/2000/svg" width="34.269" height="42.154" viewBox="0 0 34.269 42.154"><g><path fill="#fff" d="M17.85 38.86c-.587-.137-1.174-.28-1.763-.41-2.967-.662-5.377-2.165-7.076-4.72-2.105-3.165-4.212-6.33-6.288-9.515-1.012-1.554-.87-3.077.284-3.902 1.142-.816 2.67-.424 3.782 1.013.844 1.088 1.646 2.208 2.686 3.61.06-.754.11-1.11.11-1.466-.005-5.072-.01-10.145-.03-15.217-.004-1.62.79-2.646 2.077-2.628 1.234.017 1.977.955 1.982 2.553.01 2.865.002 5.73.004 8.595 0 .33-.098.708.034.974.176.355.53.623.807.93.212-.316.59-.624.605-.947.067-1.5.034-3.005.034-4.508 0-2.536-.008-5.072-.007-7.608 0-1.773.79-2.812 2.102-2.78 1.262.03 2.02 1.025 2.023 2.718.008 3.898-.025 7.797.03 11.694.007.487.448.968.688 1.45.25-.48.71-.96.717-1.446.062-3.568.018-7.138.043-10.707.01-1.39.805-2.275 1.953-2.312 1.108-.034 1.994.867 2.137 2.185.02.185-.006.374-.006.562-.007 3.758-.014 7.515-.018 11.27 0 .33-.065.687.042.98.11.304.395.545.602.812.27-.26.637-.475.777-.79.142-.318.067-.738.067-1.113-.004-2.395-.016-4.79-.02-7.185-.003-1.605.717-2.51 2.002-2.528 1.29-.02 2.035.86 2.037 2.476.008 5.918-.058 11.837.018 17.753.063 5.014-2.77 9.377-8.265 9.983-.176.02-.338.148-.507.227-1.22-.002-2.442-.002-3.662-.002z"/></g></svg>