<svg xmlns="http://www.w3.org/2000/svg" width="40.978" height="29.942" viewBox="0 0 40.978 29.942"><g><g fill="#fff"><path d="M5.092 6.514c.03-.143.062-.285.1-.452l10.396 8.893c-3.46 3.326-6.905 6.64-10.367 9.97l-.127-.426V6.513zM36.916 24.56c-.03.115-.06.23-.097.363l-10.37-9.97 10.372-8.897.094.335v18.17zM6.465 4.816c.15-.03.268-.058.385-.075.07-.01.144-.005.215-.005 9.293 0 18.584 0 27.877.002.195 0 .392.037.588.056l.012.05c-.04.034-.076.07-.115.104-3.072 2.63-6.135 5.27-9.22 7.884-1.704 1.444-3.444 2.846-5.18 4.276-.202-.164-.397-.326-.595-.485C16.157 13.2 12.05 9.58 7.88 6.03c-.41-.347-.818-.697-1.226-1.046l-.19-.168zM16.97 16.09c1.354 1.1 2.696 2.187 4.05 3.283l4.05-3.284 10.475 10.043c-.153.03-.27.06-.39.077-.068.01-.142.007-.213.007-9.287 0-18.574 0-27.86-.002-.182 0-.362-.035-.542-.054l-.016-.055c3.478-3.335 6.956-6.672 10.445-10.016z"/></g></g></svg>