<?xml version="1.0" encoding="utf-8"?>
<!-- Generator: Adobe Illustrator 19.2.0, SVG Export Plug-In . SVG Version: 6.00 Build 0)  -->
<!DOCTYPE svg PUBLIC "-//W3C//DTD SVG 1.1//EN" "http://www.w3.org/Graphics/SVG/1.1/DTD/svg11.dtd">
<svg version="1.1" id="Layer_1" xmlns="http://www.w3.org/2000/svg" xmlns:xlink="http://www.w3.org/1999/xlink" x="0px" y="0px"
	 viewBox="0 0 39.1 34.3" style="enable-background:new 0 0 39.1 34.3;" xml:space="preserve">
<style type="text/css">
	.st0{fill:#FFFFFF;}
</style>
<g>
	<path class="st0" d="M26.8,9.2c1.2,1.5,1.8,3.1,1.8,4.8c0,1.7-0.6,3.3-1.8,4.8c-1.2,1.5-2.8,2.6-4.8,3.5c-2,0.9-4.2,1.3-6.6,1.3
		c-1.1,0-2.2-0.1-3.3-0.3c-1.6,1.1-3.3,1.9-5.2,2.4c-0.4,0.1-1,0.2-1.6,0.3H5.2c-0.1,0-0.3-0.1-0.4-0.2c-0.1-0.1-0.2-0.2-0.2-0.4
		c0,0,0-0.1,0-0.1c0,0,0-0.1,0-0.1c0,0,0-0.1,0-0.1c0,0,0-0.1,0-0.1c0,0,0-0.1,0.1-0.1c0,0,0.1-0.1,0.1-0.1c0,0,0-0.1,0.1-0.1
		c0,0,0.1-0.1,0.1-0.1c0.1-0.1,0.2-0.2,0.4-0.5c0.2-0.2,0.4-0.4,0.5-0.6c0.1-0.1,0.2-0.3,0.4-0.5c0.2-0.2,0.3-0.5,0.5-0.7
		c0.1-0.3,0.3-0.5,0.4-0.8c-1.6-0.9-2.8-2-3.7-3.3c-0.9-1.3-1.3-2.7-1.3-4.2c0-1.7,0.6-3.3,1.8-4.8c1.2-1.5,2.8-2.6,4.8-3.5
		c2-0.9,4.2-1.3,6.6-1.3c2.4,0,4.6,0.4,6.6,1.3C24,6.6,25.6,7.8,26.8,9.2z M35.8,18.9c0,1.5-0.4,2.9-1.3,4.2s-2.1,2.4-3.7,3.3
		c0.1,0.3,0.3,0.6,0.4,0.8c0.1,0.2,0.3,0.5,0.5,0.7c0.2,0.2,0.3,0.4,0.4,0.5c0.1,0.1,0.3,0.3,0.5,0.6c0.2,0.2,0.4,0.4,0.4,0.5
		c0,0,0,0,0.1,0.1c0,0,0.1,0.1,0.1,0.1c0,0,0,0.1,0.1,0.1c0,0,0.1,0.1,0.1,0.1c0,0,0,0.1,0,0.1c0,0,0,0.1,0,0.1c0,0,0,0.1,0,0.1
		c0,0,0,0.1,0,0.1c0,0.2-0.1,0.3-0.2,0.4c-0.1,0.1-0.3,0.1-0.4,0.1c-0.6-0.1-1.2-0.2-1.6-0.3c-1.9-0.5-3.7-1.3-5.2-2.4
		c-1.1,0.2-2.2,0.3-3.3,0.3c-3.4,0-6.3-0.8-8.9-2.5c0.7,0.1,1.3,0.1,1.7,0.1c2,0,3.9-0.3,5.8-0.8c1.8-0.6,3.5-1.4,5-2.4
		c1.6-1.1,2.8-2.5,3.6-4c0.8-1.5,1.3-3.1,1.3-4.8c0-1-0.1-1.9-0.4-2.9c1.6,0.9,2.9,2,3.8,3.3C35.3,15.9,35.8,17.3,35.8,18.9z"/>
</g>
</svg>
