<?xml version="1.0" encoding="utf-8"?>
<!-- Generator: Adobe Illustrator 16.0.0, SVG Export Plug-In . SVG Version: 6.00 Build 0)  -->
<!DOCTYPE svg PUBLIC "-//W3C//DTD SVG 1.1//EN" "http://www.w3.org/Graphics/SVG/1.1/DTD/svg11.dtd">
<svg version="1.1" xmlns="http://www.w3.org/2000/svg" xmlns:xlink="http://www.w3.org/1999/xlink" x="0px" y="0px" width="214px"
	 height="218px" viewBox="0 0 214 218" enable-background="new 0 0 214 218" xml:space="preserve">
<g id="Layer_1">
	<g id="Layer_2">
	</g>
	<path fill="#111111" d="M105.021,9.912c25.984-0.005,51.97,0.066,77.953-0.092c3.338-0.021,4.993,1.006,6.374,3.99
		c3.341,7.219,7.044,14.272,10.669,21.357c1.156,2.26,1.812,4.515,1.811,7.119c-0.039,43.592-0.065,87.184,0.126,130.775
		c0.019,4.127-1.327,4.863-5.016,4.759c-8.396-0.237-8.331-0.062-8.484,8.498c-0.028,1.565,1.087,3.43-1.294,4.778
		c-1.833,1.039,0.188,2.257,0.909,2.997c3.597,3.688,7.314,7.258,11.02,10.839c1.283,1.241,2.392,2.233,0.454,4.012
		c-1.75,1.606-3.07,1.168-4.067-0.438c-2.405-3.877-6.017-3.844-9.978-3.837c-54.402,0.09-108.805,0.108-163.207,0.007
		c-3.44-0.006-6.115,0.523-8.115,3.49c-1.293,1.92-2.822,2.486-4.774,0.461c-2.03-2.107,0.015-2.814,1.065-3.876
		c1.168-1.179,2.631-2.125,3.58-3.448c2.57-3.584,9.432-6.382,8.062-9.677c-1.813-4.358-0.619-8.192-1.289-12.16
		c-0.371-2.195-1.632-1.524-2.806-1.728c-3.473-0.6-8.177,1.895-10.172-1.2c-1.604-2.487-0.441-6.783-0.441-10.275
		c0.017-40.933,0.061-81.865,0.039-122.797c-0.001-3.056,0.455-5.819,1.939-8.584c3.76-7.007,7.442-14.072,10.735-21.306
		c1.322-2.905,2.864-3.748,5.952-3.733C52.385,9.972,78.703,9.917,105.021,9.912z M104.883,55.741
		c-29.32,0-58.64,0.085-87.958-0.104c-3.814-0.024-4.575,0.963-4.55,4.631c0.179,26.934,0.183,53.871,0.021,80.805
		c-0.021,3.741,0.938,4.718,4.686,4.661c15.156-0.23,30.318,0.004,45.477-0.172c3.321-0.039,4.201,0.963,4.074,4.179
		c-0.248,6.32,0.053,12.661-0.13,18.986c-0.081,2.825,0.343,4.552,3.695,3.972c0.97-0.167,2.015-0.151,2.991-0.002
		c4.328,0.66,5.877-0.685,5.838-5.48c-0.267-32.608-0.124-65.22-0.291-97.829c-0.02-3.788,0.809-5.134,4.879-5.057
		c13.988,0.265,27.986,0.26,41.975,0.021c4.01-0.069,4.943,1.163,4.922,5.041c-0.185,31.586-0.142,63.173-0.173,94.76
		c-0.009,8.715-0.016,8.529,8.651,8.614c3.26,0.032,3.869-1.064,3.762-3.99c-0.216-5.823,0.191-11.675-0.162-17.483
		c-0.265-4.342,0.779-5.897,5.541-5.783c14.651,0.352,29.318-0.006,43.975,0.209c3.616,0.053,4.762-0.637,4.736-4.542
		c-0.184-26.966-0.162-53.935,0.039-80.901c0.027-3.704-0.756-4.661-4.541-4.638C163.188,55.815,134.035,55.735,104.883,55.741z
		 M104.633,50.742c27.984,0,55.969,0,83.954,0c8.198,0,10.214-2.833,7.807-11.039c-0.278-0.95-0.773-1.841-1.214-2.737
		c-2.855-5.806-5.876-11.537-8.53-17.432c-1.574-3.495-3.708-4.651-7.649-4.636c-45.309,0.17-90.617,0.077-135.926,0.146
		c-5.963,0.009-13.162-2.324-17.555,0.785c-4.333,3.067-5.811,10.127-8.63,15.388c-2.521,4.702-4.8,9.283-4.56,14.998
		c0.161,3.833,1.245,4.624,4.852,4.606C46.331,50.68,75.482,50.741,104.633,50.742z M125.312,100.738
		c0-9.159-0.006-18.317,0.006-27.476c0.002-2.093,0.072-3.924-3.01-3.895c-11.822,0.112-23.646,0.072-35.467,0.007
		c-2.172-0.012-2.961,0.893-2.957,2.961c0.041,18.817,0.071,37.634,0.037,56.451c-0.005,2.389,0.9,3.134,3.267,3.114
		c11.489-0.096,22.98-0.113,34.47,0.023c2.84,0.034,3.746-0.871,3.7-3.71C125.209,119.057,125.303,109.896,125.312,100.738z
		 M104.049,172.649c5.934,0,11.869-0.092,17.8,0.043c2.459,0.056,3.604-0.508,3.567-3.271c-0.131-9.741-0.119-19.486-0.005-29.228
		c0.031-2.642-0.932-3.418-3.49-3.395c-11.642,0.106-23.284,0.123-34.925,0c-2.495-0.026-3.133,0.897-3.117,3.17
		c0.068,9.757,0.131,19.517-0.031,29.271c-0.052,3.071,1.293,3.541,3.899,3.468C93.178,172.557,98.615,172.663,104.049,172.649z
		 M185.566,200.212c0.109-0.466,0.217-0.933,0.324-1.4c-3.947-2.364-5.279-7.87-11.312-7.916c-25.87-0.199-51.747-0.13-77.614-0.262
		c-19.58-0.1-39.213,0.388-58.801,0.112c-7.449-0.105-10.682,3.884-15.557,9.466C77.809,200.212,131.688,200.212,185.566,200.212z
		 M172.639,150.648c-7.146,0-14.298,0.129-21.44-0.063c-2.89-0.077-3.669,0.917-3.556,3.674c0.202,4.979,0.17,9.974,0.027,14.957
		c-0.072,2.5,0.588,3.511,3.316,3.487c14.125-0.123,28.251-0.116,42.376-0.006c2.53,0.02,3.521-0.603,3.415-3.279
		c-0.19-4.813-0.279-9.653,0.023-14.454c0.214-3.373-0.551-4.614-4.221-4.427C185.949,150.876,179.288,150.633,172.639,150.648z
		 M36.646,172.641c7.148,0,14.297-0.081,21.442,0.044c2.485,0.043,3.605-0.564,3.509-3.307c-0.182-5.147-0.186-10.312,0.023-15.457
		c0.11-2.703-0.906-3.356-3.418-3.34c-14.297,0.096-28.596,0.09-42.893,0.03c-2.049-0.008-2.912,0.395-2.83,2.721
		c0.189,5.313,0.206,10.645-0.026,15.955c-0.132,3.009,1.102,3.493,3.753,3.424C23.016,172.536,29.832,172.653,36.646,172.641z
		 M104.739,186.048c0,0.011,0,0.022,0,0.033c20.449,0,40.899-0.131,61.345,0.116c3.877,0.047,3.777-1.677,3.682-4.368
		c-0.082-2.373,0.35-4.214-3.411-4.2c-41.038,0.159-82.079,0.149-123.117-0.02c-3.802-0.016-3.683,1.667-3.778,4.403
		c-0.108,3.04,0.567,4.152,3.941,4.124C63.846,185.961,84.293,186.048,104.739,186.048z M29.666,177.863
		c-3.874-1.31-3.731,1.204-3.998,4.226c-0.359,4.07,1.768,3.906,4.699,4.116c3.74,0.269,4.178-1.312,4.291-4.531
		C34.793,177.795,33.096,177.149,29.666,177.863z M183.438,182.295c0.312-2.751,0.485-5.199-3.518-4.619
		c-2.523,0.366-5.951-1.083-5.262,3.842c0.337,2.403-0.59,5.197,3.57,4.632C180.839,185.795,184.453,187.141,183.438,182.295z"/>
	<path fill="#F8F8F8" d="M104.883,55.738c29.152-0.003,58.306,0.077,87.457-0.101c3.785-0.023,4.568,0.934,4.541,4.638
		c-0.201,26.966-0.223,53.936-0.039,80.901c0.025,3.905-1.12,4.596-4.736,4.542c-14.656-0.215-29.323,0.143-43.975-0.209
		c-4.762-0.114-5.806,1.44-5.541,5.783c0.354,5.809-0.054,11.661,0.162,17.483c0.107,2.926-0.502,4.022-3.762,3.99
		c-8.667-0.085-8.66,0.101-8.651-8.614c0.031-31.587-0.012-63.174,0.173-94.76c0.021-3.877-0.912-5.109-4.922-5.041
		c-13.988,0.239-27.986,0.244-41.975-0.021c-4.07-0.077-4.898,1.27-4.879,5.057c0.167,32.609,0.024,65.221,0.291,97.829
		c0.039,4.795-1.51,6.14-5.838,5.48c-0.977-0.149-2.021-0.166-2.991,0.002c-3.353,0.58-3.776-1.147-3.695-3.972
		c0.183-6.325-0.118-12.666,0.13-18.986c0.127-3.216-0.753-4.218-4.074-4.179c-15.158,0.176-30.32-0.058-45.477,0.172
		c-3.748,0.057-4.707-0.92-4.686-4.661c0.161-26.934,0.157-53.871-0.021-80.805c-0.025-3.668,0.735-4.655,4.55-4.631
		C46.243,55.826,75.562,55.741,104.883,55.738z M142.703,100.615c0.006,0,0.012,0,0.016,0c0,10.985,0.095,21.971-0.067,32.954
		c-0.039,2.64,0.696,3.391,3.292,3.372c14.947-0.109,29.898-0.142,44.846-0.004c2.807,0.026,3.266-1.069,3.258-3.466
		c-0.072-21.907-0.107-43.814-0.016-65.721c0.012-2.71-0.936-3.284-3.421-3.269c-14.812,0.091-29.626,0.115-44.438-0.03
		c-2.936-0.028-3.572,0.948-3.532,3.709C142.795,78.977,142.703,89.796,142.703,100.615z M15.286,99.995c0.011,0,0.021,0,0.03,0
		c0,10.984,0.182,21.974-0.104,32.95c-0.091,3.507,1.124,4.007,4.155,3.98c14.443-0.126,28.889-0.129,43.331,0.021
		c2.976,0.031,3.957-0.61,3.935-3.814c-0.155-21.47-0.134-42.942-0.008-64.413c0.019-3.118-0.621-4.33-4.046-4.285
		c-14.478,0.188-28.96,0.225-43.437-0.015c-3.629-0.061-3.922,1.476-3.895,4.317C15.346,79.155,15.286,89.575,15.286,99.995z"/>
	<path fill="#D93F5F" d="M104.633,50.742c-29.15,0-58.302-0.062-87.451,0.079c-3.606,0.017-4.69-0.773-4.852-4.606
		c-0.24-5.714,2.039-10.296,4.56-14.998c2.819-5.261,4.297-12.321,8.63-15.388c4.393-3.109,11.592-0.775,17.555-0.785
		c45.309-0.07,90.617,0.023,135.926-0.146c3.941-0.015,6.075,1.141,7.649,4.636c2.654,5.896,5.675,11.626,8.53,17.432
		c0.44,0.896,0.936,1.788,1.214,2.737c2.407,8.206,0.392,11.039-7.807,11.039C160.602,50.742,132.617,50.742,104.633,50.742z
		 M104.112,42.02c10.159,0,20.317,0.033,30.477-0.016c4.271-0.021,10.227,1.416,12.347-0.777c2.211-2.287,0.469-8.175,0.925-12.439
		c0.457-4.27-1.218-5.303-5.251-5.271c-22.316,0.174-44.633,0.107-66.949,0.116c-15.542,0.006-15.492-0.003-14.233,15.673
		c0.188,2.335,0.796,2.839,3.217,2.803C77.797,41.917,90.955,42.018,104.112,42.02z M43.754,41.985
		c5.23-0.05,9.354-4.05,9.297-9.021c-0.057-5.006-4.628-9.398-9.722-9.341c-4.949,0.056-8.888,4.285-8.842,9.495
		C34.533,38.384,38.352,42.037,43.754,41.985z M174.697,32.801c-0.017-4.913-4.196-9.128-9.1-9.178
		c-5.186-0.053-9.281,4.232-9.189,9.613c0.088,5.194,3.962,8.79,9.387,8.713C171.1,41.874,174.715,38.16,174.697,32.801z"/>
	<path fill="#87D1E4" d="M125.309,100.738c-0.006,9.159-0.1,18.319,0.05,27.476c0.046,2.839-0.86,3.744-3.7,3.71
		c-11.489-0.136-22.98-0.119-34.47-0.023c-2.366,0.02-3.271-0.725-3.267-3.114c0.034-18.817,0.004-37.634-0.037-56.451
		c-0.004-2.069,0.785-2.974,2.957-2.961c11.821,0.065,23.645,0.105,35.467-0.007c3.082-0.029,3.012,1.801,3.01,3.895
		C125.307,82.421,125.312,91.579,125.309,100.738z"/>
	<path fill="#F8F8F8" d="M104.05,172.656c-5.435,0.007-10.872-0.099-16.303,0.053c-2.606,0.073-3.951-0.397-3.899-3.468
		c0.162-9.755,0.1-19.514,0.031-29.271c-0.016-2.273,0.622-3.197,3.117-3.17c11.641,0.123,23.283,0.106,34.925,0
		c2.559-0.023,3.521,0.753,3.49,3.395c-0.114,9.742-0.126,19.487,0.005,29.228c0.037,2.762-1.108,3.327-3.567,3.271
		C115.918,172.557,109.982,172.649,104.05,172.656z M115.656,154.456c0,1.713,0.09,3.046-0.021,4.362
		c-0.179,2.125,0.633,2.908,2.822,2.923c2.365,0.017,2.197-1.368,2.159-2.912c-0.034-1.324,0.294-2.741-0.073-3.957
		c-0.68-2.259,2.402-6.487-2.359-6.541C113.248,148.277,116.943,152.789,115.656,154.456z"/>
	<path fill="#F8F8F8" d="M185.566,200.212c-53.879,0-107.758,0-162.959,0c4.875-5.583,8.107-9.572,15.557-9.466
		c19.588,0.276,39.221-0.211,58.801-0.112c25.867,0.132,51.744,0.063,77.614,0.262c6.032,0.046,7.364,5.552,11.312,7.916
		C185.783,199.279,185.676,199.746,185.566,200.212z"/>
	<path fill="#FCFCFC" d="M172.639,150.641c6.649-0.007,13.311,0.236,19.941-0.104c3.67-0.188,4.435,1.054,4.221,4.427
		c-0.303,4.801-0.214,9.641-0.023,14.454c0.105,2.676-0.885,3.298-3.415,3.279c-14.125-0.109-28.251-0.116-42.376,0.006
		c-2.729,0.023-3.389-0.987-3.316-3.487c0.143-4.982,0.175-9.978-0.027-14.957c-0.113-2.757,0.666-3.751,3.556-3.674
		C158.341,150.777,165.492,150.648,172.639,150.641z"/>
	<path fill="#FCFCFC" d="M36.646,172.647c-6.814,0.006-13.631-0.111-20.439,0.065c-2.651,0.068-3.885-0.415-3.753-3.424
		c0.232-5.31,0.216-10.642,0.026-15.955c-0.082-2.327,0.781-2.729,2.83-2.721c14.297,0.06,28.596,0.065,42.893-0.03
		c2.512-0.017,3.528,0.637,3.418,3.34c-0.209,5.146-0.205,10.31-0.023,15.457c0.097,2.743-1.023,3.351-3.509,3.307
		C50.943,172.56,43.795,172.641,36.646,172.647z"/>
	<path fill="#FEFEFE" d="M104.739,186.048c-20.446,0-40.894-0.087-61.339,0.087c-3.374,0.029-4.05-1.083-3.941-4.124
		c0.096-2.736-0.023-4.418,3.778-4.403c41.038,0.168,82.079,0.179,123.117,0.02c3.761-0.015,3.329,1.827,3.411,4.2
		c0.096,2.691,0.195,4.415-3.682,4.368c-20.445-0.247-40.896-0.116-61.345-0.116C104.739,186.07,104.739,186.06,104.739,186.048z"/>
	<path fill="#F8F8F8" d="M29.666,177.863c3.43-0.714,5.127-0.068,4.992,3.811c-0.113,3.219-0.551,4.8-4.291,4.531
		c-2.932-0.21-5.059-0.046-4.699-4.116C25.935,179.067,25.792,176.554,29.666,177.863z"/>
	<path fill="#F8F8F8" d="M183.438,182.295c1.016,4.846-2.599,3.5-5.209,3.855c-4.16,0.565-3.233-2.229-3.57-4.632
		c-0.689-4.925,2.738-3.476,5.262-3.842C183.923,177.096,183.75,179.544,183.438,182.295z"/>
	<path fill="#111111" d="M142.703,100.615c0-10.818,0.092-21.638-0.063-32.455c-0.04-2.761,0.597-3.737,3.532-3.709
		c14.812,0.145,29.626,0.121,44.438,0.03c2.485-0.015,3.433,0.558,3.421,3.269c-0.092,21.906-0.057,43.814,0.016,65.721
		c0.008,2.396-0.451,3.492-3.258,3.466c-14.947-0.138-29.898-0.105-44.846,0.004c-2.596,0.019-3.331-0.731-3.292-3.372
		c0.162-10.982,0.067-21.969,0.067-32.954C142.715,100.615,142.709,100.615,142.703,100.615z M147.791,100.612
		c-0.006,0-0.014,0-0.021,0c0,8.988,0.091,17.977-0.051,26.962c-0.048,3.027,0.509,4.481,4.063,4.407
		c11.264-0.237,22.537-0.215,33.803-0.05c3.191,0.046,3.42-1.465,3.411-3.952c-0.062-18.122-0.094-36.245,0.022-54.366
		c0.021-3.147-0.836-4.391-4.164-4.336c-10.98,0.183-21.969,0.249-32.947,0.037c-3.482-0.067-4.219,1.225-4.168,4.336
		C147.885,82.635,147.791,91.624,147.791,100.612z"/>
	<path fill="#111111" d="M15.286,99.995c0-10.42,0.06-20.84-0.038-31.259c-0.027-2.841,0.266-4.378,3.895-4.317
		c14.477,0.24,28.959,0.203,43.437,0.015c3.425-0.044,4.064,1.167,4.046,4.285c-0.126,21.471-0.147,42.943,0.008,64.413
		c0.022,3.205-0.959,3.845-3.935,3.814c-14.442-0.15-28.888-0.146-43.331-0.021c-3.031,0.026-4.246-0.474-4.155-3.98
		c0.286-10.977,0.104-21.966,0.104-32.95C15.307,99.995,15.297,99.995,15.286,99.995z M20.3,100.369c-0.006,0-0.012,0-0.019,0
		c0,9.315-0.007,18.63,0.008,27.945c0.002,1.787-0.399,3.648,2.601,3.613c11.747-0.14,23.497-0.166,35.245-0.042
		c2.682,0.028,3.426-0.846,3.41-3.417c-0.11-18.465-0.15-36.931-0.086-55.396c0.01-2.771-0.822-3.791-3.666-3.758
		c-11.311,0.131-22.625,0.164-33.936,0.026c-2.918-0.036-3.652,0.997-3.609,3.744C20.387,82.177,20.3,91.274,20.3,100.369z"/>
	<path fill="#111111" d="M104.112,42.019c-13.157-0.001-26.315-0.102-39.469,0.09c-2.421,0.036-3.029-0.468-3.217-2.803
		C60.168,23.63,60.118,23.639,75.66,23.633c22.316-0.009,44.633,0.058,66.949-0.116c4.033-0.032,5.708,1.001,5.251,5.271
		c-0.456,4.264,1.286,10.152-0.925,12.439c-2.12,2.193-8.076,0.756-12.347,0.777C124.43,42.053,114.271,42.02,104.112,42.019z
		 M104.496,28.728c-11.492,0-22.992,0.261-34.471-0.132c-4.386-0.15-3.232,2.32-3.477,4.617c-0.303,2.837,0.315,4.022,3.641,3.997
		c22.981-0.174,45.967-0.229,68.948-0.001c4.19,0.042,3.377-2.214,3.603-4.649c0.277-2.976-0.559-3.987-3.771-3.926
		C127.481,28.851,115.987,28.718,104.496,28.728z"/>
	<path fill="#111111" d="M43.754,41.985c-5.402,0.052-9.221-3.601-9.267-8.867c-0.046-5.209,3.893-9.438,8.842-9.495
		c5.094-0.058,9.665,4.334,9.722,9.341C53.107,37.935,48.984,41.936,43.754,41.985z M47.707,32.378
		c-0.256-2.059-1.284-3.643-4.023-3.644c-3.07-0.001-4.074,1.875-4.061,4.487c0.015,2.694,1.776,3.85,4.25,3.748
		C46.432,36.865,47.748,35.357,47.707,32.378z"/>
	<path fill="#111111" d="M174.697,32.801c0.018,5.359-3.598,9.073-8.902,9.148c-5.425,0.077-9.299-3.519-9.387-8.713
		c-0.092-5.381,4.004-9.666,9.189-9.613C170.501,23.673,174.681,27.888,174.697,32.801z M166.084,37.01
		c2.176-0.299,3.68-1.472,3.566-4.189c-0.105-2.563-1.271-4.028-3.96-4.084c-3.024-0.063-4.175,1.647-4.144,4.397
		C161.578,35.88,163.327,36.856,166.084,37.01z"/>
	<path fill="#111111" d="M115.656,154.456c1.287-1.667-2.408-6.179,2.527-6.123c4.762,0.054,1.68,4.281,2.359,6.541
		c0.367,1.215,0.039,2.632,0.073,3.957c0.038,1.543,0.206,2.929-2.159,2.912c-2.189-0.015-3.001-0.798-2.822-2.923
		C115.746,157.502,115.656,156.169,115.656,154.456z"/>
	<path fill="#87D1E4" d="M147.791,100.612c0-8.988,0.094-17.977-0.051-26.962c-0.051-3.112,0.686-4.404,4.168-4.336
		c10.979,0.212,21.967,0.146,32.947-0.037c3.328-0.055,4.185,1.188,4.164,4.336c-0.116,18.122-0.084,36.244-0.022,54.366
		c0.009,2.487-0.22,3.999-3.411,3.952c-11.266-0.165-22.539-0.187-33.803,0.05c-3.555,0.075-4.111-1.379-4.063-4.407
		c0.142-8.985,0.051-17.975,0.051-26.962C147.777,100.612,147.785,100.612,147.791,100.612z"/>
	<path fill="#87D1E4" d="M20.3,100.369c0-9.095,0.087-18.192-0.052-27.285c-0.043-2.747,0.691-3.779,3.609-3.744
		c11.311,0.137,22.625,0.104,33.936-0.026c2.844-0.033,3.676,0.987,3.666,3.758c-0.064,18.465-0.024,36.931,0.086,55.396
		c0.016,2.571-0.729,3.445-3.41,3.417c-11.748-0.124-23.498-0.098-35.245,0.042c-3,0.036-2.599-1.826-2.601-3.613
		c-0.015-9.315-0.008-18.63-0.008-27.945C20.288,100.369,20.294,100.369,20.3,100.369z"/>
	<path fill="#FEFEFE" d="M104.496,28.723c11.491-0.005,22.985,0.128,34.473-0.091c3.213-0.061,4.049,0.95,3.771,3.926
		c-0.226,2.436,0.588,4.691-3.603,4.649c-22.981-0.227-45.967-0.173-68.948,0.001c-3.325,0.025-3.943-1.159-3.641-3.997
		c0.244-2.296-0.909-4.767,3.477-4.617C81.504,28.989,93.004,28.728,104.496,28.723z"/>
	<path fill="#F8F8F8" d="M47.707,32.378c0.041,2.979-1.275,4.487-3.834,4.592c-2.474,0.102-4.235-1.054-4.25-3.748
		c-0.014-2.612,0.99-4.488,4.061-4.487C46.423,28.735,47.451,30.319,47.707,32.378z"/>
	<path fill="#F8F8F8" d="M166.084,37.01c-2.757-0.154-4.506-1.13-4.537-3.876c-0.031-2.75,1.119-4.46,4.144-4.397
		c2.688,0.056,3.854,1.521,3.96,4.084C169.764,35.538,168.26,36.711,166.084,37.01z"/>
</g>
<g id="Layer_3">
</g>
</svg>
