<?xml version="1.0" encoding="utf-8"?>
<!-- Generator: Adobe Illustrator 16.0.0, SVG Export Plug-In . SVG Version: 6.00 Build 0)  -->
<!DOCTYPE svg PUBLIC "-//W3C//DTD SVG 1.1//EN" "http://www.w3.org/Graphics/SVG/1.1/DTD/svg11.dtd">
<svg version="1.1" xmlns="http://www.w3.org/2000/svg" xmlns:xlink="http://www.w3.org/1999/xlink" x="0px" y="0px"
	 width="40.978px" height="29.942px" viewBox="0 0 40.978 29.942" enable-background="new 0 0 40.978 29.942" xml:space="preserve">
<g id="Layer_1">
	<g id="Layer_2">
	</g>
	<g id="xfgvVN_11_">
		<g>
			<path fill="#FFFFFF" d="M5.092,6.514c0.031-0.143,0.062-0.285,0.1-0.452c3.467,2.965,6.924,5.922,10.396,8.893
				c-3.459,3.326-6.905,6.64-10.367,9.969c-0.046-0.151-0.087-0.288-0.128-0.425C5.092,18.504,5.092,12.509,5.092,6.514z"/>
			<path fill="#FFFFFF" d="M36.916,24.56c-0.029,0.115-0.061,0.231-0.097,0.363c-3.46-3.327-6.907-6.642-10.368-9.969
				c3.462-2.971,6.908-5.928,10.371-8.898c0.035,0.123,0.064,0.229,0.094,0.335C36.916,12.448,36.916,18.504,36.916,24.56z"/>
			<path fill="#FFFFFF" d="M6.465,4.816c0.151-0.03,0.268-0.058,0.385-0.075c0.07-0.01,0.144-0.006,0.215-0.006
				c9.293-0.001,18.584-0.001,27.877,0.002c0.195,0,0.392,0.037,0.588,0.056c0.004,0.017,0.008,0.032,0.012,0.049
				c-0.039,0.035-0.076,0.072-0.115,0.105c-3.072,2.63-6.135,5.27-9.22,7.884c-1.704,1.443-3.444,2.845-5.181,4.275
				c-0.201-0.164-0.396-0.326-0.594-0.485c-4.275-3.422-8.383-7.043-12.553-10.59C7.471,5.683,7.062,5.333,6.654,4.984
				C6.602,4.938,6.549,4.891,6.465,4.816z"/>
			<path fill="#FFFFFF" d="M16.969,16.089c1.355,1.1,2.697,2.188,4.051,3.284c1.348-1.093,2.692-2.183,4.051-3.284
				c3.481,3.339,6.961,6.677,10.474,10.044c-0.153,0.031-0.271,0.059-0.389,0.077c-0.069,0.01-0.143,0.007-0.214,0.007
				c-9.287,0-18.574,0.001-27.861-0.002c-0.181,0-0.361-0.035-0.541-0.054c-0.005-0.019-0.01-0.037-0.016-0.056
				C10.002,22.77,13.48,19.433,16.969,16.089z"/>
		</g>
	</g>
</g>
<g id="Layer_3">
</g>
</svg>
