<?xml version="1.0" encoding="utf-8"?>
<!-- Generator: Adobe Illustrator 16.0.0, SVG Export Plug-In . SVG Version: 6.00 Build 0)  -->
<!DOCTYPE svg PUBLIC "-//W3C//DTD SVG 1.1//EN" "http://www.w3.org/Graphics/SVG/1.1/DTD/svg11.dtd">
<svg version="1.1" xmlns="http://www.w3.org/2000/svg" xmlns:xlink="http://www.w3.org/1999/xlink" x="0px" y="0px"
	 width="39.126px" height="34.278px" viewBox="0 0 39.126 34.278" enable-background="new 0 0 39.126 34.278" xml:space="preserve">
<g id="Layer_1">
	<g id="Layer_2">
	</g>
	<path fill="#FFFFFF" d="M34.9,7.086c-1.184,0.525-2.457,0.88-3.793,1.04c1.364-0.817,2.411-2.111,2.904-3.653
		c-1.275,0.757-2.689,1.306-4.193,1.603C28.614,4.792,26.898,3.99,25,3.99c-3.646,0-6.604,2.956-6.604,6.602
		c0,0.518,0.059,1.021,0.172,1.505C13.08,11.821,8.215,9.193,4.959,5.198C4.391,6.174,4.064,7.308,4.064,8.518
		c0,2.291,1.166,4.312,2.938,5.496c-1.082-0.035-2.1-0.332-2.99-0.826c0,0.027-0.001,0.055-0.001,0.083
		c0,3.199,2.276,5.867,5.297,6.474c-0.554,0.151-1.138,0.231-1.739,0.231c-0.426,0-0.84-0.041-1.242-0.118
		c0.84,2.623,3.278,4.532,6.167,4.586c-2.259,1.771-5.106,2.826-8.2,2.826c-0.533,0-1.059-0.031-1.574-0.093
		c2.922,1.874,6.393,2.967,10.121,2.967c12.145,0,18.785-10.061,18.785-18.786c0-0.286-0.006-0.57-0.02-0.854
		C32.896,9.573,34.016,8.41,34.9,7.086z"/>
</g>
<g id="Layer_3">
</g>
</svg>
