<?xml version="1.0" encoding="utf-8"?>
<!-- Generator: Adobe Illustrator 19.1.0, SVG Export Plug-In . SVG Version: 6.00 Build 0)  -->
<!DOCTYPE svg PUBLIC "-//W3C//DTD SVG 1.1//EN" "http://www.w3.org/Graphics/SVG/1.1/DTD/svg11.dtd">
<svg version="1.1" id="Layer_1" xmlns="http://www.w3.org/2000/svg" xmlns:xlink="http://www.w3.org/1999/xlink" x="0px" y="0px"
	 viewBox="0 0 35 35" enable-background="new 0 0 35 35" xml:space="preserve">
<g>
	<g>
		<path fill="#FFFFFF" d="M34.1,9.3L31.8,7C30.7,8,29,8,27.9,7c-1.1-1.1-1.1-2.8,0-3.8l-2.3-2.3c-0.9-0.9-2.2-0.8-3,0.1L0.8,22.6
			c-0.9,0.9-0.9,2.2-0.1,3L3.1,28c1.1-1.1,2.8-1.1,3.8,0C8,29,8,30.7,6.9,31.8l2.3,2.3c0.9,0.9,2.3,0.9,3.2,0.1l21.7-21.7
			C35,11.6,35,10.2,34.1,9.3z"/>
	</g>
</g>
</svg>
