<svg xmlns="http://www.w3.org/2000/svg" width="240" height="252" viewBox="0 0 240 252"><g><g><path fill="#D93F5F" d="M228.91 120.924c.01 1-.32 1.86-.96 2.5-.75.76-1.91 1.18-3.26 1.18h-1.97c-7.37.01-14.74.02-22.11-.01-2.02-.01-3.54-1.27-3.78-3.15-.23-1.8.85-3.46 2.56-3.94.5-.14 1.12-.158 1.71-.17 1.88-.01 3.75-.01 5.63-.01l6.19.01 7.2-.01c1.54 0 3.09 0 4.63.01 2.51.01 4.15 1.42 4.16 3.59zM198.51 196.055c.06.13.11.25.16.37-.18 2.32-.97 3.17-2.11 3.71-1.39.66-2.66.5-3.87-.5-.61-.5-1.18-1.09-1.78-1.71-.22-.23-.45-.45-.67-.68-5.25-5.25-10.5-10.49-15.74-15.75-1.18-1.18-1.49-2.44-.96-3.94.5-1.39 1.48-2.16 3.022-2.35.16-.02.33-.03.49-.03.93 0 1.728.34 2.43 1.04l2.71 2.69c5.04 5.03 10.26 10.22 15.31 15.39.437.45.758 1.18 1.008 1.76zM198.03 41.145c1.49 1.49 1.41 3.67-.19 5.29-2.25 2.29-4.53 4.56-6.81 6.83l-5.82 5.82c-1.98 1.97-3.95 3.94-5.92 5.92-.9.9-1.82 1.29-3.08 1.29-1.36-.08-2.37-.78-2.99-2.08-.63-1.29-.51-2.48.37-3.74.11-.16.27-.32.39-.45l4.8-4.8c4.69-4.69 9.37-9.38 14.08-14.05.74-.73 1.67-1.14 2.62-1.14.94 0 1.85.39 2.55 1.11z"/><path d="M173.75 112.044c1.83 10.91.14 21.72-5.02 32.09-2.6 5.22-5.51 10.44-8.33 15.47-1.12 2.01-2.25 4.05-3.36 6.07-2.86 5.2-5.81 10.63-7.08 16.83-.58 2.83-.7 5.8-.79 8.99-.1 3.76-1.23 5.1-4.82 5.1h-33.5l-18.17-.2c-1.69 0-2.91-.58-3.62-1.33-.67-.7-.97-1.82-.9-3.33.3-6.26-1.23-12.37-4.52-18.16-2.18-3.81-4.47-7.63-6.68-11.32-1.64-2.728-3.28-5.46-4.89-8.21-4.96-8.488-7.89-15.93-9.24-23.408-4.64-25.69 9.49-51.57 33.59-61.55 7.03-2.91 14.37-4.38 21.81-4.38 27.57-.002 50.92 19.908 55.52 47.338zm-12.02 29.83c4.44-8.76 6.13-17.39 5.15-26.36-2.65-24.43-24.01-43.57-48.63-43.57-3.12 0-6.26.31-9.34.93-14.642 2.92-27 12.022-33.92 24.99-6.87 12.88-7.562 28.11-1.882 41.79 1.62 3.9 3.71 7.62 5.73 11.24.75 1.34 1.51 2.67 2.24 4.03.68 1.27 1.46 2.47 2.22 3.64.37.59.74 1.13 1.11 1.72 5.08 8.26 10.34 16.73 11.01 27.08l.1 1.23h34.99c.81 0 1.63.16 2.44.16 1.98-.01 3.96.15 5.93.2l.19.01c1.88 0 2.93-1.07 2.94-3 .01-1.02.19-2.06.39-3.17l.02-.12c1.26-7.16 4.46-13.66 7.72-19.62 1.24-2.24 2.49-4.47 3.74-6.71 2.642-4.7 5.362-9.57 7.852-14.47z"/><path fill="#87D1E4" d="M166.88 115.515c.98 8.97-.71 17.6-5.15 26.36-2.49 4.9-5.21 9.77-7.85 14.47-1.25 2.24-2.5 4.47-3.74 6.71-3.26 5.96-6.46 12.46-7.72 19.62l-.02.12c-.2 1.11-.38 2.15-.39 3.17-.01 1.93-1.062 3-2.94 3l-.19-.01c-1.97-.05-3.95-.21-5.93-.2-.81 0-1.63-.16-2.44-.16H95.52l-.1-1.23c-.67-10.35-5.93-18.82-11.01-27.08-.37-.59-.74-1.13-1.11-1.72-.76-1.17-1.54-2.37-2.22-3.64-.73-1.36-1.49-2.69-2.24-4.03-2.02-3.62-4.11-7.34-5.73-11.24-5.68-13.68-4.99-28.91 1.88-41.79 6.92-12.97 19.28-22.07 33.92-24.99 3.08-.62 6.22-.93 9.34-.93 24.62 0 45.98 19.14 48.63 43.57zm-25.74-13.19c1.4-.76 2.16-2.24 1.84-3.59-.22-.92-.77-1.92-1.41-2.53-6.54-6.33-14.33-9.34-24.5-9.49-.34.04-.75.08-1.21.13-1.34.13-3.16.31-4.89.7-17.22 3.86-28.41 19.99-26.02 37.53.98 7.25 4.16 13.64 9.43 18.97 1.13 1.14 2.36 1.43 3.81.92 1.4-.49 2.19-1.47 2.41-3 .17-1.22-.28-2.22-1.66-3.69-8.01-8.55-9.34-21.57-3.22-31.66 4.71-7.78 13.34-12.62 22.5-12.62 2.36 0 4.71.32 6.99.95 4.31 1.19 8.23 3.45 11.63 6.71 1.23 1.18 2.89 1.43 4.3.67z"/><path d="M142.47 210.555c1.79.38 2.98 2 2.83 3.87-.16 1.88-1.67 3.22-3.59 3.25-1.88.02-3.75-.01-5.62-.01l-7.45-.07h-10.03l-13.13.08c-3.18 0-6.37.07-9.55.06-2.23-.01-3.81-1.33-3.93-3.32-.13-2.1 1.3-3.71 3.4-3.87.27-.03.55.05.82.05h18.34c8.69 0 17.39-.08 26.17-.07.6 0 1.22-.08 1.74.03z"/><path fill="#fff" d="M142.98 98.734c.32 1.35-.44 2.83-1.84 3.59-1.41.76-3.07.51-4.3-.67-3.4-3.26-7.32-5.52-11.63-6.71-2.28-.63-4.63-.95-6.99-.95-9.16 0-17.79 4.84-22.5 12.62-6.12 10.09-4.79 23.11 3.22 31.66 1.38 1.47 1.83 2.47 1.66 3.69-.22 1.53-1.01 2.51-2.41 3-1.45.51-2.68.22-3.81-.92-5.272-5.33-8.45-11.72-9.432-18.97-2.39-17.54 8.8-33.67 26.02-37.53 1.73-.39 3.55-.57 4.89-.7.462-.05.872-.09 1.212-.13 10.17.15 17.96 3.16 24.5 9.49.64.61 1.19 1.61 1.41 2.53z"/><path d="M132.3 231.004c2.35.01 3.99 1.5 3.98 3.64 0 2.12-1.64 3.61-3.99 3.62-1.89.01-3.78.01-5.67.01l-8.02-.01-7.96.01c-1.86 0-3.72 0-5.58-.01-2.39-.01-4.02-1.45-4.05-3.58-.02-1 .31-1.87.95-2.52.74-.74 1.84-1.16 3.11-1.16 9.08-.01 18.15-.01 27.23 0z"/><path fill="#D93F5F" d="M121.79 14.805c.01 8.27-.03 16.55-.05 24.82-.01 2.46-1.74 4.05-3.74 4.05l.16.21c-2.16-.02-3.36-1.81-3.37-4.24-.02-2.89.21-5.77.21-8.66v-3.75l-.22-3.76c-.01-2.88-.23-5.76-.23-8.65.01-2.48 1.45-4.15 3.62-4.15s3.61 1.66 3.62 4.13zM62.7 175.254c1.46.91 2.1 2.62 1.54 4.17-.2.56-.53 1.11-.92 1.52l-.35.37c-6.03 6.36-12.26 12.94-18.48 19.31-.47.472-1.24.812-1.86 1.07-.14.06-.26.11-.38.17-2.36-.18-3.21-1-3.72-2.16-.66-1.5-.42-2.818.73-4.05 2.46-2.62 4.95-5.22 7.44-7.82l4.898-5.13c2.18-2.29 4.42-4.648 6.67-6.93.68-.7 1.57-1.08 2.51-1.08.67 0 1.342.19 1.922.56zM62.82 60.464c.76.77 1.18 1.73 1.17 2.72-.01.95-.41 1.86-1.13 2.55-1.42 1.38-3.71 1.3-5.2-.18-5.36-5.32-11.04-11-17.86-17.85-1.17-1.18-1.48-2.68-.85-4.12.54-1.23 1.74-2.1 3.33-2.43.24.12.49.24.74.35.72.33 1.4.63 1.82 1.05 5.73 5.59 11.33 11.2 17.98 17.91zM40.44 120.324c.31 1.61-.59 3.29-2.1 3.91-.53.22-1.18.35-1.78.35-7.94.04-15.88.04-23.81.02-2.28-.01-3.88-1.49-3.91-3.6-.02-1 .32-1.88.95-2.53.71-.72 1.77-1.13 2.97-1.13 1.59-.02 3.17-.02 4.76-.02l7.22.03c1.22 0 2.44-.01 3.66-.01 2.91-.01 5.81-.03 8.72.03 1.63.02 2.99 1.24 3.32 2.95z"/></g></g></svg>