<?xml version="1.0" encoding="utf-8"?>
<!-- Generator: Adobe Illustrator 16.0.0, SVG Export Plug-In . SVG Version: 6.00 Build 0)  -->
<!DOCTYPE svg PUBLIC "-//W3C//DTD SVG 1.1//EN" "http://www.w3.org/Graphics/SVG/1.1/DTD/svg11.dtd">
<svg version="1.1" xmlns="http://www.w3.org/2000/svg" xmlns:xlink="http://www.w3.org/1999/xlink" x="0px" y="0px" width="240px"
	 height="252px" viewBox="0 0 240 252" enable-background="new 0 0 240 252" xml:space="preserve">
<g id="Layer_1">
	<g id="Layer_2">
	</g>
	<g>
		<g id="XMLID_2_">
			<g>
				<path fill="#D93F5F" d="M228.91,120.924c0.01,1-0.32,1.86-0.961,2.5c-0.749,0.761-1.909,1.181-3.26,1.181h-1.97
					c-7.37,0.01-14.739,0.02-22.11-0.01c-2.02-0.011-3.539-1.271-3.779-3.15c-0.23-1.8,0.85-3.46,2.561-3.94
					c0.5-0.14,1.119-0.159,1.709-0.17c1.881-0.01,3.75-0.01,5.631-0.01l6.189,0.01l7.2-0.01c1.54,0,3.09,0,4.63,0.01
					C227.26,117.345,228.9,118.754,228.91,120.924z"/>
				<path fill="#D93F5F" d="M198.51,196.055c0.061,0.13,0.11,0.25,0.16,0.369c-0.18,2.32-0.97,3.171-2.109,3.711
					c-1.391,0.659-2.66,0.5-3.871-0.5c-0.609-0.5-1.18-1.091-1.779-1.711c-0.221-0.229-0.45-0.449-0.67-0.68
					c-5.25-5.25-10.5-10.49-15.74-15.75c-1.18-1.18-1.49-2.439-0.96-3.939c0.5-1.391,1.479-2.16,3.021-2.351
					c0.159-0.02,0.33-0.03,0.489-0.03c0.931,0,1.729,0.341,2.431,1.04l2.709,2.69c5.041,5.03,10.26,10.22,15.311,15.39
					C197.939,194.744,198.26,195.475,198.51,196.055z"/>
				<path fill="#D93F5F" d="M198.029,41.145c1.49,1.49,1.41,3.67-0.189,5.29c-2.25,2.29-4.529,4.56-6.811,6.83l-5.819,5.819
					c-1.979,1.971-3.95,3.94-5.92,5.92c-0.899,0.9-1.82,1.29-3.08,1.29c-1.36-0.08-2.37-0.779-2.99-2.08
					c-0.63-1.29-0.51-2.479,0.37-3.739c0.11-0.16,0.27-0.32,0.391-0.45l4.799-4.8c4.69-4.69,9.371-9.38,14.08-14.051
					c0.74-0.729,1.67-1.14,2.621-1.14C196.42,40.034,197.33,40.424,198.029,41.145z"/>
				<path d="M173.75,112.044c1.83,10.91,0.141,21.721-5.02,32.091c-2.601,5.22-5.511,10.439-8.33,15.47
					c-1.121,2.01-2.25,4.05-3.36,6.069c-2.86,5.2-5.81,10.631-7.08,16.83c-0.58,2.83-0.7,5.801-0.79,8.99
					c-0.1,3.76-1.23,5.101-4.82,5.101h-33.5l-18.17-0.2c-1.689,0-2.91-0.58-3.619-1.33c-0.67-0.7-0.971-1.82-0.9-3.33
					c0.3-6.26-1.23-12.37-4.52-18.16c-2.181-3.81-4.471-7.63-6.681-11.32c-1.64-2.729-3.28-5.46-4.89-8.21
					c-4.961-8.489-7.891-15.93-9.24-23.409c-4.641-25.69,9.49-51.57,33.59-61.551c7.029-2.91,14.37-4.38,21.811-4.38
					C145.801,64.704,169.15,84.614,173.75,112.044z M161.73,141.874c4.439-8.76,6.129-17.39,5.149-26.359
					c-2.649-24.431-24.01-43.57-48.63-43.57c-3.12,0-6.26,0.31-9.34,0.93c-14.641,2.92-27,12.021-33.92,24.99
					c-6.87,12.88-7.561,28.11-1.881,41.79c1.621,3.9,3.711,7.62,5.73,11.24c0.75,1.34,1.51,2.67,2.24,4.029
					c0.68,1.271,1.46,2.471,2.221,3.641c0.369,0.59,0.739,1.13,1.109,1.72c5.08,8.26,10.34,16.73,11.01,27.08l0.1,1.23h34.99
					c0.811,0,1.631,0.159,2.439,0.159c1.98-0.01,3.961,0.15,5.931,0.2l0.19,0.01c1.879,0,2.93-1.069,2.939-3
					c0.01-1.02,0.19-2.06,0.391-3.17l0.02-0.12c1.26-7.159,4.46-13.659,7.721-19.619c1.239-2.24,2.489-4.471,3.739-6.71
					C156.52,151.645,159.24,146.774,161.73,141.874z"/>
				<path fill="#87D1E4" d="M166.88,115.515c0.979,8.97-0.71,17.6-5.149,26.359c-2.49,4.9-5.211,9.771-7.851,14.471
					c-1.25,2.239-2.5,4.47-3.739,6.71c-3.261,5.96-6.461,12.46-7.721,19.619l-0.02,0.12c-0.2,1.11-0.381,2.15-0.391,3.17
					c-0.01,1.931-1.061,3-2.939,3l-0.19-0.01c-1.97-0.05-3.95-0.21-5.931-0.2c-0.809,0-1.629-0.159-2.439-0.159H95.52l-0.1-1.23
					c-0.67-10.35-5.93-18.82-11.01-27.08c-0.37-0.59-0.74-1.13-1.109-1.72c-0.761-1.17-1.541-2.37-2.221-3.641
					c-0.73-1.359-1.49-2.689-2.24-4.029c-2.02-3.62-4.109-7.34-5.73-11.24c-5.68-13.68-4.989-28.91,1.881-41.79
					c6.92-12.97,19.279-22.07,33.92-24.99c3.08-0.62,6.22-0.93,9.34-0.93C142.87,71.944,164.23,91.084,166.88,115.515z
					 M141.141,102.324c1.399-0.76,2.16-2.24,1.84-3.59c-0.221-0.92-0.771-1.92-1.41-2.53c-6.541-6.33-14.33-9.34-24.5-9.49
					c-0.34,0.04-0.75,0.08-1.211,0.131c-1.34,0.13-3.159,0.31-4.89,0.699c-17.22,3.86-28.409,19.99-26.021,37.53
					c0.98,7.25,4.16,13.64,9.431,18.97c1.13,1.141,2.36,1.431,3.81,0.92c1.4-0.489,2.19-1.47,2.41-3
					c0.17-1.22-0.279-2.22-1.66-3.689c-8.01-8.55-9.34-21.57-3.22-31.66c4.71-7.78,13.341-12.62,22.5-12.62
					c2.36,0,4.71,0.32,6.99,0.95c4.31,1.19,8.229,3.45,11.63,6.71C138.07,102.834,139.73,103.084,141.141,102.324z"/>
				<path d="M142.47,210.555c1.79,0.38,2.979,2,2.831,3.869c-0.16,1.881-1.671,3.221-3.591,3.25c-1.88,0.021-3.75-0.01-5.62-0.01
					l-7.449-0.069h-10.031l-13.129,0.079c-3.18,0-6.371,0.07-9.551,0.061c-2.229-0.01-3.81-1.33-3.93-3.32
					c-0.13-2.1,1.301-3.71,3.4-3.87c0.27-0.029,0.549,0.051,0.819,0.051h0.49h17.851c8.689,0,17.389-0.08,26.17-0.07
					C141.33,210.524,141.949,210.444,142.47,210.555z"/>
				<path fill="#FFFFFF" d="M142.98,98.734c0.32,1.35-0.44,2.83-1.84,3.59c-1.41,0.76-3.07,0.51-4.301-0.67
					c-3.4-3.26-7.32-5.52-11.63-6.71c-2.28-0.63-4.63-0.95-6.99-0.95c-9.159,0-17.79,4.84-22.5,12.62
					c-6.12,10.09-4.79,23.11,3.22,31.66c1.381,1.47,1.83,2.47,1.66,3.689c-0.22,1.53-1.01,2.511-2.41,3
					c-1.449,0.511-2.68,0.221-3.81-0.92c-5.271-5.33-8.45-11.72-9.431-18.97c-2.389-17.54,8.801-33.67,26.021-37.53
					c1.73-0.39,3.55-0.569,4.89-0.699c0.461-0.051,0.871-0.091,1.211-0.131c10.17,0.15,17.959,3.16,24.5,9.49
					C142.21,96.814,142.76,97.814,142.98,98.734z"/>
				<path d="M132.301,231.004c2.35,0.011,3.989,1.5,3.979,3.641c0,2.12-1.639,3.609-3.989,3.62c-1.89,0.01-3.78,0.01-5.67,0.01
					l-8.021-0.01l-7.959,0.01c-1.861,0-3.721,0-5.58-0.01c-2.391-0.011-4.021-1.45-4.051-3.58c-0.02-1,0.311-1.87,0.95-2.521
					c0.74-0.74,1.841-1.16,3.11-1.16C114.15,230.994,123.22,230.994,132.301,231.004z"/>
				<path fill="#D93F5F" d="M121.79,14.805c0.011,8.27-0.03,16.55-0.05,24.819c-0.01,2.46-1.74,4.05-3.74,4.05l0.16,0.211
					c-2.16-0.021-3.359-1.811-3.37-4.24c-0.021-2.891,0.21-5.771,0.21-8.66v-3.75l-0.221-3.76c-0.01-2.88-0.229-5.761-0.229-8.65
					c0.011-2.479,1.45-4.15,3.62-4.15S121.779,12.334,121.79,14.805z"/>
				<path fill="#D93F5F" d="M62.7,175.254c1.46,0.91,2.101,2.62,1.54,4.17c-0.2,0.561-0.53,1.11-0.92,1.521l-0.351,0.37
					c-6.03,6.359-12.26,12.939-18.479,19.31c-0.471,0.471-1.24,0.811-1.86,1.07c-0.14,0.06-0.26,0.11-0.38,0.17
					c-2.359-0.18-3.21-1-3.721-2.16c-0.659-1.5-0.42-2.819,0.73-4.05c2.46-2.62,4.95-5.22,7.44-7.82l4.899-5.13
					c2.18-2.29,4.42-4.649,6.67-6.93c0.68-0.7,1.57-1.08,2.51-1.08C61.449,174.694,62.12,174.885,62.7,175.254z"/>
				<path fill="#D93F5F" d="M62.82,60.464c0.76,0.771,1.18,1.73,1.17,2.721c-0.01,0.95-0.41,1.859-1.131,2.55
					c-1.42,1.38-3.709,1.3-5.199-0.18c-5.359-5.32-11.04-11-17.859-17.851c-1.171-1.18-1.48-2.68-0.852-4.12
					c0.541-1.229,1.74-2.1,3.33-2.43c0.24,0.12,0.49,0.24,0.74,0.35c0.721,0.33,1.4,0.631,1.82,1.051
					C50.57,48.145,56.17,53.754,62.82,60.464z"/>
				<path fill="#D93F5F" d="M40.439,120.324c0.311,1.61-0.59,3.29-2.1,3.91c-0.529,0.22-1.18,0.35-1.779,0.35
					c-7.94,0.04-15.881,0.04-23.811,0.021c-2.28-0.01-3.88-1.49-3.91-3.601c-0.02-1,0.32-1.88,0.95-2.529
					c0.71-0.721,1.771-1.13,2.97-1.13c1.59-0.021,3.17-0.021,4.76-0.021l7.221,0.03c1.22,0,2.439-0.01,3.66-0.01
					c2.91-0.011,5.81-0.03,8.72,0.029C38.75,117.395,40.109,118.614,40.439,120.324z"/>
			</g>
		</g>
	</g>
</g>
<g id="Layer_3">
</g>
</svg>
