<?xml version="1.0" encoding="utf-8"?>
<!-- Generator: Adobe Illustrator 16.0.0, SVG Export Plug-In . SVG Version: 6.00 Build 0)  -->
<!DOCTYPE svg PUBLIC "-//W3C//DTD SVG 1.1//EN" "http://www.w3.org/Graphics/SVG/1.1/DTD/svg11.dtd">
<svg version="1.1" xmlns="http://www.w3.org/2000/svg" xmlns:xlink="http://www.w3.org/1999/xlink" x="0px" y="0px"
	 width="34.269px" height="42.154px" viewBox="0 0 34.269 42.154" enable-background="new 0 0 34.269 42.154" xml:space="preserve">
<g id="Layer_1">
	<g id="Layer_2">
	</g>
	<g id="Q6fjQX_11_">
		<g>
			<path fill="#FFFFFF" d="M17.851,38.861c-0.588-0.138-1.175-0.28-1.764-0.412c-2.967-0.661-5.377-2.164-7.076-4.719
				c-2.106-3.165-4.213-6.33-6.289-9.515c-1.012-1.554-0.869-3.077,0.284-3.902c1.142-0.816,2.669-0.424,3.782,1.013
				c0.844,1.088,1.646,2.208,2.686,3.609c0.059-0.753,0.111-1.109,0.111-1.465c-0.006-5.072-0.012-10.145-0.03-15.217
				c-0.005-1.621,0.788-2.646,2.076-2.628c1.233,0.017,1.976,0.955,1.981,2.553c0.011,2.865,0.002,5.73,0.004,8.595
				c0,0.329-0.098,0.708,0.034,0.974c0.176,0.355,0.529,0.623,0.807,0.929c0.212-0.315,0.591-0.623,0.605-0.946
				c0.067-1.5,0.034-3.005,0.034-4.508c-0.001-2.536-0.008-5.072-0.007-7.608c0.001-1.773,0.791-2.812,2.103-2.781
				c1.262,0.03,2.02,1.026,2.023,2.719c0.008,3.898-0.025,7.797,0.029,11.694c0.008,0.487,0.449,0.968,0.689,1.451
				c0.25-0.482,0.709-0.961,0.717-1.447c0.062-3.568,0.018-7.138,0.043-10.707c0.01-1.391,0.805-2.275,1.953-2.312
				c1.108-0.035,1.994,0.866,2.137,2.184c0.021,0.185-0.006,0.374-0.006,0.562c-0.007,3.758-0.014,7.515-0.018,11.271
				c0,0.329-0.064,0.686,0.043,0.979c0.111,0.304,0.395,0.545,0.602,0.812c0.269-0.259,0.637-0.474,0.777-0.789
				c0.141-0.318,0.066-0.738,0.066-1.113c-0.004-2.395-0.016-4.79-0.02-7.185c-0.003-1.605,0.717-2.509,2.002-2.528
				c1.29-0.019,2.036,0.861,2.038,2.476c0.008,5.918-0.058,11.837,0.018,17.753c0.063,5.014-2.769,9.377-8.265,9.983
				c-0.176,0.02-0.338,0.148-0.507,0.227C20.294,38.861,19.071,38.861,17.851,38.861z"/>
		</g>
	</g>
</g>
<g id="Layer_3">
</g>
</svg>
