<svg xmlns="http://www.w3.org/2000/svg" width="214" height="218" viewBox="0 0 214 218"><g><path fill="#111" d="M105.02 9.912c25.985-.005 51.97.066 77.954-.092 3.338-.02 4.993 1.006 6.374 3.99 3.34 7.22 7.044 14.272 10.67 21.357 1.155 2.26 1.81 4.515 1.81 7.12-.04 43.59-.065 87.183.126 130.774.02 4.128-1.327 4.864-5.016 4.76-8.396-.237-8.33-.062-8.484 8.498-.028 1.565 1.087 3.43-1.294 4.778-1.833 1.04.188 2.257.91 2.997 3.596 3.688 7.313 7.258 11.02 10.84 1.282 1.24 2.39 2.232.453 4.01-1.75 1.607-3.07 1.17-4.067-.437-2.405-3.877-6.017-3.844-9.978-3.837-54.402.09-108.805.107-163.207.006-3.44-.006-6.114.523-8.114 3.49-1.293 1.92-2.822 2.486-4.774.46-2.03-2.106.015-2.813 1.065-3.875 1.168-1.178 2.63-2.124 3.58-3.447 2.57-3.584 9.432-6.382 8.062-9.677-1.814-4.358-.62-8.192-1.29-12.16-.37-2.195-1.632-1.524-2.806-1.728-3.473-.6-8.177 1.895-10.172-1.2-1.604-2.487-.44-6.783-.44-10.275.016-40.933.06-81.865.038-122.797 0-3.056.455-5.82 1.94-8.584 3.76-7.007 7.44-14.072 10.734-21.306 1.322-2.905 2.864-3.748 5.952-3.733 26.32.13 52.637.074 78.955.07zm-.137 45.83c-29.32 0-58.64.084-87.958-.105-3.814-.024-4.575.963-4.55 4.63.18 26.935.183 53.872.02 80.806-.02 3.74.94 4.718 4.687 4.66 15.156-.23 30.318.005 45.477-.17 3.32-.04 4.2.962 4.073 4.178-.248 6.32.053 12.662-.13 18.987-.08 2.825.343 4.552 3.695 3.972.97-.168 2.015-.152 2.99-.003 4.33.66 5.878-.685 5.84-5.48-.268-32.608-.125-65.22-.292-97.83-.02-3.787.81-5.133 4.88-5.056 13.987.266 27.985.26 41.974.022 4.01-.07 4.943 1.163 4.922 5.04-.185 31.587-.142 63.174-.173 94.76-.01 8.716-.017 8.53 8.65 8.615 3.26.032 3.87-1.064 3.762-3.99-.216-5.823.19-11.675-.162-17.483-.265-4.342.78-5.897 5.54-5.783 14.652.353 29.32-.005 43.976.21 3.616.053 4.762-.637 4.736-4.542-.184-26.966-.162-53.935.04-80.9.026-3.705-.757-4.662-4.542-4.64-29.152.177-58.305.097-87.457.103zm-.25-5h83.954c8.198 0 10.214-2.833 7.807-11.04-.278-.95-.773-1.84-1.214-2.736-2.855-5.806-5.876-11.537-8.53-17.432-1.574-3.495-3.708-4.65-7.65-4.636-45.308.17-90.616.077-135.925.146-5.963.01-13.162-2.324-17.555.785-4.333 3.066-5.81 10.126-8.63 15.387-2.52 4.702-4.8 9.283-4.56 14.998.16 3.833 1.245 4.624 4.852 4.606 29.15-.14 58.3-.08 87.45-.078zm20.68 49.996c0-9.16-.007-18.317.005-27.476.002-2.093.072-3.924-3.01-3.895-11.822.112-23.646.072-35.467.007-2.17-.012-2.96.893-2.956 2.96.04 18.818.07 37.635.037 56.452-.004 2.39.9 3.134 3.268 3.114 11.49-.096 22.98-.113 34.47.023 2.84.034 3.746-.87 3.7-3.71-.15-9.156-.055-18.317-.046-27.475zm-21.264 71.91c5.933 0 11.868-.09 17.8.044 2.458.056 3.603-.508 3.566-3.27-.13-9.742-.12-19.487-.005-29.23.032-2.64-.93-3.417-3.49-3.394-11.64.106-23.283.123-34.924 0-2.495-.026-3.133.897-3.117 3.17.067 9.757.13 19.517-.032 29.27-.052 3.072 1.293 3.542 3.9 3.47 5.43-.15 10.867-.045 16.3-.06zm81.516 27.564c.11-.466.217-.933.324-1.4-3.947-2.364-5.28-7.87-11.312-7.916-25.87-.2-51.747-.13-77.614-.262-19.58-.1-39.213.388-58.8.112-7.45-.105-10.683 3.884-15.558 9.466h162.96zm-12.927-49.564c-7.147 0-14.3.13-21.44-.063-2.89-.077-3.67.917-3.557 3.674.202 4.978.17 9.973.027 14.956-.072 2.5.588 3.51 3.316 3.487 14.125-.123 28.25-.116 42.376-.006 2.53.02 3.52-.603 3.415-3.28-.19-4.812-.28-9.652.023-14.453.214-3.373-.55-4.614-4.22-4.427-6.63.34-13.292.096-19.94.11zM36.645 172.64c7.148 0 14.297-.08 21.442.045 2.485.043 3.605-.564 3.51-3.307-.183-5.147-.187-10.312.022-15.457.11-2.702-.906-3.355-3.418-3.34-14.297.097-28.596.09-42.893.03-2.05-.007-2.913.396-2.83 2.722.188 5.313.205 10.645-.027 15.955-.132 3.01 1.102 3.493 3.753 3.424 6.81-.174 13.626-.057 20.44-.07zm68.093 13.408v.033c20.448 0 40.898-.13 61.344.117 3.877.047 3.777-1.677 3.682-4.368-.082-2.374.35-4.215-3.41-4.2-41.04.158-82.08.148-123.118-.02-3.802-.017-3.683 1.666-3.778 4.402-.108 3.04.567 4.152 3.94 4.124 20.446-.175 40.893-.088 61.34-.088zm-75.074-8.185c-3.874-1.31-3.73 1.204-3.998 4.226-.36 4.07 1.768 3.905 4.7 4.115 3.74.27 4.177-1.312 4.29-4.53.135-3.88-1.562-4.526-4.992-3.812zm153.772 4.432c.312-2.75.485-5.2-3.518-4.62-2.523.367-5.95-1.082-5.262 3.843.337 2.403-.59 5.197 3.57 4.632 2.61-.355 6.225.99 5.21-3.855z"/><path fill="#F8F8F8" d="M104.883 55.738c29.152-.003 58.306.077 87.457-.1 3.785-.024 4.568.933 4.54 4.637-.2 26.966-.222 53.936-.038 80.9.025 3.906-1.12 4.597-4.736 4.543-14.656-.215-29.323.143-43.975-.21-4.76-.113-5.805 1.44-5.54 5.784.354 5.81-.054 11.66.162 17.483.107 2.926-.502 4.022-3.762 3.99-8.667-.085-8.66.1-8.65-8.614.03-31.586-.013-63.173.172-94.76.02-3.876-.912-5.108-4.922-5.04-13.988.24-27.986.244-41.975-.02-4.07-.078-4.898 1.27-4.88 5.056.168 32.61.025 65.22.292 97.83.04 4.794-1.51 6.14-5.838 5.48-.978-.15-2.022-.167-2.992 0-3.353.58-3.776-1.146-3.695-3.97.183-6.326-.118-12.667.13-18.987.127-3.217-.753-4.22-4.074-4.18-15.16.176-30.32-.058-45.478.172-3.748.057-4.707-.92-4.686-4.66.16-26.935.157-53.872-.02-80.806-.026-3.668.734-4.655 4.55-4.63 29.317.19 58.636.105 87.957.102zm37.82 44.877h.016c0 10.985.094 21.97-.068 32.954-.04 2.64.696 3.39 3.292 3.37 14.947-.108 29.898-.14 44.846-.003 2.807.026 3.266-1.07 3.258-3.466-.072-21.906-.107-43.813-.016-65.72.012-2.71-.936-3.284-3.42-3.27-14.813.092-29.627.116-44.44-.03-2.935-.027-3.57.95-3.53 3.71.153 10.817.06 21.636.06 32.455zm-127.417-.62h.03c0 10.984.182 21.974-.104 32.95-.09 3.507 1.124 4.007 4.155 3.98 14.443-.126 28.89-.13 43.33.02 2.977.032 3.958-.61 3.936-3.813-.155-21.47-.134-42.942-.008-64.413.02-3.12-.62-4.33-4.046-4.286-14.48.188-28.96.225-43.438-.015-3.63-.062-3.922 1.475-3.895 4.316.1 10.42.04 20.84.04 31.26z"/><path fill="#D93F5F" d="M104.633 50.742c-29.15 0-58.302-.062-87.45.08-3.607.016-4.69-.774-4.853-4.607-.24-5.714 2.04-10.296 4.56-14.998 2.82-5.26 4.297-12.32 8.63-15.388 4.393-3.11 11.592-.776 17.555-.786 45.31-.07 90.617.023 135.926-.146 3.942-.015 6.076 1.14 7.65 4.636 2.654 5.896 5.675 11.626 8.53 17.432.44.896.936 1.788 1.214 2.737 2.407 8.206.392 11.04-7.807 11.04h-83.954zm-.52-8.722c10.158 0 20.316.033 30.476-.016 4.27-.02 10.226 1.416 12.346-.777 2.21-2.287.47-8.175.925-12.44.458-4.27-1.217-5.302-5.25-5.27-22.316.174-44.633.107-66.95.116-15.54.006-15.49-.003-14.232 15.673.188 2.335.796 2.84 3.217 2.803 13.152-.193 26.31-.092 39.467-.09zm-60.36-.035c5.23-.05 9.355-4.05 9.298-9.02-.056-5.007-4.627-9.4-9.72-9.342-4.95.056-8.89 4.285-8.843 9.495.046 5.266 3.865 8.92 9.267 8.867zM174.698 32.8c-.017-4.912-4.196-9.127-9.1-9.177-5.186-.053-9.28 4.232-9.19 9.613.09 5.194 3.963 8.79 9.388 8.713 5.305-.076 8.92-3.79 8.902-9.15z"/><path fill="#87D1E4" d="M125.31 100.738c-.007 9.16-.1 18.32.05 27.476.045 2.84-.86 3.744-3.7 3.71-11.49-.136-22.98-.12-34.47-.023-2.367.02-3.272-.724-3.268-3.113.034-18.817.004-37.634-.037-56.45-.004-2.07.785-2.975 2.957-2.962 11.82.065 23.645.105 35.467-.007 3.08-.03 3.01 1.8 3.01 3.895-.013 9.158-.008 18.316-.01 27.475z"/><path fill="#F8F8F8" d="M104.05 172.656c-5.435.007-10.872-.1-16.303.053-2.606.072-3.95-.398-3.9-3.47.163-9.754.1-19.513.032-29.27-.017-2.273.62-3.197 3.116-3.17 11.64.123 23.283.106 34.925 0 2.56-.023 3.522.753 3.49 3.395-.113 9.742-.125 19.487.006 29.228.037 2.762-1.108 3.327-3.567 3.27-5.932-.136-11.868-.044-17.8-.037zm11.606-18.2c0 1.713.09 3.046-.02 4.362-.18 2.125.632 2.908 2.82 2.923 2.366.018 2.198-1.367 2.16-2.91-.034-1.325.294-2.742-.073-3.958-.68-2.26 2.402-6.487-2.36-6.54-4.935-.055-1.24 4.457-2.527 6.124zM185.566 200.212H22.606c4.876-5.583 8.108-9.572 15.558-9.466 19.588.276 39.22-.21 58.8-.112 25.868.132 51.745.063 77.615.262 6.03.046 7.363 5.552 11.31 7.916-.107.467-.214.934-.324 1.4z"/><path fill="#FCFCFC" d="M172.64 150.64c6.648-.006 13.31.237 19.94-.103 3.67-.188 4.435 1.054 4.22 4.427-.302 4.8-.213 9.64-.022 14.454.105 2.676-.885 3.298-3.415 3.28-14.125-.11-28.25-.117-42.376.005-2.73.023-3.39-.987-3.316-3.487.144-4.982.176-9.978-.026-14.957-.113-2.758.666-3.752 3.556-3.675 7.14.192 14.292.063 21.44.056zM36.646 172.647c-6.814.006-13.63-.11-20.44.065-2.65.068-3.884-.415-3.752-3.424.232-5.31.216-10.642.026-15.955-.082-2.327.78-2.73 2.83-2.72 14.297.06 28.596.064 42.893-.03 2.512-.018 3.528.636 3.418 3.34-.208 5.145-.204 10.31-.022 15.456.097 2.742-1.023 3.35-3.51 3.306-7.145-.126-14.293-.045-21.442-.04z"/><path fill="#FEFEFE" d="M104.74 186.048c-20.447 0-40.895-.087-61.34.087-3.374.03-4.05-1.083-3.94-4.124.095-2.735-.024-4.417 3.777-4.402 41.038.168 82.08.18 123.117.02 3.76-.015 3.33 1.827 3.41 4.2.097 2.69.196 4.415-3.68 4.368-20.446-.247-40.897-.116-61.346-.116v-.032z"/><path fill="#F8F8F8" d="M29.666 177.863c3.43-.714 5.127-.068 4.992 3.81-.113 3.22-.55 4.8-4.29 4.532-2.933-.21-5.06-.046-4.7-4.116.267-3.023.124-5.536 3.998-4.227zM183.438 182.295c1.016 4.846-2.6 3.5-5.21 3.855-4.16.565-3.232-2.23-3.57-4.632-.688-4.925 2.74-3.476 5.263-3.842 4.003-.58 3.83 1.868 3.518 4.62z"/><path fill="#111" d="M142.703 100.615c0-10.818.092-21.638-.063-32.455-.04-2.76.597-3.737 3.532-3.71 14.812.146 29.626.122 44.438.03 2.485-.014 3.433.56 3.42 3.27-.09 21.906-.056 43.814.017 65.72.008 2.397-.45 3.493-3.258 3.467-14.948-.138-29.9-.105-44.847.004-2.596.02-3.33-.73-3.292-3.37.163-10.983.068-21.97.068-32.955h-.015zm5.088-.003h-.02c0 8.988.09 17.977-.05 26.962-.05 3.027.508 4.48 4.062 4.407 11.264-.236 22.537-.214 33.803-.05 3.19.047 3.42-1.464 3.41-3.95-.06-18.123-.093-36.246.023-54.367.02-3.147-.836-4.39-4.164-4.336-10.98.183-21.97.25-32.947.037-3.482-.067-4.22 1.225-4.168 4.336.145 8.985.05 17.974.05 26.962zM15.286 99.995c0-10.42.06-20.84-.038-31.26-.027-2.84.266-4.377 3.895-4.316 14.477.24 28.96.202 43.437.014 3.425-.044 4.064 1.167 4.046 4.285-.126 21.47-.147 42.942.008 64.412.022 3.205-.96 3.845-3.935 3.814-14.443-.15-28.89-.146-43.332-.02-3.03.025-4.246-.475-4.155-3.98.286-10.978.104-21.967.104-32.95h-.03zm5.014.374h-.02c0 9.314-.006 18.63.01 27.944 0 1.787-.4 3.648 2.6 3.613 11.747-.14 23.497-.166 35.245-.042 2.682.028 3.426-.846 3.41-3.417-.11-18.465-.15-36.93-.086-55.396.01-2.77-.823-3.79-3.667-3.758-11.31.13-22.625.164-33.936.026-2.918-.036-3.652.997-3.61 3.744.14 9.093.053 18.19.053 27.285zM104.112 42.02c-13.157-.002-26.315-.103-39.47.09-2.42.035-3.028-.47-3.216-2.804C60.168 23.63 60.118 23.64 75.66 23.633c22.316-.01 44.633.058 66.95-.116 4.032-.032 5.707 1 5.25 5.27-.456 4.265 1.286 10.153-.925 12.44-2.12 2.193-8.076.756-12.347.777-10.158.05-20.317.016-30.476.015zm.384-13.292c-11.492 0-22.992.26-34.47-.132-4.387-.15-3.233 2.32-3.478 4.617-.303 2.837.315 4.022 3.64 3.997 22.982-.174 45.968-.23 68.95 0 4.19.04 3.376-2.215 3.602-4.65.277-2.976-.56-3.987-3.77-3.926-11.49.217-22.983.084-34.474.094zM43.754 41.985c-5.402.052-9.22-3.6-9.267-8.867-.046-5.21 3.893-9.438 8.842-9.495 5.093-.058 9.664 4.334 9.72 9.34.057 4.972-4.066 8.973-9.296 9.022zm3.953-9.607c-.256-2.06-1.284-3.643-4.023-3.644-3.07 0-4.074 1.875-4.06 4.487.014 2.695 1.775 3.85 4.25 3.75 2.558-.105 3.874-1.613 3.833-4.592zM174.697 32.8c.018 5.36-3.598 9.074-8.902 9.15-5.425.076-9.3-3.52-9.387-8.714-.092-5.38 4.004-9.666 9.19-9.613 4.903.05 9.083 4.265 9.1 9.178zm-8.613 4.21c2.176-.3 3.68-1.472 3.566-4.19-.105-2.562-1.27-4.027-3.96-4.083-3.024-.063-4.175 1.647-4.144 4.397.032 2.746 1.78 3.722 4.538 3.876zM115.656 154.456c1.287-1.667-2.408-6.18 2.527-6.123 4.762.054 1.68 4.28 2.36 6.54.366 1.216.038 2.633.072 3.958.038 1.544.206 2.93-2.16 2.913-2.188-.015-3-.798-2.82-2.923.11-1.318.02-2.65.02-4.364z"/><path fill="#87D1E4" d="M147.79 100.612c0-8.988.095-17.977-.05-26.962-.05-3.112.686-4.404 4.168-4.336 10.98.212 21.967.146 32.947-.037 3.328-.055 4.185 1.188 4.164 4.336-.117 18.122-.085 36.244-.023 54.366.01 2.486-.22 3.998-3.41 3.95-11.267-.164-22.54-.186-33.804.05-3.555.076-4.11-1.378-4.063-4.406.142-8.985.05-17.975.05-26.962h.02zM20.3 100.37c0-9.096.087-18.193-.052-27.286-.043-2.747.69-3.78 3.61-3.744 11.31.137 22.624.104 33.935-.026 2.844-.033 3.676.987 3.666 3.758-.065 18.465-.025 36.93.085 55.396.016 2.57-.73 3.445-3.41 3.417-11.748-.124-23.498-.098-35.245.042-3 .036-2.6-1.826-2.6-3.613-.016-9.315-.01-18.63-.01-27.945h.02z"/><path fill="#FEFEFE" d="M104.496 28.723c11.49-.005 22.985.128 34.473-.09 3.212-.062 4.048.95 3.77 3.925-.226 2.436.588 4.69-3.603 4.65-22.98-.228-45.967-.174-68.948 0-3.326.025-3.944-1.16-3.642-3.997.244-2.295-.91-4.766 3.477-4.616 11.48.395 22.98.134 34.47.13z"/><path fill="#F8F8F8" d="M47.707 32.378c.04 2.98-1.275 4.487-3.834 4.592-2.474.102-4.235-1.054-4.25-3.748-.014-2.612.99-4.488 4.06-4.487 2.74 0 3.768 1.584 4.024 3.643zM166.084 37.01c-2.757-.154-4.506-1.13-4.537-3.876-.03-2.75 1.12-4.46 4.144-4.397 2.69.056 3.855 1.52 3.96 4.084.114 2.718-1.39 3.89-3.566 4.19z"/></g></svg>