<svg xmlns="http://www.w3.org/2000/svg" width="274" height="218" viewBox="0 0 274 218"><g><path fill="#111" d="M15.705 124.096c0-17.163-.02-34.325.008-51.487.016-8.756 3.298-11.97 12.1-11.99 4-.008 8.012-.194 11.994.062 3.705.24 3.015-2.227 2.906-4.243-.107-2.004 1.174-4.847-3.004-4.624-5.483.293-11 .21-16.487-.02-1.656-.07-4.6 1.764-4.702-2.268-.098-3.878 2.68-2.613 4.513-2.636 7.663-.098 15.33-.13 22.99.04 2.733.06 3.706-.63 3.604-3.548-.233-6.657.044-13.33-.13-19.99-.073-2.768.67-3.723 3.584-3.658 8.327.187 16.665.165 24.99-.03 2.896-.07 3.872.878 3.565 3.668-.18 1.646.254 3.38-.055 4.985-.918 4.777 1.406 5.515 5.518 5.357 2.996-.115 3.46-1.207 3.507-3.84.175-10.073.265-10.067 10.492-10.072 10.14-.005 20.282.113 30.417-.103 3.354-.07 4.607.644 4.542 4.314-.172 9.58.02 9.583 9.614 9.582 7.33 0 14.666-.14 21.992.06 2.955.08 3.99-.56 3.986-3.79-.016-10.063.147-10.063 10.44-10.063 7.98 0 8.28.014 7.925 7.652-.23 4.92 1.075 6.638 6.254 6.273 7.294-.513 7.582-.113 7.212 7.55-.215 4.44.92 5.956 5.596 5.68 7.47-.443 14.988-.055 22.484-.127 2.088-.02 3.466.098 3.418 2.827-.05 2.8-1.843 2.222-3.398 2.23-5.332.023-10.668.124-15.993-.057-3.332-.113-5.33.03-5.27 4.52.058 4.23 1.815 4.38 5.045 4.316 8.16-.167 16.328-.066 24.492-.042 7.31.02 9.73 2.162 10.9 9.277 5.042 30.653 8.327 61.546 12.653 92.297.343 2.433.58 4.875.984 7.315 1.538 9.315-6.043 17.79-16.134 18.036-7.16.176-14.332.17-21.49-.02-2.25-.06-3.154.71-3.853 2.688-2.417 6.85-7.35 10.362-14.624 10.64-7.716.293-12.603-3.88-15.33-10.48-1.017-2.464-2.103-2.783-4.265-2.78-36.91.03-73.82.044-110.73-.066-2.453-.007-3.382.857-4.146 2.968-2.407 6.638-7.296 10.057-14.327 10.323-7.348.278-12.58-3.25-15.146-9.88-1.186-3.065-2.73-3.486-5.42-3.394-4.158.144-8.328.114-12.49.02-6.94-.156-10.678-3.97-10.695-10.99-.043-17.496-.014-34.992-.014-52.487-.007.003-.015.003-.023.003zm40.66 29.914c-.36.23-.993.425-1.025.693-.11.9.57.896 1.23.785 17.76.432 25.973 6.77 31.355 24.425.66 2.168 1.64 2.74 3.85 2.722 14.14-.115 28.28-.11 42.42-.01 2.444.017 3.594-.392 3.53-3.21-.175-7.48-.122-14.97 0-22.455.04-2.297-.505-3.2-3.022-3.188-26.11.146-52.224.176-78.338.238zm77.492-88.387c-30 0-60-.002-89.998.002-6.167 0-12.333.047-18.5.037-3.91-.007-4.506 2.56-4.658 5.677-.188 3.838 2.647 2.666 4.5 2.676 15.164.083 30.33.15 45.493-.003 3.268-.033 4.223.845 4.19 4.18-.17 16.996-.15 33.996 0 50.993.028 3.206-.688 4.272-4.128 4.226-15.162-.207-30.33-.013-45.496-.138-3.224-.027-4.69.533-4.685 4.296.007 3.67 1.254 4.3 4.578 4.29 36-.117 71.998-.147 107.996.01 3.788.018 4.644-.952 4.606-4.652-.196-19.664-.008-39.332-.16-58.997-.026-3.303.888-4.235 4.17-4.205 16.61.152 33.223.22 49.83-.035 4.145-.063 5.288 1 5.24 5.173-.23 19.428-.064 38.86-.16 58.29-.014 2.876.188 4.487 3.86 4.442 17.278-.207 34.56-.09 51.84-.16 1.097-.003 2.69.88 3.182-1.245.84-3.638-1.694-7.115-5.355-7.118-15.778-.015-31.558-.123-47.335.058-3.4.04-4.174-1.04-4.147-4.246.143-16.917.16-33.837-.008-50.753-.035-3.542 1.025-4.483 4.528-4.425 12.996.213 25.998.15 38.996.006 1.48-.015 4.51 1.702 4.255-2.08-.192-2.853-.47-5.863-4.313-6.232-1.32-.127-2.664-.055-3.997-.055-34.774-.004-69.55-.003-104.323-.01zM70.04 103.426h-.12c0-6.826-.13-13.655.06-20.476.084-3.02-.826-4.058-3.935-4.026-13.65.135-27.306.106-40.958-.01-3.054-.024-4.415.66-4.365 4.13.196 13.817.165 27.64.04 41.457-.027 3.018.818 3.984 3.943 3.95 13.65-.146 27.307-.148 40.956.092 3.694.065 4.523-1.32 4.435-4.637-.18-6.822-.054-13.653-.054-20.48zm121.655.292h-.023c0-7.09-.09-14.183.048-21.27.05-2.516-.618-3.518-3.307-3.498-14.062.103-28.126.083-42.188.004-2.455-.014-3.604.583-3.583 3.326.11 14.135.11 28.272.037 42.408-.015 2.672.686 3.882 3.64 3.85 13.968-.15 27.94-.205 41.908-.083 3.015.026 3.59-1.08 3.524-3.783-.167-6.98-.057-13.97-.057-20.954zm12.096-.012h.02c0 6.79.23 13.59-.09 20.364-.175 3.64 1.062 4.486 4.47 4.446 13.61-.16 27.226-.247 40.83.044 4.36.093 5.004-1.543 4.45-5.23-1.995-13.296-4.1-26.586-5.597-39.942-.432-3.856-1.842-4.65-5.132-4.616-11.652.127-23.308.262-34.96.11-3.446-.046-4.17 1.165-4.06 4.343.233 6.82.07 13.654.07 20.48zm-61.11 53.976h-.203c0 6.98.07 13.96-.033 20.936-.043 2.914.89 4.08 4.03 4.015 9.48-.2 18.972-.154 28.455-.036 2.375.03 3.348-.446 3.91-3.063 1.535-7.138 4.928-13.374 10.978-17.784 1.548-1.127 1.983-2.364 1.962-4.165-.082-6.99-.2-13.984.045-20.965.098-2.8-1.2-3.578-3.426-3.568-14.118.066-28.235.28-42.353.252-3.074-.006-3.47 1.33-3.416 3.91.143 6.82.05 13.644.05 20.468zM126.56 51.938v.02c-24.81 0-49.624.07-74.436-.078-3.456-.02-4.515.796-4.48 4.38.034 3.517.99 4.45 4.493 4.443 49.583-.112 99.166-.096 148.75-.03 3.088.004 4.832-.207 4.76-4.167-.07-3.698-.93-4.7-4.73-4.67-24.784.197-49.57.102-74.356.102zm101.03 101.87c-8.988 0-17.977-.023-26.965.03-1.238.006-2.75-.567-3.622.87-.324.535-.507 1.372.192 1.794 1.276.772 2.553.06 3.807-.23 14.948-3.49 29.55 4.395 34.682 18.733 2.78 7.77 2.78 7.77 11.49 7.57 8.775-.204 13.488-5.646 12.26-14.263-.533-3.747-1.51-7.45-1.773-11.21-.187-2.668-1.19-3.37-3.67-3.34-8.8.1-17.6.038-26.4.047zm-.07 28.783c5.43.025 5.412-.003 3.94-4.905-1.7-5.656-5.24-9.997-9.894-13.35-13.237-9.54-34.893-.715-37.727 15.287-.212 1.19-.955 2.912 1.305 2.906 3.237-.01 6.597 1.21 8.28-3.716 2.245-6.565 7.724-10.063 14.645-9.885 6.982.18 12.39 3.54 14.7 10.53.898 2.717 2.453 3.614 4.75 3.134zM58.913 160.518c-10.36.06-19.796 6.54-23.134 15.89-2.128 5.96-1.35 6.7 4.994 6.268 3.02-.206 2.788-2.482 3.526-4.044 3.015-6.365 8.08-9.722 14.944-9.695 6.483.025 12.083 3.17 14.015 9.293 1.638 5.195 4.776 4.3 8.267 4.327 1.987.015 1.89-.78 1.55-2.462-2.304-11.523-12.227-19.644-24.163-19.576zm7.26-113.644c3.04-.307 7.76 1.546 9.965-.73 1.76-1.814.575-6.523.62-9.95.15-11.287.14-11.287-11.022-11.287-11.106 0-11.106 0-11.106 11.162 0 10.805 0 10.805 11.542 10.805zm39.918 0c11.425 0 11.425 0 11.424-11.347 0-10.62 0-10.62-10.78-10.62-11.327 0-11.327 0-11.327 11.4-.002 10.567-.002 10.567 10.682 10.567zM54.297 153.815c-10.76 0-20.97.008-31.18-.01-1.324-.002-2.342.308-2.34 1.85.012 7.64-.104 15.285.156 22.917.103 3.015 2.555 3.765 5.326 4.068 3.233.354 3.1-1.722 3.696-3.846 3.125-11.092 9.663-19.03 21.153-22.26 1.007-.284 2.38-.294 3.187-2.72zm153.484 41.94c6.397.04 10.847-4.123 10.98-10.272.14-6.44-4.36-11.367-10.53-11.532-6.103-.163-11.26 4.738-11.39 10.823-.13 6.162 4.634 10.945 10.94 10.983zm-138.044-10.57c.006-6.46-4.615-11.362-10.71-11.363-5.908 0-11.157 5.3-11.097 11.204.06 6.18 4.825 10.748 11.248 10.783 6.238.033 10.552-4.31 10.558-10.625zm83.74-138.29v-.026c4.984 0 9.978-.176 14.952.06 3.445.163 3.183-1.9 3.14-4.132-.04-2.13.492-4.288-3.04-4.22-9.635.183-19.277.24-28.91 0-3.773-.096-3.258 2.227-3.46 4.457-.233 2.587.475 4.04 3.51 3.91 4.594-.193 9.203-.05 13.807-.05zm-132.5 100.33c-.017.316-.034.634-.053.95h116.58l-.008-.95H20.977zM122.58 36.064h-.024c0 2.83.112 5.667-.028 8.49-.188 3.78 2.712 2.212 4.18 2.196 1.46-.014 4.252 1.576 4.162-2.25-.13-5.444.21-10.9.21-16.35 0-1.88-.41-3.286-3.105-3.385-4.055-.15-6.346.573-5.455 5.32.363 1.93.06 3.984.06 5.98zm62.334.102h-.044c0-2.817-.086-5.638.02-8.45.14-3.668-2.47-2.654-4.46-2.768-2.13-.123-3.97-.138-3.883 2.928.15 5.3.104 10.606.035 15.91-.025 1.99.51 2.934 2.74 3.138 4.086.374 6.404-.578 5.64-5.298-.29-1.776-.048-3.638-.048-5.46zm12.288 111.03l-.04 1.363h59.132v-1.362H197.2zM86.372 38.736c-3.394-.718-4.834.28-4.797 4.055.032 3.38 1.096 4.174 4.3 4.184 3.298.01 4.852-.624 4.7-4.34-.13-3.12-.79-4.826-4.203-3.9zm108.59.005c-3.27-.55-5.12-.154-4.985 3.91.117 3.547 1.136 4.254 4.55 4.334 4.065.094 4.024-1.867 4.124-4.86.104-3.113-.644-4.457-3.687-3.384z"/><path fill="#F8F8F8" d="M133.857 65.626c34.773.003 69.55.003 104.323.005 1.333 0 2.676-.07 3.997.056 3.844.37 4.12 3.38 4.314 6.23.257 3.784-2.774 2.067-4.254 2.083-12.998.143-26 .207-38.996-.007-3.503-.058-4.563.883-4.528 4.426.168 16.916.15 33.835.01 50.752-.027 3.207.747 4.284 4.146 4.246 15.777-.18 31.557-.072 47.335-.058 3.66.003 6.194 3.48 5.355 7.118-.49 2.124-2.085 1.242-3.183 1.246-17.28.07-34.56-.048-51.84.16-3.672.043-3.873-1.567-3.858-4.442.095-19.43-.07-38.862.158-58.29.05-4.174-1.094-5.237-5.24-5.174-16.606.255-33.22.187-49.83.035-3.28-.03-4.195.902-4.17 4.206.153 19.664-.035 39.332.16 58.996.038 3.7-.817 4.67-4.606 4.653-36-.16-71.998-.128-107.997-.012-3.324.01-4.57-.62-4.578-4.29-.007-3.764 1.46-4.323 4.686-4.296 15.167.125 30.335-.07 45.497.138 3.44.047 4.156-1.02 4.128-4.226-.15-16.997-.17-33.997 0-50.993.032-3.334-.923-4.212-4.19-4.18-15.164.154-30.33.087-45.494.004-1.85-.01-4.687 1.162-4.498-2.677.152-3.118.747-5.684 4.66-5.677 6.165.01 12.33-.036 18.497-.037 29.998-.002 59.997 0 89.997.003zm-27.347 8.44v-.016c-8.66 0-17.32.038-25.98-.025-2.273-.017-3.727.22-3.71 3.158.103 17.65.06 35.304.007 52.956-.008 2.224.506 3.256 3.062 3.242 17.65-.1 35.302-.087 52.954.01 2.45.013 3.128-.838 3.12-3.164-.067-17.653-.09-35.306.017-52.958.017-2.734-.99-3.296-3.49-3.257-8.66.136-17.322.052-25.98.052z"/><path fill="#87D1E4" d="M70.04 103.426c0 6.827-.126 13.657.055 20.478.09 3.318-.74 4.702-4.434 4.637-13.648-.24-27.304-.237-40.955-.09-3.125.033-3.97-.934-3.943-3.95.125-13.818.156-27.64-.04-41.456-.05-3.47 1.312-4.155 4.365-4.13 13.652.116 27.307.145 40.958.01 3.108-.032 4.02 1.006 3.936 4.025-.188 6.82-.06 13.65-.06 20.475h.12zM191.695 103.718c0 6.985-.11 13.973.057 20.955.064 2.704-.51 3.81-3.524 3.783-13.968-.122-27.94-.068-41.908.083-2.954.03-3.654-1.178-3.64-3.85.07-14.136.073-28.273-.038-42.41-.02-2.742 1.128-3.34 3.583-3.325 14.062.08 28.126.1 42.188-.004 2.688-.02 3.356.983 3.307 3.498-.14 7.088-.048 14.18-.048 21.27h.023zM203.79 103.706c0-6.827.163-13.66-.07-20.48-.11-3.177.614-4.39 4.06-4.343 11.652.153 23.308.018 34.96-.11 3.29-.035 4.7.76 5.133 4.617 1.497 13.356 3.602 26.646 5.597 39.943.554 3.686-.09 5.322-4.45 5.23-13.604-.292-27.22-.205-40.83-.045-3.407.04-4.645-.807-4.47-4.446.32-6.774.09-13.575.09-20.364-.006-.002-.013-.002-.02-.002z"/><path fill="#FCFCFC" d="M142.68 157.682c0-6.823.094-13.648-.05-20.47-.054-2.58.343-3.914 3.417-3.908 14.117.027 28.234-.187 42.352-.252 2.226-.01 3.522.767 3.425 3.568-.244 6.98-.127 13.977-.045 20.965.02 1.8-.414 3.038-1.962 4.165-6.05 4.41-9.442 10.646-10.978 17.784-.562 2.617-1.535 3.093-3.91 3.063-9.484-.118-18.975-.163-28.456.036-3.142.066-4.073-1.1-4.03-4.015.104-6.977.033-13.957.033-20.936h.203z"/><path fill="#F8F8F8" d="M56.365 154.01c26.113-.062 52.227-.09 78.338-.237 2.518-.014 3.062.89 3.023 3.188-.123 7.485-.176 14.975-.002 22.457.064 2.817-1.085 3.226-3.53 3.21-14.14-.1-28.28-.106-42.42.01-2.208.017-3.187-.555-3.85-2.723C82.543 162.26 74.33 155.92 56.57 155.49l-.205-1.48zM126.56 51.938c24.786 0 49.573.095 74.356-.1 3.8-.03 4.66.972 4.73 4.67.072 3.96-1.672 4.17-4.76 4.166-49.584-.066-99.167-.082-148.75.03-3.502.008-4.46-.926-4.493-4.442-.034-3.585 1.024-4.402 4.48-4.38 24.812.146 49.624.078 74.437.078v-.022zM227.59 153.804c8.8-.004 17.6.058 26.4-.043 2.48-.027 3.482.673 3.67 3.343.265 3.76 1.24 7.463 1.773 11.21 1.23 8.616-3.484 14.058-12.26 14.26-8.71.202-8.71.202-11.49-7.568-5.13-14.338-19.733-22.222-34.682-18.734-1.253.293-2.53 1.004-3.806.232-.7-.422-.517-1.26-.192-1.793.872-1.44 2.384-.866 3.622-.873 8.99-.052 17.978-.028 26.966-.033zM227.52 182.59c-2.297.48-3.852-.416-4.748-3.133-2.31-6.99-7.72-10.35-14.7-10.53-6.922-.178-12.4 3.32-14.646 9.885-1.684 4.928-5.043 3.708-8.28 3.716-2.26.006-1.517-1.717-1.306-2.906 2.834-16.002 24.49-24.826 37.727-15.287 4.653 3.353 8.193 7.694 9.893 13.35 1.472 4.902 1.49 4.93-3.94 4.906zM58.914 160.517c11.936-.068 21.86 8.053 24.164 19.575.338 1.683.437 2.477-1.55 2.462-3.49-.026-6.63.87-8.27-4.327-1.93-6.122-7.53-9.268-14.014-9.293-6.864-.027-11.93 3.33-14.944 9.696-.738 1.562-.508 3.838-3.526 4.044-6.345.432-7.122-.31-4.994-6.27 3.338-9.347 12.773-15.827 23.134-15.887z"/><path fill="#D93F5F" d="M66.174 46.873c-11.543 0-11.543 0-11.543-10.804 0-11.163 0-11.163 11.107-11.163 11.16 0 11.174 0 11.023 11.288-.046 3.426 1.138 8.135-.622 9.95-2.204 2.273-6.925.42-9.964.728zM106.092 46.873c-10.684 0-10.684 0-10.684-10.566 0-11.4 0-11.4 11.326-11.4 10.78 0 10.78 0 10.78 10.62.003 11.345.003 11.345-11.422 11.346z"/><path fill="#FCFCFC" d="M54.297 153.815c-.808 2.424-2.18 2.435-3.187 2.718-11.49 3.23-18.028 11.167-21.153 22.26-.598 2.125-.463 4.2-3.697 3.846-2.77-.304-5.224-1.054-5.326-4.07-.26-7.63-.145-15.275-.155-22.915-.004-1.543 1.014-1.854 2.338-1.85 10.21.02 20.42.01 31.18.01z"/><path fill="#D93F5F" d="M207.78 195.756c-6.307-.038-11.07-4.82-10.94-10.983.13-6.085 5.287-10.985 11.39-10.822 6.17.167 10.67 5.094 10.53 11.533-.133 6.15-4.582 10.312-10.98 10.273zM69.736 185.185c-.006 6.316-4.32 10.658-10.558 10.624-6.423-.036-11.187-4.604-11.25-10.784-.06-5.905 5.19-11.205 11.097-11.204 6.096 0 10.717 4.903 10.71 11.363zM153.475 46.896c-4.604 0-9.213-.144-13.808.05-3.035.13-3.743-1.323-3.51-3.91.202-2.23-.313-4.553 3.46-4.458 9.633.24 19.275.184 28.91 0 3.532-.067 3 2.09 3.04 4.22.043 2.233.306 4.296-3.14 4.133-4.975-.235-9.968-.06-14.953-.06v.026z"/><path fill="#F8F8F8" d="M20.977 147.224h116.52c.002.317.004.635.008.952H20.925c.016-.318.034-.635.052-.952z"/><path fill="#D93F5F" d="M122.578 36.066c0-1.998.303-4.052-.06-5.98-.892-4.747 1.4-5.47 5.454-5.32 2.695.1 3.104 1.504 3.104 3.385 0 5.452-.338 10.906-.21 16.352.09 3.825-2.702 2.235-4.16 2.25-1.47.016-4.368 1.585-4.18-2.197.14-2.823.027-5.658.027-8.488h.025zM184.912 36.167c0 1.823-.242 3.685.047 5.46.765 4.722-1.554 5.673-5.64 5.3-2.23-.205-2.766-1.15-2.74-3.14.068-5.302.114-10.61-.035-15.91-.088-3.065 1.754-3.05 3.883-2.928 1.99.113 4.6-.902 4.46 2.766-.105 2.813-.02 5.633-.02 8.45h.044z"/><path fill="#F8F8F8" d="M197.2 147.198h59.09l.002 1.362H197.16l.04-1.362z"/><path fill="#D93F5F" d="M86.372 38.735c3.414-.927 4.073.78 4.202 3.897.152 3.717-1.4 4.35-4.698 4.34-3.205-.008-4.27-.803-4.3-4.183-.038-3.775 1.403-4.773 4.796-4.055zM194.963 38.74c3.043-1.073 3.79.27 3.688 3.384-.1 2.993-.058 4.954-4.124 4.86-3.413-.08-4.432-.786-4.55-4.333-.134-4.064 1.717-4.46 4.987-3.91z"/><path fill="#FCFCFC" d="M56.365 154.01c.068.493.137.985.204 1.478-.66.11-1.34.114-1.23-.785.032-.268.666-.464 1.025-.693z"/><path fill="#111" d="M106.51 74.065c8.658 0 17.32.084 25.98-.053 2.5-.04 3.507.523 3.49 3.257-.104 17.65-.083 35.304-.017 52.957.01 2.326-.668 3.177-3.12 3.164-17.65-.096-35.303-.107-52.954-.01-2.558.016-3.07-1.017-3.063-3.242.055-17.652.096-35.305-.008-52.956-.017-2.938 1.437-3.175 3.71-3.158 8.66.063 17.32.025 25.98.025v.015zm24.36 29.938h.046c0-7.162-.057-14.324.032-21.485.03-2.332-.237-3.61-3.192-3.578-14.154.157-28.312.088-42.47.023-2.688-.012-3.737.797-3.703 3.754.162 13.823.156 27.65-.013 41.472-.04 3.274.936 4.36 4.232 4.323 13.824-.148 27.65-.176 41.473-.005 3.252.04 3.805-1.006 3.682-4.02-.28-6.818-.088-13.655-.088-20.485z"/><path fill="#87D1E4" d="M130.87 104.003c0 6.83-.192 13.667.087 20.484.123 3.015-.43 4.062-3.682 4.02-13.822-.17-27.648-.142-41.473.006-3.297.036-4.272-1.05-4.232-4.324.17-13.824.175-27.65.013-41.473-.034-2.957 1.015-3.766 3.703-3.754 14.157.065 28.315.134 42.47-.023 2.955-.033 3.222 1.246 3.192 3.578-.09 7.16-.032 14.323-.032 21.485h-.047z"/></g></svg>