<?xml version="1.0" encoding="utf-8"?>
<!-- Generator: Adobe Illustrator 16.0.0, SVG Export Plug-In . SVG Version: 6.00 Build 0)  -->
<!DOCTYPE svg PUBLIC "-//W3C//DTD SVG 1.1//EN" "http://www.w3.org/Graphics/SVG/1.1/DTD/svg11.dtd">
<svg version="1.1" xmlns="http://www.w3.org/2000/svg" xmlns:xlink="http://www.w3.org/1999/xlink" x="0px" y="0px" width="286px"
	 height="218px" viewBox="0 0 286 218" enable-background="new 0 0 286 218" xml:space="preserve">
<g id="Layer_1">
	<g id="Layer_2">
	</g>
	<g>
		<path fill="#111111" d="M30.424,97.344c-7.818-13.745-0.239-26.136,13.643-26.982c-3.225-5.751-4.936-11.572-1.744-17.854
			c3.123-6.151,8.452-8.545,15.256-9.088c-1.355-3.467-3.366-6.484-3.301-10.301c0.165-9.708,6.352-16.37,16.092-16.52
			c10.826-0.167,21.656-0.12,32.483-0.028c7.53,0.063,13.258,3.838,15.595,10.816c0.961,2.868,2.502,2.938,4.791,2.927
			c11.158-0.05,22.32,0.1,33.477-0.047c8.307-0.109,14.178,3.276,16.662,11.313c0.887,2.87,2.754,1.874,4.307,1.91
			c9.934,0.234,9.934,0.19,9.908,10.263c-0.012,4.165,0.206,8.346-0.1,12.489c-0.252,3.398,0.615,4.596,4.27,4.475
			c8.82-0.291,17.658-0.008,26.484-0.154c2.557-0.042,3.7,0.602,3.375,3.298c-0.178,1.477,0.012,2.995-0.023,4.493
			c-0.08,3.478,1.074,7.922-0.639,10.17c-1.839,2.412-6.525,0.909-9.941,0.812c-2.719-0.076-2.92,1.093-2.865,3.268
			c0.125,4.994,0.182,10-0.045,14.988c-0.139,3.052,0.818,3.923,3.927,3.901c19.82-0.144,39.642-0.065,59.464-0.061
			c1.618,0,3.236,0,5.537,0c-4.719,10.563-9.124,20.52-13.609,30.44c-8.594,19.004-17.113,38.043-25.946,56.936
			c-1.886,4.034-0.237,5.478,2.994,6.563c5.745,1.93,11.075,1.27,15.886-2.691c1.555-1.28,3.479-3.57,5.273-0.538
			c1.328,2.246-0.676,3.477-2.391,4.564c-7.82,4.958-15.791,6.932-24.163,1.291c-1.644-1.107-2.901-1.189-4.833,0.009
			c-7.223,4.482-14.74,4.715-22.127,0.249c-1.696-1.025-2.876-1.479-4.838-0.25c-7.422,4.649-15.062,4.697-22.468-0.058
			c-1.915-1.23-3.103-0.9-4.852,0.167c-7.309,4.463-14.809,4.558-22.074,0c-2.117-1.328-3.484-0.866-5.288,0.237
			c-7.245,4.435-14.604,4.032-21.676-0.235c-2.04-1.231-3.2-1.321-5.197-0.047c-6.879,4.388-14.045,4.633-21.153,0.469
			c-2.29-1.342-4.079-1.6-6.589-0.043c-6.615,4.104-13.585,4.115-20.259,0.05c-2.58-1.571-4.519-1.502-7.085,0.03
			c-6.307,3.765-12.959,4.133-19.383,0.334c-3.023-1.787-5.24-1.592-8.342,0.139c-7.582,4.231-15.041,2.79-21.98-2.017
			c-1.796-1.244-3.989-2.782-2.291-5.189c1.846-2.613,3.543-0.042,4.949,0.99c5.633,4.131,11.488,4.704,17.766,1.652
			c2.299-1.118,2.879-2.563,2.096-5.109c-8.658-28.131-17.212-56.294-25.793-84.449c-1.652-5.417,4.327-14.533,10.621-16.153
			C26.303,98.256,28.346,97.826,30.424,97.344z M19.506,116.431c1.803,6.337,3.611,12.331,5.185,18.385
			c0.761,2.925,2.306,3.794,5.298,3.734c9.992-0.199,19.993,0.018,29.988-0.151c2.843-0.048,3.678,0.813,3.625,3.623
			c-0.161,8.494-0.141,16.995-0.003,25.49c0.04,2.439-0.749,3.107-3.114,3.06c-6.829-0.14-13.668,0.132-20.49-0.123
			c-3.516-0.131-4.29,0.732-3.178,4.128c2.522,7.703,4.885,15.469,6.992,23.295c1.133,4.207,3.889,6.383,7.667,7.665
			c5.256,1.783,10.39,1.197,14.56-2.403c3.252-2.809,5.461-2.257,8.557,0.154c5.799,4.513,13.125,4.418,18.836-0.357
			c2.949-2.468,4.857-2.101,7.681,0.019c6.55,4.918,13.062,4.823,19.599-0.308c2.764-2.169,4.645-2.083,7.359,0.05
			c6.336,4.977,13.407,5.238,19.19,0.464c3.058-2.523,5.066-2.405,8.134-0.114c6.403,4.781,13.026,4.701,19.234-0.179
			c2.887-2.269,4.875-2.226,7.735-0.001c6.106,4.75,12.874,5.019,18.797,0.439c3.447-2.666,5.722-2.312,8.989,0.191
			c6.458,4.95,17.375,3.719,20.885-2.857c5.106-9.563,9.168-19.684,13.925-30.113c-2.492,0-4.278,0-6.063,0
			c-33.824,0-67.646-0.037-101.47,0.062c-3.032,0.009-4.358-0.474-4.243-3.937c0.266-7.989,0.26-15.998-0.002-23.987
			c-0.117-3.576,1.061-4.318,4.477-4.285c18.787,0.181,37.576,0.084,56.363,0.087c20.328,0.002,40.655,0.029,60.982-0.021
			c1.688-0.004,3.879,0.903,4.905-1.29c3.13-6.686,6.14-13.429,9.454-20.721C185.551,116.431,102.664,116.431,19.506,116.431z
			 M49.925,111.439c6.659,0,13.318,0,19.978,0c11.463,0,11.463,0,11.463-11.275c0.001-10.281,0.004-10.376-10.381-10.666
			c-2.568-0.071-3.573-0.721-3.447-3.386c0.188-3.987,0.242-8,0-11.98c-0.178-2.921,0.853-3.612,3.652-3.557
			c8.754,0.173,17.522-0.187,26.267,0.152c3.913,0.152,4.173-1.468,4.118-4.601c-0.172-9.819,0.23-19.656-0.188-29.46
			c-0.216-5.066,0.986-7.212,6.355-6.465c1.826,0.254,4.948,1.454,5.633-0.973c0.712-2.529-1.816-4.393-3.961-5.771
			c-2.128-1.368-4.465-2.139-7.029-2.121c-10.146,0.071-20.293,0.122-30.438,0.22c-1.64,0.016-3.267-0.154-4.917,0.455
			c-5.075,1.871-7.674,5.393-7.812,10.933c-0.115,4.548,3.158,9.496,8.663,10.682c3.02,0.651,1.638,2.247,1.886,3.326
			c0.527,2.282-1.477,1.6-2.582,1.629c-3.492,0.093-6.994-0.064-10.482,0.086c-6.207,0.267-10.529,4.207-11.141,9.954
			c-0.562,5.291,2.883,10.543,8.469,11.756c2.275,0.494,2.516,1.256,2.561,3.126c0.068,2.867-1.892,2.099-3.42,2.119
			c-2.793,0.036-5.588-0.022-8.381,0.028c-7.172,0.127-11.531,3.401-12.719,9.5c-1.044,5.357,2.123,10.083,8.841,12.244
			c2.15,0.691,1.863,1.857,1.978,3.283c0.163,2.018-1.176,2.027-2.59,2.019c-3.328-0.018-6.661-0.103-9.986,0.009
			c-3.973,0.134-7.564,1.188-9.75,4.932c-0.562,0.964-1.77,1.819-1.227,3.047c0.607,1.376,2.054,0.713,3.12,0.718
			C31.611,111.448,40.768,111.429,49.925,111.439z M197.805,143.5c-18.309,0-36.619,0.135-54.926-0.107
			c-3.936-0.052-4.787,1.227-4.559,4.773c0.277,4.31,0.26,8.662,0.014,12.975c-0.189,3.321,0.611,4.513,4.297,4.495
			c33.455-0.157,66.913-0.127,100.369-0.012c3.169,0.011,4.797-1.021,5.957-3.937c1.838-4.615,3.984-9.124,6.249-13.549
			c1.813-3.543,1.397-4.78-2.971-4.733C234.094,143.599,215.949,143.486,197.805,143.5z M145.053,75.635c0-0.006,0-0.012,0-0.018
			c-22.625,0-45.252,0.096-67.875-0.093c-3.858-0.032-4.658,1.204-4.735,4.807c-0.085,3.957,1.771,4.134,4.833,4.13
			c44.945-0.071,89.892-0.087,134.838,0.018c3.314,0.008,4.568-0.562,4.607-4.247c0.041-3.78-0.987-4.714-4.713-4.685
			C189.689,75.725,167.371,75.635,145.053,75.635z M168.647,43.542c-1.483-5.337-4.704-7.977-9.687-8.133
			c-7.322-0.229-14.658-0.022-21.979-0.29c-2.972-0.108-3.526,0.983-3.485,3.676c0.146,9.494,0.139,18.993-0.009,28.487
			c-0.04,2.563,0.569,3.513,3.287,3.402c5.155-0.21,10.333-0.204,15.489,0.006c2.696,0.11,3.365-0.799,3.297-3.385
			c-0.178-6.66,0.122-13.335-0.14-19.989c-0.126-3.2,0.956-4.07,3.956-3.826C162.313,43.729,165.285,43.542,168.647,43.542z
			 M43.171,143.502c0-0.007,0-0.014,0-0.021c-4.158,0-8.317,0.056-12.474-0.022c-2.208-0.042-3.016,0.554-2.227,2.905
			c1.896,5.653,3.667,11.352,5.363,17.069c0.545,1.839,1.637,2.148,3.33,2.128c6.152-0.072,12.309-0.072,18.461,0.018
			c2.063,0.03,2.979-0.523,2.919-2.802c-0.146-5.484-0.139-10.977-0.006-16.461c0.055-2.23-0.787-2.897-2.894-2.844
			C51.488,143.576,47.328,143.502,43.171,143.502z M108.322,100.264c0-2.318-0.268-4.674,0.057-6.946
			c0.686-4.814-2.666-3.611-5.277-3.989c-3.287-0.475-3.496,1.266-3.426,3.759c0.12,4.302,0.147,8.612,0.018,12.913
			c-0.098,3.245-0.138,5.628,4.479,5.583c4.418-0.043,4.303-2.353,4.157-5.361C108.232,104.242,108.311,102.251,108.322,100.264z
			 M162.453,100.203c0,0-0.012,0-0.019,0c0-2.658-0.147-5.327,0.035-7.972c0.262-3.768-2.417-2.812-4.363-2.796
			c-1.901,0.015-4.536-1.115-4.392,2.723c0.203,5.31,0.134,10.635,0.016,15.95c-0.052,2.328,0.797,3.153,3.121,3.365
			c4.074,0.372,6.418-0.542,5.653-5.295C162.193,104.233,162.453,102.197,162.453,100.203z M189.527,100.653
			c0-2.666-0.242-5.359,0.062-7.99c0.391-3.379-1.559-3.488-3.891-3.223c-2.022,0.23-5.012-1.198-4.928,2.871
			c0.108,5.329,0.107,10.662,0.055,15.992c-0.02,2.028,0.618,2.964,2.816,3.135c3.98,0.31,6.939-0.031,5.943-5.298
			C189.25,104.372,189.533,102.486,189.527,100.653z M117.967,48.698c0-0.017,0-0.034,0-0.05c-2.479,0-4.979,0.199-7.433-0.048
			c-3.44-0.347-4.206,1.208-4.077,4.315c0.113,2.745,0.029,4.808,3.864,4.48c4.269-0.364,8.594-0.207,12.888-0.063
			c3.293,0.11,5.508,0.071,5.49-4.533c-0.018-4.512-2.376-4.199-5.277-4.112C121.605,48.742,119.785,48.698,117.967,48.698z
			 M171.536,48.698c0-0.011,0-0.021,0-0.032c-2.653,0-5.317,0.159-7.956-0.039c-3.576-0.268-3.033,2.189-3.002,4.261
			c0.028,1.997-0.79,4.505,2.854,4.409c5.468-0.145,10.944-0.05,16.417,0.009c1.794,0.019,2.602-0.579,2.846-2.513
			c0.658-5.239,0.049-6.075-5.188-6.094C175.517,48.691,173.526,48.698,171.536,48.698z M135.389,100.33c0.008,0,0.016,0,0.023,0
			c0-2.651-0.102-5.308,0.023-7.953c0.191-4.022-2.734-2.78-4.801-2.94c-2.264-0.175-4.214-0.237-4.027,3.175
			c0.277,5.093,0.205,10.215,0.039,15.316c-0.082,2.495,0.555,3.41,3.236,3.552c3.965,0.209,6.438-0.354,5.562-5.196
			C135.098,104.359,135.389,102.318,135.389,100.33z M194.518,99.981c0,2.811,0.205,5.641-0.053,8.429
			c-0.328,3.545,1.955,3.148,4.081,2.996c2.057-0.147,4.921,1.09,4.798-2.956c-0.163-5.287-0.198-10.587,0.014-15.87
			c0.115-2.864-1.219-3.018-3.539-3.21c-4.031-0.334-6.24,0.514-5.368,5.165C194.779,96.292,194.504,98.162,194.518,99.981z
			 M172.026,62.381c0-0.008,0-0.017,0-0.025c-2.813,0-5.647,0.214-8.437-0.054c-3.525-0.339-3.169,1.891-3.028,4.049
			c0.124,1.897-1.048,4.454,2.772,4.283c5.452-0.244,10.926-0.162,16.385-0.015c2.32,0.062,3.016-0.592,3.158-3.006
			c0.223-3.78-0.354-6.053-4.9-5.287C176.045,62.652,174.013,62.381,172.026,62.381z M117.57,70.571
			c2.649,0,5.322-0.219,7.943,0.053c3.597,0.374,3.073-1.961,2.979-4.059c-0.087-1.928,0.973-4.431-2.812-4.247
			c-5.287,0.256-10.601,0.204-15.893,0.014c-2.616-0.094-3.263,0.744-3.341,3.319c-0.106,3.535,0.414,5.658,4.674,4.98
			C113.221,70.296,115.418,70.573,117.57,70.571z M117.37,43.591c2.817,0,5.646-0.167,8.448,0.041
			c3.891,0.288,2.56-2.508,2.645-4.321c0.091-1.951,0.918-4.376-2.825-4.179c-5.288,0.279-10.607,0.227-15.901,0.012
			c-2.721-0.111-3.104,0.894-3.307,3.373c-0.326,4,0.691,5.81,4.983,5.13C113.353,43.339,115.381,43.594,117.37,43.591z
			 M94.625,100.683c0-2.811-0.195-5.638,0.048-8.427c0.335-3.851-2.371-2.668-4.257-2.771c-2.09-0.115-4.303-0.623-4.118,2.966
			c0.271,5.276,0.161,10.579,0.03,15.866c-0.057,2.295,0.586,3.055,3.023,3.188c3.744,0.204,6.088-0.299,5.328-4.879
			C94.359,104.695,94.627,102.667,94.625,100.683z M121.666,100.612c0-2.778-0.209-5.577,0.051-8.331
			c0.36-3.812-2.244-2.735-4.177-2.785c-2.03-0.052-4.347-0.849-4.155,2.867c0.273,5.282,0.113,10.591,0,15.886
			c-0.047,2.22,0.473,3.114,3.008,3.252c3.829,0.209,5.994-0.482,5.316-4.938C121.413,104.622,121.658,102.599,121.666,100.612z
			 M148.698,100.571c0-2.648-0.271-5.332,0.066-7.937c0.445-3.45-1.565-3.401-3.842-3.147c-1.96,0.219-4.808-1.215-4.56,2.963
			c0.305,5.114,0.203,10.264,0.018,15.39c-0.099,2.734,0.617,3.633,3.549,3.682c3.477,0.058,5.389-0.471,4.824-4.502
			C148.457,104.909,148.701,102.723,148.698,100.571z M175.881,100.48c0.02,0,0.038,0,0.058,0c0-2.83,0.04-5.66-0.024-8.488
			c-0.02-0.888,0.363-1.91-0.951-2.496c-3.785-1.686-7.48,0.458-7.481,4.454c-0.001,4.829-0.019,9.658,0.025,14.487
			c0.011,1.074-0.36,2.297,1.136,2.941c3.704,1.596,7.201-0.486,7.234-4.405C175.896,104.81,175.881,102.645,175.881,100.48z"/>
		<path fill="#111111" d="M214.01,31.567c3.194,1.982,7.154,0.903,11.184,0.128c1.182-0.228,2.624,0.381,3.827,0.891
			c2.142,0.907,4.771,2.089,3.541,4.92c-1.232,2.838-3.351,0.531-5.073-0.016c-0.315-0.1-0.702-0.434-0.913-0.339
			c-5.554,2.481-11.476-1.391-17.013,0.998c-1.409,0.608-2.982,1.412-3.932-0.312c-0.937-1.703-0.049-3.249,1.519-4.231
			C208.992,32.45,210.998,31.684,214.01,31.567z"/>
		<path fill="#111111" d="M248.797,61.251c3.758,2.133,7.684,1.356,11.729,0.476c1.438-0.313,3.281,0.478,4.734,1.186
			c1.885,0.918,4.451,2.157,3.014,4.753c-1.3,2.348-3.428,0.852-5.135-0.173c-0.142-0.085-0.301-0.273-0.418-0.25
			c-5.605,1.149-11.306-0.406-16.856,0.506c-1.927,0.317-3.853,2.05-5.088-0.434c-1.101-2.21,1.099-3.277,2.629-4.105
			C244.974,62.361,246.783,61.958,248.797,61.251z"/>
		<path fill="#FCFCFC" d="M19.506,116.431c83.158,0,166.045,0,249.854,0c-3.314,7.292-6.324,14.035-9.454,20.721
			c-1.026,2.193-3.218,1.286-4.905,1.29c-20.327,0.051-40.654,0.024-60.982,0.021c-18.787-0.003-37.576,0.094-56.363-0.087
			c-3.416-0.033-4.594,0.709-4.477,4.285c0.262,7.989,0.268,15.999,0.002,23.987c-0.115,3.463,1.211,3.946,4.243,3.937
			c33.823-0.099,67.646-0.062,101.47-0.062c1.785,0,3.571,0,6.063,0c-4.757,10.429-8.818,20.549-13.925,30.113
			c-3.51,6.576-14.427,7.807-20.885,2.857c-3.268-2.503-5.542-2.857-8.989-0.191c-5.923,4.58-12.69,4.31-18.797-0.439
			c-2.86-2.225-4.849-2.268-7.735,0.001c-6.208,4.88-12.831,4.96-19.234,0.179c-3.067-2.291-5.076-2.409-8.134,0.114
			c-5.783,4.774-12.854,4.513-19.19-0.464c-2.715-2.134-4.596-2.22-7.359-0.05c-6.537,5.131-13.049,5.226-19.599,0.308
			c-2.823-2.12-4.731-2.487-7.681-0.019c-5.711,4.775-13.037,4.871-18.836,0.357c-3.096-2.411-5.305-2.963-8.557-0.154
			c-4.17,3.6-9.304,4.186-14.56,2.403c-3.778-1.281-6.534-3.458-7.667-7.665c-2.107-7.826-4.47-15.592-6.992-23.295
			c-1.112-3.396-0.338-4.26,3.178-4.128c6.822,0.254,13.661-0.017,20.49,0.123c2.365,0.048,3.154-0.621,3.114-3.06
			c-0.138-8.496-0.158-16.996,0.003-25.49c0.053-2.81-0.782-3.671-3.625-3.623c-9.995,0.169-19.996-0.048-29.988,0.151
			c-2.992,0.06-4.537-0.81-5.298-3.734C23.117,128.761,21.309,122.768,19.506,116.431z M102.037,150.061
			c5.129-5.902,5.91-11.147,2.258-14.861c-3.678-3.739-9.621-3.856-13.506-0.301c-1.697,1.554-2.34,3.495-2.574,5.731
			c-0.418,3.971,1.491,6.836,4.928,9.481c-2.322,0.474-4.748-0.307-4.819,2.397c-0.078,2.951,2.173,2.923,4.204,2.871
			c1.799-0.045,2.226,0.825,2.203,2.438c-0.092,6.324,0.082,12.657-0.201,18.97c-0.197,4.415-2.956,7.216-6.975,8.85
			c-3.941,1.603-7.5,0.775-10.709-1.759c-0.776-0.613-2.486-1.499-1.309-2.704c5.063-5.177-1.557-5.229-3.214-7.308
			c-0.858-1.077-2.546-1.888-3.867-0.255c-1.647,2.036-3.906,3.915-3.912,6.705c-0.005,2.167,1.772,2.445,3.671,1.908
			c1.408-0.399,1.48,1.047,1.998,1.734c6.644,8.803,17.017,9.958,24.924,2.426c2.018-1.922,2.769-1.552,4.557,0.13
			c7.414,6.973,16.863,6.381,23.65-1.261c0.876-0.987,1.627-2.941,2.478-2.965c8.524-0.238,3.162-4.138,1.81-6.769
			c-1.171-2.276-3.068-3.995-5.462-1.66c-1.869,1.823-7.419,2.32-3.305,7.026c1.579,1.806-0.396,2.388-1.161,3.037
			c-6.244,5.296-15.893,1.876-17.428-6.266c-1.241-6.583-0.277-13.284-0.532-19.927c-0.065-1.71,0.652-2.373,2.354-2.341
			c2.011,0.038,4.346,0.099,4.374-2.758C106.501,149.599,103.563,150.884,102.037,150.061z"/>
		<path fill="#D93F5F" d="M197.805,143.493c18.145-0.006,36.289,0.106,54.431-0.088c4.368-0.047,4.784,1.19,2.971,4.733
			c-2.265,4.426-4.411,8.934-6.249,13.549c-1.16,2.915-2.788,3.948-5.957,3.937c-33.456-0.115-66.914-0.146-100.369,0.012
			c-3.686,0.018-4.486-1.174-4.297-4.495c0.246-4.313,0.264-8.665-0.014-12.975c-0.229-3.546,0.623-4.825,4.559-4.773
			C161.186,143.635,179.496,143.5,197.805,143.493z"/>
		<path fill="#F8F8F8" d="M145.053,75.635c22.318,0,44.637,0.089,66.955-0.088c3.726-0.03,4.754,0.905,4.713,4.685
			c-0.039,3.685-1.293,4.254-4.607,4.247c-44.946-0.105-89.893-0.088-134.838-0.018c-3.062,0.004-4.918-0.173-4.833-4.13
			c0.077-3.603,0.877-4.839,4.735-4.807c22.623,0.189,45.25,0.093,67.875,0.093C145.053,75.623,145.053,75.629,145.053,75.635z"/>
		<path fill="#FEFEFE" d="M168.647,43.542c-3.362,0-6.334,0.187-9.271-0.052c-3-0.244-4.082,0.626-3.956,3.826
			c0.262,6.654-0.038,13.329,0.14,19.989c0.068,2.586-0.601,3.495-3.297,3.385c-5.156-0.21-10.334-0.217-15.489-0.006
			c-2.718,0.111-3.327-0.838-3.287-3.402c0.147-9.494,0.155-18.994,0.009-28.487c-0.041-2.693,0.514-3.784,3.485-3.676
			c7.321,0.268,14.657,0.06,21.979,0.29C163.943,35.565,167.164,38.205,168.647,43.542z"/>
		<path fill="#D93F5F" d="M43.171,143.502c4.157,0,8.317,0.074,12.474-0.031c2.106-0.053,2.948,0.614,2.894,2.844
			c-0.133,5.484-0.14,10.977,0.006,16.461c0.061,2.278-0.855,2.832-2.919,2.802c-6.152-0.09-12.309-0.09-18.461-0.018
			c-1.693,0.02-2.785-0.289-3.33-2.128c-1.696-5.717-3.467-11.416-5.363-17.069c-0.789-2.351,0.019-2.946,2.227-2.905
			c4.156,0.078,8.315,0.022,12.474,0.022C43.171,143.488,43.171,143.495,43.171,143.502z"/>
		<path fill="#87D1E4" d="M108.316,100.264c-0.006,1.987-0.084,3.978,0.013,5.96c0.146,3.008,0.261,5.318-4.157,5.361
			c-4.616,0.045-4.576-2.338-4.479-5.583c0.13-4.301,0.103-8.611-0.018-12.913c-0.07-2.494,0.139-4.234,3.426-3.759
			c2.611,0.377,5.963-0.825,5.277,3.989C108.055,95.59,108.322,97.946,108.316,100.264z"/>
		<path fill="#87D1E4" d="M162.453,100.203c0,1.994-0.26,4.03,0.052,5.974c0.765,4.754-1.579,5.667-5.653,5.295
			c-2.324-0.212-3.173-1.038-3.121-3.365c0.118-5.315,0.188-10.64-0.016-15.95c-0.145-3.838,2.49-2.708,4.392-2.723
			c1.946-0.016,4.625-0.972,4.363,2.796c-0.183,2.646-0.035,5.314-0.035,7.972C162.441,100.203,162.447,100.203,162.453,100.203z"/>
		<path fill="#87D1E4" d="M189.53,100.653c0.003,1.833-0.28,3.719,0.056,5.488c0.996,5.267-1.963,5.607-5.943,5.298
			c-2.198-0.171-2.836-1.107-2.816-3.135c0.053-5.33,0.054-10.663-0.055-15.992c-0.084-4.068,2.905-2.641,4.928-2.871
			c2.332-0.265,4.281-0.156,3.891,3.223C189.285,95.294,189.527,97.988,189.53,100.653z"/>
		<path fill="#D93F5F" d="M117.967,48.698c1.818,0,3.639,0.044,5.455-0.01c2.901-0.087,5.26-0.4,5.277,4.112
			c0.018,4.604-2.197,4.643-5.49,4.533c-4.294-0.144-8.619-0.301-12.888,0.063c-3.835,0.328-3.751-1.735-3.864-4.48
			c-0.129-3.107,0.637-4.662,4.077-4.315c2.454,0.247,4.954,0.048,7.433,0.048C117.967,48.664,117.967,48.681,117.967,48.698z"/>
		<path fill="#D93F5F" d="M171.536,48.698c1.99,0,3.98-0.006,5.971,0.001c5.237,0.019,5.847,0.855,5.188,6.094
			c-0.244,1.934-1.052,2.532-2.846,2.513c-5.473-0.059-10.949-0.154-16.417-0.009c-3.645,0.097-2.826-2.412-2.854-4.409
			c-0.031-2.071-0.574-4.528,3.002-4.261c2.639,0.198,5.303,0.039,7.956,0.039C171.536,48.676,171.536,48.687,171.536,48.698z"/>
		<path fill="#87D1E4" d="M135.389,100.33c0,1.989-0.291,4.03,0.057,5.956c0.875,4.842-1.598,5.405-5.562,5.196
			c-2.682-0.142-3.318-1.057-3.236-3.552c0.166-5.102,0.238-10.224-0.039-15.316c-0.187-3.412,1.764-3.351,4.027-3.175
			c2.066,0.16,4.992-1.082,4.801,2.94c-0.125,2.645-0.023,5.301-0.023,7.953C135.404,100.33,135.396,100.33,135.389,100.33z"/>
		<path fill="#F8F8F8" d="M194.51,99.981c-0.006-1.819,0.27-3.69-0.06-5.447c-0.872-4.651,1.337-5.499,5.368-5.165
			c2.32,0.192,3.654,0.346,3.539,3.21c-0.212,5.283-0.177,10.583-0.014,15.87c0.123,4.045-2.741,2.808-4.798,2.956
			c-2.126,0.153-4.409,0.55-4.081-2.996C194.723,105.623,194.518,102.792,194.51,99.981z"/>
		<path fill="#FEFEFE" d="M172.026,62.381c1.986,0,4.019,0.271,5.95-0.055c4.547-0.767,5.123,1.507,4.9,5.287
			c-0.143,2.414-0.838,3.069-3.158,3.006c-5.459-0.147-10.933-0.229-16.385,0.015c-3.82,0.17-2.648-2.386-2.772-4.283
			c-0.141-2.158-0.497-4.388,3.028-4.049c2.789,0.268,5.623,0.054,8.437,0.054C172.026,62.364,172.026,62.373,172.026,62.381z"/>
		<path fill="#FEFEFE" d="M117.57,70.572c-2.152,0.001-4.35-0.275-6.449,0.059c-4.26,0.678-4.78-1.446-4.674-4.98
			c0.078-2.575,0.725-3.413,3.341-3.319c5.292,0.19,10.605,0.243,15.893-0.014c3.784-0.184,2.725,2.319,2.812,4.247
			c0.095,2.098,0.618,4.433-2.979,4.059C122.893,70.352,120.22,70.571,117.57,70.572z"/>
		<path fill="#FEFEFE" d="M117.37,43.592c-1.989,0.001-4.018-0.253-5.957,0.054c-4.292,0.679-5.31-1.13-4.983-5.13
			c0.202-2.479,0.586-3.483,3.307-3.373c5.294,0.215,10.613,0.267,15.901-0.012c3.743-0.197,2.916,2.229,2.825,4.179
			c-0.085,1.812,1.246,4.608-2.645,4.321C123.016,43.424,120.188,43.591,117.37,43.592z"/>
		<path fill="#FCFCFC" d="M94.625,100.683c0.002,1.983-0.266,4.012,0.055,5.942c0.76,4.58-1.584,5.083-5.328,4.879
			c-2.438-0.133-3.08-0.893-3.023-3.188c0.131-5.287,0.24-10.589-0.03-15.866c-0.185-3.589,2.028-3.081,4.118-2.966
			c1.886,0.104,4.592-1.08,4.257,2.771C94.43,95.045,94.625,97.873,94.625,100.683z"/>
		<path fill="#FCFCFC" d="M121.662,100.612c-0.004,1.986-0.249,4.01,0.047,5.951c0.678,4.456-1.487,5.147-5.316,4.938
			c-2.535-0.139-3.055-1.032-3.008-3.252c0.113-5.295,0.273-10.604,0-15.886c-0.191-3.716,2.125-2.919,4.155-2.867
			c1.933,0.05,4.537-1.027,4.177,2.785C121.457,95.035,121.666,97.833,121.662,100.612z"/>
		<path fill="#FCFCFC" d="M148.699,100.571c0.002,2.152-0.242,4.338,0.055,6.449c0.564,4.031-1.348,4.56-4.824,4.502
			c-2.932-0.048-3.647-0.948-3.549-3.682c0.186-5.125,0.287-10.276-0.018-15.39c-0.248-4.178,2.6-2.745,4.56-2.963
			c2.276-0.254,4.287-0.303,3.842,3.147C148.428,95.239,148.698,97.922,148.699,100.571z"/>
		<path fill="#FCFCFC" d="M175.881,100.48c0,2.165,0.016,4.33-0.004,6.494c-0.033,3.919-3.53,6.001-7.234,4.405
			c-1.496-0.644-1.125-1.867-1.136-2.941c-0.044-4.829-0.026-9.658-0.025-14.487c0.001-3.996,3.696-6.14,7.481-4.454
			c1.314,0.585,0.932,1.608,0.951,2.496c0.064,2.828,0.024,5.658,0.024,8.488C175.919,100.48,175.9,100.48,175.881,100.48z"/>
		<path fill="#111111" d="M102.037,150.061c1.526,0.823,4.464-0.462,4.435,2.57c-0.028,2.857-2.363,2.796-4.374,2.758
			c-1.702-0.032-2.42,0.631-2.354,2.341c0.255,6.643-0.709,13.344,0.532,19.927c1.535,8.142,11.184,11.562,17.428,6.266
			c0.766-0.649,2.74-1.231,1.161-3.037c-4.114-4.707,1.436-5.203,3.305-7.026c2.394-2.334,4.291-0.616,5.462,1.66
			c1.353,2.631,6.715,6.53-1.81,6.769c-0.851,0.024-1.602,1.978-2.478,2.965c-6.787,7.643-16.236,8.234-23.65,1.261
			c-1.788-1.682-2.539-2.052-4.557-0.13c-7.907,7.532-18.28,6.377-24.924-2.426c-0.518-0.688-0.59-2.134-1.998-1.734
			c-1.898,0.538-3.676,0.26-3.671-1.908c0.006-2.79,2.265-4.669,3.912-6.705c1.321-1.633,3.009-0.822,3.867,0.255
			c1.657,2.078,8.277,2.131,3.214,7.308c-1.178,1.205,0.532,2.091,1.309,2.704c3.209,2.534,6.768,3.361,10.709,1.759
			c4.019-1.634,6.777-4.435,6.975-8.85c0.283-6.313,0.109-12.646,0.201-18.97c0.022-1.613-0.404-2.483-2.203-2.438
			c-2.031,0.052-4.282,0.08-4.204-2.871c0.071-2.704,2.497-1.923,4.819-2.397c-3.437-2.645-5.346-5.51-4.928-9.481
			c0.234-2.236,0.877-4.178,2.574-5.731c3.885-3.555,9.828-3.438,13.506,0.301C107.947,138.913,107.166,144.159,102.037,150.061z
			 M101.559,141.07c-0.357-2.537-1.805-4.143-4.557-3.968c-2.535,0.161-3.865,1.809-3.697,4.328
			c0.177,2.663,1.564,4.345,4.457,4.116C100.356,145.341,101.399,143.652,101.559,141.07z"/>
		<path fill="#F8F8F8" d="M101.559,141.07c-0.159,2.582-1.202,4.271-3.797,4.476c-2.893,0.229-4.28-1.453-4.457-4.116
			c-0.168-2.519,1.162-4.167,3.697-4.328C99.754,136.927,101.201,138.533,101.559,141.07z"/>
	</g>
</g>
<g id="Layer_3">
</g>
</svg>
