<svg id="Layer_1" data-name="Layer 1" xmlns="http://www.w3.org/2000/svg" viewBox="0 0 175 60"><defs><style>.cls-1{fill:#fff;}</style></defs><title>logo-mozfest-white</title><path class="cls-1" d="M71.87,19.41h2V13.66a2.17,2.17,0,0,1,1.35-.6c.57,0,.72.23.72,1.21v5.14h2V13.74a2.34,2.34,0,0,1,1.37-.66c.54,0,.65.18.65,1.13v5.21h2V13.8c0-1.08-.14-1.54-.59-1.93a2.45,2.45,0,0,0-1.56-.49,2.87,2.87,0,0,0-2.23,1,2.92,2.92,0,0,0-.31-.39,2.12,2.12,0,0,0-1.6-.64,2.7,2.7,0,0,0-1.92.8,2,2,0,0,0-.27-.8l-1.86.5a4.09,4.09,0,0,1,.29,2Z"/><path class="cls-1" d="M86.61,19.58a3.21,3.21,0,0,0,2.6-1.1,4.29,4.29,0,0,0,1-3.05,4.12,4.12,0,0,0-.91-2.88,3.3,3.3,0,0,0-2.68-1.19c-2.13,0-3.54,1.65-3.54,4.13S84.47,19.58,86.61,19.58Zm-1-5.89a1.13,1.13,0,0,1,2-.39,3.71,3.71,0,0,1,.41,2.11c0,1.87-.38,2.67-1.28,2.67a1.14,1.14,0,0,1-1-.65,5.6,5.6,0,0,1-.26-2A5.6,5.6,0,0,1,85.58,13.69Z"/><polygon class="cls-1" points="96.96 17.98 93.35 17.98 96.83 12.94 96.83 11.52 90.98 11.52 90.98 12.97 94.38 12.97 90.67 18.13 90.67 19.41 96.47 19.41 96.96 17.98"/><polygon class="cls-1" points="98.01 19.41 100.07 19.41 100.07 11.33 98.01 11.66 98.01 19.41"/><path class="cls-1" d="M99,10.62a1.28,1.28,0,0,0,0-2.56,1.29,1.29,0,0,0-1.29,1.28A1.27,1.27,0,0,0,99,10.62Z"/><path class="cls-1" d="M101.71,16.75a4.26,4.26,0,0,0,.19,1.77,1.85,1.85,0,0,0,1.83,1.08,3.46,3.46,0,0,0,1.23-.21l-.35-1.24a.72.72,0,0,1-.23,0A.48.48,0,0,1,104,18c-.12-.21-.14-.4-.14-1.76V10.06A12.07,12.07,0,0,0,103.72,8l-2.11.48a20.21,20.21,0,0,1,.1,2.37Z"/><path class="cls-1" d="M106,16.75a4.19,4.19,0,0,0,.18,1.77A1.85,1.85,0,0,0,108,19.6a3.48,3.48,0,0,0,1.23-.21l-.35-1.24a.7.7,0,0,1-.23,0,.46.46,0,0,1-.41-.22c-.13-.21-.14-.4-.14-1.76V10.06A10.9,10.9,0,0,0,108,8l-2.1.48a20.36,20.36,0,0,1,.11,2.37Z"/><path class="cls-1" d="M116.87,18.55a1.61,1.61,0,0,1-.74-1.62v-.14l0-2.65a3.88,3.88,0,0,0-.14-1.42c-.31-.88-1.22-1.37-2.54-1.37a5.31,5.31,0,0,0-2.15.46,7.69,7.69,0,0,0-1.28.65l.88,1.48a4.33,4.33,0,0,1,2.27-.89c.76,0,.93.29.93,1.17v.32a4,4,0,0,0-.46,0c-2.51,0-3.79.86-3.79,2.72,0,1.57,1,2.46,2.71,2.46a2.71,2.71,0,0,0,1.59-.43,3.47,3.47,0,0,0,.48-.41,2.21,2.21,0,0,0,1.11,1Zm-2.79-.89a1.48,1.48,0,0,1-1.07.54.94.94,0,0,1-.91-1c0-.95.5-1.21,1.93-1.21h.09Z"/><polygon class="cls-1" points="83.78 27.38 84.31 23.61 71.78 23.61 71.78 46.69 76.44 46.69 76.44 36.47 82.32 36.47 82.32 32.67 76.44 32.67 76.44 27.38 83.78 27.38"/><path class="cls-1" d="M91.56,29.31a6.68,6.68,0,0,0-5.35,2.3c-1.5,1.67-2.13,3.7-2.13,6.76,0,5.36,3.16,8.82,8,8.82a9.75,9.75,0,0,0,6.41-2.36l-1.73-2.66a6.64,6.64,0,0,1-4.32,1.7c-2.29,0-3.59-1.5-3.59-4.13V39.6h9.84v-1c0-3.56-.7-5.86-2.26-7.46A7,7,0,0,0,91.56,29.31Zm2.56,7H89v-.07c0-2.36,1-3.7,2.66-3.7a2.15,2.15,0,0,1,2,1,4.4,4.4,0,0,1,.53,2.56Z"/><path class="cls-1" d="M109.94,36.47l-2.06-.53c-1.56-.4-2.13-.87-2.13-1.73s.86-1.66,2.16-1.66a9,9,0,0,1,4.19,1.23l1.46-3a12.75,12.75,0,0,0-6.08-1.6c-4,0-6.58,2.23-6.58,5.56a5.17,5.17,0,0,0,1,3.06A6,6,0,0,0,105,39.53l2,.37c1.79.33,2.63.93,2.63,2.1a2.08,2.08,0,0,1-2.26,1.93A12.4,12.4,0,0,1,101.7,42l-1.59,3.26a15.1,15.1,0,0,0,6.88,2c4.35,0,7.28-2.4,7.28-5.93a4.51,4.51,0,0,0-.93-2.9C112.73,37.63,112,37,109.94,36.47Z"/><path class="cls-1" d="M123.79,44c-1.53,0-1.93-.57-1.93-2.73V32.57h2.86l1.13-3h-4a50.26,50.26,0,0,1,.27-5.13l-4.52,1.13a30.14,30.14,0,0,0-.17,4.06h-1.69v2.9h1.69V42a6.28,6.28,0,0,0,.3,2.63c.5,1.5,2.33,2.5,4.59,2.5a9.34,9.34,0,0,0,3.62-.77l-.56-2.66A5.81,5.81,0,0,1,123.79,44Z"/><path class="cls-1" d="M129.51,22.18a2.78,2.78,0,0,0-2.79,2.76,2.74,2.74,0,1,0,5.48,0A2.72,2.72,0,0,0,129.51,22.18Z"/><polygon class="cls-1" points="127.22 46.69 131.67 46.69 131.67 29.24 127.22 29.94 127.22 46.69"/><path class="cls-1" d="M142.67,36.8a28.68,28.68,0,0,0-1,4.33c-.23-1.1-.73-3-1.1-4.1l-2.46-7.69-4.55.57,6.18,16.78h3.69l6.21-17H145Z"/><path class="cls-1" d="M163.87,41.33V41l.1-5.73a8.63,8.63,0,0,0-.3-3.06c-.66-1.9-2.62-3-5.48-3a11.49,11.49,0,0,0-4.65,1,12.66,12.66,0,0,0-2.76,1.4l1.89,3.2a9.36,9.36,0,0,1,4.92-1.93c1.63,0,2,.63,2,2.53v.7c-.46,0-.66,0-1,0-5.42,0-8.17,1.86-8.17,5.86,0,3.4,2.06,5.33,5.85,5.33a5.87,5.87,0,0,0,3.42-.93,7.42,7.42,0,0,0,1-.9,4.76,4.76,0,0,0,2.39,2.06l2.36-2.73C164.17,43.86,163.87,43.16,163.87,41.33Zm-4.42,1.57a3.23,3.23,0,0,1-2.33,1.17,2,2,0,0,1-2-2.23c0-2,1.06-2.6,4.15-2.6h.2Z"/><path class="cls-1" d="M174.24,44a1.47,1.47,0,0,1-.5.07,1,1,0,0,1-.9-.47c-.27-.47-.3-.87-.3-3.8V26.48a25.45,25.45,0,0,0-.23-4.43l-4.55,1a44,44,0,0,1,.23,5.13V40.93c0,2.43.07,3,.4,3.83a4,4,0,0,0,4,2.33,7.41,7.41,0,0,0,2.66-.47Z"/><path class="cls-1" d="M59.61,25.9l-1-.47A9.23,9.23,0,0,1,53.9,13.64l.43-1.06-.3-.41A29.88,29.88,0,0,0,48.42,6.4L48,6.08,47,6.48A8.82,8.82,0,0,1,43.83,7a9.27,9.27,0,0,1-8.49-5.58l-.44-1L34.4.34a29.75,29.75,0,0,0-8-.13l-.51.06-.47,1A9.19,9.19,0,0,1,17,6.65,8.83,8.83,0,0,1,13.62,6l-1.05-.43-.41.3a29.82,29.82,0,0,0-5.77,5.62l-.31.4L6.47,13a9.23,9.23,0,0,1-5,11.64L.41,25l-.08.51A30,30,0,0,0,.21,33.6l.06.51,1,.47A9.23,9.23,0,0,1,6,46.36l-.43,1.06.3.41a29.87,29.87,0,0,0,5.61,5.78l.4.32,1.06-.4A8.83,8.83,0,0,1,16,53a9.28,9.28,0,0,1,8.5,5.58l.44,1,.51.08A30.07,30.07,0,0,0,30,60a29.73,29.73,0,0,0,3.57-.22l.51-.06.47-1a9.19,9.19,0,0,1,8.39-5.34,8.82,8.82,0,0,1,3.36.66l1.06.43.41-.3a29.85,29.85,0,0,0,5.77-5.62l.32-.4L53.41,47a9.23,9.23,0,0,1,5-11.64l1-.44.08-.51a29.87,29.87,0,0,0,.12-8.06Zm-1.79,7.79-.1,0a11.07,11.07,0,0,0-6,14l0,.1a28,28,0,0,1-4.69,4.57l-.11,0a10.64,10.64,0,0,0-4.05-.79,11,11,0,0,0-10,6.41l0,.1a28,28,0,0,1-6.55-.1l0-.1A11.12,11.12,0,0,0,16,51.13a10.65,10.65,0,0,0-3.76.68l-.09,0a28.05,28.05,0,0,1-4.57-4.7l0-.1a11.07,11.07,0,0,0-5.6-14.13l-.1,0a28.16,28.16,0,0,1,.1-6.56l.1,0a11.07,11.07,0,0,0,6-14l0-.1a28,28,0,0,1,4.69-4.58l.1,0a10.64,10.64,0,0,0,4.06.8A11,11,0,0,0,27,2.07l0-.1a27.94,27.94,0,0,1,6.55.1l0,.1a11.11,11.11,0,0,0,10.17,6.7,10.64,10.64,0,0,0,3.75-.68l.1,0a28,28,0,0,1,4.57,4.7l0,.11a11.07,11.07,0,0,0,5.6,14.13l.1,0A28,28,0,0,1,57.82,33.69Z"/><path class="cls-1" d="M29.94,8.53A21.47,21.47,0,1,0,51.37,30,21.14,21.14,0,0,0,45.1,14.82,21.73,21.73,0,0,0,29.94,8.53Zm0,41.12A19.66,19.66,0,1,1,49.55,30,19.65,19.65,0,0,1,29.94,49.65Z"/><path class="cls-1" d="M34.71,22.25l-4.26-6.83H22.11L17.4,23.25,21.56,30,17.4,36.92l4.71,7.67h8.33l4.35-6.84H42l4.88-7.67L42,22.25Zm.09,1.82h4.87l-3,5.09H31.59l.55-.92Zm-1.7-1-2.5,4.17-.66,1-3.12-5.15,3-5.24Zm-10-5.88h5l-3,5.09H20.08Zm-3,6.91h5.19l3,4.94H23.13Zm3,6.76h5l-3,5.09H20.08Zm0,11.85-3-4.94h5.19l3,4.94ZM29.94,42l-3.13-5.15,3-5.22L33.14,37Zm4.77-6.06L31.63,31h5.16l3,4.94Zm6.74-.77L38.32,30l3-5.24,3.31,5.31Z"/></svg>