<svg xmlns="http://www.w3.org/2000/svg" width="196.138" height="76.328" viewBox="0 0 196.138 76.328"><g><g fill="#fff"><path d="M83.487 18.75c.138.213.197.4.275.8.538-.524 1.202-.8 1.924-.8.654 0 1.19.213 1.606.645.11.11.218.25.313.387.72-.74 1.367-1.03 2.232-1.03.617 0 1.204.183 1.56.49.446.386.588.85.588 1.93v5.612H89.98V21.57c0-.942-.11-1.126-.647-1.126-.387 0-.928.264-1.373.664v5.676h-1.956v-5.14c0-.983-.143-1.214-.716-1.214-.383 0-.91.197-1.355.6v5.754h-2.018v-5.508c0-1.14-.08-1.63-.295-2.02l1.867-.505zM99.366 19.92c.63.74.912 1.603.912 2.883 0 1.357-.312 2.283-.99 3.052-.6.68-1.387 1.097-2.603 1.097-2.144 0-3.544-1.604-3.544-4.086s1.416-4.133 3.545-4.133c1.126 0 2.003.387 2.68 1.186zm-3.715 1.14c-.14.42-.214.972-.214 1.76 0 .907.092 1.59.262 1.99.184.43.65.645 1.046.645.895 0 1.28-.8 1.28-2.668 0-1.062-.14-1.758-.416-2.113-.2-.26-.52-.416-.893-.416-.495 0-.894.307-1.064.803zM106.925 18.89v1.415l-3.488 5.043h3.624l-.492 1.436h-5.81v-1.28l3.71-5.165h-3.402v-1.45h5.86zM110.418 16.713c0 .71-.565 1.277-1.278 1.277-.69 0-1.262-.566-1.262-1.277 0-.707.59-1.28 1.297-1.28.69 0 1.243.573 1.243 1.28zm-.243 1.99v8.08h-2.064v-7.757l2.065-.324zM113.937 17.424v6.15c0 1.36.018 1.543.14 1.758.08.14.247.215.417.215.077 0 .12 0 .232-.03l.352 1.235c-.352.137-.783.214-1.23.214-.88 0-1.59-.415-1.836-1.077-.154-.4-.19-.65-.19-1.774v-5.893c0-1.033-.024-1.662-.103-2.373l2.11-.48c.074.43.107.94.107 2.054zM118.222 17.424v6.15c0 1.36.02 1.543.145 1.758.072.14.24.215.414.215.077 0 .124 0 .233-.03l.353 1.235c-.353.137-.788.214-1.233.214-.88 0-1.59-.415-1.836-1.077-.158-.4-.184-.65-.184-1.774v-5.893c0-1.033-.033-1.662-.11-2.373l2.11-.48c.083.43.11.94.11 2.054zM121.463 19.18c.77-.322 1.43-.46 2.155-.46 1.33 0 2.238.49 2.55 1.37.1.324.15.57.14 1.418l-.05 2.652v.14c0 .848.14 1.17.745 1.618l-1.098 1.266c-.482-.2-.914-.558-1.113-.957-.152.156-.323.307-.48.414-.384.28-.94.435-1.59.435-1.756 0-2.713-.895-2.713-2.465 0-1.854 1.282-2.717 3.792-2.717.153 0 .294 0 .465.018v-.32c0-.882-.17-1.175-.93-1.175-.654 0-1.433.322-2.278.893l-.882-1.48c.42-.26.73-.417 1.285-.648zm2.68 4.15c-1.43 0-1.93.26-1.93 1.204 0 .614.39 1.03.913 1.03.385 0 .773-.2 1.076-.54l.035-1.695h-.095z"/></g><g fill="#fff"><path d="M81.833 30.983h12.552l-.533 3.763h-7.357v5.294h5.893v3.795h-5.893v10.22h-4.66V30.984zM106.907 49.528l1.732 2.663c-1.966 1.6-4.03 2.365-6.428 2.365-4.894 0-8.056-3.463-8.056-8.824 0-3.06.632-5.09 2.13-6.757 1.4-1.564 3.097-2.297 5.36-2.297 1.965 0 3.83.666 4.928 1.8 1.564 1.597 2.264 3.894 2.264 7.456v1.03h-9.855v.134c0 2.63 1.3 4.13 3.596 4.13 1.53 0 2.962-.567 4.327-1.698zm-7.856-5.826h5.16v-.2c0-1.265-.133-1.93-.53-2.563-.435-.667-1.067-1-1.966-1-1.697 0-2.663 1.33-2.663 3.696v.066zM123.688 38.14l-1.465 2.997c-1.697-.865-2.93-1.23-4.194-1.23-1.3 0-2.165.666-2.165 1.664 0 .866.565 1.333 2.13 1.73l2.064.534c2.097.533 2.796 1.165 3.395 1.932.633.8.932 1.764.932 2.896 0 3.53-2.93 5.927-7.29 5.927-2.098 0-4.396-.667-6.892-1.966l1.598-3.263c1.365.834 3.73 1.932 5.66 1.932 1.264 0 2.264-.832 2.264-1.93 0-1.166-.832-1.766-2.63-2.098l-1.998-.367c-1.133-.2-2.53-.998-3.13-1.73s-.966-1.965-.966-3.064c0-3.328 2.63-5.56 6.592-5.56 2.73 0 4.528.832 6.092 1.598zM136.01 36.976l-1.133 2.964h-2.864v8.688c0 2.165.4 2.73 1.932 2.73.4 0 .8-.1 1.598-.333l.566 2.664c-1.3.53-2.464.765-3.63.765-2.264 0-4.095-1-4.595-2.498-.266-.732-.3-1.064-.3-2.63V39.94h-1.697v-2.896h1.698c0-1.666 0-2.797.167-4.062l4.527-1.133c-.168 1.564-.268 3.395-.268 5.127h3.997zM139.67 29.55c1.5 0 2.698 1.233 2.698 2.765s-1.232 2.764-2.764 2.764c-1.498 0-2.73-1.233-2.73-2.765s1.267-2.764 2.797-2.764zm-2.296 7.76l4.462-.7v17.445h-4.462V37.31zM143.7 37.276l4.562-.566 2.464 7.69c.365 1.132.865 2.997 1.1 4.096.133-1 .498-2.63 1.03-4.328l2.298-7.157h4.66l-6.225 17.046h-3.696l-6.193-16.78zM160.978 39.04c1.1-.7 1.564-.932 2.764-1.398 1.664-.698 3.097-.998 4.66-.998 2.863 0 4.828 1.066 5.493 2.963.233.7.3 1.232.3 3.062l-.1 5.727v.3c0 1.83.3 2.53 1.598 3.495l-2.363 2.73c-1.03-.433-1.965-1.198-2.396-2.065-.633.6-.7.666-1.032.9-.833.598-2.03.932-3.43.932-3.795 0-5.858-1.933-5.858-5.328 0-3.995 2.762-5.858 8.19-5.858.33 0 .53 0 .997.033v-.7c0-1.897-.365-2.53-1.997-2.53-1.43 0-3.096.7-4.927 1.932l-1.898-3.2zm8.755 7.558h-.2c-3.096 0-4.16.566-4.16 2.596 0 1.332.832 2.232 1.964 2.232.832 0 1.664-.434 2.33-1.166l.066-3.662zM182.554 29.418c.166.932.232 2.03.232 4.428V47.13c0 2.93.033 3.33.3 3.796.166.3.532.465.898.465.167 0 .267 0 .5-.065l.766 2.664c-.767.298-1.698.466-2.663.466-1.898 0-3.43-.9-3.962-2.33-.333-.867-.4-1.4-.4-3.83V35.58c0-2.232-.065-3.597-.233-5.13l4.562-1.032z"/></g><path fill="#fff" d="M39.93 67.368c-1.493 0-3.002-.113-4.485-.338l-.508-.076-.437-1.047c-1.4-3.34-4.823-5.584-8.513-5.584-1.076 0-2.127.19-3.125.564l-1.057.402-.405-.32c-2.138-1.673-4.03-3.616-5.626-5.778l-.304-.412.433-1.057c1.834-4.488-.266-9.773-4.68-11.78l-1.04-.47-.06-.51c-.323-2.666-.28-5.38.124-8.06l.076-.507 1.045-.44c4.473-1.876 6.725-7.095 5.02-11.634l-.397-1.062.317-.402c1.674-2.14 3.617-4.03 5.776-5.623l.41-.305 1.058.432c1.07.438 2.206.66 3.374.66 3.635 0 6.936-2.096 8.406-5.338l.473-1.04.51-.062c2.662-.322 5.395-.28 8.06.126l.507.077.438 1.045c1.402 3.338 4.822 5.583 8.512 5.583 1.075 0 2.127-.19 3.125-.564l1.065-.396.4.313c2.136 1.672 4.026 3.614 5.622 5.775l.304.41-.433 1.06c-1.836 4.49.264 9.773 4.68 11.78l1.04.472.06.508c.325 2.668.283 5.38-.123 8.06l-.076.507-1.045.438c-4.474 1.877-6.726 7.098-5.022 11.637l.4 1.06-.316.405c-1.672 2.135-3.617 4.027-5.78 5.623l-.412.305-1.058-.436c-1.068-.437-2.2-.658-3.37-.658-3.634 0-6.933 2.096-8.405 5.34l-.473 1.037-.508.063c-1.183.142-2.386.215-3.577.215zm-3.708-2.07c2.176.29 4.385.323 6.56.1l.044-.1c1.768-3.892 5.72-6.407 10.066-6.407 1.404 0 2.77.27 4.06.794l.106.045c1.732-1.33 3.31-2.866 4.7-4.575l-.036-.098c-2.045-5.447.656-11.71 6.02-13.96l.098-.04c.29-2.185.324-4.387.102-6.56l-.102-.047c-5.297-2.405-7.814-8.743-5.613-14.128l.043-.104c-1.328-1.733-2.865-3.312-4.576-4.7l-.102.038c-1.2.45-2.467.68-3.762.68-4.414 0-8.51-2.692-10.193-6.702l-.04-.097c-2.175-.29-4.382-.325-6.56-.103l-.045.103c-1.766 3.892-5.717 6.407-10.066 6.407-1.405 0-2.77-.268-4.062-.795l-.104-.044c-1.73 1.328-3.31 2.865-4.7 4.577l.038.1c2.043 5.444-.658 11.704-6.023 13.956l-.096.038c-.29 2.186-.325 4.387-.103 6.56l.1.046c5.297 2.406 7.815 8.745 5.614 14.13l-.04.103c1.327 1.733 2.863 3.312 4.575 4.7l.094-.034c1.207-.453 2.474-.682 3.77-.682 4.413 0 8.51 2.694 10.193 6.704l.04.095zM39.91 58.84c-11.84 0-21.474-9.633-21.474-21.473s9.633-21.39 21.472-21.47c5.44-.038 11.042 2.22 15.183 6.288 4.094 4.018 6.29 9.447 6.29 15.182 0 11.84-9.633 21.473-21.47 21.473zm0-41.12c-10.835 0-19.65 8.813-19.65 19.647s8.814 19.65 19.65 19.65c10.83 0 19.645-8.816 19.646-19.65 0-5.248-2.044-10.182-5.754-13.893-3.71-3.712-8.645-5.755-13.893-5.755zM56.833 37.448l-4.887-7.826h-7.264l-4.267-6.836H32.06l-4.714 7.828 4.162 6.76-4.162 6.912 4.72 7.665h8.344l4.362-6.834h7.168l4.893-7.668zm-20.06 6.754l3.046-5.224 3.292 5.35-3.206 5.024-3.132-5.15zM39.83 25.29l3.243 5.195-2.51 4.166-.658 1.03-3.13-5.148 3.055-5.242zm4.942 6.154h4.876l-2.966 5.088h-5.125l.553-.916 2.662-4.172zm2.473 5.93zM35.243 31.52l3 4.938h-5.158l-3.04-4.938h5.198zm2.874 6.76l-2.966 5.088h-5.124l3.064-5.088h5.027zm3.484.076h5.175l3 4.936h-5.092L41.6 38.356zm9.837 4.162l-3.13-5.15 3.054-5.242 3.317 5.312-3.24 5.08zM33.09 24.608h5.027l-2.966 5.09h-5.124l3.065-5.09zm-3.045 20.584h5.198l3 4.936h-5.158l-3.04-4.936z"/></g></svg>