<?xml version="1.0" encoding="utf-8"?>
<!-- Generator: Adobe Illustrator 16.0.0, SVG Export Plug-In . SVG Version: 6.00 Build 0)  -->
<!DOCTYPE svg PUBLIC "-//W3C//DTD SVG 1.1//EN" "http://www.w3.org/Graphics/SVG/1.1/DTD/svg11.dtd">
<svg version="1.1" xmlns="http://www.w3.org/2000/svg" xmlns:xlink="http://www.w3.org/1999/xlink" x="0px" y="0px"
	 width="196.138px" height="76.328px" viewBox="0 0 196.138 76.328" enable-background="new 0 0 196.138 76.328"
	 xml:space="preserve">
<g id="Layer_1">
	<g id="Layer_2">
	</g>
	<g>
		<g>
			<g>
				<path fill="#22306D" d="M83.487,18.751c0.138,0.212,0.197,0.399,0.275,0.8c0.538-0.525,1.202-0.8,1.924-0.8
					c0.654,0,1.19,0.212,1.606,0.644c0.11,0.109,0.218,0.251,0.313,0.387c0.721-0.74,1.367-1.03,2.232-1.03
					c0.617,0,1.204,0.183,1.561,0.489c0.445,0.387,0.587,0.85,0.587,1.93v5.613H89.98v-5.213c0-0.943-0.109-1.127-0.647-1.127
					c-0.387,0-0.928,0.264-1.373,0.664v5.676h-1.956v-5.139c0-0.984-0.143-1.215-0.716-1.215c-0.383,0-0.91,0.197-1.355,0.6v5.754
					h-2.018v-5.508c0-1.141-0.079-1.63-0.295-2.02L83.487,18.751z"/>
				<path fill="#22306D" d="M99.366,19.919c0.631,0.741,0.912,1.604,0.912,2.884c0,1.357-0.312,2.283-0.989,3.052
					c-0.601,0.679-1.388,1.097-2.604,1.097c-2.144,0-3.544-1.604-3.544-4.086s1.415-4.133,3.544-4.133
					C97.811,18.733,98.688,19.12,99.366,19.919z M95.651,21.061c-0.141,0.418-0.215,0.971-0.215,1.76
					c0,0.906,0.092,1.59,0.262,1.988c0.184,0.432,0.651,0.646,1.046,0.646c0.895,0,1.279-0.799,1.279-2.668
					c0-1.062-0.14-1.758-0.415-2.113c-0.199-0.26-0.521-0.416-0.893-0.416C96.22,20.258,95.821,20.565,95.651,21.061z"/>
				<path fill="#22306D" d="M106.925,18.889v1.416l-3.488,5.043h3.624l-0.493,1.436h-5.811v-1.281l3.711-5.164h-3.402v-1.449
					H106.925z"/>
				<path fill="#22306D" d="M110.418,16.713c0,0.711-0.565,1.277-1.278,1.277c-0.69,0-1.262-0.566-1.262-1.277
					c0-0.707,0.589-1.279,1.297-1.279C109.866,15.434,110.418,16.006,110.418,16.713z M110.175,18.702v8.082h-2.064v-7.758
					L110.175,18.702z"/>
				<path fill="#22306D" d="M113.937,17.424v6.15c0,1.359,0.018,1.543,0.141,1.758c0.08,0.139,0.246,0.215,0.416,0.215
					c0.077,0,0.119,0,0.232-0.029l0.352,1.234c-0.352,0.137-0.783,0.214-1.23,0.214c-0.881,0-1.59-0.415-1.836-1.077
					c-0.154-0.4-0.189-0.648-0.189-1.773v-5.893c0-1.033-0.025-1.662-0.104-2.373l2.112-0.479
					C113.904,15.801,113.937,16.311,113.937,17.424z"/>
				<path fill="#22306D" d="M118.222,17.424v6.15c0,1.359,0.019,1.543,0.145,1.758c0.072,0.139,0.241,0.215,0.414,0.215
					c0.076,0,0.123,0,0.232-0.029l0.353,1.234c-0.353,0.137-0.788,0.214-1.233,0.214c-0.879,0-1.591-0.415-1.836-1.077
					c-0.158-0.4-0.184-0.648-0.184-1.773v-5.893c0-1.033-0.033-1.662-0.109-2.373l2.108-0.479
					C118.196,15.801,118.222,16.311,118.222,17.424z"/>
				<path fill="#22306D" d="M121.463,19.18c0.769-0.322,1.429-0.46,2.155-0.46c1.329,0,2.238,0.491,2.549,1.37
					c0.102,0.324,0.15,0.57,0.14,1.418l-0.049,2.652c0,0.047,0,0.094,0,0.139c0,0.849,0.14,1.172,0.745,1.619l-1.098,1.266
					c-0.482-0.201-0.914-0.558-1.113-0.957c-0.152,0.156-0.323,0.307-0.479,0.414c-0.385,0.279-0.941,0.434-1.59,0.434
					c-1.757,0-2.714-0.895-2.714-2.465c0-1.854,1.283-2.717,3.793-2.717c0.153,0,0.294,0,0.465,0.018v-0.322
					c0-0.881-0.171-1.174-0.931-1.174c-0.653,0-1.432,0.322-2.277,0.893l-0.881-1.479C120.599,19.567,120.907,19.411,121.463,19.18z
					 M124.142,23.329c-1.428,0-1.929,0.26-1.929,1.205c0,0.614,0.389,1.029,0.913,1.029c0.385,0,0.773-0.2,1.076-0.539l0.035-1.695
					H124.142z"/>
			</g>
		</g>
		<g>
			<g>
				<path fill="#D93F5F" d="M81.833,30.983h12.552l-0.533,3.763h-7.357v5.294h5.893v3.795h-5.893v10.221h-4.661V30.983z"/>
				<path fill="#D93F5F" d="M106.907,49.528l1.732,2.663c-1.965,1.599-4.029,2.364-6.427,2.364c-4.894,0-8.056-3.463-8.056-8.824
					c0-3.062,0.632-5.092,2.13-6.758c1.399-1.564,3.097-2.297,5.36-2.297c1.965,0,3.83,0.666,4.928,1.799
					c1.564,1.598,2.264,3.895,2.264,7.457c0,0.365,0,0.499,0,1.031h-9.855v0.133c0,2.631,1.299,4.129,3.596,4.129
					C104.11,51.225,105.542,50.659,106.907,49.528z M99.051,43.702h5.159v-0.199c0-1.266-0.133-1.932-0.531-2.564
					c-0.434-0.666-1.066-0.998-1.965-0.998c-1.697,0-2.663,1.33-2.663,3.695V43.702z"/>
				<path fill="#D93F5F" d="M123.688,38.141l-1.465,2.996c-1.697-0.865-2.929-1.23-4.194-1.23c-1.299,0-2.164,0.666-2.164,1.664
					c0,0.865,0.565,1.332,2.131,1.73l2.063,0.533c2.098,0.533,2.797,1.165,3.396,1.932c0.633,0.799,0.932,1.764,0.932,2.896
					c0,3.529-2.93,5.927-7.291,5.927c-2.097,0-4.395-0.666-6.891-1.965l1.598-3.263c1.365,0.833,3.729,1.931,5.66,1.931
					c1.264,0,2.264-0.832,2.264-1.931c0-1.165-0.832-1.765-2.631-2.097l-1.997-0.367c-1.132-0.199-2.53-0.998-3.13-1.73
					s-0.965-1.965-0.965-3.064c0-3.328,2.63-5.559,6.592-5.559C120.326,36.543,122.124,37.375,123.688,38.141z"/>
				<path fill="#D93F5F" d="M136.009,36.976l-1.132,2.964h-2.864v8.688c0,2.165,0.4,2.729,1.932,2.729c0.4,0,0.799-0.1,1.598-0.332
					l0.566,2.664c-1.299,0.531-2.463,0.766-3.629,0.766c-2.264,0-4.095-1-4.595-2.498c-0.266-0.732-0.299-1.064-0.299-2.63V39.94
					h-1.698v-2.896h1.698c0-1.666,0-2.797,0.167-4.062l4.527-1.133c-0.168,1.565-0.268,3.396-0.268,5.128H136.009z"/>
				<path fill="#D93F5F" d="M139.671,29.551c1.5,0,2.697,1.232,2.697,2.764s-1.232,2.764-2.764,2.764
					c-1.498,0-2.73-1.232-2.73-2.764S138.141,29.551,139.671,29.551z M137.374,37.309l4.462-0.699v17.445h-4.462V37.309z"/>
				<path fill="#D93F5F" d="M143.701,37.276l4.561-0.566l2.464,7.691c0.365,1.131,0.865,2.996,1.1,4.095
					c0.133-0.999,0.498-2.63,1.031-4.328l2.297-7.157h4.661l-6.226,17.045h-3.695L143.701,37.276z"/>
				<path fill="#D93F5F" d="M160.978,39.04c1.099-0.699,1.564-0.932,2.764-1.398c1.664-0.698,3.097-0.998,4.66-0.998
					c2.863,0,4.828,1.066,5.493,2.963c0.233,0.699,0.3,1.232,0.3,3.062l-0.1,5.728c0,0.1,0,0.199,0,0.299
					c0,1.831,0.301,2.53,1.598,3.496l-2.363,2.729c-1.031-0.432-1.965-1.197-2.396-2.064c-0.633,0.6-0.7,0.666-1.032,0.9
					c-0.833,0.598-2.031,0.932-3.43,0.932c-3.795,0-5.858-1.932-5.858-5.327c0-3.995,2.762-5.858,8.189-5.858
					c0.332,0,0.532,0,0.998,0.033v-0.7c0-1.897-0.366-2.53-1.998-2.53c-1.431,0-3.096,0.699-4.927,1.932L160.978,39.04z
					 M169.733,46.598h-0.199c-3.097,0-4.162,0.566-4.162,2.596c0,1.332,0.833,2.232,1.965,2.232c0.832,0,1.664-0.434,2.33-1.166
					L169.733,46.598z"/>
				<path fill="#D93F5F" d="M182.554,29.418c0.166,0.932,0.232,2.031,0.232,4.428V47.13c0,2.931,0.033,3.329,0.3,3.796
					c0.166,0.299,0.532,0.465,0.898,0.465c0.167,0,0.267,0,0.499-0.066l0.767,2.664c-0.767,0.299-1.698,0.467-2.663,0.467
					c-1.898,0-3.43-0.9-3.962-2.331c-0.333-0.866-0.399-1.399-0.399-3.829V35.579c0-2.231-0.066-3.596-0.234-5.129L182.554,29.418z"
					/>
			</g>
		</g>
		<g>
			<g>
				<g>
					<path fill="#22306D" d="M39.929,67.368c-1.492,0-3.001-0.113-4.484-0.338l-0.508-0.076L34.5,65.907
						c-1.401-3.34-4.823-5.584-8.513-5.584c-1.076,0-2.127,0.189-3.125,0.564l-1.057,0.402L21.4,60.971
						c-2.138-1.674-4.03-3.617-5.626-5.779l-0.304-0.412l0.433-1.057c1.834-4.488-0.266-9.773-4.68-11.779l-1.039-0.471l-0.062-0.51
						c-0.322-2.666-0.28-5.379,0.125-8.061l0.076-0.506l1.045-0.439c4.473-1.877,6.725-7.096,5.021-11.635l-0.398-1.062l0.316-0.402
						c1.674-2.139,3.617-4.029,5.776-5.623l0.411-0.305l1.057,0.432c1.07,0.438,2.205,0.66,3.373,0.66
						c3.635,0,6.936-2.096,8.406-5.338l0.473-1.04l0.51-0.062c2.662-0.322,5.395-0.28,8.061,0.126l0.506,0.077l0.438,1.045
						c1.402,3.338,4.822,5.583,8.512,5.583c1.075,0,2.127-0.189,3.125-0.564l1.065-0.395l0.401,0.313
						c2.135,1.672,4.025,3.614,5.621,5.775l0.304,0.411l-0.433,1.059c-1.836,4.49,0.264,9.773,4.68,11.779l1.039,0.473l0.062,0.508
						c0.324,2.668,0.282,5.38-0.124,8.061l-0.076,0.506l-1.045,0.439c-4.473,1.877-6.725,7.098-5.021,11.637l0.4,1.061l-0.316,0.404
						c-1.672,2.135-3.617,4.027-5.779,5.623l-0.413,0.305l-1.058-0.436c-1.068-0.437-2.201-0.658-3.369-0.658
						c-3.635,0-6.934,2.096-8.406,5.339l-0.473,1.038l-0.508,0.062C42.323,67.295,41.12,67.368,39.929,67.368z M36.222,65.299
						c2.176,0.289,4.385,0.322,6.559,0.1l0.045-0.1c1.768-3.893,5.719-6.408,10.066-6.408c1.404,0,2.771,0.268,4.06,0.793
						l0.106,0.045c1.732-1.33,3.311-2.865,4.7-4.574l-0.036-0.098c-2.045-5.447,0.656-11.709,6.021-13.959l0.097-0.041
						c0.291-2.185,0.324-4.387,0.102-6.56l-0.102-0.047c-5.297-2.405-7.814-8.743-5.613-14.128l0.043-0.104
						c-1.328-1.733-2.865-3.312-4.576-4.7l-0.102,0.038c-1.199,0.45-2.467,0.68-3.762,0.68c-4.414,0-8.511-2.692-10.193-6.702
						l-0.04-0.097c-2.175-0.29-4.382-0.325-6.559-0.103l-0.046,0.103c-1.766,3.892-5.717,6.407-10.066,6.407
						c-1.405,0-2.771-0.268-4.062-0.795l-0.104-0.043c-1.731,1.328-3.309,2.865-4.699,4.577l0.037,0.099
						c2.043,5.445-0.658,11.705-6.023,13.957l-0.096,0.039c-0.29,2.186-0.324,4.387-0.102,6.561l0.101,0.045
						c5.296,2.406,7.814,8.745,5.613,14.129l-0.042,0.104c1.328,1.733,2.864,3.312,4.576,4.701l0.094-0.035
						c1.208-0.453,2.475-0.682,3.77-0.682c4.414,0,8.512,2.693,10.194,6.703L36.222,65.299z"/>
				</g>
				<g>
					<path fill="#22306D" d="M39.909,58.84c-11.84,0-21.473-9.633-21.473-21.473s9.633-21.391,21.472-21.471
						c5.44-0.037,11.042,2.222,15.183,6.289c4.093,4.018,6.289,9.447,6.289,15.182C61.379,49.208,51.747,58.84,39.909,58.84z
						 M39.909,17.719c-10.834,0-19.649,8.814-19.649,19.648s8.814,19.649,19.649,19.649c10.832,0,19.646-8.815,19.647-19.649
						c0-5.248-2.044-10.182-5.754-13.893C50.091,19.762,45.157,17.719,39.909,17.719z"/>
				</g>
			</g>
			<path fill="#D93F5F" d="M56.833,37.448l-4.887-7.826h-7.264l-4.267-6.836h-8.355l-4.714,7.828l4.162,6.76l-4.162,6.912
				l4.72,7.665h8.344l4.362-6.835h7.168L56.833,37.448z M36.774,44.202l3.045-5.224l3.293,5.349l-3.206,5.025L36.774,44.202z
				 M39.83,25.29l3.243,5.195l-2.51,4.166l-0.658,1.03l-3.131-5.149L39.83,25.29z M44.772,31.444h4.876l-2.966,5.088h-5.125
				l0.553-0.916L44.772,31.444z M47.245,37.375L47.245,37.375L47.245,37.375L47.245,37.375z M35.243,31.52l3.001,4.938h-5.159
				l-3.04-4.938H35.243z M38.117,38.28l-2.966,5.088h-5.125l3.064-5.088H38.117z M41.601,38.356h5.174l3,4.936h-5.092L41.601,38.356
				z M51.437,42.518l-3.131-5.151l3.055-5.241l3.316,5.312L51.437,42.518z M33.091,24.608h5.026l-2.966,5.089h-5.125L33.091,24.608z
				 M30.045,45.192h5.198l3.001,4.936h-5.159L30.045,45.192z"/>
		</g>
	</g>
</g>
<g id="Layer_3">
</g>
</svg>
