<svg id="Layer_1" data-name="Layer 1" xmlns="http://www.w3.org/2000/svg" viewBox="0 0 200 200"><defs><style>.cls-1{fill:#909090;}</style></defs><title>medium-grey</title><path class="cls-1" d="M198.4,46.85a.7.7,0,0,0-.12-.09l-.07,0L138.48,16.86a6.27,6.27,0,0,0-1.26-.45,6.62,6.62,0,0,0-1.64-.22,6.84,6.84,0,0,0-5.8,3.15L95.4,75.22l43.15,70.12,60-97.54A.73.73,0,0,0,198.4,46.85Z"/><polygon class="cls-1" points="76.46 62.49 76.46 126.09 133 154.37 76.46 62.49"/><path class="cls-1" d="M141.49,158.61,188,181.88c6.06,3,11,.91,11-4.73v-112Z"/><path class="cls-1" d="M66.65,46.94,8.31,17.77a6.68,6.68,0,0,0-3-.78C2.79,17,1,19,1,22.29V148.24a10.89,10.89,0,0,0,5.48,8.87L57.86,182.8a8.35,8.35,0,0,0,3.71,1c3.19,0,5.43-2.47,5.43-6.62V47.51A.64.64,0,0,0,66.65,46.94Z"/></svg>