<?xml version="1.0" encoding="UTF-8" standalone="no"?>
<!-- Created with Inkscape (http://www.inkscape.org/) -->

<svg
   xmlns:dc="http://purl.org/dc/elements/1.1/"
   xmlns:cc="http://creativecommons.org/ns#"
   xmlns:rdf="http://www.w3.org/1999/02/22-rdf-syntax-ns#"
   xmlns:svg="http://www.w3.org/2000/svg"
   xmlns="http://www.w3.org/2000/svg"
   version="1.1"
   width="240.4225"
   height="264.27875"
   id="svg3808">
  <defs
     id="defs3810" />
  <metadata
     id="metadata3813">
    <rdf:RDF>
      <cc:Work
         rdf:about="">
        <dc:format>image/svg+xml</dc:format>
        <dc:type
           rdf:resource="http://purl.org/dc/dcmitype/StillImage" />
        <dc:title></dc:title>
      </cc:Work>
    </rdf:RDF>
  </metadata>
  <g
     transform="translate(-294.07446,-77.36566)"
     id="layer1">
    <g
       transform="matrix(1.25,0,0,-1.25,478.33446,199.09591)"
       id="g428">
      <path
         d="M 0,0 C 0.725,0.065 1.447,0.13 2.162,0.173 6.015,0.407 11.007,0.671 16.163,0.692 15.467,1.794 14.617,3.063 13.668,4.477 10.134,9.749 5.292,16.97 2.612,24.482 c -3.251,9.115 -3.773,18.325 -4.053,23.273 -0.041,0.737 -0.078,1.369 -0.115,1.862 -3.551,0.208 -7.088,0.268 -10.607,0.192 2.919,-12.346 7.392,-28.589 11.731,-35.373 l 0.062,0.034 c 0.019,-0.035 0.118,-0.219 0.255,-0.526 0.01,-0.013 0.019,-0.03 0.029,-0.044 L -0.094,13.895 C 0.507,12.529 1.756,8.935 0.285,5.175 -0.55,3.043 -2.089,1.249 -4.311,-0.192 -2.928,-0.249 -1.495,-0.134 0,0"
         id="path430"
         style="fill:#d93f5f;fill-opacity:1;fill-rule:nonzero;stroke:none" />
    </g>
    <g
       transform="matrix(1.25,0,0,-1.25,525.31566,201.04901)"
       id="g432">
      <path
         d="M 0,0 C 1.21,0.734 3.436,2.083 3.731,2.777 3.436,3.472 1.21,4.821 0,5.554 c -2.656,1.611 -5.166,3.132 -5.391,5.45 -0.229,2.356 1.963,4.358 4.285,6.476 1.016,0.928 2.881,2.631 3.07,3.361 -0.444,0.619 -2.862,1.499 -4.18,1.978 -2.925,1.063 -5.688,2.068 -6.365,4.303 -0.684,2.258 1.069,4.645 2.925,7.172 0.819,1.114 2.32,3.158 2.358,3.913 -0.558,0.517 -3.092,0.902 -4.473,1.113 -3.084,0.469 -5.996,0.912 -7.102,2.977 -1.111,2.076 0.138,4.756 1.461,7.594 0.586,1.256 1.662,3.563 1.549,4.311 -0.649,0.395 -3.203,0.279 -4.595,0.216 -3.121,-0.141 -6.069,-0.275 -7.558,1.539 -1.493,1.816 -0.789,4.685 -0.044,7.723 0.332,1.35 0.94,3.828 0.681,4.54 -0.714,0.259 -3.19,-0.349 -4.541,-0.68 -3.038,-0.746 -5.906,-1.448 -7.723,0.043 -1.814,1.49 -1.68,4.438 -1.538,7.559 0.063,1.392 0.179,3.946 -0.216,4.595 -0.744,0.112 -3.055,-0.962 -4.312,-1.549 -2.838,-1.322 -5.52,-2.572 -7.594,-1.46 -2.064,1.105 -2.508,4.018 -2.977,7.101 -0.21,1.381 -0.596,3.916 -1.113,4.474 -0.754,-0.038 -2.798,-1.539 -3.913,-2.358 -2.527,-1.856 -4.915,-3.608 -7.173,-2.924 -2.234,0.676 -3.239,3.439 -4.303,6.365 -0.479,1.318 -1.359,3.736 -1.978,4.18 -0.73,-0.189 -2.432,-2.054 -3.361,-3.071 -2.119,-2.321 -4.129,-4.516 -6.477,-4.285 -2.318,0.226 -3.839,2.735 -5.449,5.392 -0.734,1.21 -2.083,3.435 -2.777,3.731 -0.695,-0.296 -2.044,-2.521 -2.777,-3.731 -1.61,-2.657 -3.131,-5.166 -5.449,-5.392 -2.355,-0.231 -4.358,1.963 -6.477,4.285 -0.929,1.017 -2.631,2.882 -3.361,3.071 -0.619,-0.444 -1.499,-2.862 -1.978,-4.18 -1.063,-2.925 -2.068,-5.688 -4.302,-6.365 -2.261,-0.684 -4.646,1.069 -7.173,2.925 -1.114,0.818 -3.158,2.32 -3.913,2.358 -0.517,-0.558 -0.903,-3.093 -1.113,-4.474 -0.469,-3.083 -0.913,-5.996 -2.976,-7.101 -2.078,-1.112 -4.758,0.138 -7.594,1.461 -1.257,0.586 -3.556,1.66 -4.312,1.548 -0.395,-0.648 -0.279,-3.203 -0.216,-4.595 0.141,-3.121 0.275,-6.068 -1.538,-7.558 -1.816,-1.492 -4.686,-0.788 -7.724,-0.043 -1.35,0.331 -3.826,0.939 -4.54,0.68 -0.259,-0.712 0.349,-3.19 0.68,-4.54 0.745,-3.038 1.449,-5.907 -0.044,-7.724 -1.49,-1.812 -4.438,-1.679 -7.558,-1.538 -1.391,0.063 -3.946,0.18 -4.595,-0.216 -0.113,-0.748 0.962,-3.055 1.548,-4.311 1.323,-2.838 2.573,-5.518 1.462,-7.594 -1.106,-2.065 -4.018,-2.508 -7.102,-2.977 -1.381,-0.211 -3.916,-0.596 -4.474,-1.113 0.038,-0.755 1.539,-2.799 2.358,-3.913 1.856,-2.527 3.609,-4.914 2.925,-7.173 -0.677,-2.234 -3.44,-3.239 -6.366,-4.303 -1.317,-0.479 -3.736,-1.359 -4.18,-1.978 0.189,-0.73 2.054,-2.433 3.071,-3.361 2.322,-2.119 4.514,-4.12 4.285,-6.477 -0.225,-2.318 -2.735,-3.839 -5.392,-5.45 -1.21,-0.733 -3.435,-2.082 -3.731,-2.777 0.296,-0.694 2.522,-2.043 3.731,-2.777 2.657,-1.61 5.167,-3.131 5.392,-5.449 0.229,-2.357 -1.964,-4.358 -4.285,-6.477 -1.017,-0.928 -2.882,-2.63 -3.071,-3.361 0.445,-0.619 2.863,-1.498 4.18,-1.977 2.926,-1.064 5.689,-2.068 6.366,-4.303 0.684,-2.258 -1.069,-4.645 -2.926,-7.172 -0.818,-1.115 -2.319,-3.158 -2.358,-3.913 0.559,-0.517 3.093,-0.903 4.474,-1.113 3.084,-0.469 5.996,-0.913 7.102,-2.977 1.111,-2.076 -0.139,-4.756 -1.462,-7.594 -0.586,-1.257 -1.661,-3.563 -1.548,-4.311 0.648,-0.395 3.202,-0.279 4.595,-0.216 3.119,0.141 6.068,0.275 7.558,-1.539 1.492,-1.816 0.788,-4.685 0.043,-7.723 -0.331,-1.351 -0.939,-3.828 -0.68,-4.54 0.716,-0.26 3.19,0.349 4.54,0.68 3.039,0.745 5.908,1.448 7.724,-0.044 1.813,-1.49 1.679,-4.437 1.538,-7.558 -0.063,-1.392 -0.179,-3.947 0.216,-4.595 0.754,-0.115 3.055,0.961 4.312,1.548 2.837,1.323 5.517,2.572 7.593,1.461 2.065,-1.106 2.508,-4.018 2.977,-7.101 0.211,-1.381 0.597,-3.916 1.113,-4.475 0.755,0.039 2.799,1.54 3.913,2.358 2.527,1.857 4.914,3.61 7.173,2.925 2.235,-0.677 3.24,-3.44 4.303,-6.365 0.48,-1.318 1.359,-3.736 1.978,-4.18 0.73,0.189 2.433,2.054 3.361,3.071 1.776,1.946 3.471,3.797 5.36,4.211 l -24.717,62.157 c -0.331,-0.073 -0.669,-0.119 -1.015,-0.119 -0.058,0 -0.115,10e-4 -0.172,0.004 -1.297,0.045 -2.488,0.602 -3.354,1.568 -4.818,5.373 -16.231,20.555 -18.151,45.411 -0.106,1.359 0.385,2.701 1.346,3.682 0.245,0.25 0.554,0.557 0.892,0.889 l -2.106,5.297 c -0.191,0.031 -0.385,0.055 -0.57,0.1 -2.036,0.488 -3.575,1.73 -4.223,3.406 -1.286,3.327 1.159,7.267 5.566,8.97 4.405,1.704 8.865,0.432 10.151,-2.894 l 0,0 c 0.648,-1.676 0.344,-3.63 -0.833,-5.361 -0.096,-0.14 -0.202,-0.275 -0.307,-0.41 l 0.725,-1.823 c 13.732,10.709 40.912,26.987 79.496,27.222 1.292,0.024 2.478,-0.948 2.724,-2.274 0.389,-2.081 1.145,-5.767 2.161,-10.244 4.07,0.11 8.164,0.042 12.275,-0.218 1.329,-0.085 2.405,-1.117 2.561,-2.457 0.073,-0.624 0.123,-1.524 0.188,-2.662 0.27,-4.772 0.773,-13.654 3.855,-22.294 2.534,-7.102 7.235,-14.113 10.667,-19.233 1.288,-1.921 2.4,-3.58 3.229,-4.978 0.522,-0.882 0.531,-1.981 0.023,-2.869 -0.499,-0.872 -1.42,-1.383 -2.386,-1.387 -5.507,0.023 -10.945,-0.261 -15.067,-0.512 -0.683,-0.042 -1.371,-0.103 -2.062,-0.165 -1.291,-0.116 -2.606,-0.234 -3.937,-0.234 -1.083,0 -2.177,0.078 -3.275,0.3 -5.693,1.146 -9.897,5.782 -11.245,12.401 -0.087,0.424 -0.151,1.311 -0.246,2.724 -0.008,0.129 -0.017,0.254 -0.025,0.376 -15.824,-2.707 -39.881,-10.755 -58.274,-25.454 l 29.014,-72.961 c 1.342,2.134 2.723,3.926 4.662,4.115 2.358,0.227 4.358,-1.963 6.477,-4.284 0.928,-1.017 2.63,-2.882 3.361,-3.071 0.619,0.444 1.498,2.862 1.977,4.18 1.064,2.925 2.069,5.688 4.303,6.365 2.259,0.685 4.646,-1.069 7.173,-2.926 1.114,-0.817 3.158,-2.319 3.913,-2.357 0.516,0.558 0.902,3.093 1.112,4.474 0.47,3.083 0.913,5.995 2.977,7.101 2.075,1.112 4.757,-0.139 7.594,-1.462 1.256,-0.586 3.555,-1.665 4.312,-1.548 0.395,0.649 0.279,3.204 0.215,4.596 -0.141,3.12 -0.274,6.067 1.539,7.557 1.816,1.493 4.686,0.789 7.723,0.044 1.35,-0.331 3.827,-0.938 4.541,-0.68 0.259,0.712 -0.349,3.189 -0.68,4.54 -0.745,3.038 -1.449,5.907 0.043,7.723 1.49,1.814 4.437,1.68 7.559,1.539 1.39,-0.063 3.944,-0.179 4.594,0.216 0.114,0.748 -0.962,3.054 -1.548,4.311 -1.323,2.838 -2.573,5.518 -1.461,7.594 1.106,2.064 4.018,2.508 7.102,2.977 1.38,0.21 3.916,0.596 4.473,1.113 -0.038,0.755 -1.539,2.799 -2.357,3.913 -1.856,2.527 -3.61,4.914 -2.925,7.173 0.677,2.234 3.44,3.239 6.365,4.303 1.318,0.479 3.737,1.359 4.18,1.978 -0.189,0.73 -2.054,2.433 -3.071,3.361 -2.321,2.118 -4.514,4.12 -4.284,6.477 C -5.166,-3.131 -2.656,-1.61 0,0"
         id="path434"
         style="fill:#87d1e4;fill-opacity:1;fill-rule:nonzero;stroke:none" />
    </g>
    <g
       transform="matrix(1.25,0,0,-1.25,523.93196,215.95691)"
       id="g436">
      <path
         d="M 0,0 C 1.017,-0.928 2.882,-2.631 3.071,-3.361 2.627,-3.98 0.209,-4.86 -1.109,-5.339 c -2.925,-1.064 -5.688,-2.069 -6.365,-4.303 -0.685,-2.259 1.069,-4.646 2.925,-7.173 0.818,-1.114 2.319,-3.158 2.357,-3.913 -0.558,-0.517 -3.093,-0.902 -4.474,-1.113 -3.083,-0.469 -5.995,-0.912 -7.101,-2.977 -1.112,-2.076 0.138,-4.756 1.461,-7.594 0.586,-1.256 1.661,-3.563 1.548,-4.311 -0.65,-0.395 -3.204,-0.279 -4.595,-0.216 -3.121,0.142 -6.068,0.275 -7.558,-1.539 -1.492,-1.816 -0.788,-4.685 -0.043,-7.723 0.331,-1.35 0.939,-3.828 0.68,-4.54 -0.714,-0.258 -3.191,0.349 -4.541,0.68 -3.038,0.745 -5.907,1.449 -7.723,-0.043 -1.813,-1.49 -1.68,-4.438 -1.539,-7.558 0.064,-1.392 0.18,-3.947 -0.215,-4.595 -0.757,-0.118 -3.056,0.962 -4.312,1.548 -2.837,1.323 -5.519,2.573 -7.594,1.461 -2.064,-1.106 -2.507,-4.018 -2.977,-7.101 -0.21,-1.381 -0.596,-3.916 -1.112,-4.474 -0.755,0.038 -2.799,1.54 -3.913,2.358 -2.528,1.856 -4.914,3.61 -7.173,2.925 -2.234,-0.677 -3.239,-3.44 -4.303,-6.365 -0.479,-1.318 -1.358,-3.736 -1.977,-4.18 -0.731,0.189 -2.433,2.054 -3.361,3.071 -2.119,2.321 -4.119,4.512 -6.477,4.285 -1.939,-0.189 -3.32,-1.981 -4.662,-4.115 l -29.014,72.961 c 18.393,14.698 42.449,22.746 58.274,25.453 0.008,-0.122 0.017,-0.246 0.025,-0.376 0.095,-1.412 0.159,-2.3 0.245,-2.724 1.349,-6.619 5.553,-11.255 11.246,-12.401 1.098,-0.222 2.191,-0.3 3.275,-0.3 1.331,0 2.645,0.118 3.936,0.234 0.692,0.062 1.38,0.123 2.062,0.165 4.123,0.251 9.561,0.536 15.068,0.513 0.966,0.003 1.887,0.514 2.386,1.386 0.508,0.889 0.499,1.988 -0.023,2.869 -0.829,1.398 -1.941,3.058 -3.229,4.979 -3.432,5.119 -8.133,12.13 -10.667,19.232 -3.082,8.64 -3.585,17.522 -3.855,22.294 -0.065,1.139 -0.116,2.038 -0.188,2.663 -0.156,1.339 -1.232,2.372 -2.561,2.456 -4.111,0.26 -8.205,0.329 -12.275,0.218 -1.016,4.477 -1.772,8.163 -2.161,10.244 -0.246,1.326 -1.433,2.298 -2.724,2.274 -38.584,-0.235 -65.765,-16.513 -79.496,-27.222 l -0.725,1.823 c 0.105,0.135 0.211,0.27 0.306,0.41 1.178,1.731 1.482,3.685 0.834,5.361 l 0,0 c -1.286,3.327 -5.746,4.598 -10.151,2.895 -4.407,-1.704 -6.852,-5.644 -5.566,-8.971 0.648,-1.676 2.187,-2.918 4.223,-3.406 0.185,-0.044 0.379,-0.068 0.57,-0.1 l 2.106,-5.297 c -0.338,-0.331 -0.647,-0.639 -0.893,-0.889 -0.96,-0.981 -1.451,-2.322 -1.345,-3.682 1.92,-24.856 13.333,-40.037 18.151,-45.411 0.866,-0.966 2.057,-1.523 3.354,-1.568 0.057,-0.003 0.114,-0.004 0.172,-0.004 0.346,0 0.684,0.047 1.015,0.119 l 24.717,-62.157 c -1.889,-0.414 -3.584,-2.265 -5.36,-4.211 -0.928,-1.017 -2.631,-2.882 -3.361,-3.071 -0.619,0.444 -1.498,2.862 -1.978,4.18 -1.063,2.926 -2.068,5.689 -4.303,6.365 -2.259,0.685 -4.646,-1.068 -7.173,-2.924 -1.114,-0.819 -3.158,-2.32 -3.913,-2.358 -0.517,0.558 -0.902,3.093 -1.113,4.474 -0.469,3.083 -0.912,5.995 -2.977,7.101 -2.076,1.112 -4.756,-0.138 -7.593,-1.461 -1.257,-0.586 -3.558,-1.663 -4.313,-1.548 -0.394,0.649 -0.278,3.203 -0.215,4.595 0.141,3.121 0.275,6.069 -1.538,7.558 -1.816,1.492 -4.685,0.789 -7.724,0.044 -1.35,-0.331 -3.824,-0.94 -4.54,-0.68 -0.259,0.712 0.349,3.19 0.68,4.54 0.745,3.038 1.449,5.907 -0.043,7.723 -1.49,1.814 -4.439,1.68 -7.558,1.539 -1.393,-0.063 -3.947,-0.179 -4.595,0.216 -0.114,0.748 0.962,3.054 1.548,4.311 1.323,2.838 2.573,5.518 1.462,7.594 -1.106,2.065 -4.019,2.508 -7.102,2.977 -1.381,0.211 -3.916,0.596 -4.474,1.113 0.038,0.755 1.54,2.799 2.358,3.913 1.857,2.527 3.61,4.914 2.926,7.172 -0.677,2.235 -3.44,3.24 -6.366,4.303 -1.318,0.479 -3.736,1.359 -4.18,1.978 0.189,0.73 2.054,2.433 3.071,3.36 2.321,2.119 4.514,4.121 4.285,6.477 -0.225,2.318 -2.735,3.839 -5.392,5.45 -1.209,0.733 -3.435,2.082 -3.731,2.777 0.296,0.694 2.521,2.043 3.731,2.776 2.657,1.611 5.167,3.132 5.392,5.45 0.229,2.357 -1.963,4.359 -4.285,6.477 -1.017,0.928 -2.882,2.631 -3.071,3.361 0.444,0.619 2.862,1.499 4.18,1.978 2.926,1.064 5.689,2.069 6.366,4.303 0.684,2.259 -1.069,4.646 -2.925,7.173 -0.819,1.114 -2.32,3.158 -2.358,3.913 0.558,0.517 3.093,0.903 4.474,1.113 3.083,0.469 5.996,0.913 7.102,2.977 1.111,2.076 -0.139,4.756 -1.462,7.594 -0.586,1.257 -1.661,3.563 -1.548,4.311 0.649,0.396 3.204,0.28 4.595,0.216 3.12,-0.14 6.068,-0.274 7.558,1.539 1.493,1.816 0.789,4.685 0.044,7.723 -0.332,1.35 -0.939,3.828 -0.68,4.54 0.714,0.259 3.19,-0.349 4.54,-0.68 3.037,-0.745 5.908,-1.449 7.724,0.044 1.813,1.489 1.679,4.437 1.538,7.557 -0.063,1.392 -0.179,3.947 0.216,4.596 0.756,0.111 3.055,-0.963 4.311,-1.548 2.837,-1.324 5.517,-2.574 7.595,-1.462 2.063,1.106 2.507,4.018 2.976,7.101 0.21,1.381 0.596,3.916 1.113,4.474 0.755,-0.038 2.799,-1.54 3.913,-2.357 2.527,-1.857 4.912,-3.61 7.172,-2.926 2.235,0.677 3.24,3.44 4.303,6.365 0.479,1.318 1.359,3.736 1.978,4.18 0.73,-0.189 2.432,-2.054 3.361,-3.071 2.119,-2.321 4.122,-4.515 6.477,-4.284 2.318,0.225 3.839,2.735 5.449,5.391 0.733,1.21 2.082,3.435 2.777,3.731 0.694,-0.296 2.043,-2.521 2.777,-3.731 1.61,-2.656 3.131,-5.166 5.449,-5.391 2.348,-0.232 4.358,1.963 6.477,4.284 0.929,1.017 2.631,2.882 3.361,3.071 0.619,-0.444 1.499,-2.862 1.978,-4.18 1.064,-2.925 2.069,-5.688 4.303,-6.365 2.258,-0.684 4.646,1.069 7.173,2.925 1.115,0.818 3.158,2.319 3.913,2.357 0.517,-0.558 0.903,-3.093 1.113,-4.474 0.469,-3.083 0.913,-5.995 2.977,-7.101 2.074,-1.112 4.756,0.138 7.593,1.461 1.258,0.586 3.569,1.66 4.313,1.548 0.394,-0.648 0.279,-3.203 0.216,-4.595 -0.142,-3.121 -0.276,-6.068 1.538,-7.558 1.817,-1.492 4.685,-0.789 7.723,-0.044 1.351,0.331 3.827,0.94 4.541,0.68 0.259,-0.712 -0.349,-3.189 -0.681,-4.54 -0.745,-3.038 -1.449,-5.907 0.044,-7.723 1.489,-1.814 4.437,-1.679 7.558,-1.539 1.392,0.064 3.946,0.179 4.595,-0.216 0.113,-0.748 -0.963,-3.054 -1.549,-4.311 -1.323,-2.838 -2.572,-5.518 -1.461,-7.594 1.106,-2.064 4.018,-2.508 7.101,-2.977 1.382,-0.21 3.916,-0.596 4.474,-1.113 -0.038,-0.755 -1.539,-2.799 -2.358,-3.913 -1.856,-2.527 -3.609,-4.914 -2.925,-7.172 0.677,-2.235 3.44,-3.239 6.365,-4.303 1.318,-0.479 3.736,-1.358 4.18,-1.977 C 2.882,32.037 1.017,30.334 0,29.407 -2.321,27.288 -4.513,25.287 -4.284,22.93 -4.059,20.612 -1.549,19.091 1.107,17.48 2.317,16.747 4.542,15.398 4.838,14.704 4.542,14.009 2.317,12.66 1.107,11.926 -1.549,10.316 -4.059,8.795 -4.284,6.477 -4.514,4.12 -2.321,2.119 0,0 m -36.193,18.664 c 1.471,3.759 0.222,7.354 -0.379,8.719 l 0.008,0.006 c -0.01,0.013 -0.019,0.03 -0.029,0.044 -0.137,0.307 -0.236,0.491 -0.255,0.525 l -0.062,-0.033 c -4.339,6.783 -8.812,23.027 -11.731,35.372 3.519,0.077 7.056,0.016 10.607,-0.191 0.037,-0.493 0.074,-1.125 0.115,-1.862 0.28,-4.949 0.802,-14.158 4.053,-23.273 2.68,-7.512 7.522,-14.733 11.056,-20.006 0.949,-1.414 1.799,-2.682 2.495,-3.784 -5.156,-0.021 -10.148,-0.285 -14.001,-0.519 -0.715,-0.043 -1.437,-0.108 -2.162,-0.173 -1.495,-0.135 -2.928,-0.249 -4.311,-0.193 2.222,1.441 3.761,3.236 4.596,5.368 m -3.886,7.52 -0.012,-0.007 c 0.006,-0.011 0.253,-0.485 0.484,-1.233 0.367,-1.187 0.697,-3.07 -0.032,-4.932 -0.743,-1.899 -2.463,-3.45 -5.091,-4.639 -0.41,-0.186 -0.841,-0.362 -1.295,-0.529 -3.523,2.255 -4.767,6.356 -5.166,8.318 -0.051,0.279 -0.135,1.523 -0.185,2.267 -0.016,0.235 -0.031,0.454 -0.046,0.663 5.189,0.68 9.186,0.694 11.343,0.092 m -100.913,27.189 c 0.456,0.284 1.036,0.544 1.743,0.674 0.469,0.087 0.939,-0.176 1.116,-0.62 l 1.185,-2.982 c 0.16,-0.4 0.04,-0.859 -0.289,-1.137 -0.416,-0.35 -0.813,-0.691 -1.192,-1.02 -0.52,-0.453 -1.326,-0.254 -1.581,0.387 l -1.382,3.476 c -0.18,0.451 -0.012,0.965 0.4,1.222 m -4.874,1.481 c -0.488,1.262 0.855,3.397 3.562,4.444 0.928,0.358 1.822,0.515 2.617,0.515 1.527,0 2.687,-0.577 3.008,-1.407 l 0,0 c 0.117,-0.303 0.124,-0.616 0.071,-0.912 l -0.348,0.048 c -5.412,0.75 -8.092,-3.184 -8.204,-3.352 l -0.071,-0.107 c -0.269,0.19 -0.507,0.438 -0.635,0.771 m 22.153,-57.71 c -4.579,5.106 -15.426,19.55 -17.267,43.33 -0.028,0.359 0.097,0.713 0.349,0.97 5.501,5.612 35.315,33.494 84.856,34.336 0.483,0.008 0.908,-0.327 1.004,-0.801 1.263,-6.26 6.659,-31.876 12.771,-44.969 -15.018,1.225 -55.628,-9.374 -79.942,-32.927 -0.244,-0.236 -0.561,-0.355 -0.9,-0.347 -0.337,0.012 -0.646,0.157 -0.871,0.408 m 41.121,-92.86 -35.737,89.869 c -0.266,0.67 -0.091,1.434 0.44,1.922 l 0.024,0.022 c 0.894,0.821 2.334,0.492 2.783,-0.637 l 35.744,-89.885 c 0.348,-0.876 -0.013,-1.911 -0.872,-2.3 -0.014,-0.006 -0.027,-0.012 -0.041,-0.019 -0.912,-0.4 -1.973,0.103 -2.341,1.028 M 2.973,8.848 c 2.818,1.708 5.479,3.321 5.479,5.856 0,2.534 -2.661,4.147 -5.479,5.855 -1.212,0.734 -3.468,2.103 -3.673,2.691 0.064,0.702 2.056,2.521 3.127,3.498 2.406,2.196 4.678,4.27 4.195,6.716 -0.491,2.479 -3.41,3.54 -6.5,4.664 -1.338,0.487 -3.829,1.392 -4.144,1.935 -0.071,0.697 1.52,2.863 2.375,4.026 1.932,2.631 3.758,5.117 2.799,7.427 -0.965,2.328 -4.029,2.795 -7.275,3.289 -1.412,0.215 -4.042,0.615 -4.457,1.089 -0.202,0.669 0.93,3.097 1.538,4.401 1.382,2.963 2.687,5.762 1.292,7.845 -1.398,2.089 -4.492,1.949 -7.764,1.801 -1.431,-0.065 -4.095,-0.186 -4.595,0.2 -0.326,0.617 0.311,3.213 0.653,4.607 0.78,3.179 1.517,6.181 -0.258,7.956 -1.775,1.775 -4.777,1.039 -7.957,0.259 -1.394,-0.342 -3.991,-0.978 -4.555,-0.695 -0.438,0.542 -0.317,3.206 -0.252,4.637 0.148,3.274 0.289,6.366 -1.801,7.765 -2.083,1.394 -4.882,0.089 -7.845,-1.292 -1.303,-0.608 -3.73,-1.743 -4.342,-1.569 -0.533,0.446 -0.933,3.075 -1.148,4.488 -0.494,3.245 -0.961,6.31 -3.289,7.276 -2.312,0.958 -4.797,-0.867 -7.427,-2.8 -1.164,-0.855 -3.332,-2.443 -3.963,-2.395 -0.606,0.335 -1.512,2.827 -1.999,4.164 -1.124,3.091 -2.185,6.01 -4.665,6.5 -2.443,0.484 -4.52,-1.788 -6.715,-4.194 -0.978,-1.071 -2.797,-3.063 -3.431,-3.135 -0.656,0.213 -2.024,2.469 -2.759,3.682 -1.708,2.816 -3.321,5.478 -5.855,5.478 -2.534,0 -4.148,-2.662 -5.856,-5.479 -0.734,-1.212 -2.102,-3.468 -2.691,-3.673 -0.701,0.064 -2.52,2.056 -3.498,3.127 -2.195,2.406 -4.271,4.678 -6.716,4.194 -2.479,-0.49 -3.54,-3.409 -4.664,-6.5 -0.486,-1.337 -1.392,-3.828 -1.935,-4.143 -0.694,-0.069 -2.862,1.519 -4.026,2.375 -2.632,1.932 -5.117,3.76 -7.427,2.799 -2.328,-0.965 -2.795,-4.031 -3.289,-7.275 -0.215,-1.413 -0.615,-4.042 -1.089,-4.457 -0.674,-0.204 -3.097,0.93 -4.401,1.538 -2.963,1.382 -5.761,2.686 -7.844,1.292 -2.09,-1.398 -1.95,-4.491 -1.802,-7.764 0.065,-1.432 0.186,-4.095 -0.2,-4.595 -0.618,-0.325 -3.213,0.311 -4.607,0.652 -3.179,0.781 -6.181,1.517 -7.956,-0.257 -1.775,-1.776 -1.038,-4.778 -0.259,-7.957 0.342,-1.394 0.979,-3.99 0.695,-4.555 -0.542,-0.438 -3.206,-0.317 -4.637,-0.252 -3.273,0.148 -6.366,0.288 -7.765,-1.801 -1.394,-2.083 -0.089,-4.881 1.292,-7.844 0.609,-1.304 1.741,-3.733 1.57,-4.343 -0.447,-0.533 -3.076,-0.933 -4.489,-1.148 -3.245,-0.494 -6.31,-0.961 -7.275,-3.289 -0.958,-2.31 0.867,-4.796 2.799,-7.427 0.855,-1.163 2.446,-3.329 2.394,-3.964 -0.335,-0.606 -2.825,-1.511 -4.163,-1.998 -3.09,-1.124 -6.01,-2.185 -6.5,-4.664 -0.484,-2.446 1.788,-4.521 4.194,-6.716 1.071,-0.978 3.064,-2.797 3.135,-3.431 -0.213,-0.656 -2.469,-2.025 -3.681,-2.759 -2.818,-1.708 -5.478,-3.321 -5.478,-5.855 0,-2.535 2.661,-4.148 5.478,-5.856 1.212,-0.734 3.468,-2.102 3.674,-2.691 -0.064,-0.701 -2.057,-2.52 -3.128,-3.497 -2.406,-2.197 -4.678,-4.271 -4.194,-6.717 0.49,-2.479 3.41,-3.54 6.5,-4.664 1.338,-0.487 3.828,-1.392 4.143,-1.935 0.071,-0.697 -1.52,-2.863 -2.374,-4.026 -1.933,-2.631 -3.758,-5.116 -2.8,-7.427 0.965,-2.328 4.03,-2.795 7.275,-3.289 1.413,-0.215 4.042,-0.615 4.457,-1.089 0.203,-0.669 -0.93,-3.096 -1.538,-4.401 -1.381,-2.963 -2.687,-5.762 -1.292,-7.845 1.399,-2.089 4.491,-1.949 7.765,-1.801 1.43,0.065 4.094,0.186 4.594,-0.2 0.326,-0.617 -0.31,-3.213 -0.653,-4.607 -0.779,-3.179 -1.516,-6.181 0.259,-7.956 1.775,-1.775 4.777,-1.038 7.956,-0.259 1.394,0.343 3.993,0.978 4.556,0.695 0.437,-0.542 0.316,-3.205 0.251,-4.637 -0.148,-3.273 -0.289,-6.366 1.801,-7.765 2.084,-1.395 4.883,-0.089 7.845,1.292 1.304,0.608 3.73,1.742 4.343,1.57 0.532,-0.447 0.932,-3.076 1.147,-4.489 0.494,-3.245 0.961,-6.31 3.289,-7.276 2.312,-0.957 4.797,0.868 7.428,2.8 1.163,0.855 3.334,2.442 3.962,2.395 0.607,-0.335 1.513,-2.826 1.999,-4.164 1.124,-3.091 2.185,-6.01 4.665,-6.5 2.445,-0.485 4.52,1.788 6.716,4.194 0.977,1.071 2.797,3.064 3.43,3.135 0.28,-0.09 0.689,-0.559 1.122,-1.151 l 10.531,-26.481 0.741,-0.268 c 0.543,-0.195 1.297,-0.344 2.16,-0.344 1.981,0 4.531,0.787 6.398,3.613 l 0.504,0.763 -7.617,19.154 c 0.21,0.339 0.42,0.685 0.631,1.033 0.735,1.212 2.102,3.468 2.692,3.674 0.7,-0.064 2.52,-2.057 3.497,-3.128 2.196,-2.406 4.273,-4.679 6.716,-4.194 2.479,0.49 3.54,3.409 4.665,6.5 0.486,1.338 1.391,3.828 1.934,4.143 0.698,0.073 2.863,-1.519 4.026,-2.375 2.632,-1.932 5.115,-3.758 7.427,-2.799 2.328,0.965 2.795,4.031 3.289,7.275 0.216,1.413 0.616,4.042 1.089,4.457 0.67,0.205 3.098,-0.93 4.402,-1.538 2.963,-1.382 5.761,-2.687 7.844,-1.292 2.089,1.398 1.949,4.491 1.801,7.764 -0.065,1.432 -0.186,4.096 0.2,4.595 0.617,0.326 3.213,-0.31 4.607,-0.652 3.179,-0.78 6.182,-1.517 7.957,0.258 1.775,1.775 1.038,4.777 0.258,7.956 -0.342,1.394 -0.979,3.99 -0.695,4.555 0.543,0.438 3.207,0.317 4.637,0.252 3.272,-0.148 6.366,-0.288 7.765,1.801 1.394,2.083 0.089,4.881 -1.292,7.844 -0.608,1.305 -1.74,3.733 -1.569,4.344 0.446,0.532 3.076,0.932 4.488,1.147 3.245,0.494 6.311,0.961 7.275,3.289 0.959,2.311 -0.866,4.796 -2.799,7.427 -0.854,1.163 -2.445,3.329 -2.394,3.964 0.335,0.606 2.825,1.512 4.163,1.998 3.091,1.124 6.01,2.185 6.5,4.664 0.484,2.447 -1.788,4.521 -4.194,6.717 -1.071,0.977 -3.064,2.797 -3.135,3.43 0.213,0.657 2.469,2.024 3.681,2.759"
         id="path438"
         style="fill:#000000;fill-opacity:1;fill-rule:nonzero;stroke:none" />
    </g>
    <g
       transform="matrix(1.25,0,0,-1.25,352.73686,144.02881)"
       id="g440">
      <path
         d="m 0,0 0.348,-0.049 c 0.053,0.297 0.046,0.61 -0.071,0.912 l 0,0.001 C -0.043,1.693 -1.204,2.27 -2.731,2.27 -3.526,2.27 -4.42,2.114 -5.348,1.755 -8.055,0.709 -9.398,-1.427 -8.91,-2.688 -8.781,-3.021 -8.544,-3.27 -8.275,-3.46 l 0.071,0.107 C -8.092,-3.185 -5.412,0.75 0,0"
         id="path442"
         style="fill:#fefefe;fill-opacity:1;fill-rule:nonzero;stroke:none" />
    </g>
    <g
       transform="matrix(1.25,0,0,-1.25,376.59786,220.83841)"
       id="g444">
      <path
         d="m 0,0 -0.022,-0.02 c -0.531,-0.488 -0.706,-1.252 -0.439,-1.922 l 35.736,-89.869 c 0.368,-0.925 1.429,-1.428 2.341,-1.027 0.014,0.006 0.028,0.012 0.041,0.018 0.859,0.389 1.221,1.424 0.872,2.3 L 2.786,-0.637 C 2.337,0.493 0.896,0.822 0,0"
         id="path446"
         style="fill:#fefefe;fill-opacity:1;fill-rule:nonzero;stroke:none" />
    </g>
    <g
       transform="matrix(1.25,0,0,-1.25,350.89596,155.59731)"
       id="g448">
      <path
         d="M 0,0 C 0.379,0.329 0.776,0.67 1.192,1.021 1.521,1.298 1.641,1.757 1.481,2.158 L 0.295,5.14 C 0.119,5.583 -0.351,5.846 -0.82,5.76 -1.527,5.63 -2.107,5.369 -2.563,5.086 -2.976,4.829 -3.143,4.315 -2.963,3.863 L -1.581,0.387 C -1.327,-0.253 -0.52,-0.452 0,0"
         id="path450"
         style="fill:#fefefe;fill-opacity:1;fill-rule:nonzero;stroke:none" />
    </g>
    <g
       transform="matrix(1.25,0,0,-1.25,474.42336,184.77721)"
       id="g452">
      <path
         d="m 0,0 c -0.231,0.748 -0.478,1.222 -0.484,1.233 l 0.012,0.007 c -2.157,0.602 -6.154,0.588 -11.343,-0.092 0.015,-0.209 0.03,-0.428 0.046,-0.663 0.05,-0.744 0.134,-1.988 0.185,-2.267 0.399,-1.962 1.643,-6.063 5.166,-8.318 0.454,0.167 0.885,0.343 1.294,0.529 2.629,1.189 4.348,2.74 5.092,4.639 C 0.697,-3.07 0.367,-1.187 0,0"
         id="path454"
         style="fill:#d93f5f;fill-opacity:1;fill-rule:nonzero;stroke:none" />
    </g>
    <g
       transform="matrix(1.25,0,0,-1.25,385.81966,174.44691)"
       id="g456">
      <path
         d="m 0,0 5.688,7.302 c 0.23,0.295 0.276,0.694 0.12,1.033 l -3.806,8.252 c -0.157,0.34 -0.111,0.739 0.119,1.034 l 6.569,8.431 c 0.191,0.245 0.483,0.385 0.789,0.385 0.039,0 0.079,-0.002 0.119,-0.007 l 9.658,-1.162 c 0.342,-0.041 0.639,-0.256 0.786,-0.569 l 3.968,-8.467 c 0.147,-0.313 0.444,-0.527 0.786,-0.568 l 8.261,-0.995 c 0.343,-0.041 0.64,-0.256 0.786,-0.568 l 4.58,-9.773 C 38.587,3.979 38.535,3.566 38.291,3.269 l -6.747,-8.211 c -0.191,-0.233 -0.475,-0.366 -0.772,-0.366 -0.04,0 -0.08,0.003 -0.12,0.008 l -8.15,0.981 c -0.04,0.005 -0.08,0.007 -0.12,0.007 -0.297,0 -0.581,-0.133 -0.773,-0.365 l -5.987,-7.286 c -0.191,-0.234 -0.475,-0.366 -0.773,-0.366 -0.039,0 -0.079,0.002 -0.119,0.007 l -9.655,1.162 c -0.345,0.042 -0.643,0.259 -0.789,0.575 l -4.405,9.551 C -0.276,-0.694 -0.23,-0.295 0,0 M 68.49,-3.198 C 62.378,9.895 56.982,35.511 55.719,41.771 55.623,42.245 55.198,42.58 54.714,42.572 5.174,41.73 -24.641,13.848 -30.141,8.236 c -0.252,-0.257 -0.377,-0.611 -0.349,-0.97 1.841,-23.78 12.688,-38.224 17.266,-43.33 0.226,-0.251 0.535,-0.396 0.872,-0.408 0.339,-0.008 0.656,0.111 0.9,0.347 24.314,23.553 64.924,34.152 79.942,32.927"
         id="path458"
         style="fill:#d93f5f;fill-opacity:1;fill-rule:nonzero;stroke:none" />
    </g>
    <g
       transform="matrix(1.25,0,0,-1.25,406.91876,169.49201)"
       id="g460">
      <path
         d="m 0,0 -4.597,-5.851 2.953,-6.295 4.288,5.219 c 0.132,0.161 0.286,0.295 0.44,0.429 L 0,0 z"
         id="path462"
         style="fill:#fefefe;fill-opacity:1;fill-rule:nonzero;stroke:none" />
    </g>
    <g
       transform="matrix(1.25,0,0,-1.25,398.46326,174.79181)"
       id="g464">
      <path
         d="M 0,0 4.494,5.721 -1.954,6.456 C -2.054,6.27 -2.164,6.088 -2.297,5.918 L -6.315,0.76 0,0 z"
         id="path466"
         style="fill:#fefefe;fill-opacity:1;fill-rule:nonzero;stroke:none" />
    </g>
    <g
       transform="matrix(1.25,0,0,-1.25,401.83346,186.16081)"
       id="g468">
      <path
         d="M 0,0 -3.008,6.414 -9.426,7.186 -6.47,0.779 0,0 z"
         id="path470"
         style="fill:#fefefe;fill-opacity:1;fill-rule:nonzero;stroke:none" />
    </g>
    <g
       transform="matrix(1.25,0,0,-1.25,417.79226,169.34991)"
       id="g472">
      <path
         d="m 0,0 -6.135,0.783 3.075,-6.481 c 0.103,-0.004 0.205,-0.006 0.308,-0.018 L 2.944,-6.402 0,0 z"
         id="path474"
         style="fill:#fefefe;fill-opacity:1;fill-rule:nonzero;stroke:none" />
    </g>
    <g
       transform="matrix(1.25,0,0,-1.25,420.90066,168.03151)"
       id="g476">
      <path
         d="M 0,0 2.965,-6.448 7.458,-0.979 4.4,5.547 0,0 z"
         id="path478"
         style="fill:#fefefe;fill-opacity:1;fill-rule:nonzero;stroke:none" />
    </g>
    <g
       transform="matrix(1.25,0,0,-1.25,401.08586,153.03091)"
       id="g480">
      <path
         d="M 0,0 4.525,5.718 -1.983,6.502 -6.445,0.776 0,0 z"
         id="path482"
         style="fill:#fefefe;fill-opacity:1;fill-rule:nonzero;stroke:none" />
    </g>
    <g
       transform="matrix(1.25,0,0,-1.25,409.27546,148.11941)"
       id="g484">
      <path
         d="m 0,0 -4.383,-5.539 3.082,-6.494 4.439,5.491 C 3.012,-6.364 2.896,-6.178 2.801,-5.975 L 0,0 z"
         id="path486"
         style="fill:#fefefe;fill-opacity:1;fill-rule:nonzero;stroke:none" />
    </g>
    <g
       transform="matrix(1.25,0,0,-1.25,400.69696,156.38351)"
       id="g488">
      <path
         d="m 0,0 -6.291,0.757 2.649,-5.742 c 0.09,-0.197 0.157,-0.399 0.211,-0.604 L 3.001,-6.322 0,0 z"
         id="path490"
         style="fill:#fefefe;fill-opacity:1;fill-rule:nonzero;stroke:none" />
    </g>
    <g
       transform="matrix(1.25,0,0,-1.25,418.20386,166.00031)"
       id="g492">
      <path
         d="M 0,0 4.383,5.525 -1.434,6.226 C -1.535,6.238 -1.632,6.261 -1.731,6.28 L -6.172,0.788 0,0 z"
         id="path494"
         style="fill:#fefefe;fill-opacity:1;fill-rule:nonzero;stroke:none" />
    </g>
    <g
       transform="matrix(1.25,0,0,-1.25,406.74176,145.88301)"
       id="g496">
      <path
         d="m 0,0 -4.525,-5.718 -6.444,0.776 4.461,5.726 L 0,0 z m 0.726,-13.822 -3.082,6.494 4.383,5.539 2.801,-5.975 c 0.094,-0.203 0.211,-0.389 0.337,-0.568 l -4.439,-5.49 z m 13.566,-10.345 -2.965,6.448 4.4,5.548 3.059,-6.527 -4.494,-5.469 z m -15.794,-6.866 -2.953,6.295 4.597,5.851 3.084,-6.498 c -0.154,-0.135 -0.308,-0.268 -0.44,-0.429 l -4.288,-5.219 z m -5.433,5.224 3.008,-6.413 -6.47,0.779 -2.955,6.407 6.417,-0.773 z m -1.642,9.138 6.448,-0.735 -4.494,-5.721 -6.315,0.76 4.018,5.158 c 0.133,0.17 0.243,0.352 0.343,0.538 m 14.358,-7.801 -3.076,6.481 6.135,-0.782 2.945,-6.402 -5.697,0.685 c -0.103,0.012 -0.205,0.015 -0.307,0.018 m 1.658,14.659 c 0.098,-0.02 0.196,-0.043 0.297,-0.055 l 5.816,-0.7 -4.382,-5.526 -6.172,0.788 4.441,5.493 z m -15.917,-3.572 -2.648,5.742 6.29,-0.757 3.001,-6.323 -6.432,0.734 c -0.054,0.204 -0.12,0.407 -0.211,0.604 m -3.973,-20.052 c 0.145,-0.315 0.444,-0.532 0.788,-0.574 l 9.656,-1.162 c 0.039,-0.005 0.079,-0.007 0.119,-0.007 0.297,0 0.581,0.132 0.773,0.366 l 5.987,7.286 c 0.191,0.232 0.475,0.365 0.772,0.365 0.04,0 0.08,-0.003 0.12,-0.007 l 8.151,-0.981 c 0.04,-0.005 0.08,-0.008 0.12,-0.008 0.297,0 0.581,0.133 0.772,0.366 l 6.746,8.21 c 0.245,0.298 0.296,0.71 0.133,1.06 l -4.58,9.773 c -0.147,0.312 -0.444,0.527 -0.786,0.568 l -8.261,0.995 c -0.343,0.041 -0.64,0.255 -0.786,0.568 L 3.304,1.848 C 3.158,2.161 2.86,2.375 2.518,2.417 l -9.657,1.162 c -0.04,0.005 -0.08,0.007 -0.12,0.007 -0.306,0 -0.598,-0.14 -0.789,-0.385 l -6.569,-8.431 c -0.23,-0.295 -0.276,-0.694 -0.119,-1.034 l 3.806,-8.252 c 0.157,-0.339 0.111,-0.738 -0.119,-1.033 l -5.689,-7.302 c -0.23,-0.295 -0.276,-0.694 -0.119,-1.034 l 4.406,-9.552 z"
         id="path498"
         style="fill:#000000;fill-opacity:1;fill-rule:nonzero;stroke:none" />
    </g>
  </g>
</svg>
