<svg id="Layer_1" data-name="Layer 1" xmlns="http://www.w3.org/2000/svg" viewBox="0 0 410.16 60.92"><defs><style>.cls-1{fill:#fff;}</style></defs><title>mozilla-festival_wordmark-interim_horizontal-05</title><rect class="cls-1" x="223.93" width="186.23" height="60.92"/><rect width="213.04" height="60.92"/><path class="cls-1" d="M203.48,43.73a4,4,0,0,1-1.12.18c-1.24,0-1.83-.53-1.83-2.07V30.26c0-6.09-4.85-9-10.58-9-4.37,0-6.74.53-11.4,2.42l-1,6.13,6.09.65.86-3a8.27,8.27,0,0,1,4.08-.77c4.31,0,4.37,3.25,4.37,6v.89a34.86,34.86,0,0,0-4.37-.24c-6.09,0-12.41,1.54-12.41,8.1,0,5.55,4.37,7.62,8.21,7.62a9.65,9.65,0,0,0,8.57-5.32c.35,3.25,2.31,5.32,5.85,5.32a10.3,10.3,0,0,0,4.79-1.24Zm-16.37-.18A2.79,2.79,0,0,1,184,40.48c0-2.9,2.36-3.66,5.08-3.66a28.11,28.11,0,0,1,3.84.35C192.73,41.6,189.83,43.55,187.11,43.55ZM176.88,7.74,165.36,48.4h-7.5L169.37,7.74Zm-15.48,0L149.87,48.4h-7.5L153.89,7.74Zm-32,14h8v9.57h-8Zm0,17.08h8V48.4h-8Zm-11.61-.35,6,.59-1.65,9.34H98.88l-.77-4,14.65-16.84h-8.33l-1.18,4.14-5.5-.59.95-9.34h23.4l.59,4L107.92,42.61h8.63ZM79.6,21.22c-9.57,0-14.3,6.44-14.3,14.24C65.3,44,71,49,79.19,49c8.51,0,14.65-5.38,14.65-13.89C93.84,27.66,89.17,21.22,79.6,21.22Zm-.18,21.92c-4.14,0-6.26-3.55-6.26-8.15,0-5,2.42-7.92,6.32-7.92,3.6,0,6.5,2.42,6.5,7.8C86,39.95,83.38,43.14,79.42,43.14Zm-21-.53H62V48.4H50.81v-15c0-4.61-1.54-6.38-4.55-6.38-3.66,0-5.14,2.6-5.14,6.32v9.28h3.55V48.4H33.5v-15C33.5,28.78,32,27,28.95,27c-3.66,0-5.14,2.6-5.14,6.32v9.28h5.08V48.4H12.64V42.61h3.55V27.54H12.64V21.75H23.81v4a8.83,8.83,0,0,1,8.1-4.55c3.84,0,7.39,1.83,8.69,5.73a8.93,8.93,0,0,1,8.69-5.73c4.79,0,9.16,2.9,9.16,9.22Z"/><path d="M254.4,15.7c0-3.84-2.28-6.3-5.46-6.3s-5.22,2.46-5.22,7.08v5.28h7v2.82h-7V45.63h6.48v2.76H235.5V45.63h4.92V24.58h-4V21.76h4V16.6c0-6.42,3.3-10.08,7.92-10.08a7,7,0,0,1,6.06,3.3V6.88h2.94V15.7Z"/><path d="M263.93,49c-7.44,0-12.3-5-12.3-13.56,0-8.28,4.62-14.22,11.94-14.22s10.92,5.58,10.92,11.7a17.56,17.56,0,0,1-.3,3H255.11c.18,6.42,3.42,10.14,9.06,10.14,4.2,0,6.84-2,7.8-5.76l2.76.66C274,45.45,270.17,49,263.93,49Zm-.54-24.84c-5.34,0-7.68,4.2-8.22,9H271C271.43,28.9,269,24.16,263.39,24.16Z"/><path d="M288.57,49c-3.72,0-6.42-1.2-7.86-3.12v2.82h-2.94V40.41h2.94c0,3.9,2.88,5.64,7.26,5.64,4,0,7-1.5,7-4.86,0-8-16.86-2.1-16.86-12.36,0-5.4,4.68-7.62,9.36-7.62,3.24,0,5.52,1.08,6.84,2.94V21.64h2.94v8.28h-2.94c0-4.08-2.22-5.76-6.42-5.76-3.72,0-6.3,1.32-6.3,4.32,0,7.56,16.74,1.68,16.74,12.36C298.29,45.81,294.69,49,288.57,49Z"/><path d="M311.93,49c-5.16,0-7.8-3.24-7.8-8.4v-16h-4.38V21.76h4.38V13.11h3.3v8.64H318v2.82H307.43V40.23c0,3.48,1.26,5.82,4.86,5.82,2.34,0,4.32-1,5.16-5.4l2.58.84C319.25,46.35,316.55,49,311.93,49Z"/><path d="M321,48.39V45.63h5V24.58h-5V21.76h8.34V45.63h4.92v2.76Zm6.36-34.56a2.19,2.19,0,0,1,0-4.38,2.19,2.19,0,1,1,0,4.38Z"/><path d="M358.44,24.58l-9.78,23.82h-2.58l-10.2-23.82h-3.24V21.76h11.94v2.82h-5.16l8,19.2h.36l7.38-19.2h-4.86V21.76h11.58v2.82Z"/><path d="M384.84,49c-2.94,0-4.56-2.1-4.56-5.4v-.12A10.76,10.76,0,0,1,371.1,49c-3.48,0-8.1-1.74-8.1-7.44,0-6.72,6.54-8.22,12.54-8.22,1.56,0,3.3.12,4.74.24V30.76c0-3.9-1.56-6.6-6.18-6.6s-6.9,2.82-6.9,7h-2.94V21.64h2.94v3.12c1.62-2.58,4.62-3.54,7.74-3.54,5.7,0,8.64,3.24,8.64,8.94v13c0,2.1.72,3.06,2.34,3.06a4.51,4.51,0,0,0,2-.42l.06,2.4A5.91,5.91,0,0,1,384.84,49Zm-4.56-12.84c-1.56-.12-3.36-.3-5.1-.3-4.44,0-8.7.9-8.7,5.34,0,3.84,3.12,4.86,5.46,4.86,4,0,8.1-3,8.34-7.44Z"/><path d="M389.42,48.39V45.63h4.92V9.88h-5V7.12h8.28V45.63h4.92v2.76Z"/></svg>