<svg id="Layer_1" data-name="Layer 1" xmlns="http://www.w3.org/2000/svg" viewBox="0 0 448.09 130.2"><defs><style>.cls-1{fill:#fff;}</style></defs><title>Mozilla-Festival_Lockup-2018-Black</title><rect y="0.01" width="130.19" height="130.19"/><rect x="138.65" width="213.04" height="60.92"/><path class="cls-1" d="M342.13,43.73a4,4,0,0,1-1.12.18c-1.24,0-1.83-.53-1.83-2.07V30.26c0-6.09-4.85-9-10.58-9-4.37,0-6.74.53-11.4,2.42l-1,6.13,6.09.65.86-3a8.27,8.27,0,0,1,4.08-.77c4.31,0,4.37,3.25,4.37,6v.89a34.86,34.86,0,0,0-4.37-.24c-6.09,0-12.41,1.54-12.41,8.1,0,5.55,4.37,7.62,8.21,7.62a9.65,9.65,0,0,0,8.57-5.32c.35,3.25,2.31,5.32,5.85,5.32a10.3,10.3,0,0,0,4.79-1.24Zm-16.37-.18a2.79,2.79,0,0,1-3.13-3.07c0-2.9,2.36-3.66,5.08-3.66a28.11,28.11,0,0,1,3.84.35C331.37,41.6,328.48,43.55,325.76,43.55ZM315.52,7.74,304,48.4h-7.5L308,7.74ZM300,7.74,288.52,48.4H281L292.54,7.74Zm-32,14h8v9.57h-8Zm0,17.08h8V48.4h-8Zm-11.61-.35,6,.59-1.65,9.34H237.53l-.77-4,14.65-16.84h-8.33l-1.18,4.14-5.5-.59.95-9.34h23.4l.59,4L246.57,42.61h8.63ZM218.25,21.22c-9.57,0-14.3,6.44-14.3,14.24C203.95,44,209.62,49,217.83,49c8.51,0,14.65-5.38,14.65-13.89C232.49,27.66,227.82,21.22,218.25,21.22Zm-.18,21.92c-4.14,0-6.26-3.55-6.26-8.15,0-5,2.42-7.92,6.32-7.92,3.6,0,6.5,2.42,6.5,7.8C224.63,39.95,222,43.14,218.07,43.14Zm-21-.53h3.55V48.4H189.46v-15c0-4.61-1.54-6.38-4.55-6.38-3.66,0-5.14,2.6-5.14,6.32v9.28h3.55V48.4H172.15v-15c0-4.61-1.54-6.38-4.55-6.38-3.66,0-5.14,2.6-5.14,6.32v9.28h5.08V48.4H151.29V42.61h3.55V27.54h-3.55V21.75h11.17v4a8.83,8.83,0,0,1,8.1-4.55c3.84,0,7.39,1.83,8.69,5.73a8.93,8.93,0,0,1,8.69-5.73c4.79,0,9.16,2.9,9.16,9.22Z"/><rect x="138.65" y="69.28" width="309.44" height="60.92"/><path class="cls-1" d="M164.14,75.79a12.92,12.92,0,0,1,3.15.33,6.4,6.4,0,0,1,2.55,1.41l1,5.94-2.76.36L167,79.15a9.16,9.16,0,0,0-3.3-.48q-5.22,0-5.22,7.08V91h7v2.82h-7v21.06h6.48v2.76h-14.7v-2.76h4.92V93.85h-4V91h4V85.87q0-4.8,2.76-7.44A8.79,8.79,0,0,1,164.14,75.79Z"/><path class="cls-1" d="M189.48,110.23a9.5,9.5,0,0,1-3.36,5.7,11.13,11.13,0,0,1-7.44,2.34,11.65,11.65,0,0,1-8.94-3.6q-3.36-3.6-3.36-10a15.72,15.72,0,0,1,3.24-10.23,10.63,10.63,0,0,1,8.7-4q5.46,0,8.19,3.57a13,13,0,0,1,2.73,8.13,17.23,17.23,0,0,1-.3,3H169.86q.12,4.8,2.46,7.47a8.31,8.31,0,0,0,6.6,2.67q6.3,0,7.8-5.76Zm-3.72-7.8a9.42,9.42,0,0,0-1.56-6.09q-1.86-2.91-6.06-2.91-4,0-5.91,2.7a13.52,13.52,0,0,0-2.31,6.3Z"/><path class="cls-1" d="M212.73,110.11a6.92,6.92,0,0,1-3.15,5.94,13.15,13.15,0,0,1-7.77,2.22,19.41,19.41,0,0,1-5.55-.81,14.46,14.46,0,0,1-4.17-1.83l.72-5.64,2.7.24-.24,3.6a13.46,13.46,0,0,0,6.42,1.5,11.84,11.84,0,0,0,5.31-1.17,3.87,3.87,0,0,0,2.37-3.69,3.66,3.66,0,0,0-1.71-3.42,12.52,12.52,0,0,0-4.23-1.47q-2.52-.45-5-1a9.53,9.53,0,0,1-4.2-2,5.56,5.56,0,0,1-1.71-4.5q0-4.08,2.94-5.85a12.22,12.22,0,0,1,6.42-1.77,16.91,16.91,0,0,1,5.19.78A19.15,19.15,0,0,1,211,92.95l.6,6.12-2.76.36-.72-4.5a15.36,15.36,0,0,0-2.64-1.08,11,11,0,0,0-3.18-.42,9,9,0,0,0-4.56,1,3.53,3.53,0,0,0-1.74,3.3,3.36,3.36,0,0,0,1.68,3.21,13.1,13.1,0,0,0,4.2,1.35q2.52.42,5,1a9.5,9.5,0,0,1,4.17,2.1A6,6,0,0,1,212.73,110.11Z"/><path class="cls-1" d="M234.25,110.77q-1.2,7.5-8.1,7.5-3.9,0-5.85-2.28a9.1,9.1,0,0,1-2-6.12v-16H214V91h4.38V82.39h3.3V91h10.62v2.82H221.65v15.66a7.4,7.4,0,0,0,1.08,4.23,4.24,4.24,0,0,0,3.78,1.59,5,5,0,0,0,3.12-1.05q1.38-1,2-4.35Z"/><path class="cls-1" d="M248.47,117.67h-13.2v-2.76h5V93.85h-5V91h8.34v23.88h4.92Zm-8.64-34.08V78.85h3.72v4.74Z"/><path class="cls-1" d="M276.21,93.85h-3.42L263,117.67h-2.58l-10.2-23.82H247V91h11.94v2.82h-5.16l8,19.2h.36l7.38-19.2h-4.86V91h11.58Z"/><path class="cls-1" d="M279.37,93.13a10.55,10.55,0,0,1,4-2,18.46,18.46,0,0,1,4.77-.63q9.24,0,9.24,8.94v13q0,3.06,2.34,3.06a4.14,4.14,0,0,0,2-.42l.06,2.4a5.69,5.69,0,0,1-3.12.84q-4.56,0-4.56-5.4v-.12a12.41,12.41,0,0,1-3.63,3.84,9.35,9.35,0,0,1-5.55,1.68,10.63,10.63,0,0,1-5.37-1.59q-2.73-1.59-2.73-5.85,0-5,4-6.63a22.81,22.81,0,0,1,8.46-1.59q1.26,0,2.49.09l2.31.15V100a7.55,7.55,0,0,0-1.41-4.83q-1.41-1.77-5.07-1.77a11.91,11.91,0,0,0-5.4,1.2l-1.08,4.8-2.76-.36Zm14.76,14.76v-2.46q-1.14-.12-2.46-.21t-2.76-.09a16.88,16.88,0,0,0-5.91,1q-2.67,1-2.67,4.35,0,2.88,1.86,3.87a7.65,7.65,0,0,0,3.6,1,8.75,8.75,0,0,0,5.58-2.07A7.1,7.1,0,0,0,294.13,107.89Z"/><path class="cls-1" d="M316.43,117.67H303.29v-2.76h4.92V79.15h-5V76.39h8.28v38.52h4.92Z"/><path class="cls-1" d="M333.71,88.51a18.87,18.87,0,0,1,10.5-2.7q5.58,0,7.95,3.06a10.19,10.19,0,0,1,2.37,6.3,12.13,12.13,0,0,1-3.12,7.92,38.12,38.12,0,0,1-7.29,6.66q-4.17,2.94-7.23,4.86h16.38l.6-5.1,2.88.18-.6,8H332.57l-.36-2.64A142.76,142.76,0,0,0,346,104.5q4.92-4.41,4.92-9.09a6.22,6.22,0,0,0-1.95-4.8,8.18,8.18,0,0,0-5.73-1.8,16,16,0,0,0-3.18.39,18.76,18.76,0,0,0-3.54,1.11l-1,4.5-2.76-.36Z"/><path class="cls-1" d="M388.41,102.07q0,7.2-3.66,11.7t-10.68,4.5q-7.08,0-10.59-4.53A18.2,18.2,0,0,1,360,102.25a18.68,18.68,0,0,1,3.63-11.7q3.63-4.74,10.71-4.74,7.26,0,10.68,4.74A19.17,19.17,0,0,1,388.41,102.07Zm-3.6-.12a16.46,16.46,0,0,0-2.49-9.39q-2.49-3.69-8-3.69t-8.07,3.54q-2.67,3.54-2.67,9.6t2.67,9.63q2.67,3.57,7.95,3.57t7.92-3.54Q384.81,108.13,384.81,101.95Z"/><path class="cls-1" d="M408.45,117.67H390.21v-3.06h7.5V89.47h-7.5V86.41h10.92v28.2h7.32Z"/><path class="cls-1" d="M436.61,108a8.72,8.72,0,0,1-3.9,7.5,16.52,16.52,0,0,1-9.78,2.76,15.51,15.51,0,0,1-9.21-2.58,8.75,8.75,0,0,1-3.63-7.62q0-4.5,2.88-6.81a26.39,26.39,0,0,1,6.54-3.81,24.17,24.17,0,0,1-5.85-3.75,7.4,7.4,0,0,1-2.49-5.85,8.66,8.66,0,0,1,3.39-7,13.29,13.29,0,0,1,8.67-2.76,13.92,13.92,0,0,1,8.61,2.64,8.41,8.41,0,0,1,3.51,7.08,7.13,7.13,0,0,1-2.64,6,25.13,25.13,0,0,1-6,3.45,35.93,35.93,0,0,1,6.84,4.08A8,8,0,0,1,436.61,108Zm-3.6.18a6.31,6.31,0,0,0-3.24-5.7,55,55,0,0,0-7.2-3.66,33.07,33.07,0,0,0-6.42,3.42,6.31,6.31,0,0,0-2.64,5.52,6.39,6.39,0,0,0,2.73,5.58,11.55,11.55,0,0,0,6.81,1.92,13.22,13.22,0,0,0,7-1.8A5.8,5.8,0,0,0,433,108.19Zm-1.14-20.4a5.65,5.65,0,0,0-2.52-5,10.79,10.79,0,0,0-6.12-1.68,10.5,10.5,0,0,0-6.06,1.68,5.35,5.35,0,0,0-2.46,4.68,5.77,5.77,0,0,0,2.64,5,38,38,0,0,0,6.12,3.39,31.47,31.47,0,0,0,6.12-3.27A5.52,5.52,0,0,0,431.87,87.79Z"/><path class="cls-1" d="M58,113.82a49,49,0,0,0,11.48.17l.09-.17A19.4,19.4,0,0,1,94.28,104l.17.09A50.69,50.69,0,0,0,102.71,96l0-.17a19.35,19.35,0,0,1,10.54-24.46l.17-.09a49,49,0,0,0,.17-11.48l-.17-.09A19.21,19.21,0,0,1,103.49,35l.09-.17a48.52,48.52,0,0,0-8-8.22l-.17.09a19.13,19.13,0,0,1-6.6,1.2A19.54,19.54,0,0,1,70.93,16.2L70.85,16a49,49,0,0,0-11.48-.17l-.09.17A19.34,19.34,0,0,1,41.63,27.25a19.26,19.26,0,0,1-7.11-1.37l-.17-.09a45,45,0,0,0-8.22,7.92l.09.17A19.43,19.43,0,0,1,15.68,58.35l-.17.09A49.35,49.35,0,0,0,15.33,70l.17.09A19.38,19.38,0,0,1,25.36,94.8l-.09.17a49.86,49.86,0,0,0,8,8.18l.17,0a18.18,18.18,0,0,1,6.6-1.2,19.5,19.5,0,0,1,17.86,11.74l0,.17Zm6.47,3.6a53.22,53.22,0,0,1-7.84-.6l-.9-.13-.77-1.84A16.28,16.28,0,0,0,40,105.08a15.91,15.91,0,0,0-5.48,1l-1.84.69-.69-.56a53.7,53.7,0,0,1-9.85-10.11l-.56-.69.77-1.84a16.18,16.18,0,0,0-8.18-20.65l-1.8-.81-.09-.9a53.84,53.84,0,0,1,.21-14.14l.13-.9,1.84-.77A16.08,16.08,0,0,0,23.26,35l-.69-1.84.56-.73a52.45,52.45,0,0,1,10.11-9.85l.73-.51,1.84.77A15.62,15.62,0,0,0,41.72,24,16.13,16.13,0,0,0,56.45,14.7l.81-1.8.9-.09A52.06,52.06,0,0,1,72.3,13l.9.13L74,15a16.21,16.21,0,0,0,14.91,9.77,15.91,15.91,0,0,0,5.48-1l1.84-.69.69.56a52.45,52.45,0,0,1,9.85,10.11l.51.73-.77,1.84a16.13,16.13,0,0,0,8.18,20.6l1.8.81.09.9a52.06,52.06,0,0,1-.21,14.14l-.13.9-1.84.77a16.13,16.13,0,0,0-8.78,20.39l.69,1.84-.56.69a52.45,52.45,0,0,1-10.11,9.85l-.73.51L93,107a15.46,15.46,0,0,0-5.91-1.16,16.17,16.17,0,0,0-14.73,9.34l-.81,1.8-.9.09a50.54,50.54,0,0,1-6.25.39Z"/><path class="cls-1" d="M64.38,30.46A34.44,34.44,0,1,0,88.71,40.57,34.43,34.43,0,0,0,64.38,30.46Zm0,72a37.61,37.61,0,0,1,0-75.22A38.15,38.15,0,0,1,91,38.3a37,37,0,0,1,11,26.6,37.66,37.66,0,0,1-37.61,37.61Z"/><path class="cls-1" d="M85.55,73.84l-3-5.24L80.48,65l1-1.8,4.07-7L90.67,65l-5.12,8.81Zm-38.91,4.7,7.6,0h2.59l5.07,8.84-10.18,0-5.07-8.84Zm5.21-36.09,10.18,0-.69,1.19L56.9,51.28l-10.18,0,5.12-8.81Zm5,12,.74,1.28L62,63.33l-7.6,0H51.77l-5.07-8.84,10.18,0Zm11.92.24-4.07,7L59.68,52.9l5.12-8.81,5.06,8.84-1,1.8Zm14-.16-5.12,8.81-10.19,0,5.12-8.81,10.18,0ZM46.64,75.32l5.12-8.81,10.18,0L57.64,74l-.81,1.4H54.25l-7.61,0Zm18,10.48L59.6,77l5.12-8.8,3.4,5.93L69.79,77,64.67,85.8ZM82.76,75.43l-10.18,0-2.14-3.73-2.92-5.1,10.18,0,3.14,5.47,1.93,3.37Zm3.76-24.06-13.87,0L65.71,39.27,50,39.24S42.08,52.8,42.09,52.84,49,64.9,49,64.9l-7,12L49.85,90.6H65.61l6.95-12,13.92,0L94.37,65,86.51,51.37Z"/></svg>