<svg xmlns="http://www.w3.org/2000/svg" xmlns:xlink="http://www.w3.org/1999/xlink" viewBox="0 0 228.569 143.621"><defs><style>.cls-1{opacity:0;}.cls-2{fill:url(#linear-gradient);}</style><linearGradient id="linear-gradient" x1="-6.849" y1="11.864" x2="214.058" y2="139.405" gradientUnits="userSpaceOnUse"><stop offset="0" stop-color="#5204ff"/><stop offset="0.086" stop-color="#4f0dff"/><stop offset="0.226" stop-color="#4725ff"/><stop offset="0.403" stop-color="#3a4dff"/><stop offset="0.61" stop-color="#2884ff"/><stop offset="0.839" stop-color="#11caff"/><stop offset="1" stop-color="aqua"/></linearGradient></defs><title>mozilla-festival_website-theme-update</title><g id="Layer_2" data-name="Layer 2"><g id="Layer_1-2" data-name="Layer 1"><g class="cls-1"><rect x="47.848" y="47.879" width="37.114" height="37.114"/><rect x="47.848" y="5.383" width="37.114" height="37.114"/><rect x="5.352" y="5.383" width="37.114" height="37.114"/><rect x="90.344" y="5.383" width="37.114" height="37.114"/><rect x="132.84" y="5.383" width="37.114" height="37.114"/><rect x="90.344" y="47.879" width="37.114" height="37.114"/><rect x="132.84" y="47.879" width="37.114" height="37.114"/><rect x="175.336" y="47.879" width="37.114" height="37.114"/><rect x="5.352" y="90.375" width="37.114" height="37.114"/><rect x="47.848" y="90.375" width="37.114" height="37.114"/><rect x="90.344" y="90.375" width="37.114" height="37.114"/><rect x="132.84" y="90.375" width="37.114" height="37.114"/><rect x="175.336" y="90.375" width="37.114" height="37.114"/></g><path d="M18.388,31.355V16.525a.334.334,0,0,1,.378-.38h5.456a6.82,6.82,0,0,1,2.928.591A4.547,4.547,0,0,1,29.1,18.394a4.452,4.452,0,0,1,.691,2.473v6.146a4.45,4.45,0,0,1-.691,2.471,4.556,4.556,0,0,1-1.948,1.659,6.835,6.835,0,0,1-2.928.59H18.766A.334.334,0,0,1,18.388,31.355Zm3.273-2.316h2.672a2.148,2.148,0,0,0,1.658-.69,2.7,2.7,0,0,0,.658-1.849V21.379a2.616,2.616,0,0,0-.635-1.848,2.2,2.2,0,0,0-1.7-.692h-2.65a.118.118,0,0,0-.133.134v9.932A.118.118,0,0,0,21.661,29.039Z"/><path d="M69.873,31.422,69.25,29.35a.125.125,0,0,0-.134-.111H63.66a.123.123,0,0,0-.133.111L62.9,31.422a.421.421,0,0,1-.423.311H59.9a.332.332,0,0,1-.29-.123.3.3,0,0,1-.021-.3l4.742-14.853a.422.422,0,0,1,.423-.313h3.274a.42.42,0,0,1,.423.313l4.743,14.853a.318.318,0,0,1,.023.133.268.268,0,0,1-.09.212.365.365,0,0,1-.245.077H70.3A.419.419,0,0,1,69.873,31.422Zm-5.456-4.61h3.942q.133,0,.111-.156l-2-6.792c-.014-.059-.041-.089-.078-.089s-.07.03-.1.089l-1.982,6.792Q64.284,26.812,64.417,26.812Z"/><path d="M114.771,16.525v1.959a.334.334,0,0,1-.379.378H110.54a.118.118,0,0,0-.134.134V31.355a.335.335,0,0,1-.378.378h-2.383a.334.334,0,0,1-.379-.378V19a.118.118,0,0,0-.134-.134h-3.741a.334.334,0,0,1-.379-.378V16.525a.335.335,0,0,1,.379-.38h11A.335.335,0,0,1,114.771,16.525Z"/><path d="M26.627,116.437l-2.739-6.058a.16.16,0,0,0-.157-.111H21.705a.118.118,0,0,0-.133.134v5.945a.336.336,0,0,1-.379.379H18.81a.334.334,0,0,1-.378-.379V101.494a.334.334,0,0,1,.378-.378h6.257a5.144,5.144,0,0,1,2.5.59,4.123,4.123,0,0,1,1.67,1.659,4.978,4.978,0,0,1,.591,2.449,4.461,4.461,0,0,1-.757,2.606,4.016,4.016,0,0,1-2.094,1.536.133.133,0,0,0-.088.078.085.085,0,0,0,.022.1l2.939,6.146a.326.326,0,0,1,.067.2.212.212,0,0,1-.089.178.4.4,0,0,1-.244.067H27.072A.486.486,0,0,1,26.627,116.437Zm-5.055-12.471v3.741a.118.118,0,0,0,.133.134H24.6a2.157,2.157,0,0,0,1.526-.546,1.866,1.866,0,0,0,.59-1.436,1.939,1.939,0,0,0-.59-1.459,2.111,2.111,0,0,0-1.526-.568H21.705A.118.118,0,0,0,21.572,103.966Z"/><path d="M64.818,116.347v-14.83a.335.335,0,0,1,.379-.38H67.58a.335.335,0,0,1,.378.38v14.83a.335.335,0,0,1-.378.379H65.2A.335.335,0,0,1,64.818,116.347Z"/><path d="M105.953,116.213a5,5,0,0,1-2.038-1.925,5.567,5.567,0,0,1-.724-2.862v-4.988a5.619,5.619,0,0,1,.724-2.872,4.9,4.9,0,0,1,2.038-1.927,7.06,7.06,0,0,1,6.023-.011A5.072,5.072,0,0,1,114,103.443a4.684,4.684,0,0,1,.723,2.55v.044a.333.333,0,0,1-.378.378h-2.382a.57.57,0,0,1-.279-.056c-.067-.036-.1-.077-.1-.122v-.156a2.328,2.328,0,0,0-.713-1.725,2.881,2.881,0,0,0-3.819.044,2.684,2.684,0,0,0-.724,1.949v5.165a2.572,2.572,0,0,0,.779,1.949,2.748,2.748,0,0,0,1.982.746,2.678,2.678,0,0,0,1.849-.613,2.159,2.159,0,0,0,.69-1.7v-.979a.118.118,0,0,0-.134-.134h-2.36a.334.334,0,0,1-.379-.378v-1.827a.334.334,0,0,1,.379-.378h5.21a.334.334,0,0,1,.378.378V111.4a5.835,5.835,0,0,1-.711,2.94,4.715,4.715,0,0,1-2.015,1.9,6.622,6.622,0,0,1-3.018.656A6.4,6.4,0,0,1,105.953,116.213Z"/><path d="M60.865,73.85V59.02a.335.335,0,0,1,.379-.379H66.7a6.813,6.813,0,0,1,2.927.59,4.552,4.552,0,0,1,1.949,1.659,4.455,4.455,0,0,1,.691,2.472v6.146a4.459,4.459,0,0,1-.691,2.472,4.565,4.565,0,0,1-1.949,1.659,6.827,6.827,0,0,1-2.927.59H61.244A.335.335,0,0,1,60.865,73.85Zm3.274-2.316h2.672a2.145,2.145,0,0,0,1.658-.69A2.706,2.706,0,0,0,69.127,69V63.874a2.619,2.619,0,0,0-.635-1.848,2.2,2.2,0,0,0-1.7-.691H64.139a.118.118,0,0,0-.134.134V71.4A.118.118,0,0,0,64.139,71.534Z"/><path d="M105.829,73.761a5.127,5.127,0,0,1-2.06-1.993,5.828,5.828,0,0,1-.734-2.95V64.052a5.719,5.719,0,0,1,.734-2.916,5.075,5.075,0,0,1,2.06-1.971,7.077,7.077,0,0,1,6.146,0,5.069,5.069,0,0,1,2.06,1.971,5.709,5.709,0,0,1,.735,2.916v4.766a5.881,5.881,0,0,1-.735,2.961,5.028,5.028,0,0,1-2.06,1.994,6.505,6.505,0,0,1-3.084.7A6.365,6.365,0,0,1,105.829,73.761ZM110.873,71a2.841,2.841,0,0,0,.757-2.07v-4.9a2.915,2.915,0,0,0-.745-2.082,2.615,2.615,0,0,0-1.994-.791,2.584,2.584,0,0,0-1.971.791,2.91,2.91,0,0,0-.745,2.082v4.9A2.868,2.868,0,0,0,106.92,71a2.6,2.6,0,0,0,1.971.78A2.634,2.634,0,0,0,110.873,71Z"/><path d="M199.14,61.335h-7.17a.118.118,0,0,0-.134.134v3.407a.118.118,0,0,0,.134.134h4.653a.335.335,0,0,1,.379.378v1.938a.335.335,0,0,1-.379.378H191.97a.118.118,0,0,0-.134.134V71.4a.118.118,0,0,0,.134.133h7.17a.335.335,0,0,1,.378.379V73.85a.335.335,0,0,1-.378.379H189.074a.334.334,0,0,1-.378-.379V59.02a.334.334,0,0,1,.378-.379H199.14a.334.334,0,0,1,.378.379v1.937A.334.334,0,0,1,199.14,61.335Z"/><path d="M199.708,101.517v1.959a.334.334,0,0,1-.378.379h-3.853a.118.118,0,0,0-.134.133v12.359a.335.335,0,0,1-.378.379h-2.383a.334.334,0,0,1-.378-.379V103.988a.118.118,0,0,0-.134-.133h-3.742a.334.334,0,0,1-.378-.379v-1.959a.335.335,0,0,1,.378-.38h11A.335.335,0,0,1,199.708,101.517Z"/><path d="M154.9,31.422l-.624-2.072a.123.123,0,0,0-.133-.111H148.69a.124.124,0,0,0-.134.111l-.623,2.072a.421.421,0,0,1-.424.311h-2.582a.334.334,0,0,1-.291-.123.3.3,0,0,1-.021-.3l4.742-14.853a.422.422,0,0,1,.424-.313h3.273a.42.42,0,0,1,.423.313l4.743,14.853a.3.3,0,0,1,.023.133.268.268,0,0,1-.09.212.36.36,0,0,1-.244.077h-2.584A.418.418,0,0,1,154.9,31.422Zm-5.456-4.61h3.942q.132,0,.111-.156l-2-6.792c-.014-.059-.04-.089-.077-.089s-.071.03-.1.089l-1.981,6.792Q149.312,26.812,149.447,26.812Z"/><path d="M154.445,101.137h2.383a.335.335,0,0,1,.379.38v14.83a.335.335,0,0,1-.379.379h-2.383a.335.335,0,0,1-.378-.379v-6.012a.118.118,0,0,0-.134-.134h-4.876a.118.118,0,0,0-.133.134v6.012a.336.336,0,0,1-.379.379h-2.383a.334.334,0,0,1-.378-.379v-14.83a.335.335,0,0,1,.378-.38h2.383a.336.336,0,0,1,.379.38v5.856a.118.118,0,0,0,.133.134h4.876a.118.118,0,0,0,.134-.134v-5.856A.335.335,0,0,1,154.445,101.137Z"/><path d="M145.411,73.85V59.02a.335.335,0,0,1,.379-.379h2.293a.5.5,0,0,1,.445.245L154.1,68.15c.03.059.064.081.1.066s.056-.052.056-.111V59.02a.334.334,0,0,1,.378-.379h2.338a.334.334,0,0,1,.378.379V73.85a.334.334,0,0,1-.378.379H154.7a.523.523,0,0,1-.445-.268l-5.59-9.352c-.03-.059-.063-.082-.1-.067s-.056.052-.056.112l.022,9.2a.335.335,0,0,1-.378.379h-2.36A.335.335,0,0,1,145.411,73.85Z"/><path class="cls-2" d="M212.456,42.5H175.341V0H0V47.879H5.382v0h37.1V84.989H.008v0H0V132.87H5.382v-.007H217.835V42.5ZM169.961,5.383V42.5H132.846V5.383ZM132.846,47.874h37.115V84.989H132.846Zm-5.379,37.115H90.352V47.874h37.115Zm0-79.606V42.5H90.352V5.383Zm-42.494,0V42.5H47.857V5.383ZM5.382,42.5V5.383h37.1V42.5Zm42.475,5.379H84.973V84.989H47.857ZM5.382,127.484V90.368h37.1v37.116Zm42.475,0V90.368H84.973v37.116Zm42.5,0V90.368h37.115v37.116Zm42.494,0V90.368h37.115v37.116Zm79.61,0H175.341V90.368h37.115Zm0-42.495H175.341V47.874h37.115Z"/><rect x="10.717" y="47.874" width="31.761" height="10.758"/><rect x="175.341" y="10.758" width="10.733" height="31.737"/><polygon points="228.569 53.253 228.569 143.621 10.717 143.621 10.717 132.863 217.835 132.863 217.835 53.253 228.569 53.253"/></g></g></svg>