<?xml version="1.0" encoding="UTF-8" standalone="no"?>
<svg width="21px" height="17px" viewBox="0 0 21 17" version="1.1" xmlns="http://www.w3.org/2000/svg" xmlns:xlink="http://www.w3.org/1999/xlink" xmlns:sketch="http://www.bohemiancoding.com/sketch/ns">
    <!-- Generator: Sketch 3.3.2 (12043) - http://www.bohemiancoding.com/sketch -->
    <title></title>
    <desc>Created with Sketch.</desc>
    <defs></defs>
    <g id="Colour-/-Text-Options" stroke="none" stroke-width="1" fill="none" fill-rule="evenodd" sketch:type="MSPage">
        <g id="Artboard-29" sketch:type="MSArtboardGroup" transform="translate(-74.000000, -22.000000)" fill="#FFFFFF">
            <path d="M88.2382812,23.25 L94.0976562,29.4023438 C94.4492205,29.753908 94.625,30.2031223 94.625,30.75 C94.625,31.257815 94.4492205,31.6874982 94.0976562,32.0390625 L88.2382812,38.25 C87.886717,38.6015643 87.4667993,38.7773438 86.9785156,38.7773438 C86.4902319,38.7773438 86.0703143,38.6015643 85.71875,38.25 C85.3671857,37.8984357 85.1914062,37.4492215 85.1914062,36.9023438 C85.1914062,36.355466 85.3671857,35.9062518 85.71875,35.5546875 L88.53125,32.625 L75.8164062,32.625 C75.3085912,32.625 74.878908,32.439455 74.5273438,32.0683594 C74.1757795,31.6972638 74,31.257815 74,30.75 C74,30.242185 74.1757795,29.8027362 74.5273438,29.4316406 C74.878908,29.060545 75.3085912,28.875 75.8164062,28.875 L88.53125,28.875 L85.6601562,25.9453125 C85.308592,25.5937482 85.1328125,25.144534 85.1328125,24.5976562 C85.1328125,24.0507785 85.308592,23.6015643 85.6601562,23.25 C86.0117205,22.8984357 86.4414037,22.7226562 86.9492188,22.7226562 C87.4570338,22.7226562 87.886717,22.8984357 88.2382812,23.25 L88.2382812,23.25 Z" id="" sketch:type="MSShapeGroup"></path>
        </g>
    </g>
</svg>