<svg width="21" height="17" viewBox="0 0 21 17" xmlns="http://www.w3.org/2000/svg"><title></title><desc>Created with Sketch.</desc><g fill="none" fill-rule="evenodd"><g fill="#fff"><path d="M14.238 1.25l5.86 6.152c.35.352.527.8.527 1.348 0 .508-.176.937-.527 1.29l-5.86 6.21c-.35.352-.77.527-1.26.527-.488 0-.908-.175-1.26-.527-.35-.352-.527-.8-.527-1.348 0-.547.177-.996.53-1.347l2.81-2.93H1.817c-.507 0-.937-.186-1.29-.557C.177 9.698 0 9.258 0 8.75s.176-.947.527-1.318c.352-.37.782-.557 1.29-.557H14.53l-2.87-2.93c-.35-.35-.527-.8-.527-1.347 0-.547.176-.996.527-1.348.352-.352.78-.527 1.29-.527.507 0 .937.175 1.288.527z"/></g></g></svg>