<?xml version="1.0" encoding="utf-8"?>
<!-- Generator: Adobe Illustrator 16.0.0, SVG Export Plug-In . SVG Version: 6.00 Build 0)  -->
<!DOCTYPE svg PUBLIC "-//W3C//DTD SVG 1.1//EN" "http://www.w3.org/Graphics/SVG/1.1/DTD/svg11.dtd">
<svg version="1.1" xmlns="http://www.w3.org/2000/svg" xmlns:xlink="http://www.w3.org/1999/xlink" x="0px" y="0px" width="124px"
	 height="94px" viewBox="0 0 124 94" enable-background="new 0 0 124 94" xml:space="preserve">
<g id="Layer_1">
	<g id="Layer_2">
	</g>
	<g>
		<path fill="none" d="M3.82,92.583c0-29.326,0-58.653,0-87.99c39.342,0,78.689,0,118.055,0c0,29.323,0,58.656,0,87.99
			C82.533,92.583,43.179,92.583,3.82,92.583z M79.446,62.05c-0.204,0.02-0.427-0.005-0.61,0.067
			c-1.71,0.681-3.417,1.371-5.118,2.073c-2.788,1.151-5.577,2.301-8.355,3.477c-1.794,0.76-3.568,1.567-5.353,2.351
			c-2.429,1.067-4.865,2.12-7.287,3.203c-2.354,1.052-4.697,2.128-7.041,3.206c-2.042,0.939-4.097,1.856-6.111,2.854
			c-1.892,0.937-3.749,1.947-5.602,2.962c-2.119,1.161-4.267,2.282-6.305,3.574c-1.688,1.068-3.232,2.359-4.842,3.55
			c-0.309,0.229-0.481,0.582-0.244,0.86c0.188,0.219,0.619,0.4,0.891,0.345c0.756-0.154,1.519-0.366,2.214-0.692
			c1.071-0.503,2.093-1.113,3.126-1.693c0.365-0.204,0.691-0.477,1.059-0.674c1.111-0.598,2.233-1.174,3.35-1.761
			c0.367-0.193,0.735-0.388,1.096-0.595c0.682-0.391,1.363-0.779,2.032-1.19c0.333-0.205,0.712-0.307,0.843-0.825
			c0.082-0.326,0.346-0.695,0.811-0.905c1.592-0.718,3.136-1.544,4.689-2.346c0.218-0.113,0.363-0.379,0.584-0.469
			c0.445-0.179,0.938-0.242,1.378-0.43c1.452-0.618,2.889-1.27,4.331-1.908c1.322-0.584,2.641-1.174,3.967-1.75
			c1.135-0.493,2.287-0.949,3.416-1.457c1.532-0.689,3.04-1.432,4.576-2.112c1.336-0.592,2.7-1.121,4.045-1.693
			c0.414-0.176,0.803-0.413,1.21-0.604c0.284-0.133,0.581-0.235,0.872-0.351C67.335,69,67.656,69,67.936,68.89
			c0.86-0.34,1.71-0.712,2.553-1.097c0.211-0.096,0.378-0.288,0.603-0.465c0.166-0.032,0.433-0.04,0.665-0.134
			c1.264-0.518,2.509-1.079,3.778-1.582c1.384-0.548,2.788-1.05,4.183-1.57c0.607-0.226,1.222-0.434,1.824-0.672
			c0.992-0.393,1.963-0.847,2.971-1.198c1.881-0.657,3.785-1.25,5.675-1.888c0.803-0.271,1.577-0.628,2.388-0.871
			c1.283-0.383,2.586-0.695,3.877-1.05c1.076-0.296,2.141-0.633,3.22-0.913c1.355-0.353,2.718-0.679,4.083-0.992
			c1.423-0.326,2.846-0.663,4.28-0.926c2.315-0.424,4.634-0.844,6.966-1.156c1.087-0.146,2.209-0.042,3.316-0.035
			c0.353,0.002,0.695,0.069,0.953-0.283c0.352-0.483,0.359-1.003,0.1-1.484c-0.22-0.408-0.514-0.82-1.1-0.763
			c-0.805,0.08-1.614,0.119-2.414,0.231c-1.705,0.24-3.411,0.489-5.107,0.784c-1.415,0.247-2.82,0.55-4.225,0.855
			c-2.251,0.488-4.51,0.95-6.742,1.513c-1.969,0.497-3.912,1.102-5.859,1.685c-1.634,0.49-3.26,1.008-4.883,1.532
			c-1.2,0.388-2.396,0.789-3.586,1.212c-1.598,0.568-3.191,1.149-4.773,1.757c-0.439,0.168-0.834,0.449-1.25,0.679L79.446,62.05z
			 M102.508,18.137c-0.31-0.277-0.238,0.046-0.267,0.177c-0.034,0.165,0.008,0.449-0.071,0.485c-0.682,0.307-0.357,0.853-0.445,1.33
			c0.514-0.104,0.938-0.188,1.359-0.272c-0.119-0.35-0.188-0.553-0.257-0.756c0.044-0.018,0.087-0.035,0.13-0.052
			c0.082,0.114,0.164,0.228,0.217,0.301c0.59-0.645,0.516-1.664,1.174-2.061c0.236-0.497,0.406-0.858,0.578-1.217
			c0.084-0.174,0.187-0.339,0.256-0.518c0.273-0.694,0.509-1.403,0.808-2.085c0.69-1.574,1.422-3.13,2.11-4.705
			c0.244-0.559,0.453-1.141,0.602-1.731c0.15-0.601-0.462-1.339-1.045-1.261c-0.604,0.081-1.219,0.227-1.422,0.952
			c-0.021,0.076-0.09,0.141-0.146,0.203c-1.344,1.498-2.694,2.991-4.033,4.494c-0.759,0.851-1.49,1.725-2.25,2.574
			c-0.691,0.771-1.423,1.505-2.1,2.287c-0.74,0.853-1.351,1.808-2.123,2.638c-0.496,0.533-0.902,1.148-1.359,1.718
			c-0.78,0.971-1.584,1.924-2.35,2.907c-0.769,0.986-1.533,1.977-2.242,3.005c-0.648,0.944-1.236,1.933-1.822,2.919
			c-0.532,0.896-1.035,1.809-1.527,2.728c-0.125,0.234-0.135,0.527-0.239,0.775c-0.201,0.478-0.441,0.939-0.646,1.415
			c-0.14,0.325-0.249,0.664-0.394,1.055c-0.094-0.142-0.168-0.207-0.185-0.285c-0.294-1.413-0.639-2.817-0.854-4.242
			c-0.248-1.636-0.39-3.289-0.56-4.936c-0.073-0.716-0.765-1.239-1.466-1.068c-0.738,0.18-0.956,0.561-0.768,1.311
			c0.06,0.239,0.104,0.484,0.135,0.729c0.164,1.312,0.244,2.64,0.498,3.934c0.475,2.416,1.037,4.813,1.584,7.214
			c0.303,1.333,0.645,2.659,0.973,3.987c0.084,0.337,0.115,0.715,0.296,0.995c0.409,0.635,1.304,0.79,2.034,0.482
			c0.287-0.121,0.645-0.215,0.938-0.158c1.339,0.265,2.655,0.662,4.002,0.872c1.873,0.292,3.762,0.505,5.65,0.662
			c0.941,0.078,1.902-0.002,2.848-0.09c1.666-0.154,3.328-0.354,4.988-0.564c0.555-0.07,1.105-0.205,1.647-0.351
			c1.816-0.488,3.64-0.953,5.435-1.513c0.845-0.263,0.953-1.214,0.188-1.635c-0.655-0.361-1.416-0.64-2.155-0.717
			c-1.516-0.159-3.013,0.163-4.506,0.425c-1.938,0.341-3.879,0.683-5.827,0.956c-1.705,0.238-3.429,0.346-5.135,0.575
			c-1.894,0.254-3.734,0.031-5.513-0.583c-1.859-0.643-2.412-1.597-2.402-3.514c0.004-0.831,0.218-1.685,0.472-2.486
			c0.685-2.156,1.714-4.163,2.96-6.04c1.249-1.882,2.596-3.7,3.92-5.531c0.534-0.738,1.106-1.451,1.693-2.147
			c0.688-0.813,1.426-1.584,2.112-2.398c0.445-0.529,0.804-1.132,1.261-1.649c0.717-0.81,1.496-1.565,2.229-2.363
			c0.645-0.701,1.259-1.43,1.892-2.142c0.285-0.321,0.584-0.631,0.875-0.946c0.079,0.285,0.084,0.533,0.001,0.747
			c-0.333,0.865-0.712,1.713-1.034,2.582c-0.184,0.498-0.291,1.024-0.403,1.432c-0.128,0.235-0.245,0.377-0.282,0.537
			c-0.047,0.202-0.031,0.418-0.042,0.629L102.508,18.137z M26.639,28.345c-0.118,0.588-0.226,0.994-0.273,1.406
			c-0.041,0.354,0.034,0.725-0.029,1.072c-0.145,0.803-0.456,1.592-0.48,2.395c-0.02,0.588-0.071,1.156-0.156,1.736
			c-0.143,0.985-0.204,1.981-0.322,2.97c-0.131,1.083-0.323,2.16-0.42,3.246c-0.094,1.042,0.034,2.104-0.289,3.125
			c-0.006,0.016-0.006,0.036-0.002,0.053c0.199,1.023-0.277,1.985-0.27,2.992c0.002,0.368,0.01,0.743-0.051,1.103
			c-0.118,0.683-0.329,1.352-0.422,2.038c-0.255,1.9-0.441,3.809-0.713,5.706c-0.119,0.833-0.365,1.649-0.582,2.464
			c-0.126,0.471-0.502,0.595-0.912,0.422c-0.332-0.14-0.656-0.348-0.917-0.596c-1.3-1.24-1.904-2.906-2.608-4.489
			c-0.794-1.787-1.436-3.64-2.187-5.447c-0.544-1.311-1.124-2.608-1.747-3.884c-0.709-1.452-1.432-2.901-2.244-4.296
			c-0.73-1.254-1.539-2.472-2.41-3.633c-0.658-0.878-2.347-0.572-2.665,0.457c-0.356,1.151-0.649,2.327-0.902,3.506
			c-0.407,1.9-0.362,3.84-0.302,5.761c0.104,3.252,0.311,6.501,0.514,9.749c0.117,1.865,0.318,3.725,0.471,5.588
			c0.014,0.181,0.014,0.465-0.093,0.539c-0.608,0.422-0.456,1.029-0.413,1.587c0.051,0.665,0.153,1.328,0.277,1.983
			c0.378,2.002,0.79,3.998,1.158,6.001c0.094,0.508,0.362,0.882,0.802,1.007c0.351,0.1,0.8,0.051,1.147-0.082
			c0.37-0.141,0.477-0.531,0.395-0.941c-0.148-0.744-0.333-1.483-0.423-2.234c-0.312-2.609-0.628-5.218-0.872-7.834
			c-0.299-3.195-0.562-6.396-0.773-9.598c-0.16-2.397-0.221-4.8-0.313-7.202c-0.077-2.026,0.292-4.001,0.737-5.964
			c0.043-0.188,0.161-0.359,0.268-0.589c0.277,0.338,0.541,0.582,0.711,0.878c0.758,1.315,1.535,2.623,2.219,3.977
			c0.828,1.644,1.605,3.316,2.339,5.004c0.665,1.533,1.216,3.115,1.866,4.654c0.695,1.646,1.402,3.291,2.191,4.895
			c0.531,1.078,1.27,2.037,2.405,2.572c1.904,0.896,3.979,0.25,4.457-2.022c0.268-1.272,0.453-2.565,0.612-3.856
			c0.324-2.626,0.615-5.256,0.902-7.887c0.214-1.96,0.412-3.923,0.598-5.886c0.116-1.237,0.166-2.481,0.301-3.716
			c0.158-1.467,0.385-2.926,0.563-4.391c0.204-1.675,0.297-3.37,0.604-5.025c0.459-2.462,1.021-4.907,1.624-7.338
			c0.362-1.464,0.84-2.903,1.347-4.325c0.697-1.955,1.466-3.884,2.221-5.818c0.091-0.234,0.283-0.429,0.43-0.642
			c0.354,1.532,0.678,3.001,0.802,4.487c0.296,3.556,0.536,7.117,0.723,10.68c0.118,2.271,0.117,4.548,0.136,6.823
			c0.016,1.873,0.041,3.75-0.049,5.619c-0.066,1.382,0.223,2.755,0.018,4.138c-0.068,0.46,0.018,0.943,0.03,1.415
			c0.027,1.018,0.048,2.036,0.08,3.054c0.026,0.845,0.076,1.69,0.101,2.535c0.052,1.722,0.062,3.446,0.151,5.165
			c0.054,1.047,0.231,2.087,0.343,3.131c0.088,0.821,0.12,1.649,0.246,2.463c0.182,1.163,0.477,2.31,0.624,3.476
			c0.087,0.684,0.446,1.022,1.034,1.153c0.268,0.059,0.576-0.093,0.867-0.1c0.334-0.007,0.627-0.095,0.65-0.45
			c0.021-0.334,0.137-0.762-0.423-0.877c-0.124-0.026-0.245-0.292-0.284-0.465c-0.109-0.499-0.195-1.005-0.257-1.512
			c-0.255-2.081-0.544-4.159-0.729-6.247c-0.173-1.951-0.265-3.912-0.33-5.87c-0.057-1.703-0.023-3.409-0.039-5.114
			c-0.013-1.393-0.059-2.786-0.057-4.179c0.003-2.49,0.057-4.98,0.04-7.47c-0.017-2.457-0.08-4.913-0.145-7.369
			c-0.083-3.172-0.161-6.347-0.665-9.489c-0.41-2.558-0.836-5.113-1.264-7.668c-0.076-0.452-0.336-0.8-0.796-0.885
			c-0.556-0.103-1.108,0.065-1.421,0.517c-0.417,0.602-0.73,1.281-1.043,1.948c-0.219,0.47-0.336,0.985-0.545,1.46
			c-0.223,0.504-0.505,0.981-0.748,1.477c-0.424,0.864-0.322,1.922-0.992,2.699c-0.054,0.061-0.055,0.166-0.084,0.25
			c-0.172,0.492-0.361,0.978-0.51,1.476c-0.179,0.598-0.344,1.202-0.473,1.812c-0.051,0.241,0.035,0.451-0.225,0.687
			c-0.299,0.272-0.387,0.73-0.129,1.096c-0.1,0.118-0.231,0.208-0.266,0.326c-0.17,0.581-0.367,1.163-0.448,1.758
			c-0.072,0.526-0.423,0.963-0.309,1.584c0.053,0.286-0.225,0.742-0.114,1.169c0.023,0.091-0.104,0.229-0.177,0.334
			c-0.444,0.638-0.456,0.863-0.05,1.253C26.736,26.383,26.43,27.918,26.639,28.345z M59.889,54.889
			c-0.107-0.193-0.192-0.318-0.252-0.454c-0.279-0.642-0.582-1.276-0.823-1.933c-0.774-2.106-1.494-4.232-2.293-6.329
			c-0.968-2.54-1.943-5.079-3.015-7.576c-0.528-1.23-1.242-2.389-1.943-3.536c-0.398-0.651-1.112-1.044-1.671-0.885
			c-1.265,0.362-2.121,1.186-2.595,2.39c-0.445,1.136-0.908,2.273-1.229,3.447c-0.283,1.042-0.452,2.128-0.546,3.206
			c-0.113,1.307-0.063,2.626-0.143,3.937c-0.062,1.046-0.323,2.091-0.3,3.131c0.048,2.098,0.195,4.196,0.369,6.288
			c0.088,1.067,0.333,2.121,0.49,3.183c0.106,0.717,0.732,1.183,1.459,1.057c0.796-0.139,1.002-0.473,0.829-1.347
			c-0.021-0.103-0.041-0.205-0.059-0.309c-0.146-0.859-0.292-1.718-0.442-2.6c0.875,0,1.707-0.19,2.395,0.044
			c1.051,0.356,2.035,0.95,2.986,1.541c2.068,1.286,4.232,2.117,6.747,1.753c0.247,0.43,0.425,0.987,1.083,0.974
			c0.35-0.007,0.709-0.021,1.041-0.111c0.32-0.087,0.362-0.825,0.157-1.231c-0.095-0.187-0.168-0.518-0.07-0.644
			c0.382-0.493,0.446-1.009,0.323-1.591c-0.131-0.62-0.247-1.244-0.355-1.869c-0.229-1.316-0.461-2.632-0.67-3.952
			c-0.094-0.595-0.135-1.197-0.19-1.708c0.697,0,1.347,0.153,1.886-0.026c2.349-0.784,4.665-1.664,6.994-2.508
			c2.582-0.937,5.205-1.702,7.938-2.072c2.344-0.317,4.422,0.25,6.346,1.6c0.857,0.602,1.705,1.296,2.871,1.248
			c0.333-0.014,1.031-0.458,0.954-0.755c-0.122-0.469-0.317-0.939-0.582-1.343c-0.119-0.181-0.495-0.303-0.733-0.275
			c-0.775,0.087-1.254-0.422-1.838-0.76c-0.848-0.489-1.703-1.007-2.621-1.317c-1.641-0.553-3.37-0.481-5.037-0.174
			c-2.027,0.373-4.026,0.917-6.021,1.45c-0.999,0.267-1.964,0.667-2.939,1.019c-0.818,0.296-1.629,0.61-2.443,0.917
			c0.055-0.287,0.184-0.483,0.327-0.668c0.6-0.77,1.257-1.502,1.792-2.314c0.636-0.962,1.145-2.007,1.75-2.991
			c0.828-1.344,1.395-2.799,1.782-4.311c0.339-1.323,0.569-2.68,0.757-4.035c0.311-2.233-0.07-4.356-1.322-6.262
			c-1.039-1.583-2.742-2.242-4.498-1.71c-0.99,0.3-1.83,0.935-2.488,1.725c-0.707,0.852-1.377,1.752-1.941,2.703
			c-0.977,1.644-1.525,3.461-1.896,5.33c-0.185,0.928-0.385,1.855-0.507,2.792c-0.192,1.465-0.38,2.936-0.463,4.41
			c-0.064,1.132,0.041,2.273,0.061,3.411c0.016,0.895-0.026,1.793,0.035,2.685c0.09,1.321,0.269,2.635,0.373,3.955
			C59.793,52.585,59.826,53.687,59.889,54.889z"/>
		<path fill-rule="evenodd" clip-rule="evenodd" d="M26.639,28.345c-0.209-0.427,0.098-1.962,0.643-2.525
			c-0.406-0.39-0.395-0.616,0.05-1.253c0.073-0.105,0.2-0.243,0.177-0.334c-0.11-0.427,0.167-0.883,0.114-1.169
			c-0.114-0.621,0.236-1.058,0.309-1.584c0.081-0.595,0.278-1.177,0.448-1.758c0.034-0.118,0.166-0.208,0.266-0.326
			c-0.258-0.365-0.17-0.823,0.129-1.096c0.26-0.235,0.174-0.446,0.225-0.687c0.129-0.61,0.294-1.214,0.473-1.812
			c0.148-0.498,0.338-0.984,0.51-1.476c0.029-0.083,0.03-0.188,0.084-0.25c0.67-0.776,0.568-1.835,0.992-2.699
			c0.243-0.495,0.525-0.972,0.748-1.477c0.209-0.475,0.326-0.99,0.545-1.46c0.312-0.667,0.626-1.346,1.043-1.948
			c0.312-0.451,0.865-0.619,1.421-0.517c0.46,0.085,0.72,0.434,0.796,0.885c0.428,2.555,0.854,5.11,1.264,7.668
			c0.504,3.143,0.582,6.317,0.665,9.489c0.064,2.456,0.128,4.913,0.145,7.369c0.017,2.49-0.037,4.98-0.04,7.47
			c-0.002,1.393,0.044,2.786,0.057,4.179c0.016,1.705-0.018,3.411,0.039,5.114c0.065,1.958,0.157,3.918,0.33,5.87
			c0.186,2.087,0.475,4.166,0.729,6.247c0.062,0.507,0.147,1.013,0.257,1.512c0.039,0.174,0.16,0.439,0.284,0.465
			c0.56,0.115,0.444,0.543,0.423,0.877c-0.023,0.355-0.316,0.443-0.65,0.45c-0.291,0.007-0.6,0.159-0.867,0.1
			c-0.588-0.13-0.947-0.469-1.034-1.153c-0.147-1.166-0.442-2.313-0.624-3.476c-0.126-0.814-0.158-1.643-0.246-2.463
			c-0.111-1.044-0.289-2.084-0.343-3.131c-0.09-1.719-0.1-3.443-0.151-5.165c-0.024-0.845-0.074-1.69-0.101-2.535
			c-0.032-1.018-0.053-2.036-0.08-3.054c-0.013-0.472-0.099-0.955-0.03-1.415c0.205-1.383-0.084-2.755-0.018-4.138
			c0.09-1.87,0.064-3.746,0.049-5.619c-0.019-2.275-0.018-4.552-0.136-6.823c-0.187-3.562-0.427-7.124-0.723-10.68
			c-0.124-1.486-0.448-2.955-0.802-4.487c-0.146,0.213-0.339,0.408-0.43,0.642c-0.755,1.934-1.523,3.863-2.221,5.818
			c-0.507,1.422-0.984,2.861-1.347,4.325c-0.603,2.432-1.165,4.876-1.624,7.338c-0.308,1.655-0.4,3.35-0.604,5.025
			c-0.179,1.465-0.405,2.924-0.563,4.391c-0.135,1.235-0.185,2.479-0.301,3.716c-0.186,1.963-0.384,3.926-0.598,5.886
			c-0.287,2.631-0.578,5.261-0.902,7.887c-0.159,1.292-0.345,2.584-0.612,3.856c-0.478,2.272-2.553,2.919-4.457,2.022
			c-1.136-0.535-1.874-1.494-2.405-2.572c-0.789-1.604-1.496-3.248-2.191-4.895c-0.65-1.54-1.201-3.122-1.866-4.654
			c-0.733-1.688-1.511-3.361-2.339-5.004c-0.684-1.354-1.461-2.662-2.219-3.977c-0.17-0.296-0.434-0.54-0.711-0.878
			c-0.106,0.23-0.225,0.401-0.268,0.589c-0.445,1.963-0.814,3.938-0.737,5.964c0.093,2.401,0.153,4.805,0.313,7.202
			c0.212,3.203,0.475,6.403,0.773,9.598c0.244,2.616,0.56,5.225,0.872,7.834c0.09,0.751,0.274,1.491,0.423,2.234
			c0.082,0.41-0.024,0.8-0.395,0.941c-0.348,0.132-0.797,0.182-1.147,0.082c-0.439-0.125-0.708-0.499-0.802-1.007
			c-0.368-2.003-0.78-3.999-1.158-6.001c-0.124-0.655-0.227-1.318-0.277-1.983c-0.043-0.559-0.195-1.165,0.413-1.587
			c0.106-0.074,0.106-0.357,0.093-0.539c-0.152-1.863-0.354-3.723-0.471-5.588c-0.203-3.248-0.41-6.497-0.514-9.749
			C5.674,44.53,5.629,42.59,6.036,40.69c0.253-1.179,0.546-2.354,0.902-3.506c0.318-1.029,2.007-1.335,2.665-0.457
			c0.871,1.162,1.68,2.379,2.41,3.633c0.812,1.395,1.535,2.845,2.244,4.296c0.623,1.275,1.203,2.573,1.747,3.884
			c0.751,1.807,1.393,3.66,2.187,5.447c0.704,1.583,1.309,3.249,2.608,4.489c0.261,0.248,0.585,0.456,0.917,0.596
			c0.41,0.172,0.786,0.049,0.912-0.422c0.217-0.815,0.463-1.632,0.582-2.464c0.271-1.897,0.458-3.806,0.713-5.706
			c0.093-0.686,0.304-1.354,0.422-2.038c0.061-0.36,0.053-0.735,0.051-1.103c-0.008-1.006,0.469-1.969,0.27-2.992
			c-0.004-0.017-0.004-0.037,0.002-0.053c0.323-1.021,0.195-2.083,0.289-3.125c0.097-1.085,0.289-2.163,0.42-3.246
			c0.118-0.988,0.18-1.985,0.322-2.97c0.085-0.58,0.137-1.147,0.156-1.736c0.024-0.802,0.336-1.592,0.48-2.395
			c0.063-0.347-0.012-0.718,0.029-1.072C26.413,29.339,26.521,28.934,26.639,28.345z"/>
		<path fill-rule="evenodd" clip-rule="evenodd" d="M59.889,54.889c-0.062-1.202-0.096-2.303-0.182-3.4
			c-0.104-1.32-0.283-2.634-0.373-3.955c-0.062-0.892-0.02-1.79-0.035-2.685c-0.02-1.137-0.125-2.278-0.061-3.411
			c0.083-1.474,0.271-2.944,0.463-4.41c0.122-0.937,0.322-1.864,0.507-2.792c0.37-1.869,0.919-3.687,1.896-5.33
			c0.564-0.951,1.234-1.852,1.941-2.703c0.658-0.79,1.498-1.425,2.488-1.725c1.756-0.532,3.459,0.127,4.498,1.71
			c1.252,1.905,1.633,4.028,1.322,6.262c-0.188,1.354-0.418,2.712-0.757,4.035c-0.388,1.511-0.954,2.967-1.782,4.311
			c-0.605,0.983-1.114,2.028-1.75,2.991c-0.535,0.812-1.192,1.544-1.792,2.314c-0.144,0.185-0.272,0.381-0.327,0.668
			c0.814-0.306,1.625-0.621,2.443-0.917c0.976-0.353,1.94-0.752,2.939-1.019c1.995-0.533,3.994-1.077,6.021-1.45
			c1.667-0.307,3.396-0.379,5.037,0.174c0.918,0.31,1.773,0.829,2.621,1.317c0.584,0.337,1.062,0.847,1.838,0.76
			c0.238-0.027,0.614,0.095,0.733,0.275c0.265,0.403,0.46,0.874,0.582,1.343c0.077,0.298-0.621,0.742-0.954,0.755
			c-1.166,0.048-2.014-0.646-2.871-1.248c-1.924-1.35-4.002-1.917-6.346-1.6c-2.732,0.37-5.355,1.135-7.938,2.072
			c-2.329,0.845-4.646,1.725-6.994,2.508c-0.539,0.179-1.188,0.026-1.886,0.026c0.056,0.511,0.097,1.113,0.19,1.708
			c0.209,1.319,0.44,2.636,0.67,3.952c0.108,0.625,0.225,1.249,0.355,1.869c0.123,0.582,0.059,1.098-0.323,1.591
			c-0.098,0.126-0.024,0.458,0.07,0.644c0.205,0.406,0.163,1.144-0.157,1.231c-0.332,0.09-0.691,0.104-1.041,0.111
			c-0.658,0.013-0.836-0.544-1.083-0.974c-2.515,0.364-4.679-0.467-6.747-1.753c-0.951-0.591-1.936-1.185-2.986-1.541
			c-0.688-0.234-1.52-0.044-2.395-0.044c0.15,0.881,0.296,1.741,0.442,2.6c0.018,0.104,0.038,0.206,0.059,0.309
			c0.173,0.874-0.033,1.208-0.829,1.347c-0.727,0.126-1.353-0.34-1.459-1.057c-0.157-1.062-0.402-2.116-0.49-3.183
			c-0.174-2.092-0.321-4.19-0.369-6.288c-0.023-1.041,0.237-2.085,0.3-3.131c0.079-1.311,0.029-2.63,0.143-3.937
			c0.094-1.078,0.263-2.164,0.546-3.206c0.32-1.173,0.783-2.311,1.229-3.447c0.474-1.205,1.33-2.028,2.595-2.39
			c0.559-0.16,1.272,0.234,1.671,0.885c0.701,1.147,1.415,2.305,1.943,3.536c1.071,2.497,2.047,5.036,3.015,7.576
			c0.799,2.097,1.519,4.223,2.293,6.329c0.241,0.656,0.544,1.291,0.823,1.933C59.696,54.571,59.781,54.695,59.889,54.889z
			 M59.028,58.206c-0.134-0.311-0.237-0.548-0.339-0.786c-0.709-1.646-1.464-3.274-2.111-4.945
			c-0.589-1.522-1.045-3.094-1.588-4.634c-0.48-1.361-0.996-2.709-1.502-4.062c-0.391-1.05-0.748-2.115-1.195-3.141
			c-0.462-1.059-1.004-2.083-1.533-3.112c-0.219-0.424-0.496-0.817-0.76-1.245c-0.156,0.114-0.254,0.149-0.291,0.217
			c-0.416,0.773-0.883,1.525-1.222,2.332c-0.884,2.105-1.138,4.336-1.152,6.599c-0.009,1.496,0.016,2.992,0.021,4.487
			c0.004,1.284,0,2.568,0,3.875c1.945,0.176,3.518,1.068,5.113,1.882c1.19,0.607,2.328,1.32,3.52,1.925
			C56.9,58.062,57.867,58.4,59.028,58.206z M60.963,48.485c0.252-0.134,0.355-0.192,0.461-0.246
			c1.243-0.629,2.127-1.668,3.039-2.672c0.432-0.474,0.875-0.947,1.236-1.472c0.422-0.614,0.76-1.287,1.139-1.933
			c0.418-0.714,0.93-1.39,1.24-2.148c0.635-1.546,1.392-3.042,1.735-4.71c0.264-1.28,0.582-2.542,0.549-3.857
			c-0.038-1.492-0.22-2.944-1.08-4.239c-0.487-0.733-1.187-1.137-1.896-0.885c-0.405,0.144-0.797,0.381-1.135,0.651
			c-0.934,0.748-1.582,1.737-2.193,2.749c-0.861,1.427-1.354,3.001-1.801,4.594c-0.657,2.33-1.023,4.716-1.254,7.115
			c-0.17,1.75-0.164,3.518-0.2,5.279C60.793,47.264,60.9,47.819,60.963,48.485z"/>
		<path fill-rule="evenodd" clip-rule="evenodd" d="M102.501,18.149c0.011-0.211-0.005-0.428,0.042-0.629
			c0.037-0.16,0.154-0.301,0.282-0.537c0.112-0.408,0.22-0.934,0.403-1.432c0.322-0.869,0.701-1.717,1.034-2.582
			c0.083-0.214,0.078-0.462-0.001-0.747c-0.291,0.315-0.59,0.625-0.875,0.946c-0.633,0.712-1.247,1.441-1.892,2.142
			c-0.733,0.797-1.513,1.553-2.229,2.363c-0.457,0.517-0.815,1.12-1.261,1.649c-0.687,0.814-1.425,1.585-2.112,2.398
			c-0.587,0.696-1.159,1.409-1.693,2.147c-1.324,1.831-2.671,3.649-3.92,5.531c-1.246,1.877-2.275,3.884-2.96,6.04
			c-0.254,0.801-0.468,1.655-0.472,2.486c-0.01,1.917,0.543,2.871,2.402,3.514c1.778,0.614,3.619,0.837,5.513,0.583
			c1.706-0.229,3.43-0.337,5.135-0.575c1.948-0.272,3.889-0.614,5.827-0.956c1.493-0.263,2.99-0.584,4.506-0.425
			c0.739,0.077,1.5,0.355,2.155,0.717c0.765,0.421,0.656,1.372-0.188,1.635c-1.795,0.56-3.618,1.025-5.435,1.513
			c-0.542,0.146-1.093,0.281-1.647,0.351c-1.66,0.21-3.322,0.411-4.988,0.564c-0.945,0.087-1.906,0.167-2.848,0.09
			c-1.889-0.156-3.777-0.37-5.65-0.662c-1.347-0.21-2.663-0.607-4.002-0.872c-0.293-0.058-0.65,0.037-0.938,0.158
			c-0.73,0.308-1.625,0.153-2.034-0.482c-0.181-0.279-0.212-0.658-0.296-0.995c-0.328-1.328-0.67-2.653-0.973-3.987
			c-0.547-2.401-1.109-4.799-1.584-7.214c-0.254-1.294-0.334-2.622-0.498-3.934c-0.031-0.245-0.075-0.49-0.135-0.729
			c-0.188-0.75,0.029-1.13,0.768-1.311c0.701-0.171,1.393,0.352,1.466,1.068c0.17,1.647,0.312,3.3,0.56,4.936
			c0.216,1.425,0.561,2.83,0.854,4.242c0.017,0.078,0.091,0.143,0.185,0.285c0.145-0.392,0.254-0.73,0.394-1.055
			c0.205-0.476,0.445-0.937,0.646-1.415c0.104-0.248,0.114-0.541,0.239-0.775c0.492-0.918,0.995-1.832,1.527-2.728
			c0.586-0.986,1.174-1.975,1.822-2.919c0.709-1.029,1.474-2.02,2.242-3.005c0.766-0.983,1.569-1.936,2.35-2.907
			c0.457-0.57,0.863-1.185,1.359-1.718c0.772-0.83,1.383-1.785,2.123-2.638c0.677-0.782,1.408-1.516,2.1-2.287
			c0.76-0.849,1.491-1.723,2.25-2.574c1.339-1.503,2.689-2.996,4.033-4.494c0.057-0.062,0.125-0.127,0.146-0.203
			c0.203-0.725,0.818-0.871,1.422-0.952c0.583-0.079,1.195,0.66,1.045,1.261c-0.148,0.591-0.357,1.173-0.602,1.731
			c-0.688,1.575-1.42,3.131-2.11,4.705c-0.299,0.682-0.534,1.391-0.808,2.085c-0.069,0.179-0.172,0.344-0.256,0.518
			c-0.172,0.359-0.342,0.72-0.578,1.217c-0.658,0.397-0.584,1.416-1.174,2.061c-0.053-0.074-0.135-0.188-0.217-0.301
			c-0.043,0.018-0.086,0.035-0.13,0.052c0.069,0.203,0.138,0.406,0.257,0.756c-0.422,0.084-0.846,0.169-1.359,0.272
			c0.088-0.477-0.236-1.023,0.445-1.33c0.079-0.036,0.037-0.32,0.071-0.485c0.028-0.13-0.043-0.454,0.269-0.179
			c0.128,0.138,0.255,0.278,0.4,0.438c0.401-0.103,0.406-0.113,0.242-0.599C102.939,18.032,102.721,18.091,102.501,18.149z
			 M99.249,42.917c0.889,0.503,8.702-0.637,9.282-1.389C105.348,41.758,102.33,42.53,99.249,42.917z"/>
		<path fill-rule="evenodd" clip-rule="evenodd" d="M79.43,62.058c0.416-0.229,0.811-0.511,1.25-0.679
			c1.582-0.608,3.176-1.189,4.773-1.757c1.189-0.423,2.386-0.825,3.586-1.212c1.623-0.524,3.249-1.042,4.883-1.532
			c1.947-0.583,3.891-1.188,5.859-1.685c2.232-0.562,4.491-1.024,6.742-1.513c1.404-0.305,2.81-0.608,4.225-0.855
			c1.696-0.295,3.402-0.544,5.107-0.784c0.8-0.112,1.609-0.151,2.414-0.231c0.586-0.058,0.88,0.354,1.1,0.763
			c0.26,0.481,0.252,1.001-0.1,1.484c-0.258,0.353-0.601,0.286-0.953,0.283c-1.107-0.006-2.229-0.11-3.316,0.035
			c-2.332,0.312-4.65,0.732-6.966,1.156c-1.435,0.263-2.857,0.6-4.28,0.926c-1.365,0.313-2.728,0.64-4.083,0.992
			c-1.079,0.28-2.144,0.617-3.22,0.913c-1.291,0.355-2.594,0.667-3.877,1.05c-0.811,0.242-1.585,0.6-2.388,0.871
			c-1.89,0.638-3.794,1.231-5.675,1.888c-1.008,0.351-1.979,0.805-2.971,1.198c-0.603,0.238-1.217,0.446-1.824,0.672
			c-1.395,0.52-2.799,1.022-4.183,1.57c-1.27,0.503-2.515,1.064-3.778,1.582c-0.232,0.095-0.499,0.103-0.665,0.134
			c-0.225,0.177-0.392,0.369-0.603,0.465c-0.843,0.385-1.692,0.756-2.553,1.097C67.656,69,67.335,69,67.066,69.118
			c-0.291,0.116-0.588,0.218-0.872,0.351c-0.407,0.191-0.796,0.428-1.21,0.604c-1.345,0.572-2.709,1.102-4.045,1.693
			c-1.536,0.68-3.044,1.423-4.576,2.112c-1.129,0.507-2.281,0.964-3.416,1.457c-1.326,0.575-2.645,1.165-3.967,1.75
			c-1.442,0.638-2.879,1.29-4.331,1.908c-0.44,0.188-0.933,0.25-1.378,0.43c-0.221,0.09-0.366,0.356-0.584,0.469
			c-1.554,0.802-3.098,1.628-4.689,2.346c-0.465,0.21-0.729,0.579-0.811,0.905c-0.131,0.518-0.51,0.62-0.843,0.825
			c-0.669,0.411-1.351,0.799-2.032,1.19c-0.36,0.207-0.729,0.401-1.096,0.595c-1.116,0.587-2.238,1.163-3.35,1.761
			c-0.367,0.198-0.693,0.47-1.059,0.674c-1.033,0.58-2.055,1.19-3.126,1.693c-0.695,0.326-1.458,0.538-2.214,0.692
			c-0.271,0.055-0.703-0.126-0.891-0.345c-0.237-0.278-0.064-0.632,0.244-0.86c1.609-1.191,3.154-2.482,4.842-3.55
			c2.038-1.292,4.186-2.413,6.305-3.574c1.853-1.015,3.71-2.025,5.602-2.962c2.015-0.998,4.069-1.915,6.111-2.854
			c2.344-1.077,4.687-2.153,7.041-3.206c2.422-1.083,4.858-2.135,7.287-3.203c1.784-0.784,3.559-1.591,5.353-2.351
			c2.778-1.176,5.567-2.326,8.355-3.477c1.701-0.702,3.408-1.393,5.118-2.073c0.184-0.073,0.406-0.047,0.609-0.067
			c-0.425,0.259-0.746,0.664-1.311,0.714c-0.368,0.033-0.726,0.244-1.074,0.405c-0.172,0.079-0.298,0.269-0.473,0.332
			c-0.402,0.145-0.823,0.24-1.234,0.362c-0.424,0.125-0.771,0.366-1.135,0.618c-0.332,0.231-0.841,0.188-1.242,0.345
			c-0.658,0.256-1.281,0.606-1.941,0.857c-0.357,0.136-0.688,0.291-1.026,0.471c-0.693,0.368-1.462,0.593-2.192,0.892
			c-0.704,0.289-1.396,0.606-2.1,0.894c-0.468,0.191-1.025,0.258-1.045,0.835c-0.215-0.063-0.422-0.202-0.553-0.149
			c-0.74,0.29-1.465,0.619-2.188,0.95c-0.349,0.159-0.667,0.397-1.025,0.52c-0.751,0.256-1.614,0.284-2.052,1.116
			c-0.025,0.049-0.113,0.071-0.176,0.095c-0.198,0.078-0.398,0.15-0.631,0.237c-0.031-0.024-0.113-0.09-0.196-0.156
			c0.058,0.079,0.116,0.157,0.173,0.235c-0.24,0.137-0.48,0.275-0.751,0.429c-0.202-0.555-0.45-0.221-0.674-0.131
			c-0.233,0.175-0.469,0.347-0.655,0.484c-0.271,0.043-0.547,0.022-0.748,0.135c-0.284,0.16-0.514,0.418-0.764,0.637
			c-0.004,0.034-0.009,0.066-0.021,0.095c-0.006,0.012-0.043,0.024-0.044,0.022c-0.339-0.522-0.446-0.208-0.511,0.076
			c-0.138-0.038-0.305-0.141-0.384-0.095c-0.338,0.198-0.921,0.209-0.671,0.893c0.062-0.136,0.124-0.273,0.19-0.418
			c0.077,0.051,0.197,0.185,0.256,0.162c0.427-0.168,0.84-0.367,1.258-0.557c-0.028-0.062-0.057-0.123-0.085-0.185
			c0.266,0.001,0.561,0.078,0.789-0.012c0.527-0.207,1.023-0.495,1.555-0.761c-0.061-0.166-0.119-0.328-0.178-0.49
			c0.152,0.112,0.305,0.225,0.477,0.354c0.417-0.169,0.869-0.353,1.322-0.535c0.275-0.11,0.554-0.213,0.828-0.326
			c0.484-0.201,0.966-0.409,1.45-0.61c0.706-0.294,1.417-0.58,2.12-0.882c0.451-0.195,0.886-0.431,1.342-0.615
			c0.27-0.109,0.564-0.152,0.847-0.224c-0.653,0.326-1.302,0.664-1.961,0.974c-0.509,0.24-1.034,0.446-1.552,0.668
			c0.024,0.055,0.049,0.109,0.072,0.165c0.205-0.09,0.408-0.188,0.617-0.27c0.459-0.179,0.939-0.315,1.377-0.535
			c0.418-0.209,0.908-0.15,1.299-0.549c0.299-0.306,0.855-0.355,1.288-0.54c0.091-0.039,0.145-0.169,0.296-0.357
			c-0.592,0.187-1.021,0.321-1.452,0.457c0.04-0.189,0.08-0.379,0.122-0.577c0.694,0.268,1.18,0.036,1.103-0.47
			c0.247,0.055,0.493,0.11,0.738,0.166c-0.11,0.134-0.22,0.266-0.327,0.398c0.034,0.025,0.068,0.051,0.104,0.077
			c0.338-0.14,0.677-0.28,1.131-0.468c-0.38,0-0.65,0-0.922,0c0.355-0.256,0.71-0.511,0.986-0.71
			c0.227-0.019,0.429,0.026,0.527-0.056c0.289-0.237,0.495-0.332,0.791,0.018c0.094,0.11,0.428,0.042,0.645,0.006
			c0.057-0.009,0.084-0.201,0.174-0.436c-0.349,0.14-0.551,0.222-0.752,0.303c-0.029-0.051-0.059-0.102-0.087-0.152
			c0.283-0.151,0.566-0.302,0.856-0.456c0.307,0.575,0.627,0.587,1.158,0.052c-0.258-0.145-0.515-0.289-0.734-0.413
			c0.637-0.172,1.244-0.336,1.852-0.501c0.021,0.039,0.042,0.077,0.062,0.115c-0.14,0.108-0.279,0.216-0.42,0.324
			c0.131,0.091,0.267,0.117,0.354,0.064c0.803-0.481,1.771-0.533,2.577-1.037c0.353-0.221,0.807-0.247,0.67-0.843
			c0.176,0.13,0.367,0.341,0.43,0.308c0.434-0.227,1.032,0.043,1.373-0.49c0.092-0.144,0.373-0.171,0.57-0.242
			c0.336-0.121,0.675-0.237,1.014-0.351c0.497-0.168,1.1-0.213,1.47-0.53c0.533-0.458,1.187-0.509,1.769-0.713
			c1.021-0.359,2.03-0.735,3.034-1.142c0.61-0.248,1.287-0.325,1.917-0.531c0.68-0.221,1.338-0.504,2.006-0.759
			c0.459-0.175,0.913-0.367,1.381-0.518c0.599-0.193,1.213-0.339,1.814-0.529c1.408-0.446,2.806-0.93,4.222-1.352
			c0.738-0.22,1.507-0.341,2.277-0.51c-0.026-0.239-0.044-0.41-0.076-0.707c0.257,0.496,0.688,0.583,1.124,0.432
			c0.748-0.26,1.515-0.466,2.304-0.705c0-0.135,0-0.308,0-0.487c0.181,0.181,0.331,0.438,0.44,0.421
			c0.372-0.056,0.729-0.208,1.194-0.357c-0.01-0.001,0.144,0.053,0.277,0.021c0.716-0.168,1.427-0.359,2.139-0.541
			c-0.136-0.447-0.067-0.508,0.458-0.565c0.26-0.028,0.508-0.168,0.762-0.257c-0.012-0.068-0.021-0.137-0.033-0.206
			c-0.222-0.077-0.453-0.237-0.664-0.213c-0.408,0.045-0.802,0.205-1.206,0.297c-1.39,0.317-2.783,0.621-4.173,0.941
			c-0.543,0.125-1.078,0.281-1.555,0.407c0,0.238,0,0.419,0,0.599c-0.151-0.554-0.619-0.474-0.902-0.405
			c-0.862,0.21-1.682,0.557-2.57,0.721c-0.909,0.168-1.783,0.53-2.672,0.808c-0.765,0.238-1.528,0.477-2.258,0.704
			c-0.01-0.012-0.079-0.099-0.131-0.163c-0.207,0.163-0.301,0.276-0.42,0.321c-0.519,0.196-1.041,0.383-1.568,0.555
			c-0.817,0.266-1.64,0.517-2.46,0.774c-0.805,0.252-1.61,0.501-2.413,0.76c-0.385,0.124-0.779,0.252-0.723,0.71
			c-0.261,0-0.503-0.049-0.715,0.009c-0.762,0.21-1.513,0.456-2.268,0.689c-0.014,0.004-0.022,0.039-0.033,0.039
			C80.242,61.708,79.971,62.401,79.43,62.058z M110.324,53.577c-0.646,0.082-1.153,0.146-1.732,0.22
			c0.105,0.213,0.186,0.347,0.236,0.49c0.057,0.154,0.086,0.318,0.096,0.356c0.615-0.074,1.168-0.141,1.73-0.209
			c0.02-0.196,0.02-0.196-0.68-0.353C110.062,53.954,110.143,53.839,110.324,53.577z M61.299,71.062
			c-0.5-0.178-2.38,0.634-2.723,1.139C59.5,71.815,60.35,71.459,61.299,71.062z M111.664,54.329c0.023-0.04,0.046-0.081,0.068-0.121
			c-0.048-0.146-0.123-0.289-0.139-0.438c-0.027-0.263,0.007-0.625-0.371-0.542c-0.258,0.057-0.729,0.077-0.621,0.697
			C111.146,53.495,111.354,54.042,111.664,54.329z M108.517,54.289c0.003-0.355-0.203-0.563-0.527-0.511
			c-0.151,0.024-0.261,0.309-0.39,0.476c0.045,0.046,0.09,0.092,0.137,0.138C107.984,54.359,108.234,54.326,108.517,54.289z
			 M68.932,67.616c-0.025-0.045-0.051-0.091-0.076-0.137c-0.325,0.168-0.65,0.335-1.064,0.549
			C68.488,68.368,68.686,67.942,68.932,67.616z"/>
		<path fill-rule="evenodd" clip-rule="evenodd" fill="none" d="M59.028,58.206c-1.161,0.194-2.128-0.145-3.04-0.607
			c-1.191-0.605-2.329-1.318-3.52-1.925c-1.596-0.814-3.168-1.706-5.113-1.882c0-1.307,0.004-2.591,0-3.875
			c-0.005-1.496-0.029-2.992-0.021-4.487c0.015-2.263,0.269-4.494,1.152-6.599c0.339-0.807,0.806-1.559,1.222-2.332
			c0.037-0.068,0.135-0.103,0.291-0.217c0.264,0.428,0.541,0.821,0.76,1.245c0.529,1.028,1.071,2.053,1.533,3.112
			c0.447,1.026,0.805,2.091,1.195,3.141c0.506,1.352,1.021,2.7,1.502,4.062c0.543,1.54,0.999,3.112,1.588,4.634
			c0.647,1.67,1.402,3.298,2.111,4.945C58.791,57.658,58.895,57.896,59.028,58.206z"/>
		<path fill-rule="evenodd" clip-rule="evenodd" fill="none" d="M60.963,48.485c-0.062-0.666-0.17-1.221-0.159-1.774
			c0.036-1.761,0.03-3.529,0.2-5.279c0.23-2.399,0.597-4.785,1.254-7.115c0.447-1.592,0.939-3.167,1.801-4.594
			c0.611-1.011,1.26-2.001,2.193-2.749c0.338-0.27,0.729-0.507,1.135-0.651c0.709-0.252,1.408,0.151,1.896,0.885
			c0.86,1.294,1.042,2.747,1.08,4.239c0.033,1.315-0.285,2.577-0.549,3.857c-0.344,1.668-1.101,3.165-1.735,4.71
			c-0.311,0.758-0.822,1.434-1.24,2.148c-0.379,0.646-0.717,1.318-1.139,1.933c-0.361,0.525-0.805,0.998-1.236,1.472
			c-0.912,1.003-1.796,2.043-3.039,2.672C61.318,48.292,61.215,48.351,60.963,48.485z"/>
		<path fill-rule="evenodd" clip-rule="evenodd" fill="none" d="M99.249,42.917c3.081-0.388,6.099-1.16,9.282-1.389
			C107.951,42.28,100.138,43.421,99.249,42.917z"/>
		<path fill-rule="evenodd" clip-rule="evenodd" fill="none" d="M102.501,18.149c0.22-0.059,0.438-0.118,0.651-0.175
			c0.164,0.486,0.159,0.496-0.242,0.599c-0.146-0.16-0.272-0.3-0.4-0.438C102.508,18.137,102.501,18.149,102.501,18.149z"/>
		<path fill-rule="evenodd" clip-rule="evenodd" fill="none" d="M79.43,62.058c0.541,0.344,0.812-0.349,1.27-0.33
			c0.011,0,0.02-0.035,0.033-0.039C81.487,61.456,82.238,61.21,83,61c0.212-0.058,0.454-0.009,0.715-0.009
			c-0.057-0.458,0.338-0.586,0.723-0.71c0.803-0.258,1.608-0.507,2.413-0.76c0.82-0.258,1.643-0.509,2.46-0.774
			c0.527-0.172,1.05-0.358,1.568-0.555c0.119-0.045,0.213-0.159,0.42-0.321c0.052,0.064,0.121,0.151,0.131,0.163
			c0.729-0.228,1.493-0.466,2.258-0.704c0.889-0.277,1.763-0.639,2.672-0.808c0.889-0.165,1.708-0.511,2.57-0.721
			c0.283-0.069,0.751-0.149,0.902,0.405c0-0.18,0-0.361,0-0.599c0.477-0.125,1.012-0.282,1.555-0.407
			c1.39-0.32,2.783-0.624,4.173-0.941c0.404-0.092,0.798-0.252,1.206-0.297c0.211-0.023,0.442,0.136,0.664,0.213
			c0.012,0.068,0.021,0.137,0.033,0.206c-0.254,0.089-0.502,0.229-0.762,0.257c-0.525,0.057-0.594,0.118-0.458,0.565
			c-0.712,0.182-1.423,0.373-2.139,0.541c-0.134,0.032-0.287-0.022-0.277-0.021c-0.466,0.148-0.822,0.301-1.194,0.357
			c-0.109,0.017-0.26-0.241-0.44-0.421c0,0.179,0,0.352,0,0.487c-0.789,0.238-1.556,0.445-2.304,0.705
			c-0.437,0.152-0.867,0.064-1.124-0.432c0.032,0.297,0.05,0.468,0.076,0.707c-0.771,0.169-1.539,0.29-2.277,0.51
			c-1.416,0.422-2.813,0.906-4.222,1.352c-0.602,0.19-1.216,0.335-1.814,0.529c-0.468,0.15-0.922,0.342-1.381,0.518
			c-0.668,0.255-1.326,0.538-2.006,0.759c-0.63,0.206-1.307,0.283-1.917,0.531c-1.004,0.407-2.014,0.782-3.034,1.142
			c-0.582,0.204-1.235,0.255-1.769,0.713c-0.37,0.317-0.973,0.361-1.47,0.53c-0.339,0.114-0.678,0.23-1.014,0.351
			c-0.197,0.071-0.479,0.099-0.57,0.242c-0.341,0.533-0.939,0.263-1.373,0.49c-0.062,0.033-0.254-0.178-0.43-0.308
			c0.137,0.596-0.317,0.623-0.67,0.843c-0.806,0.504-1.774,0.556-2.577,1.037c-0.088,0.053-0.224,0.027-0.354-0.064
			c0.141-0.107,0.28-0.216,0.42-0.324c-0.021-0.038-0.042-0.076-0.062-0.115c-0.607,0.165-1.215,0.329-1.852,0.501
			c0.22,0.124,0.477,0.269,0.734,0.413c-0.531,0.535-0.852,0.523-1.158-0.052c-0.29,0.154-0.573,0.305-0.856,0.456
			c0.028,0.051,0.058,0.102,0.087,0.152c0.201-0.081,0.403-0.163,0.752-0.303c-0.09,0.235-0.117,0.427-0.174,0.436
			c-0.217,0.036-0.551,0.104-0.645-0.006c-0.296-0.35-0.502-0.255-0.791-0.018c-0.099,0.082-0.301,0.037-0.527,0.056
			c-0.276,0.199-0.631,0.454-0.986,0.71l0.017-0.008c-0.247-0.055-0.493-0.109-0.74-0.165c0.077,0.506-0.408,0.738-1.103,0.47
			c-0.042,0.198-0.082,0.388-0.122,0.577l0.017-0.013c-0.283,0.072-0.578,0.115-0.848,0.224c-0.456,0.184-0.891,0.42-1.342,0.615
			c-0.703,0.303-1.414,0.588-2.12,0.882c-0.484,0.202-0.966,0.41-1.45,0.61c-0.274,0.113-0.553,0.216-0.828,0.326
			c-0.453,0.182-0.905,0.366-1.322,0.535c-0.172-0.128-0.324-0.241-0.475-0.353c0,0.001,0.01,0.01,0.01,0.01
			c0.225-0.088,0.473-0.422,0.675,0.132c0.271-0.154,0.511-0.292,0.751-0.429c-0.057-0.079-0.115-0.157-0.173-0.235
			c0.083,0.065,0.165,0.131,0.196,0.156c0.232-0.087,0.433-0.16,0.631-0.237c0.062-0.024,0.15-0.046,0.176-0.095
			c0.438-0.832,1.301-0.859,2.052-1.116c0.358-0.123,0.677-0.361,1.025-0.52c0.724-0.331,1.448-0.66,2.188-0.95
			c0.131-0.052,0.338,0.086,0.553,0.149c0.02-0.577,0.577-0.644,1.045-0.835c0.703-0.288,1.396-0.605,2.1-0.894
			c0.73-0.299,1.499-0.524,2.192-0.892c0.339-0.18,0.669-0.335,1.026-0.471c0.66-0.251,1.283-0.601,1.941-0.857
			c0.401-0.156,0.91-0.113,1.242-0.345c0.364-0.252,0.711-0.493,1.135-0.618c0.411-0.122,0.832-0.217,1.234-0.362
			c0.175-0.063,0.301-0.253,0.473-0.332c0.349-0.161,0.706-0.372,1.074-0.405c0.564-0.051,0.886-0.455,1.311-0.714
			C79.446,62.05,79.43,62.058,79.43,62.058z"/>
		<path fill-rule="evenodd" clip-rule="evenodd" fill="none" d="M64.956,69.083c0.431-0.136,0.86-0.271,1.452-0.457
			c-0.151,0.188-0.205,0.318-0.296,0.357c-0.433,0.184-0.989,0.233-1.288,0.54c-0.391,0.399-0.881,0.34-1.299,0.549
			c-0.438,0.22-0.918,0.356-1.377,0.535c-0.209,0.082-0.412,0.18-0.617,0.27c-0.023-0.055-0.048-0.11-0.072-0.165
			c0.518-0.222,1.043-0.428,1.552-0.668c0.659-0.311,1.308-0.648,1.961-0.974C64.973,69.07,64.956,69.083,64.956,69.083z"/>
		<path fill-rule="evenodd" clip-rule="evenodd" fill="none" d="M110.324,53.577c-0.182,0.262-0.262,0.377-0.35,0.504
			c0.699,0.157,0.699,0.157,0.68,0.353c-0.562,0.068-1.115,0.135-1.73,0.209c-0.01-0.038-0.039-0.202-0.096-0.356
			c-0.051-0.143-0.131-0.276-0.236-0.49C109.171,53.724,109.678,53.659,110.324,53.577z"/>
		<path fill-rule="evenodd" clip-rule="evenodd" fill="none" d="M54.429,73.176c0.253-0.216,0.482-0.475,0.767-0.635
			c0.201-0.112,0.477-0.092,0.748-0.135c0.187-0.137,0.422-0.31,0.655-0.484c-0.001-0.001-0.011-0.01-0.011-0.012
			c0.057,0.161,0.115,0.323,0.176,0.489c-0.531,0.266-1.027,0.554-1.555,0.761c-0.229,0.09-0.523,0.013-0.789,0.012L54.429,73.176z"
			/>
		<path fill-rule="evenodd" clip-rule="evenodd" fill="none" d="M54.42,73.172c0.028,0.062,0.057,0.123,0.085,0.185
			c-0.418,0.189-0.831,0.389-1.258,0.557c-0.059,0.023-0.179-0.11-0.256-0.162c-0.066,0.146-0.129,0.282-0.19,0.418
			c-0.25-0.683,0.333-0.694,0.671-0.893c0.079-0.046,0.246,0.057,0.384,0.095c0.064-0.284,0.172-0.599,0.511-0.076
			c0.001,0.002,0.038-0.01,0.044-0.022c0.013-0.029,0.018-0.062,0.021-0.095C54.429,73.176,54.42,73.172,54.42,73.172z"/>
		<path fill-rule="evenodd" clip-rule="evenodd" fill="none" d="M61.299,71.062c-0.949,0.397-1.799,0.752-2.723,1.139
			C58.919,71.696,60.799,70.884,61.299,71.062z"/>
		<path fill-rule="evenodd" clip-rule="evenodd" fill="none" d="M111.664,54.329c-0.31-0.287-0.519-0.834-1.062-0.404
			c-0.107-0.62,0.363-0.64,0.621-0.697c0.378-0.083,0.344,0.279,0.371,0.542c0.016,0.149,0.091,0.292,0.139,0.438
			C111.71,54.249,111.688,54.289,111.664,54.329z"/>
		<path fill-rule="evenodd" clip-rule="evenodd" fill="none" d="M108.517,54.289c-0.282,0.037-0.532,0.07-0.78,0.103
			c-0.047-0.046-0.092-0.092-0.137-0.138c0.129-0.167,0.238-0.451,0.39-0.476C108.313,53.726,108.52,53.934,108.517,54.289z"/>
		<path fill-rule="evenodd" clip-rule="evenodd" fill="none" d="M68.932,67.616c-0.246,0.326-0.443,0.751-1.141,0.412
			c0.414-0.213,0.739-0.381,1.064-0.549C68.881,67.525,68.906,67.571,68.932,67.616z"/>
		<path fill-rule="evenodd" clip-rule="evenodd" fill="none" d="M66.904,68.208c0.271,0,0.542,0,0.922,0
			c-0.454,0.188-0.793,0.328-1.131,0.468c-0.035-0.025-0.069-0.051-0.104-0.077c0.107-0.132,0.217-0.265,0.327-0.398
			C66.921,68.2,66.904,68.208,66.904,68.208z"/>
	</g>
</g>
<g id="Layer_3">
</g>
</svg>
