<svg xmlns="http://www.w3.org/2000/svg" width="124" height="94" viewBox="0 0 124 94"><g><path fill="none" d="M3.82 92.583V4.593h118.055v87.99H3.82zM79.446 62.05c-.204.02-.427-.005-.61.067-1.71.68-3.417 1.37-5.118 2.073-2.788 1.15-5.577 2.3-8.355 3.477-1.794.76-3.568 1.567-5.353 2.35-2.43 1.068-4.865 2.12-7.287 3.204-2.354 1.053-4.697 2.13-7.04 3.207-2.043.94-4.098 1.856-6.112 2.854-1.89.938-3.748 1.948-5.6 2.963-2.12 1.16-4.268 2.282-6.306 3.574-1.688 1.068-3.232 2.36-4.842 3.55-.31.23-.48.582-.244.86.188.22.62.4.89.345.757-.154 1.52-.366 2.215-.692 1.07-.503 2.093-1.113 3.126-1.693.364-.204.69-.477 1.058-.674 1.11-.598 2.233-1.174 3.35-1.76.367-.194.735-.39 1.096-.596.682-.39 1.363-.78 2.032-1.19.333-.205.712-.307.843-.825.08-.326.345-.695.81-.905 1.592-.718 3.136-1.544 4.69-2.346.217-.112.362-.378.583-.468.445-.18.938-.242 1.378-.43 1.453-.618 2.89-1.27 4.332-1.908 1.322-.584 2.64-1.174 3.967-1.75 1.134-.493 2.286-.95 3.415-1.457 1.532-.69 3.04-1.432 4.576-2.112 1.337-.592 2.7-1.12 4.046-1.693.414-.176.803-.413 1.21-.604.284-.133.58-.235.872-.35.267-.118.588-.118.868-.228.86-.34 1.71-.712 2.553-1.097.21-.096.377-.288.602-.465.166-.032.433-.04.665-.134 1.264-.518 2.51-1.08 3.778-1.582 1.384-.548 2.788-1.05 4.183-1.57.607-.226 1.222-.434 1.824-.672.992-.393 1.963-.847 2.97-1.198 1.882-.657 3.786-1.25 5.676-1.888.803-.27 1.577-.628 2.388-.87 1.283-.384 2.586-.696 3.877-1.05 1.076-.297 2.14-.634 3.22-.914 1.355-.353 2.718-.68 4.083-.992 1.423-.326 2.846-.663 4.28-.926 2.315-.424 4.634-.844 6.966-1.156 1.087-.146 2.21-.042 3.316-.035.353.003.695.07.953-.282.353-.483.36-1.003.1-1.484-.22-.408-.513-.82-1.1-.763-.804.08-1.613.12-2.413.232-1.705.24-3.41.49-5.107.784-1.415.247-2.82.55-4.225.855-2.25.49-4.51.95-6.742 1.514-1.97.497-3.912 1.102-5.86 1.685-1.633.49-3.26 1.007-4.882 1.53-1.2.39-2.395.79-3.585 1.213-1.598.568-3.19 1.15-4.773 1.757-.44.168-.834.45-1.25.68l.014-.01zm23.062-43.913c-.31-.277-.238.046-.267.177-.033.165.01.45-.07.485-.682.306-.357.852-.445 1.33.514-.105.938-.19 1.36-.273-.12-.35-.19-.553-.258-.756l.13-.05.217.3c.59-.645.516-1.664 1.174-2.06.236-.498.406-.86.578-1.218.084-.174.187-.34.256-.518.273-.694.51-1.403.808-2.085.69-1.575 1.422-3.13 2.11-4.706.244-.56.453-1.14.602-1.73.15-.602-.462-1.34-1.045-1.262-.604.08-1.22.227-1.422.952-.02.076-.09.14-.146.203-1.345 1.498-2.695 2.99-4.034 4.494-.76.852-1.49 1.726-2.25 2.575-.69.77-1.423 1.505-2.1 2.287-.74.853-1.35 1.808-2.123 2.638-.496.533-.902 1.148-1.36 1.718-.78.97-1.583 1.924-2.35 2.907-.768.986-1.532 1.977-2.24 3.005-.65.944-1.237 1.933-1.823 2.92-.532.895-1.035 1.808-1.527 2.727-.125.234-.135.527-.24.775-.2.478-.44.94-.645 1.415-.14.325-.25.664-.394 1.055-.094-.142-.168-.207-.185-.285-.295-1.413-.64-2.817-.855-4.242-.248-1.636-.39-3.29-.56-4.936-.073-.717-.765-1.24-1.466-1.07-.74.18-.957.562-.77 1.312.06.24.105.484.136.73.164 1.31.244 2.64.498 3.933.475 2.416 1.037 4.813 1.584 7.214.303 1.332.645 2.658.973 3.986.085.337.116.715.297.995.41.636 1.304.79 2.034.483.288-.12.646-.215.94-.158 1.338.265 2.654.662 4 .872 1.874.292 3.763.505 5.65.662.942.077 1.903-.003 2.85-.09 1.665-.155 3.327-.355 4.987-.565.555-.07 1.105-.205 1.647-.35 1.816-.49 3.64-.954 5.435-1.514.844-.262.952-1.213.187-1.634-.655-.36-1.416-.64-2.155-.717-1.516-.16-3.013.162-4.506.424-1.938.34-3.88.683-5.827.956-1.706.238-3.43.346-5.136.575-1.894.254-3.734.03-5.513-.583-1.858-.643-2.41-1.597-2.4-3.514.003-.83.217-1.685.47-2.486.686-2.156 1.715-4.163 2.96-6.04 1.25-1.882 2.597-3.7 3.92-5.53.535-.74 1.107-1.452 1.694-2.148.688-.813 1.426-1.584 2.112-2.398.445-.53.804-1.132 1.26-1.65.718-.81 1.497-1.564 2.23-2.362.645-.7 1.26-1.43 1.892-2.142.285-.32.584-.63.875-.946.08.285.084.533 0 .747-.332.865-.71 1.713-1.033 2.582-.184.498-.29 1.024-.403 1.432-.128.235-.245.377-.282.537-.047.202-.03.418-.042.63l.005-.017zm-75.87 10.208c-.117.588-.225.994-.272 1.406-.04.355.034.726-.03 1.073-.144.803-.455 1.592-.48 2.395-.02.588-.07 1.156-.155 1.736-.142.985-.203 1.98-.32 2.97-.132 1.083-.324 2.16-.42 3.246-.095 1.042.033 2.104-.29 3.125-.006.016-.006.036-.002.053.2 1.023-.277 1.985-.27 2.992.002.368.01.743-.05 1.103-.12.683-.33 1.352-.423 2.038-.255 1.9-.44 3.81-.713 5.707-.12.833-.365 1.65-.582 2.464-.126.472-.502.596-.912.423-.332-.14-.656-.348-.917-.596-1.3-1.24-1.903-2.906-2.607-4.49-.794-1.786-1.436-3.64-2.187-5.446-.544-1.31-1.124-2.607-1.747-3.883-.71-1.452-1.433-2.9-2.245-4.296-.73-1.253-1.54-2.47-2.41-3.632-.658-.878-2.347-.572-2.665.457-.356 1.15-.65 2.327-.902 3.506-.407 1.9-.362 3.84-.302 5.762.104 3.252.31 6.5.514 9.75.117 1.864.318 3.724.47 5.587.015.18.015.464-.092.538-.608.422-.456 1.03-.413 1.587.05.665.153 1.328.277 1.983.378 2.002.79 3.998 1.158 6 .094.51.362.883.802 1.008.35.1.8.05 1.147-.082.37-.14.476-.53.394-.94-.148-.745-.333-1.484-.423-2.235-.31-2.61-.627-5.22-.87-7.835-.3-3.195-.563-6.396-.774-9.598-.16-2.397-.22-4.8-.313-7.202-.077-2.026.292-4 .737-5.964.043-.187.16-.358.268-.588.277.338.54.582.71.878.76 1.315 1.536 2.623 2.22 3.977.828 1.644 1.605 3.316 2.34 5.004.664 1.534 1.215 3.116 1.865 4.655.695 1.646 1.402 3.29 2.19 4.895.532 1.078 1.27 2.037 2.406 2.572 1.903.896 3.978.25 4.456-2.022.268-1.272.453-2.565.612-3.856.324-2.626.615-5.256.902-7.887.214-1.96.412-3.923.598-5.886.116-1.236.166-2.48.3-3.715.16-1.467.386-2.926.564-4.39.204-1.676.297-3.37.604-5.026.46-2.463 1.02-4.908 1.624-7.34.362-1.463.84-2.902 1.347-4.324.697-1.955 1.466-3.884 2.22-5.818.092-.234.284-.43.43-.642.355 1.532.68 3 .803 4.487.296 3.556.536 7.117.723 10.68.118 2.27.117 4.548.136 6.823.015 1.873.04 3.75-.05 5.62-.066 1.38.223 2.754.018 4.137-.068.46.018.943.03 1.415.027 1.018.048 2.036.08 3.054.026.845.076 1.69.1 2.535.053 1.722.063 3.446.152 5.165.054 1.047.23 2.087.343 3.13.088.822.12 1.65.246 2.464.18 1.163.476 2.31.623 3.476.087.684.446 1.022 1.034 1.153.268.06.576-.093.867-.1.334-.007.627-.095.65-.45.02-.334.137-.762-.423-.877-.123-.026-.244-.292-.283-.465-.11-.5-.195-1.005-.257-1.512-.255-2.08-.544-4.158-.73-6.246-.172-1.95-.264-3.912-.33-5.87-.056-1.703-.022-3.41-.038-5.114-.013-1.393-.06-2.786-.057-4.18.003-2.49.057-4.98.04-7.47-.017-2.456-.08-4.912-.145-7.368-.083-3.172-.16-6.347-.665-9.49-.41-2.557-.836-5.112-1.264-7.667-.075-.452-.335-.8-.795-.885-.556-.103-1.108.065-1.42.517-.418.602-.73 1.28-1.044 1.948-.218.47-.335.985-.544 1.46-.223.504-.505.98-.748 1.477-.424.864-.322 1.922-.992 2.7-.054.06-.055.165-.084.25-.172.49-.36.977-.51 1.475-.18.598-.344 1.202-.473 1.812-.052.24.034.45-.226.686-.3.272-.387.73-.13 1.096-.1.118-.23.208-.265.326-.17.58-.368 1.163-.45 1.758-.07.526-.422.963-.308 1.584.053.286-.225.742-.114 1.17.023.09-.104.228-.177.333-.443.638-.455.863-.05 1.253-.544.557-.85 2.092-.64 2.52zM59.89 54.89c-.106-.194-.19-.32-.25-.455-.28-.642-.583-1.276-.824-1.933-.774-2.106-1.494-4.232-2.293-6.33-.967-2.54-1.942-5.078-3.014-7.575-.528-1.23-1.242-2.39-1.943-3.536-.398-.65-1.112-1.043-1.67-.884-1.266.362-2.122 1.186-2.596 2.39-.445 1.136-.908 2.273-1.23 3.447-.282 1.042-.45 2.128-.545 3.206-.113 1.306-.063 2.625-.143 3.936-.063 1.046-.324 2.09-.3 3.13.047 2.1.194 4.197.368 6.29.088 1.066.333 2.12.49 3.182.106.717.732 1.183 1.46 1.057.795-.14 1-.473.828-1.347l-.06-.31-.44-2.6c.874 0 1.706-.19 2.394.045 1.05.356 2.035.95 2.986 1.54 2.068 1.287 4.232 2.118 6.747 1.754.247.43.425.987 1.083.974.35-.006.71-.02 1.04-.11.32-.087.363-.825.158-1.23-.095-.188-.168-.52-.07-.645.382-.493.446-1.01.323-1.59-.13-.62-.247-1.245-.355-1.87-.23-1.316-.46-2.632-.67-3.952-.094-.595-.135-1.197-.19-1.708.697 0 1.347.153 1.886-.026 2.35-.785 4.665-1.665 6.994-2.51 2.582-.936 5.205-1.7 7.938-2.07 2.344-.318 4.422.25 6.346 1.6.857.6 1.705 1.295 2.87 1.247.334-.014 1.032-.458.955-.755-.12-.47-.316-.94-.58-1.343-.12-.182-.496-.304-.734-.276-.775.087-1.254-.422-1.838-.76-.848-.49-1.703-1.007-2.62-1.317-1.642-.553-3.37-.48-5.038-.174-2.027.373-4.026.917-6.02 1.45-1 .267-1.965.667-2.94 1.02-.818.295-1.63.61-2.443.916.055-.288.184-.484.327-.67.6-.77 1.257-1.5 1.792-2.313.636-.962 1.145-2.007 1.75-2.99.828-1.345 1.395-2.8 1.782-4.312.34-1.323.57-2.68.757-4.035.31-2.233-.07-4.356-1.322-6.262-1.04-1.583-2.742-2.242-4.498-1.71-.99.3-1.83.935-2.488 1.725-.707.852-1.377 1.752-1.94 2.703-.978 1.644-1.526 3.46-1.897 5.33-.185.928-.385 1.855-.507 2.792-.192 1.465-.38 2.936-.463 4.41-.064 1.132.04 2.273.06 3.41.017.896-.025 1.794.036 2.686.09 1.32.27 2.635.373 3.955.083 1.095.116 2.197.18 3.4z"/><path fill-rule="evenodd" clip-rule="evenodd" d="M26.64 28.345c-.21-.427.097-1.962.642-2.525-.406-.39-.395-.616.05-1.253.073-.105.2-.243.177-.334-.11-.427.166-.883.113-1.17-.114-.62.236-1.057.31-1.583.08-.595.277-1.177.447-1.758.034-.118.166-.208.266-.326-.258-.365-.17-.823.13-1.096.26-.235.173-.446.224-.687.13-.61.294-1.214.473-1.812.148-.497.338-.983.51-1.475.03-.083.03-.188.084-.25.67-.776.568-1.835.992-2.7.242-.494.524-.97.747-1.476.21-.476.326-.99.545-1.46.312-.668.626-1.347 1.043-1.95.312-.45.865-.618 1.42-.516.46.085.72.434.797.885.428 2.554.854 5.11 1.264 7.667.504 3.143.582 6.317.665 9.49.065 2.455.13 4.912.146 7.368.017 2.49-.037 4.98-.04 7.47-.002 1.393.044 2.786.057 4.18.016 1.704-.018 3.41.04 5.113.064 1.958.156 3.918.33 5.87.185 2.087.474 4.166.728 6.247.063.507.148 1.013.258 1.512.04.174.16.44.284.465.56.115.444.543.423.877-.023.354-.316.442-.65.45-.29.006-.6.158-.867.1-.588-.13-.947-.47-1.034-1.154-.147-1.166-.442-2.313-.624-3.476-.126-.814-.158-1.643-.246-2.463-.11-1.044-.29-2.084-.343-3.13-.09-1.72-.1-3.444-.15-5.166-.024-.844-.074-1.69-.1-2.534-.033-1.018-.054-2.036-.08-3.054-.014-.472-.1-.955-.03-1.415.204-1.383-.085-2.755-.02-4.138.09-1.87.065-3.747.05-5.62-.02-2.275-.018-4.552-.136-6.823-.187-3.562-.427-7.124-.723-10.68-.123-1.486-.447-2.955-.8-4.487-.147.213-.34.408-.43.642-.756 1.934-1.524 3.863-2.222 5.818-.507 1.422-.984 2.86-1.347 4.325-.602 2.432-1.164 4.876-1.623 7.338-.308 1.655-.4 3.35-.604 5.025-.18 1.465-.405 2.924-.563 4.39-.135 1.236-.185 2.48-.3 3.717-.187 1.963-.385 3.926-.6 5.886-.286 2.632-.577 5.262-.9 7.888-.16 1.292-.346 2.584-.613 3.856-.478 2.272-2.553 2.92-4.457 2.022-1.136-.535-1.874-1.494-2.405-2.572-.79-1.604-1.496-3.248-2.19-4.895-.65-1.54-1.202-3.123-1.867-4.655-.733-1.688-1.51-3.36-2.34-5.004-.683-1.353-1.46-2.66-2.218-3.976-.17-.296-.434-.54-.71-.878-.107.23-.226.4-.27.59-.444 1.962-.813 3.937-.736 5.963.093 2.4.153 4.804.313 7.2.212 3.204.475 6.404.773 9.6.244 2.615.56 5.224.872 7.833.09.75.274 1.49.423 2.234.082.41-.024.8-.395.94-.348.133-.797.183-1.147.083-.44-.125-.708-.5-.802-1.007-.367-2.003-.78-4-1.157-6-.124-.656-.227-1.32-.277-1.984-.043-.56-.195-1.166.413-1.588.105-.074.105-.357.092-.54-.152-1.862-.354-3.722-.47-5.587-.204-3.248-.41-6.497-.515-9.75-.063-1.915-.108-3.855.3-5.755.252-1.18.545-2.354.9-3.506.32-1.03 2.008-1.335 2.666-.457.87 1.162 1.68 2.38 2.41 3.633.812 1.395 1.535 2.845 2.244 4.296.623 1.275 1.203 2.573 1.747 3.884.75 1.807 1.393 3.66 2.187 5.447.705 1.583 1.31 3.25 2.61 4.49.26.247.584.455.916.595.41.172.786.05.912-.422.217-.815.463-1.632.582-2.464.27-1.897.458-3.806.713-5.706.093-.686.304-1.354.422-2.038.06-.36.053-.735.05-1.103-.007-1.007.47-1.97.27-2.993-.003-.017-.003-.037.003-.053.323-1.02.195-2.083.29-3.125.096-1.086.288-2.164.42-3.247.117-.988.18-1.985.32-2.97.086-.58.138-1.147.157-1.736.024-.802.336-1.592.48-2.395.063-.347-.012-.718.03-1.072.048-.41.156-.816.274-1.405zM59.89 54.89c-.063-1.203-.097-2.304-.183-3.4-.104-1.32-.283-2.635-.373-3.956-.062-.892-.02-1.79-.035-2.685-.02-1.138-.126-2.28-.062-3.412.083-1.474.27-2.944.463-4.41.123-.937.323-1.864.508-2.792.37-1.87.92-3.687 1.896-5.33.564-.95 1.234-1.852 1.94-2.703.66-.79 1.5-1.425 2.49-1.725 1.755-.532 3.458.127 4.497 1.71 1.253 1.905 1.634 4.028 1.323 6.262-.188 1.354-.418 2.712-.757 4.035-.388 1.51-.954 2.967-1.782 4.31-.605.984-1.114 2.03-1.75 2.992-.535.812-1.192 1.544-1.792 2.314-.144.186-.272.382-.327.67.814-.307 1.625-.622 2.443-.918.976-.353 1.94-.752 2.94-1.02 1.994-.532 3.993-1.076 6.02-1.45 1.667-.306 3.396-.378 5.037.175.918.31 1.773.83 2.62 1.317.585.337 1.063.847 1.84.76.237-.027.613.095.732.275.265.402.46.873.582 1.342.076.298-.622.742-.955.755-1.166.048-2.014-.646-2.87-1.248-1.925-1.35-4.003-1.918-6.347-1.6-2.732.37-5.355 1.134-7.938 2.07-2.33.846-4.646 1.726-6.994 2.51-.54.178-1.188.025-1.886.025.056.51.097 1.113.19 1.708.21 1.32.44 2.636.67 3.952.108.625.225 1.25.355 1.87.123.58.06 1.097-.323 1.59-.098.126-.024.458.07.644.205.405.163 1.143-.157 1.23-.332.09-.69.104-1.04.11-.66.014-.837-.543-1.084-.973-2.514.364-4.678-.467-6.746-1.753-.95-.59-1.936-1.185-2.986-1.54-.688-.235-1.52-.045-2.395-.045l.442 2.6c.018.103.038.205.06.308.172.874-.034 1.208-.83 1.347-.727.126-1.353-.34-1.46-1.057-.156-1.062-.4-2.116-.49-3.183-.173-2.092-.32-4.19-.368-6.288-.023-1.04.237-2.085.3-3.13.08-1.312.03-2.63.143-3.938.094-1.08.263-2.165.546-3.207.32-1.173.783-2.31 1.23-3.447.473-1.205 1.33-2.028 2.594-2.39.56-.16 1.272.234 1.67.885.702 1.148 1.416 2.306 1.944 3.537 1.07 2.497 2.047 5.036 3.015 7.576.798 2.097 1.518 4.223 2.292 6.33.24.655.544 1.29.823 1.932.06.136.146.26.254.454zm-.862 3.316l-.34-.786c-.708-1.646-1.463-3.274-2.11-4.945-.59-1.522-1.045-3.094-1.588-4.634-.48-1.36-.996-2.708-1.502-4.06-.39-1.05-.748-2.116-1.195-3.142-.462-1.06-1.004-2.083-1.533-3.112-.22-.424-.496-.817-.76-1.245-.156.115-.254.15-.29.218-.417.773-.884 1.525-1.223 2.332-.884 2.105-1.138 4.336-1.152 6.6-.01 1.495.016 2.99.02 4.486.005 1.284 0 2.568 0 3.875 1.946.177 3.52 1.07 5.114 1.883 1.19.607 2.327 1.32 3.52 1.925.91.464 1.877.802 3.038.608zm1.935-9.72c.252-.135.355-.193.46-.247 1.244-.63 2.128-1.67 3.04-2.673.432-.474.875-.947 1.236-1.472.42-.614.76-1.287 1.138-1.933.418-.714.93-1.39 1.24-2.148.635-1.546 1.392-3.042 1.735-4.71.264-1.28.582-2.542.55-3.857-.04-1.492-.22-2.944-1.08-4.24-.488-.732-1.188-1.136-1.897-.884-.405.144-.797.38-1.135.65-.933.75-1.58 1.738-2.192 2.75-.86 1.427-1.354 3-1.8 4.594-.658 2.33-1.024 4.716-1.255 7.115-.17 1.75-.164 3.518-.2 5.28-.01.552.097 1.107.16 1.773zM102.5 18.15c.012-.212-.004-.43.043-.63.037-.16.154-.3.282-.537.112-.408.22-.934.403-1.432.322-.868.7-1.716 1.034-2.58.083-.215.078-.463 0-.748-.292.315-.59.625-.876.946-.633.712-1.247 1.44-1.892 2.142-.733.797-1.513 1.553-2.23 2.363-.456.517-.814 1.12-1.26 1.65-.687.813-1.425 1.584-2.112 2.397-.587.696-1.16 1.41-1.693 2.147-1.325 1.83-2.672 3.65-3.92 5.53-1.247 1.878-2.276 3.885-2.96 6.04-.255.802-.47 1.656-.473 2.487-.01 1.917.543 2.87 2.402 3.514 1.777.614 3.618.837 5.512.583 1.706-.228 3.43-.336 5.135-.574 1.948-.272 3.89-.614 5.827-.956 1.493-.263 2.99-.584 4.506-.425.74.077 1.5.355 2.155.717.765.42.656 1.372-.188 1.635-1.795.56-3.618 1.025-5.435 1.513-.542.146-1.093.28-1.647.35-1.66.21-3.322.412-4.988.565-.945.087-1.906.167-2.848.09-1.89-.156-3.778-.37-5.65-.662-1.348-.21-2.664-.607-4.003-.872-.293-.057-.65.038-.938.16-.73.307-1.626.152-2.035-.483-.18-.28-.212-.658-.296-.995-.33-1.328-.67-2.653-.974-3.987-.547-2.4-1.11-4.8-1.584-7.214-.254-1.293-.334-2.62-.498-3.933-.03-.245-.075-.49-.135-.73-.19-.75.028-1.13.767-1.31.7-.17 1.393.352 1.466 1.068.17 1.647.312 3.3.56 4.936.216 1.426.56 2.83.854 4.243.017.078.09.143.185.285.145-.392.254-.73.394-1.055.205-.476.445-.937.646-1.415.104-.248.114-.54.24-.775.49-.918.994-1.832 1.526-2.728.586-.986 1.174-1.975 1.822-2.92.71-1.028 1.474-2.02 2.242-3.004.766-.982 1.57-1.935 2.35-2.906.457-.57.863-1.185 1.36-1.718.77-.83 1.382-1.785 2.122-2.638.677-.782 1.408-1.516 2.1-2.287.76-.848 1.49-1.722 2.25-2.573 1.34-1.503 2.69-2.996 4.033-4.494.057-.062.125-.127.146-.203.203-.725.818-.87 1.422-.952.583-.08 1.195.66 1.045 1.26-.148.592-.357 1.174-.602 1.732-.688 1.575-1.42 3.13-2.11 4.705-.3.682-.534 1.39-.808 2.085-.07.18-.172.344-.256.518l-.578 1.217c-.658.397-.584 1.416-1.174 2.06l-.217-.3-.13.052.257.756-1.36.272c.09-.477-.235-1.023.446-1.33.08-.036.037-.32.07-.485.03-.13-.042-.454.27-.18l.4.44c.4-.104.406-.114.242-.6-.21.062-.43.12-.65.18zm-3.25 24.767c.888.503 8.7-.637 9.28-1.39-3.182.23-6.2 1.003-9.28 1.39zM79.43 62.058c.416-.23.81-.51 1.25-.68 1.582-.607 3.176-1.188 4.773-1.756 1.19-.423 2.386-.825 3.586-1.212 1.622-.524 3.248-1.042 4.882-1.532 1.947-.583 3.89-1.188 5.86-1.685 2.23-.562 4.49-1.024 6.74-1.513 1.405-.305 2.81-.608 4.226-.855 1.696-.295 3.402-.544 5.107-.784.8-.11 1.61-.15 2.414-.23.585-.058.88.354 1.1.763.26.48.25 1-.1 1.484-.26.353-.602.286-.954.283-1.107-.006-2.23-.11-3.316.035-2.332.312-4.65.732-6.966 1.156-1.435.264-2.857.6-4.28.927-1.365.313-2.728.64-4.083.992-1.078.28-2.143.616-3.22.912-1.29.355-2.593.667-3.876 1.05-.81.242-1.585.6-2.388.87-1.89.64-3.794 1.232-5.675 1.89-1.007.35-1.978.804-2.97 1.197-.603.237-1.217.445-1.824.67-1.395.52-2.8 1.023-4.183 1.57-1.27.504-2.515 1.065-3.778 1.583-.232.095-.5.103-.665.134-.225.177-.392.37-.603.465-.843.385-1.692.756-2.553 1.097-.278.11-.6.11-.868.228-.29.116-.588.218-.872.35-.407.192-.796.43-1.21.605-1.345.572-2.71 1.102-4.045 1.693-1.537.68-3.045 1.423-4.577 2.112-1.13.507-2.28.964-3.416 1.457-1.326.575-2.645 1.165-3.967 1.75-1.442.638-2.88 1.29-4.33 1.908-.44.188-.934.25-1.38.43-.22.09-.365.356-.583.47-1.554.8-3.098 1.627-4.69 2.345-.464.21-.728.58-.81.905-.13.518-.51.62-.843.825-.67.41-1.35.8-2.032 1.19-.36.207-.73.4-1.096.595-1.116.587-2.238 1.163-3.35 1.76-.367.2-.693.47-1.06.675-1.032.58-2.054 1.19-3.125 1.693-.694.327-1.457.54-2.213.693-.27.055-.703-.126-.89-.345-.238-.278-.065-.632.243-.86 1.61-1.19 3.154-2.482 4.842-3.55 2.038-1.292 4.186-2.413 6.305-3.574 1.853-1.015 3.71-2.025 5.602-2.962 2.014-.998 4.068-1.915 6.11-2.854 2.344-1.077 4.687-2.153 7.04-3.206 2.423-1.083 4.86-2.135 7.288-3.203 1.784-.785 3.56-1.592 5.353-2.352 2.78-1.176 5.568-2.326 8.356-3.477 1.7-.7 3.408-1.392 5.118-2.072.184-.073.406-.047.61-.067-.426.26-.747.665-1.312.715-.368.033-.726.244-1.074.405-.172.08-.298.27-.473.332-.402.145-.823.24-1.234.362-.423.125-.77.366-1.134.618-.332.23-.84.188-1.242.345-.658.256-1.28.606-1.94.857-.358.136-.69.29-1.027.47-.693.37-1.462.594-2.192.893-.704.29-1.396.606-2.1.894-.468.192-1.025.26-1.045.836-.215-.063-.422-.202-.553-.15-.74.29-1.465.62-2.188.95-.35.16-.668.398-1.026.52-.75.257-1.614.285-2.052 1.117-.025.05-.113.07-.176.095-.198.078-.398.15-.63.237-.032-.024-.114-.09-.197-.156l.172.234-.75.43c-.203-.556-.45-.222-.675-.132-.233.175-.47.347-.655.484-.27.043-.547.022-.748.135-.284.16-.514.42-.764.638-.004.034-.01.066-.02.095-.007.012-.044.024-.045.022-.34-.522-.446-.208-.51.076-.14-.037-.306-.14-.385-.094-.338.198-.92.21-.67.893.06-.137.123-.274.19-.42.076.052.196.186.255.163.427-.168.84-.367 1.258-.557l-.085-.185c.266.002.56.08.79-.01.526-.208 1.022-.496 1.554-.762l-.178-.49c.152.112.305.225.477.354.418-.17.87-.353 1.323-.535.275-.11.554-.213.828-.326.485-.2.967-.408 1.45-.61.707-.293 1.418-.58 2.12-.88.452-.196.887-.432 1.343-.616.27-.11.564-.152.847-.224-.653.326-1.302.664-1.96.974-.51.24-1.035.446-1.553.668.024.055.05.11.072.165.204-.09.407-.188.616-.27.46-.18.94-.315 1.377-.535.418-.21.908-.15 1.3-.55.298-.305.854-.354 1.287-.54.09-.038.145-.168.296-.356l-1.452.457.122-.577c.694.268 1.18.036 1.103-.47l.737.166c-.11.134-.22.266-.327.398l.104.077 1.13-.468h-.92c.354-.257.71-.512.985-.71.226-.02.428.025.526-.057.29-.237.495-.332.79.018.095.11.43.043.646.007.057-.01.084-.2.174-.436-.35.14-.55.223-.752.304-.03-.05-.06-.102-.087-.152l.856-.456c.307.575.627.587 1.158.052l-.733-.413 1.852-.5.06.114-.42.323c.132.09.268.117.355.064.803-.48 1.77-.533 2.577-1.037.353-.22.807-.247.67-.843.176.13.367.34.43.308.434-.227 1.032.043 1.373-.49.092-.144.373-.17.57-.242.336-.12.675-.237 1.014-.35.496-.17 1.1-.214 1.47-.53.532-.46 1.186-.51 1.768-.714 1.02-.36 2.03-.736 3.034-1.143.61-.248 1.287-.325 1.917-.53.68-.222 1.337-.505 2.005-.76.46-.175.913-.367 1.38-.518.6-.194 1.214-.34 1.815-.53 1.408-.446 2.806-.93 4.222-1.352.738-.22 1.507-.34 2.277-.51l-.077-.707c.257.497.688.584 1.124.433.748-.26 1.515-.466 2.304-.705v-.487c.182.182.332.44.44.422.373-.056.73-.208 1.195-.357-.01 0 .144.053.277.02.716-.167 1.427-.358 2.14-.54-.137-.447-.068-.508.457-.565.26-.028.507-.168.76-.257-.01-.068-.02-.137-.032-.206-.222-.077-.453-.237-.664-.213-.408.045-.802.205-1.206.297-1.39.318-2.783.622-4.173.942-.543.125-1.078.28-1.555.407v.598c-.15-.554-.62-.474-.902-.405-.862.21-1.682.557-2.57.72-.91.17-1.783.53-2.672.81-.765.237-1.528.476-2.258.703l-.13-.163c-.208.163-.302.276-.42.32-.52.197-1.042.384-1.57.556-.816.265-1.64.516-2.46.773-.804.252-1.61.5-2.412.76-.385.124-.78.252-.723.71-.26 0-.503-.05-.715.01-.762.21-1.513.455-2.268.688-.014.005-.022.04-.033.04-.455-.022-.726.67-1.267.328zm30.894-8.48c-.646.08-1.153.145-1.732.22.105.212.186.346.236.49.057.153.086.317.096.355.615-.074 1.168-.14 1.73-.21.02-.195.02-.195-.68-.352.088-.126.17-.24.35-.503zM61.3 71.06c-.5-.178-2.38.634-2.724 1.14l2.723-1.14zm50.364-16.733l.068-.122c-.048-.146-.123-.29-.14-.438-.026-.263.008-.625-.37-.542-.258.057-.73.077-.62.697.544-.43.752.117 1.062.404zm-3.147-.04c.003-.356-.203-.564-.527-.512-.15.024-.26.31-.39.476l.137.138.78-.103zM68.932 67.615l-.076-.137-1.064.548c.696.34.894-.086 1.14-.412z"/><path fill-rule="evenodd" clip-rule="evenodd" fill="none" d="M59.028 58.206c-1.16.194-2.128-.145-3.04-.607-1.19-.606-2.33-1.32-3.52-1.926-1.596-.814-3.168-1.706-5.113-1.882 0-1.307.004-2.59 0-3.875-.005-1.496-.03-2.992-.02-4.487.014-2.263.268-4.494 1.15-6.6.34-.806.807-1.558 1.223-2.33.037-.07.135-.104.29-.218.265.428.542.82.76 1.245.53 1.028 1.072 2.053 1.534 3.112.447 1.025.805 2.09 1.195 3.14.506 1.352 1.02 2.7 1.502 4.062.542 1.54.998 3.112 1.587 4.634.647 1.67 1.402 3.298 2.11 4.945.104.238.208.476.34.786zM60.963 48.485c-.062-.666-.17-1.22-.16-1.774.037-1.76.03-3.528.2-5.278.23-2.4.598-4.785 1.255-7.115.447-1.592.94-3.167 1.8-4.594.612-1.01 1.26-2 2.194-2.75.338-.27.73-.506 1.135-.65.71-.252 1.408.15 1.896.885.86 1.294 1.042 2.747 1.08 4.24.033 1.314-.285 2.576-.55 3.856-.343 1.668-1.1 3.165-1.734 4.71-.312.758-.823 1.434-1.24 2.148-.38.646-.718 1.318-1.14 1.933-.36.525-.805.998-1.236 1.472-.912 1.003-1.796 2.043-3.04 2.672-.106.052-.21.11-.46.245zM99.25 42.917c3.08-.388 6.098-1.16 9.28-1.39-.58.753-8.392 1.894-9.28 1.39zM102.5 18.15c.22-.06.44-.12.652-.176.164.486.16.496-.242.6l-.4-.44-.01.015zM79.43 62.058c.54.344.812-.35 1.27-.33.01 0 .02-.035.033-.04.754-.232 1.505-.478 2.267-.688.212-.058.454-.01.715-.01-.057-.457.338-.585.723-.71.803-.257 1.608-.506 2.413-.76.82-.257 1.644-.508 2.46-.773.528-.172 1.05-.358 1.57-.555.118-.045.212-.16.42-.32l.13.162 2.258-.704c.89-.277 1.763-.64 2.672-.808.89-.165 1.708-.51 2.57-.72.283-.07.75-.15.902.404v-.6c.477-.124 1.012-.28 1.555-.406 1.39-.32 2.783-.624 4.173-.94.404-.093.798-.253 1.206-.298.21-.023.442.136.664.213.012.068.02.137.033.206-.254.09-.502.23-.762.258-.524.057-.593.118-.457.565-.712.182-1.423.373-2.14.54-.133.033-.286-.02-.276-.02-.466.148-.822.3-1.194.357-.11.017-.26-.24-.44-.42v.486c-.79.238-1.556.445-2.304.705-.438.153-.868.065-1.125-.43l.076.706c-.77.17-1.538.29-2.276.51-1.416.422-2.813.906-4.222 1.352-.602.19-1.216.335-1.814.53-.468.15-.922.34-1.38.517-.67.255-1.327.538-2.007.76-.63.205-1.306.282-1.916.53-1.004.407-2.014.782-3.034 1.142-.582.204-1.235.255-1.77.713-.37.317-.972.36-1.47.53-.338.114-.677.23-1.013.35-.197.072-.48.1-.57.243-.34.533-.94.263-1.373.49-.062.033-.254-.178-.43-.308.137.596-.317.623-.67.843-.806.504-1.774.556-2.577 1.037-.088.053-.224.027-.354-.064.14-.106.28-.215.42-.323l-.062-.115c-.606.165-1.214.33-1.85.5.22.125.476.27.733.414-.53.535-.852.523-1.158-.052l-.856.456c.027.05.057.102.086.152l.752-.303c-.09.234-.117.426-.174.435-.217.036-.55.104-.645-.006-.297-.35-.503-.256-.792-.02-.1.083-.3.038-.527.057-.275.2-.63.454-.985.71l.017-.008-.74-.166c.077.506-.408.738-1.103.47l-.123.577.017-.012c-.283.072-.578.115-.848.224-.456.184-.89.42-1.342.615-.703.303-1.414.588-2.12.882-.484.2-.966.41-1.45.61-.274.112-.553.215-.828.325-.453.182-.905.366-1.322.535l-.475-.353.01.01c.224-.088.472-.422.674.132l.75-.43c-.056-.08-.114-.157-.172-.235.083.065.165.13.196.156.232-.086.433-.16.63-.236.063-.024.15-.046.177-.095.438-.833 1.3-.86 2.052-1.117.358-.123.677-.36 1.025-.52.724-.33 1.448-.66 2.188-.95.13-.052.338.086.553.15.02-.578.577-.645 1.045-.836.703-.288 1.396-.605 2.1-.894.73-.3 1.5-.524 2.192-.892.34-.18.67-.334 1.026-.47.66-.25 1.283-.6 1.94-.857.402-.156.91-.113 1.243-.345.363-.252.71-.493 1.134-.618.41-.122.832-.217 1.234-.362.175-.063.3-.253.473-.332.35-.16.707-.372 1.075-.405.564-.05.886-.454 1.31-.713 0 .003-.015.01-.015.01zM64.956 69.083l1.452-.457c-.15.188-.205.318-.296.357-.433.184-.99.233-1.288.54-.39.4-.88.34-1.3.55-.437.22-.917.355-1.376.534-.21.082-.412.18-.617.27-.022-.055-.047-.11-.07-.165.517-.222 1.042-.428 1.55-.668.66-.31 1.31-.648 1.962-.974l-.016.013zM110.324 53.577l-.35.504c.7.158.7.158.68.354l-1.73.21c-.01-.04-.04-.203-.096-.357-.05-.143-.13-.276-.236-.49l1.732-.22zM54.43 73.176c.252-.216.48-.475.766-.635.2-.11.477-.09.748-.134.187-.137.422-.31.655-.484-.002 0-.012-.01-.012-.012l.176.49c-.53.265-1.027.553-1.555.76-.23.09-.524.013-.79.012l.01.004zM54.42 73.172l.085.185c-.418.19-.83.39-1.258.557-.06.023-.18-.11-.256-.162-.065.146-.128.282-.19.418-.25-.683.334-.694.672-.893.08-.046.246.057.384.095.064-.284.172-.6.51-.076.002.002.04-.01.045-.022.014-.03.02-.062.022-.095-.003-.004-.012-.008-.012-.008zM61.3 71.062c-.95.397-1.8.752-2.724 1.14.343-.506 2.223-1.318 2.723-1.14zM111.664 54.33c-.31-.288-.52-.835-1.062-.405-.107-.62.363-.64.62-.697.38-.083.345.28.372.542.016.15.09.292.14.438l-.07.12zM108.517 54.29l-.78.102-.137-.138c.13-.167.238-.45.39-.476.323-.052.53.156.527.51zM68.932 67.616c-.246.326-.443.75-1.14.412.413-.213.738-.38 1.063-.55.026.047.05.093.077.138zM66.904 68.208h.922l-1.13.468c-.036-.025-.07-.05-.105-.077l.328-.4c.003 0-.014.008-.014.008z"/></g></svg>