<?xml version="1.0" encoding="utf-8"?>
<!-- Generator: Adobe Illustrator 20.1.0, SVG Export Plug-In . SVG Version: 6.00 Build 0)  -->
<svg version="1.1" id="Layer_1" xmlns="http://www.w3.org/2000/svg" xmlns:xlink="http://www.w3.org/1999/xlink" x="0px" y="0px"
	 viewBox="0 0 188.7 188.7" style="enable-background:new 0 0 188.7 188.7;" xml:space="preserve">
<style type="text/css">
	.st0{fill:#FFFFFF;}
</style>
<g transform="matrix(.1 0 0 -.1 -175.7435 435.1935)">
	<g>
		<path class="st0" d="M3644.1,2464.9H2341c-320.9,0-581.9,261.2-581.9,582.3v721c0,321.1,261.1,582.3,581.9,582.3h720.6
			c320.9,0,582-261.2,582-582.3l0.5-1189.9L3644.1,2464.9"/>
		<g>
			<path d="M1870.6,3770.1c0,259.3,210.2,469.5,469.5,469.5h722.1c35.5,0,70.1-3.9,103.4-11.4c-16.4-367.3-278.1-566.7-396-607.9
				c-274.5,122.3-615.8,171.4-899.1,129.7V3770.1"/>
			<path d="M2705.3,2578.5h-365.2c-259.3,0-469.5,210.2-469.5,469.6v503c243.6-33,487.1-140.9,625.5-276.5
				C2479.6,3038.9,2513.4,2855.6,2705.3,2578.5"/>
			<path d="M3331.5,4154.8c121.1-84.9,200.2-225.6,200.2-384.7l0.5-1191.6h-565.2c-95.6,269.5-77.5,476.1-60.8,616
				c26.1,8.6,50.1,20.8,73.5,38.6C3240.9,3416.8,3339.3,3792.8,3331.5,4154.8"/>
		</g>
	</g>
</g>
</svg>
