<svg id="Layer_1" data-name="Layer 1" xmlns="http://www.w3.org/2000/svg" viewBox="0 0 200 200"><defs><style>.cls-1{fill:#909090;}</style></defs><title>media-partner-icons</title><path class="cls-1" d="M10.83,61.93A49.81,49.81,0,0,1,60.64,12.11h76.62a49.88,49.88,0,0,1,11,1.21c-1.74,39-29.51,60.13-42,64.5-29.12-13-65.34-18.19-95.4-13.76V61.93"/><path class="cls-1" d="M99.39,188.36H60.64a49.82,49.82,0,0,1-49.81-49.82V85.17c25.85,3.5,51.68,14.95,66.37,29.34-1.75,25,1.84,44.46,22.2,73.86"/><path class="cls-1" d="M165.83,21.11a49.76,49.76,0,0,1,21.24,40.82l.05,126.43h-60c-10.14-28.59-8.22-50.51-6.45-65.36a26.11,26.11,0,0,0,7.8-4.1c27.71-19.49,38.15-59.38,37.33-97.79"/></svg>