<svg xmlns="http://www.w3.org/2000/svg" xmlns:xlink="http://www.w3.org/1999/xlink" viewBox="0 0 79.92 79.92"><defs><style>.cls-1{fill:none;}.cls-2{fill:url(#linear-gradient);}.cls-3{isolation:isolate;}.cls-4{opacity:0.5;mix-blend-mode:multiply;}.cls-5{clip-path:url(#clip-path);}.cls-6{fill:url(#linear-gradient-2);}.cls-7{opacity:0.8;}.cls-8{clip-path:url(#clip-path-2);}.cls-9{fill:url(#linear-gradient-4);}.cls-10,.cls-11{fill:#fff;}.cls-10{stroke:#fff;stroke-miterlimit:10;stroke-width:1.64px;}</style><linearGradient id="linear-gradient" x1="-1335.23" y1="-358.4" x2="-64.68" y2="375.16" gradientUnits="userSpaceOnUse"><stop offset="0" stop-color="#6e008b"/><stop offset="0.09" stop-color="#6a088f"/><stop offset="0.22" stop-color="#611e99"/><stop offset="0.39" stop-color="#5142aa"/><stop offset="0.58" stop-color="#3b74c1"/><stop offset="0.79" stop-color="#1fb3de"/><stop offset="1" stop-color="#00faff"/></linearGradient><clipPath id="clip-path"><rect class="cls-1" x="-1340.12" y="-349.93" width="1280.33" height="716.62"/></clipPath><linearGradient id="linear-gradient-2" x1="-1267.77" y1="-540.51" x2="633.65" y2="557.27" gradientUnits="userSpaceOnUse"><stop offset="0" stop-color="#6e008b"/><stop offset="0.09" stop-color="#6b088f"/><stop offset="0.22" stop-color="#611e99"/><stop offset="0.38" stop-color="#5242a9"/><stop offset="0.57" stop-color="#3c74c0"/><stop offset="0.78" stop-color="#20b4dd"/><stop offset="1" stop-color="aqua"/></linearGradient><clipPath id="clip-path-2"><rect class="cls-2" x="-1340.12" y="-349.93" width="1280.33" height="716.62"/></clipPath><linearGradient id="linear-gradient-4" x1="-1267.77" y1="-540.51" x2="633.65" y2="557.27" xlink:href="#linear-gradient"/></defs><title>mozilla-festival_home-page_play-button-hover</title><g class="cls-3"><g id="Layer_1" data-name="Layer 1"><g class="cls-4"><g class="cls-5"><rect class="cls-6" x="-1377.8" y="-349.93" width="2121.48" height="716.62"/></g></g><g class="cls-7"><rect class="cls-2" x="-1340.12" y="-349.93" width="1280.33" height="716.62"/><g class="cls-8"><rect class="cls-9" x="-1377.8" y="-349.93" width="2121.48" height="716.62"/></g></g><path class="cls-10" d="M40,.82A39.14,39.14,0,1,0,79.1,40,39.14,39.14,0,0,0,40,.82ZM23.78,62.17V17.74L67.69,40Z"/><path class="cls-11" d="M29.38,36.82h2.39a1.82,1.82,0,0,1,1.27.42,1.69,1.69,0,0,1,0,2.31,1.81,1.81,0,0,1-1.27.42h-1.1v1.78H29.38ZM31.59,39a.8.8,0,0,0,.53-.15.57.57,0,0,0,.17-.46.58.58,0,0,0-.17-.46.78.78,0,0,0-.53-.15h-.92V39Z"/><path class="cls-11" d="M35.18,41.75V36.82h1.29v3.89h2.1v1Z"/><path class="cls-11" d="M44.31,41.75l-.44-1H41.68l-.44,1H39.95l2.3-4.94h1l2.31,4.94Zm-2.21-2h1.36l-.68-1.58Z"/><path class="cls-11" d="M51.09,36.82,49,39.56v2.2H47.71v-2.2l-2.07-2.74h1.45l1.26,1.72,1.27-1.72Z"/></g></g></svg>